<!DOCTYPE svg PUBLIC "-//W3C//DTD SVG 20010904//EN" "http://www.w3.org/TR/2001/REC-SVG-20010904/DTD/svg10.dtd">
<svg version="1.0" xmlns="http://www.w3.org/2000/svg" width="125px" height="250px" viewBox="0 0 1250 2500" preserveAspectRatio="xMidYMid meet">
<g id="layer101" fill="#1e1d1d" stroke="none">
 <path d="M400 2403 c0 -6 -24 -8 -55 -5 -34 3 -60 0 -69 -7 -8 -7 -28 -13 -45 -13 -17 -1 -31 -4 -31 -8 0 -4 -16 -11 -35 -14 -26 -5 -35 -12 -35 -26 0 -11 5 -20 11 -20 13 0 1 -42 -15 -52 -7 -5 -5 -8 6 -8 9 0 27 -5 40 -10 21 -10 23 -16 20 -75 -3 -44 3 -86 18 -137 12 -40 24 -84 27 -98 2 -14 8 -34 13 -45 4 -11 13 -38 19 -61 6 -23 22 -58 36 -78 13 -20 20 -36 15 -36 -6 0 -10 -5 -10 -11 0 -6 7 -8 17 -5 13 5 11 0 -6 -18 -14 -15 -19 -26 -13 -26 6 0 14 5 17 10 16 26 22 6 9 -28 -12 -28 -13 -44 -5 -65 15 -40 38 -34 46 12 4 22 13 42 20 45 11 4 13 -2 8 -26 -4 -19 -2 -29 3 -25 6 3 8 -8 7 -26 -4 -36 9 -63 26 -53 6 4 11 24 12 44 0 30 2 33 9 17 5 -11 9 -15 10 -10 0 6 7 -5 15 -22 16 -38 35 -43 35 -10 0 18 2 19 10 7 8 -12 10 -12 11 5 0 11 7 0 15 -25 14 -44 48 -85 64 -75 10 6 1 44 -17 70 -19 28 -16 41 5 22 25 -22 46 -22 38 1 -5 15 -5 15 6 1 7 -9 20 -16 28 -17 8 0 26 -4 39 -8 22 -7 23 -5 17 19 -5 20 -3 27 9 27 8 0 15 7 15 15 0 13 4 14 21 5 22 -13 42 -4 21 9 -18 11 -4 41 15 34 11 -4 14 -2 11 8 -2 7 10 33 28 56 18 23 41 66 52 95 11 29 27 67 36 83 9 17 16 51 16 76 0 28 6 51 14 59 8 6 22 33 30 58 13 40 14 53 2 92 -12 41 -17 46 -52 54 -69 15 -70 16 -36 36 22 14 32 27 32 45 0 20 5 25 24 25 14 0 28 5 32 11 5 8 -1 10 -20 7 -14 -3 -26 -1 -26 3 0 5 -4 9 -9 9 -14 0 -91 52 -91 61 0 5 -6 6 -13 3 -7 -2 -38 2 -68 10 -31 8 -61 10 -70 5 -9 -4 -26 -5 -37 -2 -12 3 -28 0 -36 -6 -14 -12 -94 -9 -115 3 -6 4 -14 0 -17 -8 -8 -20 -34 -21 -34 -1 0 8 -6 15 -12 15 -7 0 -23 3 -35 6 -13 4 -23 2 -23 -3z m-223 -72 c0 -11 -6 -17 -14 -14 -14 6 -17 16 -6 26 12 13 22 7 20 -12z m703 -135 c0 -2 -7 -6 -15 -10 -8 -3 -15 -1 -15 4 0 6 7 10 15 10 8 0 15 -2 15 -4z"/>
 <path d="M55 2260 c-3 -5 3 -10 14 -10 12 0 24 0 28 -1 4 0 9 4 11 10 5 14 -45 15 -53 1z"/>
 </g>
<g id="layer102" fill="#6e3a39" stroke="none">
 <path d="M400 2403 c0 -6 -24 -8 -55 -5 -34 3 -60 0 -69 -7 -8 -7 -28 -13 -45 -13 -17 -1 -31 -4 -31 -8 0 -4 -16 -11 -35 -14 -41 -8 -46 -29 -12 -59 16 -15 17 -18 5 -14 -12 4 -18 1 -18 -8 0 -8 -6 -15 -12 -16 -7 0 0 -5 15 -9 16 -5 36 -6 45 -3 15 4 15 3 2 -6 -8 -6 -10 -11 -5 -11 6 0 9 -23 8 -52 -4 -75 6 -140 19 -132 7 4 8 2 4 -4 -8 -14 11 -92 23 -92 4 0 6 -13 3 -29 -2 -16 1 -32 7 -35 6 -4 12 -19 12 -34 l1 -27 9 30 c7 27 8 26 5 -10 -3 -40 22 -106 45 -121 6 -3 3 6 -6 22 l-17 29 21 -25 c19 -23 19 -26 4 -37 -9 -7 -14 -16 -10 -19 4 -4 13 -1 21 5 11 9 16 9 22 0 4 -7 3 -9 -3 -6 -6 4 -21 -5 -33 -18 -13 -14 -18 -25 -12 -25 6 0 14 5 17 11 4 6 13 8 20 5 8 -3 16 -1 19 5 2 5 3 4 1 -3 -1 -7 -8 -12 -15 -10 -8 2 -10 -3 -6 -13 3 -9 2 -14 -3 -11 -14 9 -22 -40 -11 -68 13 -35 44 -35 38 -1 -3 13 -1 22 3 19 5 -3 9 4 9 14 0 11 7 22 15 25 11 5 13 0 8 -25 -4 -19 -2 -29 3 -25 6 3 8 -8 7 -26 -4 -36 9 -63 26 -53 6 4 11 24 12 44 0 30 2 33 9 17 5 -11 9 -15 10 -10 0 6 7 -5 15 -22 16 -38 35 -43 35 -10 0 18 2 19 10 7 8 -12 10 -12 11 5 0 11 7 0 15 -25 14 -44 48 -85 64 -75 10 6 1 44 -17 70 -19 28 -16 41 5 22 25 -22 46 -22 38 1 -5 15 -5 15 6 1 7 -9 20 -16 28 -17 8 0 26 -4 39 -8 22 -7 23 -5 17 19 -5 20 -3 27 9 27 8 0 15 7 15 15 0 13 4 14 21 5 22 -13 42 -4 21 9 -18 11 -4 41 16 34 11 -5 14 -2 9 9 -3 10 3 24 14 34 11 10 17 24 15 31 -3 7 0 15 6 19 7 5 8 2 4 -7 -4 -8 0 -5 8 6 9 11 14 25 11 33 -2 7 -1 11 4 7 12 -7 35 61 25 76 -5 8 -3 9 6 4 9 -5 10 -2 6 13 -4 11 -2 23 3 27 7 3 8 0 5 -9 -3 -9 -3 -16 0 -16 12 0 25 49 27 104 1 30 6 53 11 50 13 -8 40 65 33 89 -5 17 -4 19 4 7 14 -20 13 -4 -3 50 -12 41 -17 46 -52 54 -69 15 -70 16 -36 36 22 14 32 27 32 45 0 20 5 25 24 25 14 0 28 5 32 11 5 8 -1 10 -20 7 -14 -3 -26 -1 -26 3 0 5 -4 9 -9 9 -14 0 -91 52 -91 61 0 5 -6 6 -13 3 -7 -2 -38 2 -68 10 -31 8 -61 10 -70 5 -9 -4 -26 -5 -37 -2 -12 3 -28 0 -36 -6 -14 -12 -94 -9 -115 3 -6 4 -14 0 -17 -8 -8 -20 -34 -21 -34 -1 0 8 -6 15 -12 15 -7 0 -23 3 -35 6 -13 4 -23 2 -23 -3z m-6 -31 c6 -3 20 -8 30 -9 11 -2 27 -9 35 -16 9 -8 32 -14 51 -15 28 -1 31 1 15 8 -16 7 -13 9 18 9 28 1 36 -2 31 -11 -4 -7 -4 -10 1 -6 4 4 14 3 21 -3 10 -8 20 -6 40 10 20 16 41 21 84 21 62 0 123 -17 114 -31 -3 -5 1 -6 9 -3 17 6 57 -40 57 -65 0 -14 -2 -14 -10 -1 -5 8 -10 10 -10 5 0 -6 6 -17 13 -24 10 -11 9 -13 -5 -8 -11 4 -17 2 -15 -6 1 -7 -10 -13 -25 -15 -24 -3 -28 1 -38 37 -11 40 -22 47 -55 35 -15 -6 -15 -8 1 -25 16 -18 15 -18 -16 -14 -27 3 -31 1 -25 -13 15 -37 16 -51 5 -69 -10 -16 -10 -16 -5 5 7 23 -10 32 -18 10 -2 -7 -8 0 -12 15 -7 25 -8 26 -20 10 -9 -12 -10 -22 -2 -34 6 -10 14 -16 18 -14 3 3 6 -12 5 -31 -2 -23 -9 -40 -21 -46 -15 -9 -17 -8 -12 6 6 15 4 15 -25 0 -28 -15 -32 -15 -47 1 -15 16 -14 17 6 11 21 -7 22 -4 20 41 -2 47 -3 48 -35 50 -19 1 -43 9 -54 19 -19 18 -19 18 -12 -10 5 -21 4 -27 -5 -22 -6 4 -11 14 -11 22 0 9 -6 14 -12 11 -7 -2 -12 -12 -12 -21 1 -10 0 -15 -3 -12 -12 12 -34 -25 -28 -46 5 -18 4 -20 -4 -8 -6 8 -14 36 -17 62 -5 34 -10 45 -20 41 -8 -3 -12 -9 -9 -13 3 -5 1 -11 -5 -15 -5 -3 -11 -16 -11 -28 -1 -17 -2 -18 -6 -4 -2 9 -9 15 -14 12 -17 -11 -9 -58 14 -83 l22 -25 -31 22 c-32 23 -61 102 -50 138 3 10 0 25 -7 34 -12 16 -48 22 -57 9 -3 -4 -16 -3 -30 3 -20 8 -22 11 -7 14 9 3 17 9 17 14 0 10 -2 10 -38 14 -28 3 -36 10 -27 24 10 18 28 12 21 -6 -6 -17 -5 -17 8 0 7 9 31 23 52 31 42 14 140 20 158 8z m224 -7 c2 -1 -3 -5 -10 -8 -8 -2 -23 2 -33 10 -19 13 -18 14 10 7 17 -4 31 -8 33 -9z m256 -173 c-6 -4 -10 -15 -8 -24 2 -15 -1 -16 -19 -7 -32 17 -35 23 -10 15 18 -6 22 -4 17 8 -4 11 0 16 12 16 12 0 15 -3 8 -8z m28 -59 c6 -8 4 -11 -7 -9 -8 1 -15 5 -15 9 2 50 2 52 7 32 3 -11 9 -25 15 -32z m-373 20 c0 -10 3 -34 6 -53 l6 -35 -16 40 c-8 22 -13 46 -10 53 6 17 14 15 14 -5z m326 -93 c16 -17 16 -20 3 -15 -9 4 -19 13 -22 21 -7 19 -2 18 19 -6z m70 -50 c10 -11 16 -20 13 -20 -3 0 -13 9 -23 20 -10 11 -16 20 -13 20 3 0 13 -9 23 -20z m-155 -37 c0 -20 -3 -24 -9 -14 -7 11 -10 9 -16 -8 -4 -13 -9 -20 -12 -18 -5 6 25 67 32 67 3 0 5 -12 5 -27z m45 -71 l29 -37 -30 28 c-17 15 -35 27 -42 27 -7 0 -12 5 -12 10 0 21 26 7 55 -28z m-182 -42 c-15 -16 -32 -30 -36 -30 -5 0 -22 -9 -38 -21 -33 -24 -38 -18 -9 11 11 11 28 20 39 20 10 0 26 11 35 25 9 14 21 25 27 25 6 0 -2 -13 -18 -30z m77 -15 c0 -8 -4 -15 -10 -15 -5 0 -7 7 -4 15 4 8 8 15 10 15 2 0 4 -7 4 -15z m-336 -20 c-4 -10 -11 -10 -29 -1 -21 9 -22 12 -7 17 23 8 42 0 36 -16z m133 -27 c-8 -5 -6 -9 7 -14 11 -4 28 1 47 15 22 17 29 18 29 7 0 -18 -56 -59 -84 -62 -33 -2 -39 6 -19 28 10 11 17 22 16 24 -2 2 -3 12 -3 22 0 14 2 15 10 2 6 -9 5 -17 -3 -22z m-41 -68 c35 0 29 -16 -8 -24 -30 -6 -31 -8 -14 -18 28 -16 90 6 125 44 35 38 53 31 22 -8 -11 -15 -21 -32 -21 -39 0 -40 -118 -38 -162 3 -35 33 -39 58 -5 41 20 -11 21 -11 8 4 -7 10 -20 17 -27 17 -8 0 -14 7 -14 15 0 11 9 8 36 -10 20 -14 47 -25 60 -25z m209 -65 l30 -13 -39 4 c-22 1 -46 10 -55 19 -15 16 -14 17 9 10 14 -4 39 -13 55 -20z m-180 -84 c3 -5 1 -12 -5 -16 -5 -3 -10 1 -10 9 0 18 6 21 15 7z m212 -19 c8 -5 8 -11 -1 -23 -10 -15 -13 -14 -23 7 -12 25 -1 32 24 16z"/>
 <path d="M223 2350 c-23 -9 -32 -30 -13 -30 6 0 10 6 10 13 0 9 3 8 9 -2 6 -9 11 -10 15 -2 4 6 4 11 -1 11 -4 0 -1 5 7 10 19 12 3 12 -27 0z"/>
 <path d="M667 2343 c-10 -3 -16 -10 -14 -16 5 -15 38 -22 46 -9 3 5 20 14 36 20 l30 10 -40 0 c-22 0 -48 -2 -58 -5z"/>
 <path d="M270 2330 c-8 -5 -10 -10 -4 -10 6 0 21 -9 34 -20 13 -11 32 -20 44 -20 20 1 20 1 -3 14 -18 10 -20 15 -11 21 11 7 9 10 -6 16 -26 10 -37 10 -54 -1z"/>
 <path d="M374 2265 c-17 -13 -14 -14 41 -13 49 1 52 2 17 5 -23 2 -40 8 -37 14 9 13 2 11 -21 -6z"/>
 <path d="M520 2236 c0 -3 9 -10 20 -16 11 -6 20 -8 20 -6 0 3 -9 10 -20 16 -11 6 -20 8 -20 6z"/>
 <path d="M450 2220 c0 -5 4 -10 9 -10 6 0 13 5 16 10 3 6 -1 10 -9 10 -9 0 -16 -4 -16 -10z"/>
 <path d="M615 2172 c3 -38 15 -58 25 -42 9 15 2 46 -15 60 -10 8 -12 4 -10 -18z"/>
 <path d="M55 2260 c-3 -5 3 -10 14 -10 12 0 24 0 28 -1 4 0 9 4 11 10 5 14 -45 15 -53 1z"/>
 </g>
<g id="layer103" fill="#65595a" stroke="none">
 <path d="M400 2403 c0 -6 -24 -8 -55 -5 -34 3 -60 0 -69 -7 -8 -7 -28 -13 -45 -13 -17 -1 -31 -4 -31 -8 0 -4 -16 -11 -35 -14 -26 -5 -35 -12 -35 -26 0 -11 5 -20 11 -20 13 0 1 -42 -15 -52 -7 -5 -4 -8 7 -8 30 0 77 -29 76 -48 0 -14 -2 -14 -9 3 -5 13 -8 -6 -7 -52 0 -40 3 -70 7 -68 4 2 5 -7 2 -22 -3 -17 -1 -24 6 -19 6 4 8 -2 4 -16 -3 -13 -1 -19 5 -15 6 4 8 -3 6 -17 -3 -13 1 -29 9 -37 8 -7 12 -25 10 -40 -2 -14 1 -30 7 -33 6 -4 12 -19 12 -34 l1 -27 7 29 c6 28 7 28 21 11 12 -15 12 -17 1 -10 -11 7 -13 2 -8 -26 5 -24 4 -30 -3 -19 -17 26 -11 1 10 -40 11 -21 24 -41 30 -45 5 -3 1 10 -11 29 -12 20 -19 36 -16 36 3 0 14 -16 26 -35 19 -32 19 -35 3 -44 -9 -5 -14 -13 -10 -17 4 -4 13 -2 20 4 21 17 57 -18 47 -46 -5 -12 -11 -22 -13 -22 -3 0 -3 7 1 15 3 10 0 15 -8 13 -22 -5 -28 -19 -23 -53 4 -24 3 -26 -5 -10 -13 27 -14 3 -1 -29 14 -39 37 -32 45 12 6 40 38 71 51 50 4 -6 3 -8 -4 -4 -6 3 -13 -2 -16 -12 -6 -18 7 -108 17 -118 13 -13 27 10 28 44 1 20 3 29 6 19 6 -23 23 -12 23 16 0 16 3 18 12 9 8 -8 8 -15 -2 -27 -10 -12 -10 -21 -2 -40 14 -31 32 -32 32 -2 0 16 3 19 9 8 7 -11 10 -10 14 5 4 16 5 17 6 2 0 -10 6 -18 12 -18 5 0 7 6 3 13 -5 8 -2 8 9 -2 13 -10 17 -11 17 -1 0 9 5 8 18 -3 21 -19 42 -22 42 -7 0 5 -8 7 -17 4 -15 -5 -16 -4 -3 5 11 8 18 7 25 -3 6 -7 17 -13 25 -14 8 0 26 -4 39 -8 22 -7 23 -5 17 19 -5 20 -3 27 9 27 8 0 15 7 15 15 0 13 4 14 21 5 22 -13 42 -4 21 9 -17 10 -4 41 14 34 11 -4 14 1 10 21 -3 15 -1 24 3 21 12 -7 34 22 27 34 -4 5 -1 13 5 17 8 4 9 3 5 -4 -4 -7 -5 -12 -2 -12 13 0 45 80 39 96 -5 12 -3 15 6 9 10 -6 11 -2 6 15 -4 14 -3 20 3 16 16 -9 42 57 42 107 0 28 6 49 15 57 9 7 14 19 11 27 -4 9 -1 11 6 7 7 -5 9 0 6 14 -4 12 -3 20 2 17 15 -10 19 41 6 85 -11 35 -18 45 -34 44 -12 0 -19 3 -16 8 3 4 -8 8 -24 8 -42 0 -46 11 -12 31 21 13 30 27 30 44 0 20 5 25 24 25 14 0 28 5 32 11 5 8 -1 10 -20 7 -14 -3 -26 -1 -26 3 0 5 -4 9 -9 9 -14 0 -91 52 -91 61 0 5 -6 6 -13 3 -7 -2 -38 2 -68 10 -31 8 -61 10 -70 5 -9 -4 -26 -5 -37 -2 -12 3 -28 0 -36 -6 -14 -12 -94 -9 -115 3 -6 4 -14 0 -17 -8 -8 -20 -34 -21 -34 -1 0 8 -6 15 -12 15 -7 0 -23 3 -35 6 -13 4 -23 2 -23 -3z m55 -53 c20 -18 28 -21 37 -12 16 16 80 15 104 -2 17 -13 21 -12 38 2 12 12 43 19 96 22 43 3 76 2 74 -2 -2 -4 6 -10 18 -13 64 -20 102 -101 59 -125 -38 -20 -57 -12 -74 30 -15 38 -39 52 -52 30 -4 -6 -1 -18 7 -27 11 -14 11 -16 -4 -11 -20 8 -32 -15 -29 -59 2 -19 -2 -33 -9 -33 -7 0 -9 8 -5 20 3 11 2 20 -3 20 -13 0 -33 -57 -26 -75 7 -18 -21 -61 -31 -46 -3 6 -3 16 1 22 4 7 -7 4 -24 -6 -24 -14 -34 -16 -45 -7 -16 14 -27 6 -27 -20 0 -10 -5 -18 -10 -18 -6 0 -9 3 -8 8 0 4 -2 16 -6 27 -4 11 -13 32 -18 48 -8 20 -7 31 2 42 13 16 7 45 -9 45 -6 0 -8 -7 -5 -15 4 -8 3 -23 -2 -32 -6 -14 -9 -11 -14 17 -7 31 -8 33 -15 13 -4 -13 -11 -20 -16 -17 -12 7 -11 -19 1 -34 7 -9 7 -9 -2 -2 -20 16 -30 11 -23 -11 5 -15 4 -19 -4 -15 -6 4 -11 18 -11 32 0 13 -4 24 -9 24 -5 0 -7 9 -4 20 4 16 2 19 -11 14 -9 -3 -16 -14 -16 -24 0 -11 -4 -22 -10 -25 -5 -3 -10 1 -10 10 0 9 -4 13 -10 10 -15 -9 -12 -61 5 -75 8 -7 15 -8 15 -3 0 5 6 17 13 28 13 17 14 17 12 -3 -1 -12 -4 -25 -8 -28 -12 -12 -8 -24 8 -24 17 0 38 -36 31 -53 -2 -7 -5 -5 -5 5 -1 9 -23 33 -51 53 -27 20 -50 41 -50 45 0 5 -5 21 -12 37 -6 15 -10 32 -9 36 0 4 -4 18 -11 30 -7 12 -11 29 -10 37 2 9 -6 16 -18 17 -11 1 -20 -3 -20 -8 0 -6 -5 -7 -10 -4 -6 3 -20 3 -31 0 -17 -6 -19 -9 -8 -16 9 -6 10 -9 2 -9 -19 0 -26 20 -9 26 9 3 14 10 11 14 -3 5 3 13 12 19 14 8 15 11 3 11 -49 4 -66 13 -55 29 10 18 28 12 21 -6 -6 -17 -5 -17 8 0 24 31 85 47 169 44 65 -3 81 -8 102 -27z m163 15 c2 -1 -4 -5 -12 -8 -8 -3 -22 1 -33 9 -17 13 -16 14 12 8 17 -4 31 -8 33 -9z m182 -178 c0 -5 -4 -5 -10 -2 -5 3 -10 14 -10 23 0 15 2 15 10 2 5 -8 10 -19 10 -23z m75 5 c-10 -6 -11 -18 -6 -39 2 -5 6 1 11 12 8 20 9 19 9 -1 1 -12 11 -29 24 -38 14 -10 16 -14 5 -10 -19 6 -24 -5 -10 -21 4 -6 -11 10 -33 34 l-41 44 -12 -54 c-7 -30 -21 -67 -32 -84 -25 -38 -25 -30 0 22 11 22 22 59 26 82 6 35 10 41 25 36 14 -5 17 -2 13 9 -4 11 0 16 12 16 11 0 15 -3 9 -8z m85 -64 c0 -6 -6 -5 -15 2 -8 7 -15 14 -15 16 0 2 7 1 15 -2 8 -4 15 -11 15 -16z m-733 -20 c-3 -7 -5 -2 -5 12 0 14 2 19 5 13 2 -7 2 -19 0 -25z m703 -103 c7 -8 20 -15 29 -16 10 0 11 -2 4 -6 -7 -2 -13 -12 -13 -21 0 -9 -8 -2 -18 17 -9 19 -35 44 -56 55 -22 12 -42 28 -44 34 -4 14 78 -39 98 -63z m-332 3 c-2 -12 -10 -24 -18 -26 -13 -5 -13 -3 -1 12 13 15 13 19 0 27 -11 7 -11 9 4 9 13 0 17 -6 15 -22z m-211 -25 c1 -22 -1 -24 -8 -10 -6 9 -7 22 -4 27 9 14 10 13 12 -17z m394 -37 c5 -6 20 -26 35 -43 14 -18 23 -39 21 -45 -4 -9 -6 -7 -6 3 -1 21 -34 50 -59 52 -17 1 -20 6 -16 32 l5 30 -15 -25 c-21 -34 -20 -16 1 23 17 31 18 31 21 8 2 -13 8 -29 13 -35z m-388 -47 c18 -1 19 -2 4 -6 -19 -5 -57 22 -57 41 0 6 7 0 16 -12 8 -12 25 -23 37 -23z m212 1 c-3 -5 -16 -15 -28 -21 -21 -10 -21 -9 2 10 25 23 36 27 26 11z m63 -14 c-10 -7 -18 -22 -18 -32 0 -16 -2 -17 -11 -4 -8 12 -10 10 -5 -9 5 -26 -23 -103 -43 -115 -6 -4 -9 -12 -6 -17 4 -5 2 -9 -3 -9 -6 0 -8 -9 -5 -20 6 -21 -12 -50 -30 -50 -6 0 -2 6 9 14 10 8 16 18 12 22 -4 4 -13 2 -20 -3 -18 -14 -81 -25 -73 -13 3 5 -1 7 -9 4 -22 -9 -85 55 -93 95 l-6 33 28 -18 c33 -21 75 -29 75 -14 0 5 -7 10 -16 10 -8 0 -12 5 -9 10 4 6 10 8 14 6 4 -3 16 9 26 25 20 29 35 37 35 19 0 -7 7 -7 21 1 15 8 18 14 10 22 -6 6 -11 16 -11 22 0 5 5 2 11 -7 14 -25 56 -23 69 3 6 11 21 24 33 29 31 12 35 11 15 -4z m42 -36 c0 -11 -4 -20 -9 -20 -5 0 -7 9 -4 20 3 11 7 20 9 20 2 0 4 -9 4 -20z m222 -12 c-7 -7 -12 -8 -12 -2 0 14 12 26 19 19 2 -3 -1 -11 -7 -17z m-542 -14 c0 -3 -4 -2 -10 1 -5 3 -10 2 -10 -4 0 -7 -9 -6 -26 1 -23 11 -24 13 -7 19 17 6 53 -5 53 -17z m470 -10 c0 -8 -4 -14 -9 -14 -11 0 -22 26 -14 34 9 9 23 -3 23 -20z m-177 -151 c34 -17 36 -26 2 -13 -14 5 -31 7 -38 4 -7 -2 -22 5 -32 16 -19 21 -19 21 10 14 17 -4 42 -13 58 -21z m-241 -75 c-6 -6 -12 -4 -16 7 -3 9 -2 13 4 10 6 -3 10 0 11 7 0 10 2 10 6 0 3 -8 1 -18 -5 -24z m271 25 c-7 -2 -21 -2 -30 0 -10 3 -4 5 12 5 17 0 24 -2 18 -5z m-68 -53 c10 -11 16 -20 13 -20 -3 0 -13 9 -23 20 -10 11 -16 20 -13 20 3 0 13 -9 23 -20z m86 6 c4 2 10 0 14 -6 3 -5 -3 -10 -15 -10 -11 0 -23 -6 -26 -14 -3 -8 -12 -12 -20 -9 -8 3 -11 9 -8 15 3 5 -2 16 -12 23 -17 12 -14 13 20 5 22 -5 43 -7 47 -4z m-371 -6 c0 -5 -4 -10 -10 -10 -5 0 -10 5 -10 10 0 6 5 10 10 10 6 0 10 -4 10 -10z m74 -35 c3 -8 1 -15 -4 -15 -6 0 -10 7 -10 15 0 8 2 15 4 15 2 0 6 -7 10 -15z"/>
 <path d="M209 2340 c-7 -5 -10 -13 -5 -17 5 -4 11 -3 13 4 2 7 11 9 19 6 8 -3 14 -3 14 0 0 10 -27 15 -41 7z"/>
 <path d="M667 2338 c-32 -18 -7 -26 35 -11 24 8 44 16 46 18 8 8 -66 2 -81 -7z"/>
 <path d="M275 2329 c-11 -4 -15 -8 -9 -8 6 -1 21 -10 34 -21 13 -11 30 -20 39 -20 15 1 15 2 0 13 -9 7 -14 17 -12 23 5 15 -27 23 -52 13z"/>
 <path d="M389 2257 c5 -5 19 -7 32 -5 20 3 19 5 -9 9 -20 3 -29 2 -23 -4z"/>
 <path d="M455 2220 c4 -6 11 -8 16 -5 14 9 11 15 -7 15 -8 0 -12 -5 -9 -10z"/>
 <path d="M665 2198 c-4 -9 -2 -24 3 -33 12 -23 22 2 12 30 -7 18 -9 18 -15 3z"/>
 <path d="M547 2169 c5 -17 3 -20 -7 -14 -10 6 -12 1 -7 -25 4 -18 7 -40 7 -49 0 -11 7 -8 24 12 21 24 25 26 28 10 3 -17 4 -17 10 -1 5 12 -3 29 -27 53 -27 30 -32 32 -28 14z"/>
 <path d="M576 2175 c4 -8 8 -15 10 -15 2 0 4 7 4 15 0 8 -4 15 -10 15 -5 0 -7 -7 -4 -15z"/>
 <path d="M618 2165 c2 -14 8 -28 13 -31 15 -9 10 33 -5 45 -11 9 -12 6 -8 -14z"/>
 <path d="M604 1818 c-4 -7 -14 -24 -23 -38 -14 -23 -13 -23 17 4 18 17 32 33 32 38 0 12 -18 9 -26 -4z"/>
 <path d="M485 1709 l-40 -18 33 -1 c36 0 72 15 72 30 0 14 -19 11 -65 -11z"/>
 <path d="M55 2260 c-3 -5 3 -10 14 -10 12 0 24 0 28 -1 4 0 9 4 11 10 5 14 -45 15 -53 1z"/>
 <path d="M320 1675 c-13 -14 -18 -25 -12 -25 6 0 14 5 17 11 4 6 13 8 21 5 8 -3 14 1 14 9 0 25 -17 25 -40 0z"/>
 <path d="M565 1502 c-17 -18 34 -90 54 -77 13 7 -4 61 -17 58 -6 -2 -9 3 -6 10 5 13 -20 20 -31 9z m38 -35 c4 3 7 -1 7 -10 0 -22 -3 -21 -26 5 -12 14 -13 18 -3 10 9 -6 19 -9 22 -5z"/>
 </g>
<g id="layer104" fill="#8b767b" stroke="none">
 <path d="M400 2403 c0 -5 -26 -7 -59 -5 -36 3 -61 0 -65 -7 -5 -7 16 -10 68 -9 71 2 77 0 106 -27 27 -26 30 -27 31 -9 0 10 3 14 5 7 4 -8 13 -9 29 -3 12 5 33 6 46 3 21 -6 22 -4 11 9 -10 13 -10 17 0 21 7 3 -4 3 -25 1 -28 -3 -37 -1 -32 8 4 7 0 5 -8 -4 -17 -22 -37 -23 -37 -3 0 8 -6 15 -12 15 -7 0 -23 3 -35 6 -13 4 -23 2 -23 -3z"/>
 <path d="M709 2399 c-8 -4 -24 -6 -36 -3 -26 7 -72 -20 -50 -29 8 -3 53 -5 100 -4 47 1 83 -1 80 -5 -2 -5 2 -8 10 -8 8 0 26 -9 41 -21 14 -11 30 -18 35 -14 14 8 62 -5 55 -16 -3 -5 -14 -4 -25 2 -23 12 -35 6 -23 -12 4 -7 8 -25 8 -40 1 -24 -4 -30 -29 -36 -16 -4 -33 -8 -37 -9 -5 -1 -11 -2 -14 -3 -4 0 -1 -8 6 -16 8 -9 21 -13 36 -9 15 4 24 2 24 -6 0 -10 24 -40 32 -40 2 0 4 9 4 20 0 11 -6 20 -13 20 -6 0 -14 4 -17 8 -2 4 11 6 31 4 20 -3 30 -8 24 -12 -9 -5 -6 -17 9 -42 16 -28 18 -41 11 -61 -5 -14 -7 -28 -4 -31 4 -3 3 -6 0 -6 -4 0 -21 12 -38 28 -17 15 -35 26 -40 25 -5 -2 -11 8 -15 21 -6 26 -44 67 -44 48 0 -29 26 -72 71 -114 27 -27 53 -48 58 -48 16 0 44 87 37 117 -5 21 -4 24 4 13 8 -11 9 -8 4 15 -10 43 -11 44 -52 50 -65 11 -68 14 -34 35 22 14 32 27 32 45 0 20 5 25 24 25 14 0 28 5 32 11 5 8 -1 10 -20 7 -14 -3 -26 -1 -26 3 0 5 -4 9 -9 9 -12 0 -91 52 -91 59 0 3 -12 6 -27 7 -16 0 -47 5 -69 11 -23 6 -48 7 -55 2z m31 -19 c0 -5 -8 -10 -17 -10 -15 0 -16 2 -3 10 19 12 20 12 20 0z m186 -125 c-1 -8 -5 -17 -8 -21 -5 -4 -4 16 1 34 3 9 9 -1 7 -13z m-46 -59 c0 -2 -7 -6 -15 -10 -8 -3 -15 -1 -15 4 0 6 7 10 15 10 8 0 15 -2 15 -4z"/>
 <path d="M200 2370 c0 -4 -16 -11 -35 -14 -26 -5 -35 -12 -35 -26 0 -11 5 -20 11 -20 12 0 2 -42 -13 -51 -6 -4 2 -9 16 -11 18 -4 26 -1 26 8 0 8 5 14 10 14 6 0 10 6 10 14 0 8 5 16 10 18 6 2 1 9 -11 16 -12 8 -18 9 -15 3 5 -7 1 -8 -9 -5 -19 8 -15 29 6 30 8 0 25 5 39 11 14 6 32 13 40 15 8 3 0 6 -17 5 -18 0 -33 -3 -33 -7z m-30 -90 c0 -5 -4 -10 -10 -10 -5 0 -10 5 -10 10 0 6 5 10 10 10 6 0 10 -4 10 -10z"/>
 <path d="M762 2282 c-9 -7 -6 -15 13 -36 21 -23 25 -36 24 -84 l-1 -57 -8 54 c-14 92 -60 110 -60 23 -1 -44 -2 -46 -15 -28 -15 20 -16 19 -19 -26 -1 -16 2 -24 9 -20 5 3 -1 -6 -15 -21 -22 -24 -26 -25 -37 -10 -10 13 -15 14 -28 3 -9 -7 -25 -10 -41 -6 -22 6 -25 4 -22 -16 2 -15 11 -24 26 -26 29 -4 26 -29 -7 -50 -23 -16 -23 -15 -17 4 3 12 3 29 0 39 -7 17 -8 17 -21 -1 -14 -18 -15 -18 -13 6 1 14 1 27 0 30 -1 3 -4 19 -6 35 -7 41 -24 57 -24 22 l0 -27 -30 32 c-23 23 -30 27 -30 14 0 -10 5 -27 11 -38 8 -14 8 -23 0 -31 -8 -8 -11 -8 -12 1 -3 28 -5 32 -15 42 -8 8 -13 7 -17 -4 -4 -9 -2 -16 3 -16 6 0 9 -3 9 -7 -3 -21 3 -32 21 -38 12 -4 20 -15 19 -28 0 -12 -3 -16 -6 -9 -8 21 -21 13 -28 -18 -8 -35 -20 -39 -28 -8 -4 12 -9 19 -12 16 -4 -3 1 -20 9 -37 9 -16 16 -36 16 -43 0 -7 -9 4 -20 25 -28 52 -27 71 5 63 15 -4 25 -2 25 4 0 18 -20 50 -31 50 -19 0 -79 63 -79 84 -1 21 -1 21 -16 1 -15 -19 -16 -17 -10 30 4 34 3 44 -3 30 l-10 -20 -1 20 c-1 11 -2 27 -1 37 3 25 -19 32 -35 12 -7 -11 -18 -32 -23 -49 -5 -17 -10 -22 -10 -12 -1 10 6 31 14 46 14 27 13 29 -5 24 -11 -3 -18 -9 -15 -13 3 -5 -1 -11 -7 -13 -7 -3 -8 -6 -3 -6 6 -1 10 -33 10 -76 0 -44 3 -69 8 -62 5 7 7 3 3 -13 -8 -35 4 -76 16 -58 7 9 8 5 4 -14 -7 -32 2 -60 17 -51 7 4 8 -6 4 -29 -3 -20 -2 -40 3 -44 5 -5 10 -20 13 -34 4 -21 4 -20 6 8 1 31 21 47 21 17 0 -17 36 -39 51 -30 6 5 5 15 -5 31 -9 13 -16 30 -16 38 0 24 22 30 37 10 8 -10 18 -20 23 -20 6 -1 17 -2 25 -3 19 -1 20 -21 1 -21 -7 0 -25 9 -40 21 -14 11 -26 15 -26 9 0 -17 21 -54 36 -63 17 -10 18 -34 2 -40 -9 -3 -6 -12 11 -28 l23 -24 -4 37 c-2 20 0 34 4 32 4 -3 8 -21 8 -40 0 -29 3 -34 23 -34 20 1 21 1 3 11 -17 11 -17 12 5 23 13 6 24 19 24 28 0 9 4 20 9 25 5 4 6 3 2 -4 -9 -16 10 -17 20 -2 5 8 9 8 14 -1 13 -20 32 -2 20 20 -7 13 -6 19 5 24 24 9 17 34 -20 72 -19 19 -35 41 -35 49 0 18 8 18 40 0 20 -11 21 -14 7 -15 -12 0 -17 -6 -15 -17 2 -14 15 -19 51 -21 26 -2 47 -8 47 -13 0 -6 -13 -24 -30 -41 -16 -16 -30 -34 -30 -39 0 -20 38 -8 65 21 33 35 56 39 48 10 -3 -11 -9 -18 -13 -15 -12 7 -20 -48 -9 -61 5 -6 7 -18 3 -27 -3 -8 -1 -18 5 -22 8 -4 6 -11 -4 -21 -17 -18 -11 -34 12 -34 12 0 13 -3 4 -14 -9 -11 -6 -15 14 -20 28 -7 67 -41 57 -50 -3 -3 -22 -6 -43 -6 -29 0 -45 7 -68 31 -33 32 -37 44 -21 52 6 3 5 4 -2 3 -13 -3 -14 -10 -2 -61 7 -27 6 -29 -10 -16 -15 13 -146 26 -146 15 0 -3 5 -14 10 -25 6 -11 7 -19 1 -19 -5 0 -12 -7 -15 -16 -3 -8 -2 -12 4 -9 6 3 10 -1 10 -10 0 -9 5 -13 11 -9 6 3 9 23 7 43 -3 35 -2 36 19 26 15 -6 18 -11 9 -13 -8 -2 -12 -11 -9 -22 3 -11 9 -18 13 -15 4 2 5 -7 2 -22 -3 -17 -1 -24 6 -19 6 3 13 0 15 -6 5 -12 11 16 8 34 0 5 7 6 17 4 49 -9 71 -20 81 -39 10 -19 11 -19 6 -2 -4 18 -4 18 7 4 7 -9 21 -16 31 -16 20 0 10 13 -24 31 -12 6 -28 21 -36 33 -15 22 -14 22 44 16 59 -6 87 -18 77 -34 -3 -5 0 -9 5 -9 12 0 15 27 4 32 -5 2 19 30 51 63 54 54 68 60 27 11 -9 -11 -11 -16 -4 -12 7 3 22 21 35 38 12 17 17 28 10 24 -17 -10 -15 -3 10 48 12 25 26 42 31 39 5 -3 6 3 3 14 -4 11 2 39 13 63 14 32 20 38 23 24 3 -11 5 2 6 28 0 32 7 56 21 74 12 15 21 32 21 38 -1 6 -8 -1 -16 -16 -8 -16 -19 -28 -24 -28 -6 0 -10 -10 -11 -22 0 -17 -3 -14 -12 12 -9 26 -23 40 -54 55 -23 11 -46 29 -51 40 -8 17 -11 14 -35 -26 -15 -25 -27 -51 -27 -58 0 -18 28 -43 40 -36 5 3 10 -1 10 -10 0 -10 -5 -13 -12 -9 -16 9 20 -35 46 -57 19 -16 18 -16 -7 -16 -15 0 -27 5 -27 11 0 20 -16 36 -38 41 -14 2 -22 -1 -22 -10 0 -8 -5 -17 -11 -20 -7 -5 -8 5 -4 32 5 33 5 35 -6 18 -7 -11 -18 -39 -24 -63 -10 -40 -12 -41 -30 -27 -17 12 -17 14 -2 9 13 -5 17 -1 17 15 0 12 9 39 20 61 24 46 28 90 5 50 -19 -33 -19 -4 -1 32 20 39 23 73 7 91 -7 9 -11 22 -9 29 4 11 40 -43 38 -57 -1 -2 -5 -19 -10 -36 -8 -28 -7 -29 7 -17 9 7 25 33 36 56 29 68 22 223 -11 222 -4 0 -13 -4 -20 -8z m-523 -133 c1 8 4 12 7 8 3 -3 2 -12 -2 -19 -5 -7 -9 -16 -9 -20 0 -5 -4 -8 -10 -8 -10 0 -11 9 -6 53 3 21 3 21 11 -3 4 -14 8 -19 9 -11z m408 -161 c-3 -7 -5 -2 -5 12 0 14 2 19 5 13 2 -7 2 -19 0 -25z m-149 -68 c-4 -43 -18 -45 -34 -5 -8 20 -9 38 -2 55 9 25 10 25 24 5 8 -11 14 -35 12 -55z m362 -114 c-15 -15 -34 9 -26 31 7 17 8 17 22 -1 9 -13 11 -23 4 -30z"/>
 <path d="M55 2260 c-3 -5 3 -10 14 -10 12 0 24 0 28 -1 4 0 9 4 11 10 5 14 -45 15 -53 1z"/>
 <path d="M512 2180 c0 -14 2 -19 5 -12 2 6 2 18 0 25 -3 6 -5 1 -5 -13z"/>
 <path d="M538 2111 c4 -26 6 -29 23 -18 23 14 25 27 4 27 -8 0 -15 5 -15 10 0 6 -4 10 -8 10 -5 0 -7 -13 -4 -29z"/>
 <path d="M280 1846 c0 -8 -3 -23 -6 -33 -4 -13 -3 -14 3 -5 7 9 13 5 22 -15 19 -44 63 -103 75 -103 11 0 47 -54 52 -77 1 -6 -4 -9 -13 -6 -12 5 -13 -2 -8 -43 9 -58 19 -76 13 -22 -2 21 0 39 4 40 5 2 10 13 13 26 2 12 6 26 9 30 3 5 -17 30 -44 57 -26 26 -46 53 -44 60 3 7 -2 15 -10 18 -8 3 -12 14 -10 24 4 12 -5 26 -25 41 -23 17 -31 19 -31 8z"/>
 <path d="M602 1810 c-18 -29 -15 -38 4 -12 9 13 14 25 12 27 -2 2 -9 -5 -16 -15z"/>
 <path d="M630 1784 c0 -8 5 -12 10 -9 6 3 10 10 10 16 0 5 -4 9 -10 9 -5 0 -10 -7 -10 -16z"/>
 <path d="M295 1761 c8 -17 19 -33 25 -36 5 -3 1 10 -11 29 -25 43 -36 48 -14 7z"/>
 <path d="M896 1755 c-9 -26 -7 -32 5 -12 6 10 9 21 6 23 -2 3 -7 -2 -11 -11z"/>
 <path d="M606 1734 c-4 -9 -4 -19 -1 -22 2 -3 7 3 11 12 4 9 4 19 1 22 -2 3 -7 -3 -11 -12z"/>
 <path d="M520 1715 c-14 -8 -20 -14 -14 -15 5 0 19 7 30 15 24 18 16 19 -16 0z"/>
 <path d="M310 1700 c0 -5 5 -10 10 -10 6 0 10 5 10 10 0 6 -4 10 -10 10 -5 0 -10 -4 -10 -10z"/>
 <path d="M319 1673 c-13 -14 -17 -23 -9 -19 8 3 23 9 33 12 18 7 22 20 8 28 -4 3 -19 -6 -32 -21z"/>
 <path d="M380 1630 c-12 -8 -9 -9 12 -8 15 1 24 6 22 10 -7 10 -16 10 -34 -2z"/>
 <path d="M786 1601 l-28 -29 22 -12 c23 -12 43 -4 22 9 -17 10 -4 41 14 34 8 -3 14 0 14 5 0 23 -18 20 -44 -7z"/>
 <path d="M333 1560 c6 -22 37 -25 37 -3 0 15 -2 16 -10 3 -9 -13 -11 -13 -21 0 -9 13 -10 13 -6 0z"/>
 <path d="M441 1528 c0 -14 -7 -29 -13 -31 -10 -4 -10 -6 0 -6 16 -1 25 22 19 46 -3 12 -5 9 -6 -9z"/>
 <path d="M480 1537 c0 -16 21 -47 33 -47 8 0 9 3 1 8 -6 4 -16 16 -22 27 -6 11 -12 16 -12 12z"/>
 <path d="M580 1520 c13 -25 22 -26 13 -2 -6 15 -3 15 18 -3 l24 -20 -19 23 c-25 29 -51 31 -36 2z"/>
 <path d="M560 1487 c-1 -30 53 -77 65 -57 4 6 3 10 -2 9 -22 -4 -34 3 -47 29 -8 15 -15 23 -16 19z"/>
 <path d="M607 1469 c4 -13 8 -18 11 -10 2 7 -1 18 -6 23 -8 8 -9 4 -5 -13z"/>
 </g>
<g id="layer105" fill="#a99896" stroke="none">
 <path d="M400 2403 c0 -5 -26 -7 -59 -5 -35 3 -61 0 -65 -6 -4 -8 16 -11 61 -10 93 1 115 -1 110 -9 -2 -5 4 -16 15 -25 17 -17 18 -17 19 0 0 9 3 12 5 5 4 -8 13 -9 29 -3 12 5 33 6 46 3 19 -4 21 -3 9 6 -13 10 -13 12 0 21 11 7 4 8 -23 5 -28 -4 -37 -2 -32 7 4 7 0 5 -8 -4 -17 -22 -37 -23 -37 -3 0 8 -6 15 -12 15 -7 0 -23 3 -35 6 -13 4 -23 2 -23 -3z"/>
 <path d="M709 2399 c-8 -4 -24 -6 -37 -2 -22 5 -56 -13 -47 -26 2 -4 25 -9 50 -9 26 -1 44 2 41 7 -3 5 1 12 10 15 27 10 44 7 38 -8 -4 -11 1 -14 20 -12 14 2 26 0 26 -3 0 -15 69 -44 110 -47 25 -1 38 1 30 5 -30 13 -90 53 -90 59 0 4 -12 7 -27 8 -16 0 -47 5 -69 11 -23 6 -48 7 -55 2z"/>
 <path d="M200 2371 c0 -5 -16 -12 -35 -15 -26 -5 -35 -12 -35 -26 0 -11 5 -20 11 -20 12 0 2 -42 -13 -51 -6 -4 2 -9 16 -11 18 -4 26 -1 26 8 0 8 5 14 11 14 6 0 9 7 5 15 -3 10 1 15 11 15 15 0 14 2 -2 14 -11 8 -26 11 -33 8 -10 -3 -13 0 -10 9 3 8 11 14 19 15 34 2 70 34 39 34 -5 0 -10 -4 -10 -9z m-30 -91 c0 -5 -4 -10 -10 -10 -5 0 -10 5 -10 10 0 6 5 10 10 10 6 0 10 -4 10 -10z"/>
 <path d="M960 2301 c-8 -6 -27 -7 -44 -4 -23 5 -27 3 -21 -8 18 -28 11 -64 -15 -76 -14 -6 -19 -12 -10 -12 13 -1 13 -2 0 -11 -12 -8 -11 -10 5 -8 45 3 85 -3 85 -13 0 -5 -4 -7 -10 -4 -16 10 -12 -3 9 -33 24 -32 27 -48 17 -84 -8 -26 -26 -39 -26 -19 0 5 -12 17 -27 27 -20 13 -25 13 -16 2 7 -8 9 -19 5 -23 -4 -5 1 -5 10 -2 12 4 15 2 12 -7 -3 -8 4 -21 16 -29 13 -9 17 -17 11 -22 -6 -3 -11 -14 -10 -23 0 -14 2 -14 6 -2 3 8 14 26 24 39 11 13 19 29 19 35 -1 6 -8 0 -16 -14 -10 -17 -13 -18 -9 -5 4 11 10 28 13 38 4 15 7 16 14 5 6 -9 7 -5 2 12 -4 13 -8 45 -9 70 -1 44 -2 45 -41 54 -69 15 -70 16 -36 36 22 14 32 27 32 45 0 20 5 25 24 25 14 0 28 5 31 10 8 13 -25 13 -45 1z m-34 -40 c-4 -5 -1 -11 6 -13 8 -3 6 -7 -5 -11 -17 -6 -24 12 -10 26 9 10 15 8 9 -2z"/>
 <path d="M767 2277 c-6 -16 6 -39 19 -37 4 1 11 -7 15 -17 7 -15 8 -15 8 5 2 44 -30 80 -42 49z"/>
 <path d="M55 2260 c-3 -5 3 -10 14 -10 12 0 24 0 28 -1 4 0 9 4 11 10 5 14 -45 15 -53 1z"/>
 <path d="M231 2248 c-8 -12 -17 -34 -22 -48 -5 -17 -8 -19 -8 -7 -1 10 4 27 10 39 14 26 4 35 -16 14 -9 -9 -13 -16 -8 -16 4 0 9 -12 9 -27 7 -135 10 -160 15 -151 9 15 21 -40 14 -65 -5 -18 -4 -19 5 -7 10 12 11 11 7 -8 -3 -14 -1 -20 5 -15 8 4 9 -6 5 -29 -3 -20 -2 -40 3 -44 5 -5 10 -18 13 -29 2 -11 3 -8 2 8 -2 34 10 34 39 0 29 -33 55 -23 32 13 -9 13 -16 30 -16 38 0 24 22 30 37 11 15 -22 43 -29 43 -12 -1 7 -7 23 -15 37 -8 14 -14 33 -15 44 0 14 5 17 25 12 14 -4 25 -4 25 -2 0 14 -24 56 -32 56 -5 0 -21 11 -35 24 -15 14 -30 23 -35 20 -5 -3 -8 -2 -7 3 6 33 -16 47 -24 16 -3 -10 -5 -1 -6 19 0 20 -6 40 -12 43 -6 4 -10 19 -9 33 4 58 -5 68 -29 30z m10 -93 c12 8 11 3 -1 -31 -15 -38 -32 -17 -23 27 4 21 9 27 11 16 2 -9 8 -15 13 -12z m26 -17 c-3 -7 -5 -2 -5 12 0 14 2 19 5 13 2 -7 2 -19 0 -25z"/>
 <path d="M739 2238 c0 -2 -3 -23 -5 -47 -6 -51 2 -94 16 -86 6 3 10 -5 10 -19 0 -14 5 -26 10 -26 6 0 10 7 10 16 0 9 5 12 12 8 7 -5 8 -3 2 7 -5 8 -10 32 -11 54 -2 46 -5 65 -16 83 -7 10 -25 17 -28 10z"/>
 <path d="M825 2190 c3 -5 10 -10 16 -10 5 0 9 5 9 10 0 6 -7 10 -16 10 -8 0 -12 -4 -9 -10z"/>
 <path d="M890 2166 c0 -2 7 -6 15 -10 8 -3 15 -1 15 4 0 6 -7 10 -15 10 -8 0 -15 -2 -15 -4z"/>
 <path d="M440 2135 c0 -8 8 -19 18 -24 9 -6 12 -11 5 -11 -7 0 -10 -7 -6 -16 3 -9 0 -20 -8 -26 -11 -7 -11 -11 -1 -15 6 -2 11 -17 11 -31 -1 -17 -3 -21 -6 -9 -2 9 -9 17 -14 17 -5 0 -10 -8 -11 -17 0 -10 -2 -22 -3 -28 -2 -5 -3 -14 -4 -19 0 -5 -9 -2 -18 5 -16 12 -17 12 -7 -1 6 -8 14 -30 17 -47 7 -37 -6 -43 -39 -18 -26 19 -35 19 -27 -2 8 -24 54 -79 62 -75 3 1 8 -12 11 -30 3 -23 11 -34 25 -36 19 -4 20 -3 1 11 -18 13 -18 14 3 20 13 3 21 13 21 25 0 12 5 24 10 27 6 3 10 1 10 -6 0 -8 5 -7 17 2 13 11 17 11 20 1 3 -6 9 -10 14 -6 5 3 5 13 -1 24 -7 13 -6 19 5 24 24 9 17 34 -20 72 -49 49 -46 83 5 52 24 -15 44 0 34 27 -7 17 -8 17 -21 -1 -14 -18 -15 -18 -13 6 1 14 1 27 0 30 -1 3 -3 16 -6 29 -2 13 -9 31 -14 40 -7 12 -9 3 -10 -32 0 -31 -4 -46 -10 -42 -6 4 -8 16 -5 26 5 14 -1 27 -19 44 -18 16 -26 19 -26 10z m60 -211 c0 -47 -18 -51 -35 -9 -12 28 -13 40 -4 57 11 21 12 21 25 3 8 -10 14 -33 14 -51z"/>
 <path d="M695 2126 c0 -13 4 -21 10 -18 6 3 -3 -9 -20 -26 -27 -29 -30 -31 -33 -12 -4 22 -17 26 -28 9 -4 -6 -19 -9 -36 -5 -26 5 -29 3 -26 -17 2 -14 11 -23 26 -25 12 -2 22 -10 22 -17 0 -22 -41 -45 -68 -38 -20 5 -23 2 -20 -13 2 -15 13 -20 51 -22 26 -2 47 -8 47 -13 0 -6 -13 -24 -30 -41 -35 -34 -38 -48 -11 -48 11 0 36 19 56 43 20 23 33 36 29 28 -5 -11 -3 -13 9 -8 15 5 15 3 4 -16 -6 -12 -15 -24 -18 -27 -13 -11 -19 -49 -9 -55 6 -4 9 -14 5 -23 -3 -8 0 -19 7 -24 10 -8 10 -11 1 -15 -18 -7 -16 -43 2 -43 18 0 20 -20 3 -21 -7 0 0 -5 16 -11 26 -10 66 -41 66 -53 0 -3 -19 -5 -42 -5 -47 1 -71 14 -101 57 -12 18 -16 20 -12 8 4 -11 10 -31 13 -45 5 -23 4 -24 -12 -11 -10 8 -41 15 -69 16 -69 2 -79 -2 -66 -26 5 -11 6 -19 0 -19 -5 0 -12 -7 -15 -16 -3 -8 -2 -12 4 -9 6 3 10 -1 10 -10 0 -9 4 -13 10 -10 5 3 8 24 7 45 -3 31 -1 37 10 29 7 -6 24 -8 39 -5 17 5 23 3 19 -4 -3 -5 -17 -10 -30 -10 -18 0 -23 -4 -18 -16 3 -9 12 -13 22 -9 13 5 14 4 4 -6 -15 -15 -18 -53 -4 -45 5 4 12 0 14 -6 5 -12 11 15 8 34 -1 9 37 4 76 -11 23 -9 30 -17 26 -29 -4 -15 -3 -15 6 -2 7 9 11 10 11 3 0 -6 9 -11 20 -10 22 1 14 13 -21 31 -12 6 -29 21 -37 34 l-15 23 59 -7 c60 -7 88 -19 78 -35 -3 -5 0 -9 5 -9 6 0 11 7 11 15 0 8 -4 15 -9 15 -5 0 17 26 48 57 31 32 59 58 63 58 3 0 10 4 15 9 5 6 2 6 -6 1 -10 -6 -13 -4 -8 6 3 8 16 39 28 69 40 99 59 136 59 116 0 -11 3 -17 6 -14 3 3 -2 31 -11 62 -18 60 -60 106 -98 106 -20 0 -19 -2 8 -20 29 -19 29 -20 6 -20 -21 0 -22 -2 -10 -17 13 -16 12 -17 -3 -4 -10 7 -15 17 -12 22 3 5 -2 12 -10 15 -9 3 -16 14 -16 23 -1 11 -5 9 -14 -9 -12 -21 -12 -26 3 -38 15 -13 15 -13 -1 -8 -15 4 -16 2 -6 -19 6 -13 16 -23 22 -22 6 1 10 -6 8 -17 -2 -10 7 -30 20 -45 26 -29 31 -76 8 -76 -8 0 -15 9 -15 20 0 11 -10 31 -23 45 -18 20 -25 23 -40 14 -9 -7 -16 -19 -14 -29 2 -9 -1 -14 -6 -11 -6 3 -13 0 -16 -6 -5 -12 -1 20 11 82 4 24 4 24 -8 5 -7 -11 -18 -39 -24 -63 -10 -40 -12 -41 -30 -27 -11 8 -14 14 -7 13 11 -3 25 25 57 117 7 20 6 20 -9 1 -16 -19 -16 -19 -16 6 0 15 5 30 10 33 6 4 8 10 5 15 -3 5 -1 11 5 15 14 9 13 48 -2 63 -7 7 -13 20 -13 29 0 9 -4 18 -10 20 -5 1 -10 -8 -10 -21z m-48 -133 c-3 -10 -5 -4 -5 12 0 17 2 24 5 18 2 -7 2 -21 0 -30z m258 -33 c3 -5 2 -10 -4 -10 -5 0 -13 5 -16 10 -3 6 -2 10 4 10 5 0 13 -4 16 -10z m-85 -150 c0 -5 -4 -10 -10 -10 -5 0 -10 5 -10 10 0 6 5 10 10 10 6 0 10 -4 10 -10z"/>
 <path d="M543 2110 c0 -24 2 -26 14 -14 12 12 12 16 0 28 -12 12 -14 10 -14 -14z"/>
 <path d="M280 1844 c1 -10 7 -30 15 -44 18 -31 19 -43 3 -34 -7 5 -5 -3 4 -16 9 -14 21 -24 27 -23 6 2 15 -6 21 -17 6 -11 16 -20 23 -20 11 0 42 -39 35 -44 -2 -2 -12 -8 -23 -14 -15 -8 -16 -11 -4 -12 8 0 20 5 27 12 7 7 12 10 13 8 0 -3 2 -13 4 -23 2 -13 -1 -17 -11 -13 -13 5 -14 -2 -8 -42 8 -56 18 -73 12 -20 -2 21 0 39 4 40 5 2 10 12 12 23 2 11 6 25 7 30 2 6 -17 32 -41 59 -25 26 -43 49 -40 51 3 1 -1 10 -9 19 -8 10 -15 26 -16 37 -1 10 -4 20 -6 22 -2 1 -14 11 -26 21 -23 19 -23 19 -23 0z m50 -105 c0 -6 -4 -7 -10 -4 -5 3 -10 11 -10 16 0 6 5 7 10 4 6 -3 10 -11 10 -16z"/>
 <path d="M395 1810 c-4 -6 -11 -8 -16 -5 -17 11 -9 -12 11 -30 20 -18 20 -17 20 13 0 33 -4 39 -15 22z"/>
 <path d="M637 1793 c-4 -3 -7 -11 -7 -17 0 -6 5 -5 12 2 6 6 9 14 7 17 -3 3 -9 2 -12 -2z"/>
 <path d="M896 1755 c-9 -26 -7 -32 5 -12 6 10 9 21 6 23 -2 3 -7 -2 -11 -11z"/>
 <path d="M607 1733 c-4 -3 -7 -11 -7 -17 0 -6 5 -5 12 2 6 6 9 14 7 17 -3 3 -9 2 -12 -2z"/>
 <path d="M310 1700 c0 -5 5 -10 10 -10 6 0 10 5 10 10 0 6 -4 10 -10 10 -5 0 -10 -4 -10 -10z"/>
 <path d="M319 1673 c-13 -14 -17 -23 -9 -19 8 3 23 9 33 12 18 7 22 20 8 28 -4 3 -19 -6 -32 -21z"/>
 <path d="M806 1621 c-47 -48 -48 -49 -26 -61 23 -12 43 -4 22 9 -18 11 -4 41 15 34 11 -4 14 -2 11 8 -3 8 4 24 15 37 38 41 12 22 -37 -27z"/>
 <path d="M333 1560 c6 -22 37 -25 37 -3 0 15 -2 16 -10 3 -9 -13 -11 -13 -21 0 -9 13 -10 13 -6 0z"/>
 <path d="M580 1520 c13 -25 22 -26 13 -2 -6 15 -3 15 18 -3 l24 -20 -19 23 c-25 29 -51 31 -36 2z"/>
 <path d="M440 1518 c0 -9 -6 -19 -12 -21 -10 -4 -10 -6 0 -6 14 -1 28 26 18 36 -3 4 -6 -1 -6 -9z"/>
 <path d="M607 1469 c4 -13 8 -18 11 -10 2 7 -1 18 -6 23 -8 8 -9 4 -5 -13z"/>
 </g>
<g id="layer106" fill="#c6b8b2" stroke="none">
 <path d="M400 2401 c0 -13 88 -43 139 -47 31 -2 41 0 31 7 -13 8 -13 10 0 19 11 7 4 8 -23 5 -28 -4 -37 -2 -32 7 4 7 0 5 -8 -4 -18 -22 -37 -23 -37 -2 0 10 -6 14 -15 11 -8 -4 -17 -2 -20 3 -8 12 -35 13 -35 1z"/>
 <path d="M708 2399 c-7 -5 -23 -6 -36 -2 -24 6 -56 -13 -46 -28 6 -10 74 -1 89 11 6 5 24 10 40 12 l30 3 -32 6 c-18 3 -38 2 -45 -2z"/>
 <path d="M275 2390 c-7 -12 15 -12 70 -1 l40 9 -52 1 c-28 0 -55 -3 -58 -9z"/>
 <path d="M783 2379 c-13 -4 -14 -7 -4 -13 7 -5 15 -6 18 -2 3 3 12 -2 20 -10 9 -8 22 -13 30 -10 8 3 12 2 9 -3 -3 -5 2 -12 11 -15 9 -4 20 -1 25 6 5 9 8 9 8 2 0 -7 7 -14 15 -18 8 -3 15 -1 15 4 0 13 -61 50 -72 44 -4 -3 -6 1 -3 8 6 14 -40 18 -72 7z"/>
 <path d="M200 2371 c0 -5 -16 -12 -35 -15 -26 -5 -35 -12 -35 -26 0 -11 4 -20 10 -20 5 0 7 -13 4 -29 -4 -20 -2 -30 10 -34 19 -8 21 4 4 21 -10 10 -10 15 2 22 8 5 24 10 34 10 19 0 19 0 1 14 -11 8 -26 11 -33 8 -10 -3 -13 0 -10 9 3 8 11 14 19 15 34 2 70 34 39 34 -5 0 -10 -4 -10 -9z"/>
 <path d="M959 2300 c-7 -5 -23 -7 -35 -4 -18 5 -21 1 -21 -28 0 -18 2 -25 4 -15 3 9 9 17 14 17 6 0 7 5 3 12 -4 7 -3 8 5 4 9 -6 9 -11 -1 -24 -10 -12 -10 -14 0 -8 6 4 12 3 12 -2 0 -6 -19 -19 -42 -31 -24 -12 -36 -21 -28 -21 11 0 12 -2 3 -8 -7 -4 11 -8 40 -9 29 0 41 1 27 4 -52 8 -55 13 -22 33 22 14 32 27 32 45 0 20 5 25 24 25 14 0 27 4 30 8 7 11 -27 12 -45 2z"/>
 <path d="M55 2260 c-3 -5 3 -10 14 -10 12 0 24 0 28 -1 4 0 9 4 11 10 5 14 -45 15 -53 1z"/>
 <path d="M196 2245 c-16 -12 -17 -15 -4 -15 9 0 18 7 22 15 7 18 6 18 -18 0z"/>
 <path d="M240 2234 c0 -20 -3 -25 -9 -16 -7 11 -10 10 -15 -3 -3 -9 -6 -24 -6 -33 0 -15 2 -15 10 -2 8 12 10 11 10 -6 0 -11 6 -21 14 -21 11 0 13 12 9 51 -6 58 -13 74 -13 30z"/>
 <path d="M754 2222 c-16 -11 -24 -54 -16 -86 l8 -29 17 26 c12 19 14 33 7 55 -4 17 -6 33 -2 36 8 8 -1 7 -14 -2z"/>
 <path d="M825 2190 c3 -5 10 -10 16 -10 5 0 9 5 9 10 0 6 -7 10 -16 10 -8 0 -12 -4 -9 -10z"/>
 <path d="M940 2162 c0 -4 12 -18 26 -31 l26 -25 -4 23 c-3 21 -48 52 -48 33z"/>
 <path d="M203 2145 c-3 -9 -3 -18 -1 -21 3 -3 8 4 11 16 6 23 -1 27 -10 5z"/>
 <path d="M700 2136 c0 -9 5 -16 10 -16 6 0 10 4 10 9 0 6 -4 13 -10 16 -5 3 -10 -1 -10 -9z"/>
 <path d="M241 2122 c-7 -12 -17 -20 -23 -16 -8 5 -9 -3 -3 -27 5 -19 9 -51 9 -71 0 -21 3 -33 7 -27 4 7 10 2 14 -12 4 -13 16 -32 26 -42 11 -10 19 -26 19 -37 0 -22 43 -57 48 -40 2 6 -3 17 -12 23 -14 10 -15 17 -5 46 l12 34 20 -24 c13 -16 21 -20 24 -11 3 6 10 9 16 5 16 -9 -14 30 -30 40 -20 12 -15 44 6 50 11 2 25 0 31 -7 9 -8 11 -5 8 14 -3 28 -36 40 -49 18 -7 -10 -9 -11 -9 0 0 7 -7 20 -15 29 -13 12 -18 13 -31 3 -12 -11 -13 -10 -8 6 5 18 5 18 -10 0 -16 -19 -16 -19 -17 5 0 13 -4 33 -8 44 -8 19 -8 19 -20 -3z"/>
 <path d="M453 2124 c18 -22 23 -39 8 -30 -5 3 -4 -12 1 -34 11 -42 5 -75 -12 -65 -5 3 -10 1 -10 -5 0 -6 -5 -8 -12 -4 -10 6 -10 4 0 -8 10 -12 10 -17 1 -20 -7 -2 -12 -20 -12 -39 0 -41 -15 -54 -39 -32 -10 9 -21 13 -24 10 -10 -10 23 -55 46 -62 15 -5 20 -15 20 -41 l0 -35 22 21 c12 11 23 27 24 37 2 9 10 23 19 32 16 15 17 14 10 -7 -7 -23 -6 -23 18 -7 17 11 24 22 20 32 -4 11 -2 14 5 9 25 -15 11 30 -23 78 -38 54 -38 70 1 56 28 -11 48 -5 38 12 -4 6 -10 5 -16 -3 -7 -10 -8 -6 -5 14 2 15 0 27 -5 27 -6 0 -8 6 -5 14 3 8 -1 20 -9 26 -12 11 -14 7 -14 -24 0 -25 -4 -35 -11 -30 -6 3 -9 18 -6 33 4 20 -1 30 -21 45 -27 20 -27 20 -9 0z m35 -151 c5 -10 12 -38 15 -63 2 -25 2 -39 0 -31 -4 10 -7 10 -13 1 -11 -18 -43 57 -36 86 7 28 22 31 34 7z"/>
 <path d="M680 2078 c-20 -22 -23 -30 -34 -88 -3 -14 -3 3 0 38 5 62 5 63 -16 52 -11 -6 -31 -10 -43 -8 -29 4 -36 -28 -7 -37 15 -5 26 -1 36 12 9 10 14 14 11 8 -22 -59 -31 -75 -48 -80 -10 -4 -23 -3 -29 0 -15 9 -30 -4 -23 -20 9 -24 69 -20 76 5 3 11 10 20 16 20 20 0 -1 -65 -30 -93 -29 -27 -31 -47 -4 -47 19 0 75 79 69 99 -4 12 -2 11 6 -3 7 -10 13 -32 14 -49 2 -40 26 -49 27 -10 1 15 1 32 0 37 -1 4 6 14 16 22 17 13 17 13 -4 14 -22 0 -25 4 -26 33 -1 19 20 62 36 76 18 14 12 41 -9 41 -7 0 -23 -10 -34 -22z"/>
 <path d="M970 2031 c-13 -25 -13 -34 0 -26 16 10 12 -11 -5 -25 -8 -7 -15 -17 -15 -23 0 -6 11 4 25 23 14 19 25 39 25 44 0 6 -5 4 -11 -4 -9 -12 -10 -11 -6 8 6 27 1 28 -13 3z"/>
 <path d="M790 2010 c0 -5 5 -12 11 -16 8 -4 7 -9 -2 -15 -11 -7 -9 -12 9 -24 12 -9 20 -21 16 -26 -7 -13 43 -68 71 -79 28 -10 44 15 45 72 0 37 -5 53 -26 75 -15 15 -21 20 -13 10 10 -15 10 -20 0 -27 -9 -5 -10 -10 -2 -14 6 -4 11 -2 11 5 0 28 13 -4 17 -41 3 -25 0 -40 -7 -40 -6 0 -10 8 -8 18 4 28 -51 94 -73 87 -11 -4 -19 -2 -19 3 0 6 -7 12 -15 16 -8 3 -15 1 -15 -4z m75 -30 c3 -5 -1 -10 -9 -10 -9 0 -16 5 -16 10 0 6 4 10 9 10 6 0 13 -4 16 -10z"/>
 <path d="M247 1911 c-2 -11 -1 -23 3 -28 5 -4 10 -19 13 -33 2 -14 4 -4 4 23 0 49 -11 71 -20 38z"/>
 <path d="M723 1895 c-3 -9 -3 -18 -1 -21 3 -3 8 4 11 16 6 23 -1 27 -10 5z"/>
 <path d="M787 1859 c-8 -15 -6 -34 9 -89 3 -14 -6 -1 -21 28 -18 35 -30 50 -35 41 -6 -8 -9 -6 -13 7 -4 17 -6 17 -12 -4 -7 -21 -9 -22 -31 -7 -31 20 -34 19 -34 -10 0 -14 4 -25 9 -25 6 0 8 -9 6 -20 -2 -11 1 -22 6 -25 5 -4 7 -11 3 -16 -3 -5 -10 -7 -15 -4 -5 4 -9 -1 -9 -9 0 -8 9 -18 21 -21 15 -5 17 -10 9 -20 -9 -10 -6 -15 11 -20 13 -4 34 -18 48 -31 28 -26 37 -29 46 -15 3 6 -3 15 -12 20 -15 9 -14 10 10 7 33 -6 35 1 5 14 -19 9 -18 9 9 4 28 -5 34 -1 57 33 28 42 64 135 45 116 -6 -6 -18 -9 -27 -6 -12 5 -14 1 -9 -17 l6 -22 -20 20 c-10 12 -19 28 -19 37 0 8 -5 15 -10 15 -6 0 -8 -11 -4 -27 5 -20 3 -25 -4 -18 -6 6 -12 26 -14 45 -3 25 -6 30 -11 19z m-40 -156 c-9 -2 -15 -9 -12 -14 4 -5 2 -9 -3 -9 -6 0 -12 7 -16 15 -4 11 2 15 22 14 17 -1 20 -3 9 -6z"/>
 <path d="M280 1852 c0 -20 26 -78 55 -119 l26 -38 -3 30 c-2 17 -9 36 -15 43 -7 7 -13 19 -13 26 0 7 -11 26 -25 42 -14 16 -25 23 -25 16z"/>
 <path d="M371 1803 c-1 -7 8 -17 19 -23 16 -9 20 -8 20 6 0 10 -5 14 -14 11 -8 -3 -17 -1 -20 6 -3 9 -5 9 -5 0z"/>
 <path d="M390 1686 c0 -3 11 -17 25 -32 15 -16 25 -21 25 -13 -1 12 -50 57 -50 45z"/>
 <path d="M305 1660 c-3 -5 -2 -10 4 -10 5 0 13 5 16 10 3 6 2 10 -4 10 -5 0 -13 -4 -16 -10z"/>
 <path d="M832 1647 c-24 -25 -29 -47 -11 -47 6 0 9 6 6 13 -2 6 5 22 16 35 11 12 18 22 15 22 -2 0 -14 -10 -26 -23z"/>
 <path d="M613 1638 c8 -23 -7 -32 -23 -13 -6 7 -18 11 -26 8 -18 -7 -18 -23 0 -23 7 0 20 -8 27 -17 12 -15 12 -16 -3 -10 -9 3 -22 -1 -30 -10 -11 -14 -10 -16 14 -11 15 3 25 1 22 -3 -3 -5 5 -9 17 -9 18 0 20 3 11 12 -14 14 -16 42 -3 33 5 -3 28 -7 50 -9 35 -3 38 -2 26 10 -7 8 -18 14 -23 14 -5 0 -22 10 -38 22 -22 18 -27 19 -21 6z"/>
 <path d="M385 1630 c-3 -5 -2 -10 4 -10 5 0 13 5 16 10 3 6 2 10 -4 10 -5 0 -13 -4 -16 -10z"/>
 <path d="M480 1630 c0 -12 28 -25 36 -17 3 3 -4 10 -15 17 -15 7 -21 7 -21 0z"/>
 <path d="M460 1615 c0 -8 4 -15 10 -15 5 0 7 7 4 15 -4 8 -8 15 -10 15 -2 0 -4 -7 -4 -15z"/>
 <path d="M406 1562 c8 -56 17 -72 13 -22 -2 19 0 40 4 47 4 6 0 14 -9 17 -13 5 -14 -1 -8 -42z"/>
 <path d="M719 1603 c19 -4 21 -7 10 -14 -11 -7 -9 -9 8 -9 12 0 24 4 27 9 6 9 -28 22 -54 20 -8 -1 -4 -4 9 -6z"/>
 <path d="M781 1589 c-11 -18 -11 -23 1 -30 18 -12 28 -11 28 1 0 6 -5 10 -11 10 -6 0 -8 9 -4 20 8 26 3 25 -14 -1z"/>
 <path d="M503 1590 c5 -18 39 -20 45 -2 2 6 -3 12 -12 12 -9 0 -16 -6 -16 -12 0 -9 -4 -8 -11 2 -9 13 -10 13 -6 0z"/>
 <path d="M454 1574 c3 -8 6 -20 6 -25 0 -6 5 -7 10 -4 15 10 12 32 -6 39 -12 5 -15 2 -10 -10z"/>
 <path d="M333 1560 c6 -22 37 -25 37 -3 0 15 -2 16 -10 3 -9 -13 -11 -13 -21 0 -9 13 -10 13 -6 0z"/>
 <path d="M510 1549 c0 -6 7 -17 15 -25 13 -14 15 -13 16 3 0 16 1 16 10 -2 8 -18 9 -18 6 -1 -2 20 -47 44 -47 25z"/>
 <path d="M580 1528 c0 -6 3 -8 7 -5 3 4 16 -1 27 -10 21 -18 21 -18 2 5 -21 24 -36 29 -36 10z"/>
 <path d="M647 1523 c-4 -3 -7 -11 -7 -17 0 -6 5 -4 10 4 6 9 10 10 10 3 0 -6 9 -11 19 -10 15 1 17 4 9 14 -11 14 -31 17 -41 6z"/>
 <path d="M607 1469 c4 -13 8 -18 11 -10 2 7 -1 18 -6 23 -8 8 -9 4 -5 -13z"/>
 </g>
<g id="layer107" fill="#e2dad1" stroke="none">
 <path d="M405 2400 c-3 -5 6 -12 21 -16 15 -4 39 -13 53 -20 25 -13 46 -10 36 6 -3 4 -14 6 -25 3 -14 -4 -20 0 -20 12 0 12 -5 15 -20 10 -11 -4 -20 -2 -20 4 0 14 -17 14 -25 1z"/>
 <path d="M708 2399 c-7 -5 -23 -6 -35 -2 -14 3 -23 1 -23 -7 0 -6 -4 -9 -9 -5 -5 3 -12 1 -15 -4 -7 -11 75 -13 89 -1 5 4 24 10 40 12 l30 3 -32 6 c-18 3 -38 2 -45 -2z"/>
 <path d="M275 2390 c-3 -5 15 -7 47 -3 70 8 74 13 10 13 -28 0 -53 -4 -57 -10z"/>
 <path d="M530 2377 c0 -10 8 -17 18 -17 9 0 13 4 7 8 -5 4 -13 11 -17 16 -5 5 -8 2 -8 -7z"/>
 <path d="M783 2379 c-10 -4 -13 -8 -8 -9 44 -6 61 -13 68 -25 4 -8 13 -15 20 -15 8 0 8 3 -2 9 -9 6 -10 11 -2 15 6 4 15 -3 20 -16 6 -13 10 -17 10 -10 1 10 5 9 17 -3 9 -9 19 -13 23 -10 3 4 -5 15 -19 25 -14 11 -32 25 -40 32 -17 14 -59 18 -87 7z"/>
 <path d="M200 2370 c0 -5 -9 -10 -19 -10 -11 0 -23 -5 -26 -10 -4 -6 -10 -8 -15 -5 -11 7 -7 -27 4 -41 6 -6 20 -8 33 -6 18 3 21 7 12 18 -6 7 -17 10 -26 7 -11 -4 -14 -2 -11 8 3 8 11 14 19 15 34 2 70 34 39 34 -5 0 -10 -4 -10 -10z"/>
 <path d="M959 2300 c-7 -5 -25 -6 -38 -3 -17 4 -22 2 -19 -7 2 -8 10 -16 18 -18 8 -3 10 0 6 9 -4 8 0 5 8 -5 14 -17 16 -18 16 -3 0 16 10 21 37 18 6 -1 14 2 17 7 7 11 -27 12 -45 2z"/>
 <path d="M55 2260 c-3 -5 3 -10 14 -10 12 0 24 0 28 -1 4 0 9 4 11 10 5 14 -45 15 -53 1z"/>
 <path d="M190 2240 c-13 -8 -12 -10 3 -10 9 0 17 5 17 10 0 12 -1 12 -20 0z"/>
 <path d="M907 2226 c-20 -12 -34 -26 -30 -29 3 -4 0 -7 -7 -7 -7 0 -11 -2 -8 -5 8 -8 39 6 33 15 -3 5 3 11 14 15 11 3 25 12 31 20 16 19 13 18 -33 -9z"/>
 <path d="M242 2210 c0 -14 2 -19 5 -12 2 6 2 18 0 25 -3 6 -5 1 -5 -13z"/>
 <path d="M737 2188 c-4 -12 -2 -27 3 -33 6 -7 6 -16 2 -20 -4 -5 -2 -5 5 -1 7 4 10 13 6 21 -3 8 -1 15 5 15 6 0 8 9 5 20 -7 26 -19 25 -26 -2z"/>
 <path d="M830 2190 c0 -5 5 -10 10 -10 6 0 10 5 10 10 0 6 -4 10 -10 10 -5 0 -10 -4 -10 -10z"/>
 <path d="M240 2115 c0 -8 -7 -15 -15 -15 -17 0 -20 -16 -5 -25 6 -3 10 -19 10 -34 0 -38 19 -90 42 -113 10 -10 18 -26 18 -37 0 -10 7 -24 15 -31 12 -10 13 -6 8 23 -3 23 -1 41 8 50 12 13 17 13 37 -6 l24 -22 -17 42 c-10 24 -14 50 -11 58 4 10 1 15 -9 13 -19 -4 -75 33 -75 50 0 6 -10 12 -22 12 -21 1 -22 2 -5 14 19 14 23 36 7 36 -5 0 -10 -7 -10 -15z"/>
 <path d="M467 2094 c-4 -4 -7 -17 -7 -28 1 -19 1 -20 11 -3 11 19 8 43 -4 31z"/>
 <path d="M500 2056 c0 -19 4 -37 9 -41 14 -8 24 34 12 49 -6 7 -8 16 -4 19 3 4 1 7 -5 7 -7 0 -12 -15 -12 -34z"/>
 <path d="M627 2076 c-9 -7 -28 -11 -42 -8 -18 3 -25 0 -25 -11 0 -21 26 -28 41 -11 7 9 21 13 31 11 13 -4 18 0 18 14 0 22 0 22 -23 5z"/>
 <path d="M674 2063 c-10 -16 -21 -46 -25 -68 l-6 -40 -2 42 c-1 33 -4 41 -16 37 -8 -4 -15 -14 -15 -24 0 -24 -24 -42 -52 -40 -37 3 -41 1 -28 -15 16 -19 60 -20 60 -1 0 13 29 31 37 22 10 -10 -18 -82 -37 -94 -22 -14 -27 -42 -7 -42 7 0 20 15 28 33 8 17 19 31 26 30 6 -1 14 21 18 55 4 31 10 62 14 67 10 15 31 65 27 65 -2 0 -12 -12 -22 -27z"/>
 <path d="M387 2018 c18 -20 26 -19 18 4 -3 8 -12 15 -20 15 -13 0 -12 -4 2 -19z"/>
 <path d="M817 1975 c3 -14 9 -28 14 -30 4 -3 6 -13 3 -23 -5 -13 -4 -14 4 -4 7 11 11 8 16 -11 9 -36 34 -42 42 -11 4 17 1 31 -10 42 -15 15 -16 14 -17 -13 0 -25 -2 -27 -8 -10 -5 11 -6 25 -4 30 2 6 -7 21 -20 34 l-24 22 4 -26z"/>
 <path d="M439 1985 c-1 -3 -3 -9 -4 -15 -1 -5 -3 -11 -5 -12 -1 -2 -4 -18 -7 -37 -3 -24 -1 -31 8 -25 8 4 10 3 5 -4 -4 -7 -14 -12 -21 -12 -14 0 -14 -5 1 -47 6 -16 7 -16 14 2 8 18 9 18 9 2 1 -10 -4 -27 -10 -39 -9 -17 -8 -19 8 -16 10 2 18 10 18 18 0 8 4 21 8 28 5 6 6 16 3 21 -3 5 2 8 11 7 9 0 18 5 21 13 3 8 0 11 -6 7 -16 -10 -45 52 -40 85 3 16 1 29 -4 29 -4 0 -9 -2 -9 -5z"/>
 <path d="M500 1956 c6 -16 8 -31 6 -33 -3 -3 0 -16 5 -30 7 -18 6 -30 -3 -41 -11 -13 -10 -14 2 -10 17 5 32 77 18 92 -5 6 -15 20 -23 31 -14 19 -14 18 -5 -9z"/>
 <path d="M250 1921 c0 -5 5 -13 10 -16 6 -3 10 -2 10 4 0 5 -4 13 -10 16 -5 3 -10 2 -10 -4z"/>
 <path d="M251 1883 c7 -12 15 -20 18 -17 3 2 -3 12 -13 22 -17 16 -18 16 -5 -5z"/>
 <path d="M684 1885 c-3 -8 -4 -20 -2 -27 3 -7 7 -1 10 15 6 29 1 36 -8 12z"/>
 <path d="M359 1871 c17 -31 33 -37 29 -10 -2 13 -11 25 -21 27 -16 3 -17 1 -8 -17z"/>
 <path d="M286 1830 c5 -22 62 -120 69 -120 9 0 -2 51 -12 55 -7 2 -13 11 -13 20 0 8 -4 15 -10 15 -5 0 -16 12 -25 28 -15 26 -16 26 -9 2z"/>
 <path d="M670 1804 c0 -17 4 -23 13 -19 6 4 3 -1 -8 -11 -20 -16 -20 -16 5 -11 l25 6 -27 -24 c-32 -27 -34 -35 -14 -35 21 0 31 -21 15 -31 -10 -6 -6 -9 14 -9 16 0 27 -5 27 -13 0 -8 11 -19 25 -25 15 -7 25 -8 25 -2 0 6 -5 10 -11 10 -5 0 -7 5 -4 10 4 6 11 8 16 4 5 -3 8 -2 7 3 -3 7 7 15 15 12 41 -12 49 -3 52 60 3 60 -8 78 -16 26 l-6 -40 -2 38 c-2 51 -21 47 -22 -5 l-1 -43 -7 35 c-6 31 -27 80 -34 80 -1 0 -1 -19 0 -42 l2 -43 -10 43 c-9 36 -14 43 -30 39 -10 -3 -19 -1 -19 4 0 5 -7 9 -15 9 -9 0 -15 -10 -15 -26z m74 -112 c-13 -13 -17 -13 -24 -2 -12 19 -4 29 20 23 17 -5 18 -7 4 -21z"/>
 <path d="M400 1672 c0 -12 19 -26 26 -19 2 2 -2 10 -11 17 -9 8 -15 8 -15 2z"/>
 <path d="M835 1650 c-21 -24 -28 -50 -13 -50 5 0 8 6 5 13 -2 6 5 22 16 35 11 12 18 22 15 22 -3 0 -13 -9 -23 -20z"/>
 <path d="M615 1624 c0 -13 3 -25 8 -25 28 -5 67 -3 67 4 0 4 -8 7 -17 7 -9 0 -26 9 -37 19 -21 20 -21 20 -21 -5z"/>
 <path d="M495 1620 c3 -5 11 -10 16 -10 6 0 7 5 4 10 -3 6 -11 10 -16 10 -6 0 -7 -4 -4 -10z"/>
 <path d="M413 1588 c-5 -7 -6 -29 -2 -48 l7 -35 -1 35 c-1 19 2 41 7 48 10 16 1 16 -11 0z"/>
 <path d="M520 1590 c0 -5 7 -10 16 -10 8 0 12 5 9 10 -3 6 -10 10 -16 10 -5 0 -9 -4 -9 -10z"/>
 <path d="M779 1579 c-6 -13 -7 -19 -1 -15 6 3 12 0 15 -6 2 -7 8 -9 13 -5 5 4 2 12 -5 16 -7 5 -10 14 -7 20 4 6 5 11 2 11 -3 0 -10 -10 -17 -21z"/>
 <path d="M555 1570 c-3 -5 0 -10 7 -10 7 0 24 -3 38 -6 23 -5 23 -5 -4 10 -33 19 -33 19 -41 6z"/>
 <path d="M467 1563 c-4 -3 -7 -11 -7 -17 0 -6 5 -5 12 2 6 6 9 14 7 17 -3 3 -9 2 -12 -2z"/>
 <path d="M336 1548 c3 -4 12 -8 20 -8 8 0 14 4 14 8 0 4 -9 8 -19 8 -11 0 -17 -4 -15 -8z"/>
 <path d="M511 1555 c0 -5 6 -18 13 -28 13 -16 14 -16 19 4 4 15 2 19 -8 15 -8 -3 -16 0 -19 7 -2 7 -5 8 -5 2z"/>
 <path d="M646 1522 c-3 -3 -6 -10 -6 -16 0 -6 5 -4 10 4 6 9 10 10 10 3 0 -6 9 -11 20 -10 13 1 16 5 10 11 -12 12 -36 16 -44 8z"/>
 </g>

</svg>