<!DOCTYPE svg PUBLIC "-//W3C//DTD SVG 20010904//EN" "http://www.w3.org/TR/2001/REC-SVG-20010904/DTD/svg10.dtd">
<svg version="1.0" xmlns="http://www.w3.org/2000/svg" width="125px" height="250px" viewBox="0 0 1250 2500" preserveAspectRatio="xMidYMid meet">
<g id="layer101" fill="#101010" stroke="none">
 <path d="M650 2303 c-71 -12 -100 -24 -100 -43 0 -14 -10 -20 -40 -25 -25 -4 -46 -3 -54 4 -14 12 -124 10 -143 -2 -29 -18 -13 -46 41 -70 68 -31 85 -57 98 -149 15 -100 -5 -293 -33 -324 -44 -47 -40 -210 14 -546 4 -26 40 -63 76 -79 17 -8 31 -16 31 -19 0 -3 -22 -18 -50 -33 -71 -40 -116 -86 -129 -132 -6 -22 -11 -88 -11 -146 0 -140 15 -182 92 -261 l61 -62 -7 -67 c-6 -67 -6 -68 26 -94 50 -43 72 -50 108 -35 18 7 33 22 36 36 5 18 13 24 35 24 41 0 83 59 84 117 0 31 5 45 16 48 49 16 101 99 119 191 22 114 -30 241 -129 318 -28 21 -51 45 -51 52 0 27 32 65 77 90 24 15 47 34 52 43 22 41 49 382 37 463 -8 56 -62 131 -88 124 -15 -3 -18 3 -18 38 0 23 8 67 17 97 13 41 18 91 18 209 l0 155 -36 38 c-30 31 -45 39 -80 41 -24 2 -55 1 -69 -1z m6 -211 c13 -66 -2 -214 -27 -282 l-24 -65 -3 59 c-2 32 2 90 7 127 6 37 11 105 11 151 1 75 2 81 15 64 8 -11 18 -35 21 -54z m123 -697 c-1 -66 -1 -68 -14 -40 -7 17 -11 46 -10 65 2 19 3 44 4 55 1 17 3 18 11 5 5 -8 9 -46 9 -85z m-240 -987 c1 17 41 15 41 -2 0 -7 -6 -19 -14 -26 -8 -6 -17 -21 -19 -33 -3 -15 -5 -11 -6 11 0 19 -5 31 -11 27 -6 -4 -10 6 -9 22 0 25 1 26 9 8 5 -11 9 -14 9 -7z"/>
 </g>
<g id="layer102" fill="#5d5d59" stroke="none">
 <path d="M619 2282 c-1 -4 -1 -11 0 -15 1 -4 -7 -3 -17 2 -27 14 -50 -3 -36 -26 11 -18 -5 -20 -146 -13 -110 6 -144 -24 -62 -53 27 -10 59 -28 71 -41 38 -41 53 -193 32 -331 -6 -38 -10 -117 -11 -174 0 -119 -9 -134 -11 -17 -1 64 -4 75 -15 65 -7 -6 -14 -21 -14 -33 -1 -11 -3 -52 -6 -89 -4 -41 0 -105 10 -160 8 -51 18 -126 22 -167 7 -78 17 -107 43 -127 23 -17 93 -51 116 -56 13 -3 9 -5 -11 -6 -31 -1 -131 -56 -171 -93 -37 -34 -48 -84 -48 -213 0 -111 2 -124 27 -172 26 -49 82 -103 106 -103 11 0 17 21 13 43 -1 4 7 10 16 14 10 4 21 11 25 17 4 6 10 8 13 5 9 -10 -17 -59 -32 -59 -23 0 -14 -30 12 -40 33 -12 105 -10 105 3 0 6 3 8 6 4 3 -3 -1 -16 -10 -29 -22 -31 -20 -53 7 -72 21 -16 20 -16 -10 -1 -17 8 -33 20 -35 26 -2 7 -12 9 -25 5 -23 -7 -36 -49 -20 -65 13 -13 -33 -11 -50 2 -9 7 -13 5 -13 -6 0 -9 20 -32 44 -52 35 -28 49 -35 70 -29 29 7 46 31 46 63 0 19 3 19 26 9 24 -11 29 -9 50 15 14 17 21 34 17 44 -4 10 -2 14 4 10 7 -5 9 0 6 13 -3 11 -11 20 -19 20 -8 0 -11 6 -8 15 4 8 11 12 18 8 6 -3 8 -2 3 2 -4 5 -17 10 -28 12 -12 2 -29 8 -38 13 -11 7 -4 8 24 4 22 -3 42 -8 44 -10 16 -15 128 87 116 107 -4 5 -2 9 4 9 19 0 33 83 28 157 -7 93 -42 161 -113 217 -90 71 -89 104 5 166 62 42 66 50 76 153 4 42 11 77 15 77 4 0 6 69 6 153 -1 129 -4 157 -19 180 -10 15 -22 25 -26 22 -5 -2 -11 5 -14 16 -3 12 -10 18 -17 14 -6 -4 -9 -14 -6 -22 3 -8 1 -11 -4 -8 -5 3 -12 -7 -16 -22 -11 -51 -12 -48 -13 29 -1 46 7 111 20 165 17 69 22 117 21 222 -1 129 -2 135 -25 157 -14 13 -27 28 -29 35 -4 12 -147 23 -149 11z m29 -131 c24 -40 27 -57 27 -131 0 -109 -7 -150 -39 -233 -14 -37 -26 -77 -26 -89 0 -42 -10 -11 -20 65 -9 60 -8 94 5 164 17 100 20 212 5 261 -8 30 -7 32 6 21 8 -7 27 -33 42 -58z m140 -731 c0 -47 -3 -96 -7 -110 -7 -22 -9 -19 -24 29 -21 69 -21 90 0 165 16 57 18 59 24 31 4 -16 7 -68 7 -115z m-321 -2 c-3 -7 -5 -2 -5 12 0 14 2 19 5 13 2 -7 2 -19 0 -25z m10 -65 c-3 -10 -5 -2 -5 17 0 19 2 27 5 18 2 -10 2 -26 0 -35z m-10 -58 c-7 -13 -14 -20 -15 -14 -2 5 2 16 8 24 18 21 20 18 7 -10z m135 -1041 c15 3 18 2 10 -6 -15 -15 -42 -2 -41 19 1 17 2 17 6 0 3 -13 11 -17 25 -13z"/>
 </g>
<g id="layer103" fill="#9e6f6c" stroke="none">
 <path d="M621 2281 c-9 -6 -10 -11 -2 -15 6 -4 11 -12 11 -18 0 -6 -8 -4 -18 5 -10 10 -24 17 -30 17 -27 0 -19 -22 26 -67 63 -63 77 -111 69 -241 -4 -70 -13 -114 -31 -159 -14 -34 -28 -80 -32 -102 -5 -33 -11 -41 -28 -41 -17 1 -18 2 -5 10 13 8 14 20 7 82 -9 71 -7 132 7 193 13 52 9 228 -4 254 -12 22 -18 23 -67 18 -37 -4 -63 -1 -81 8 -19 10 -32 11 -46 4 -10 -6 -29 -8 -42 -5 -14 4 -27 0 -35 -9 -10 -12 -7 -17 16 -25 106 -41 117 -56 135 -185 9 -67 10 -101 1 -144 -22 -111 -26 -298 -7 -399 10 -56 14 -107 10 -130 -10 -53 -10 -114 -1 -137 4 -12 1 -10 -8 5 -18 30 -20 80 -5 114 9 19 8 45 -5 114 -9 50 -16 102 -16 116 0 14 -5 26 -10 26 -7 0 -7 6 0 19 15 29 13 51 -5 45 -33 -13 -32 -69 10 -374 17 -129 22 -150 35 -150 5 0 7 7 4 15 -4 8 -1 15 4 15 6 0 12 -10 14 -22 3 -25 53 -57 98 -65 28 -4 100 -39 100 -48 0 -2 -19 5 -42 15 -62 28 -88 25 -154 -19 -104 -68 -120 -95 -130 -224 -11 -139 34 -264 107 -300 32 -15 34 -15 40 1 4 9 5 25 3 36 -2 10 1 27 7 37 6 13 6 19 0 19 -6 0 -8 7 -4 15 8 21 12 15 17 -24 4 -40 12 -48 21 -22 10 32 20 25 21 -14 0 -22 -3 -31 -8 -23 -7 12 -12 4 -9 -14 0 -4 -8 -10 -19 -13 -38 -12 -22 -32 30 -37 18 -2 24 1 22 12 -2 11 1 10 12 -3 10 -14 15 -15 19 -5 4 10 6 10 6 1 1 -7 6 -13 12 -13 6 0 9 6 6 14 -7 18 36 25 74 12 14 -5 37 -6 52 -2 38 9 100 74 94 97 -3 10 0 17 6 16 5 -1 16 18 24 42 10 36 10 47 0 53 -8 5 -8 8 -1 8 24 0 6 109 -30 179 -9 17 -33 40 -54 51 -20 12 -28 18 -17 15 12 -3 0 13 -29 39 -44 41 -48 48 -42 78 4 18 11 35 16 36 6 2 8 8 5 13 -4 5 0 6 8 4 7 -3 26 6 41 20 15 14 29 25 32 25 35 0 63 170 65 386 1 83 -3 119 -15 140 -8 16 -15 25 -16 19 0 -5 -9 1 -20 15 l-20 25 0 -23 c0 -13 -4 -20 -10 -17 -6 4 -13 -8 -16 -25 -5 -21 -11 -29 -20 -26 -17 7 -17 3 1 -59 18 -57 24 -192 12 -249 l-9 -40 -18 41 c-28 63 -30 109 -9 175 17 54 17 63 4 96 -15 35 -9 51 18 52 4 0 7 33 7 74 0 41 9 112 20 158 14 59 20 118 20 203 l0 120 -29 16 c-19 11 -28 24 -27 40 1 15 -5 25 -18 27 -13 3 -16 0 -10 -10 4 -7 -2 -5 -13 5 -27 24 -47 22 -40 -4 5 -19 4 -19 -11 -6 -27 23 -37 26 -51 18z m149 -102 c0 -5 -4 -9 -10 -9 -5 0 -10 7 -10 16 0 8 5 12 10 9 6 -3 10 -10 10 -16z m30 -59 c0 -5 -4 -10 -10 -10 -5 0 -10 5 -10 10 0 6 5 10 10 10 6 0 10 -4 10 -10z m-64 -828 c-4 -3 -14 2 -24 12 -16 18 -16 18 6 6 13 -6 21 -14 18 -18z m-75 -158 c27 -9 49 -18 49 -21 0 -8 -63 8 -90 23 -34 18 -19 17 41 -2z m109 -24 c0 -5 -4 -10 -10 -10 -5 0 -10 5 -10 10 0 6 5 10 10 10 6 0 10 -4 10 -10z m80 -251 c7 -11 9 -23 7 -26 -3 -2 -8 4 -11 14 -4 11 -17 20 -32 21 -21 2 -24 -1 -15 -11 6 -8 8 -17 4 -20 -3 -4 1 -7 10 -7 21 0 32 -19 19 -32 -16 -16 -45 10 -39 34 3 10 1 21 -4 24 -19 11 -8 24 21 24 19 0 33 -7 40 -21z m4 -70 c-9 -10 -27 -18 -38 -18 -19 2 -18 2 3 6 13 3 26 13 28 24 3 10 10 16 15 13 5 -3 2 -14 -8 -25z m-294 -187 c0 -12 -3 -12 -15 -2 -8 7 -15 13 -15 15 0 1 7 2 15 2 8 0 15 -7 15 -15z"/>
 <path d="M806 808 c3 -4 9 -8 15 -8 5 0 9 4 9 8 0 5 -7 9 -15 9 -8 0 -12 -4 -9 -9z"/>
 <path d="M421 1672 c-14 -27 -12 -35 8 -23 7 5 11 17 9 27 -4 17 -5 17 -17 -4z"/>
 <path d="M647 403 c-12 -12 -7 -41 8 -47 10 -4 15 1 15 15 0 13 -4 18 -12 13 -8 -5 -9 -2 -5 9 7 18 5 21 -6 10z"/>
 <path d="M582 268 c6 -18 28 -21 28 -4 0 9 -7 16 -16 16 -9 0 -14 -5 -12 -12z"/>
 </g>
<g id="layer104" fill="#8f897e" stroke="none">
 <path d="M683 2269 c5 -19 4 -20 -12 -5 -10 9 -28 16 -41 16 -22 0 -23 -1 -5 -20 22 -24 9 -27 -16 -4 -10 9 -26 14 -35 10 -13 -5 -7 -16 33 -60 64 -70 77 -114 70 -243 -4 -74 -11 -113 -31 -160 -14 -34 -28 -79 -32 -101 -5 -32 -11 -41 -30 -45 -23 -4 -24 -3 -9 14 14 14 16 32 10 106 -5 58 -3 109 5 148 15 74 16 245 1 274 -13 23 -63 29 -91 11 -10 -6 -22 -4 -37 5 -14 9 -41 13 -78 11 -68 -3 -91 -20 -49 -36 106 -41 117 -56 135 -185 9 -66 10 -101 1 -144 -21 -105 -25 -308 -8 -391 20 -102 23 -155 7 -174 -13 -16 -11 -62 4 -101 l8 -20 -16 20 c-19 23 -22 97 -5 124 8 14 7 39 -5 109 -10 49 -17 102 -17 116 0 14 -5 26 -10 26 -7 0 -7 7 0 21 15 27 9 51 -9 40 -23 -15 -24 -101 -2 -257 12 -82 23 -168 26 -190 3 -23 12 -50 20 -60 13 -16 14 -17 9 -1 -3 9 -1 17 5 17 6 0 11 -9 11 -19 0 -23 57 -61 103 -68 31 -5 110 -43 103 -50 -2 -2 -24 6 -50 17 -26 11 -57 20 -68 20 -29 0 -131 -64 -166 -104 -49 -56 -66 -198 -37 -311 20 -75 53 -127 96 -148 19 -9 35 -15 36 -13 1 1 3 18 4 37 2 18 6 42 11 51 5 11 5 18 -1 18 -6 0 -8 7 -4 15 8 21 12 15 17 -24 4 -40 12 -48 21 -22 10 32 20 25 21 -14 0 -20 -3 -30 -6 -24 -9 14 -18 -1 -15 -24 3 -13 -1 -16 -16 -12 -32 11 -21 -12 12 -24 34 -12 53 -6 43 12 -3 7 1 4 9 -6 11 -14 16 -15 20 -5 4 10 6 10 6 1 1 -7 6 -13 12 -13 6 0 9 6 6 14 -6 16 49 30 79 20 14 -4 15 -3 6 4 -11 7 -11 10 2 15 11 5 16 1 16 -13 0 -26 24 -26 50 0 11 11 26 20 33 20 6 1 2 6 -11 13 -18 10 -20 15 -10 26 10 11 10 12 1 7 -7 -4 -13 -2 -13 3 0 6 -8 11 -17 12 -13 0 -12 3 5 10 13 5 28 7 33 4 5 -3 19 0 31 7 13 7 26 11 30 10 4 -1 12 15 17 35 8 28 7 39 -2 45 -8 5 -8 8 -1 8 16 0 15 46 -1 102 -18 63 -34 90 -47 82 -8 -5 -9 -1 -5 10 5 12 3 15 -6 9 -6 -4 -20 -6 -31 -4 -11 1 -16 -2 -12 -8 4 -6 17 -11 29 -12 20 -1 20 -2 -3 -9 -16 -5 -19 -8 -8 -9 22 -1 33 -20 19 -34 -15 -15 -37 9 -44 51 -6 30 -5 32 21 32 l27 1 -25 13 c-14 8 -29 12 -34 9 -5 -4 -6 -1 -2 6 5 7 15 10 25 6 9 -3 -5 13 -32 36 -43 37 -47 44 -45 80 2 24 8 39 16 39 8 0 10 5 6 12 -5 7 -2 9 9 5 9 -3 26 4 42 19 14 13 30 24 36 24 11 0 11 3 -1 34 -12 33 7 36 20 4 5 -13 9 -18 10 -13 0 6 7 64 15 130 24 201 17 401 -15 392 -5 -1 -16 7 -25 18 -16 19 -16 19 -11 -15 5 -29 4 -32 -5 -16 -9 15 -13 16 -20 5 -5 -8 -9 -25 -9 -38 0 -20 -2 -21 -15 -11 -19 16 -19 8 0 -55 26 -86 22 -285 -5 -285 -6 0 -9 3 -8 8 2 4 -6 34 -16 66 -19 59 -19 61 1 127 17 59 18 73 7 105 -14 41 -11 54 12 54 11 0 14 17 14 83 0 48 7 103 16 132 11 33 18 100 21 195 l4 145 -35 19 c-25 13 -33 23 -27 30 6 7 6 17 0 26 -7 12 -11 12 -17 2 -7 -10 -11 -10 -22 3 -19 23 -43 19 -37 -6z m87 -90 c0 -5 -4 -9 -10 -9 -5 0 -10 7 -10 16 0 8 5 12 10 9 6 -3 10 -10 10 -16z m37 -69 c0 -29 -1 -29 -15 -9 -12 18 -13 23 -1 30 8 5 14 9 15 9 0 0 1 -13 1 -30z m67 -516 c9 -24 7 -27 -9 -10 -17 17 -19 26 -6 26 5 0 12 -7 15 -16z m-149 -289 c14 -13 25 -32 24 -42 0 -15 -2 -15 -9 3 -4 12 -21 31 -36 43 -14 11 -21 21 -15 21 7 0 23 -11 36 -25z m101 -157 c4 -7 3 -8 -4 -4 -6 3 -16 -3 -23 -15 -9 -17 -13 -19 -20 -8 -7 11 -9 10 -9 -3 0 -10 -4 -18 -10 -18 -5 0 -8 10 -6 23 2 15 10 22 25 21 11 0 21 3 21 8 0 12 18 10 26 -4z m-165 -14 c27 -9 49 -18 49 -21 0 -8 -63 8 -90 23 -34 18 -19 17 41 -2z m208 -326 c2 -14 -32 -38 -52 -37 -20 1 -20 2 3 8 19 5 26 15 29 41 3 29 5 32 11 15 5 -11 9 -23 9 -27z m2 -63 c5 4 9 0 9 -7 0 -7 3 -24 7 -36 5 -22 4 -23 -15 -11 -27 17 -34 36 -25 63 6 18 7 19 11 3 2 -9 8 -15 13 -12z m-334 -57 c-3 -7 -5 -2 -5 12 0 14 2 19 5 13 2 -7 2 -19 0 -25z m23 -86 c0 -12 -3 -12 -15 -2 -8 7 -15 13 -15 15 0 1 7 2 15 2 8 0 15 -7 15 -15z m280 -24 c0 -4 -4 -8 -9 -8 -6 0 -12 4 -15 8 -3 5 1 9 9 9 8 0 15 -4 15 -9z"/>
 <path d="M421 1672 c-14 -27 -12 -35 8 -23 7 5 11 17 9 27 -4 17 -5 17 -17 -4z"/>
 <path d="M647 403 c-12 -12 -7 -41 8 -47 10 -4 15 1 15 15 0 13 -4 18 -12 13 -8 -5 -9 -2 -5 9 7 18 5 21 -6 10z"/>
 <path d="M582 268 c6 -18 28 -21 28 -4 0 9 -7 16 -16 16 -9 0 -14 -5 -12 -12z"/>
 </g>
<g id="layer105" fill="#b3a499" stroke="none">
 <path d="M683 2270 c3 -11 1 -20 -4 -20 -5 0 -9 4 -9 9 0 11 -39 25 -47 17 -3 -3 0 -12 7 -21 17 -20 1 -19 -21 1 -11 10 -25 14 -35 10 -15 -6 -10 -14 26 -51 32 -33 46 -41 53 -32 6 8 7 7 3 -5 -3 -10 2 -34 10 -54 10 -24 15 -65 14 -118 -2 -114 -5 -133 -34 -203 -14 -34 -28 -79 -32 -101 -5 -32 -11 -41 -30 -45 -28 -5 -31 1 -7 18 15 11 15 22 7 91 -8 60 -7 96 3 149 13 71 18 251 7 279 -9 24 -26 19 -19 -5 5 -16 4 -19 -5 -14 -16 10 -33 -17 -17 -28 8 -6 8 -7 -3 -4 -9 2 -14 13 -12 25 3 18 -2 22 -23 22 -15 0 -24 -4 -20 -10 3 -5 1 -10 -4 -10 -6 0 -11 7 -11 15 0 26 -42 44 -98 41 -58 -3 -89 -21 -56 -32 71 -25 104 -45 118 -73 27 -51 40 -185 28 -271 -22 -148 -25 -290 -8 -375 9 -44 16 -94 16 -112 0 -17 5 -35 11 -38 6 -5 3 -13 -10 -22 -25 -17 -28 -61 -6 -103 21 -40 12 -38 -14 3 -17 26 -21 28 -21 12 0 -29 19 -93 30 -100 6 -3 7 1 4 9 -3 9 -1 16 5 16 6 0 11 -9 11 -19 0 -23 50 -56 100 -66 41 -9 114 -44 107 -52 -3 -2 -27 5 -52 16 -63 28 -74 27 -143 -14 -115 -67 -138 -114 -136 -285 0 -70 5 -96 26 -142 26 -56 62 -96 99 -110 16 -6 19 -3 18 20 0 15 2 45 6 67 3 22 8 67 11 99 6 78 14 85 14 12 0 -36 4 -55 10 -51 5 3 10 -1 10 -9 0 -9 -6 -13 -14 -10 -11 4 -14 -2 -14 -26 1 -17 5 -33 10 -36 8 -5 12 10 9 35 -2 10 0 11 11 1 7 -7 13 -28 14 -47 0 -21 -3 -29 -8 -21 -5 9 -8 7 -9 -7 -1 -11 -1 -24 0 -29 1 -5 -5 -6 -13 -3 -9 4 -18 2 -21 -4 -4 -5 7 -12 24 -15 34 -7 47 -4 43 11 -1 6 5 1 13 -9 11 -14 15 -16 15 -5 0 12 2 12 10 -1 8 -13 10 -13 10 2 0 18 59 36 78 24 6 -3 8 2 5 13 -4 16 -1 19 16 14 16 -4 20 -11 16 -24 -4 -11 -2 -19 5 -19 21 0 50 21 50 36 0 8 5 12 10 9 6 -3 10 -4 10 -1 0 3 -10 10 -21 17 -12 6 -19 7 -15 1 3 -5 -2 -18 -12 -29 -9 -10 -13 -14 -9 -7 5 7 2 14 -5 16 -10 4 -10 8 -2 19 6 8 10 24 8 37 -3 16 1 22 16 22 14 0 21 9 26 35 5 28 9 33 19 25 10 -8 15 -8 21 1 4 7 3 9 -3 6 -6 -4 -17 1 -24 10 -8 9 -9 14 -3 10 7 -4 14 2 17 13 3 11 0 23 -5 27 -7 4 -8 1 -3 -7 6 -9 4 -11 -4 -6 -7 5 -10 15 -7 23 4 9 1 22 -6 30 -9 11 -9 13 2 11 7 -2 15 3 17 10 3 7 -5 12 -19 13 -20 1 -21 2 -3 6 11 3 23 10 27 17 12 17 9 58 -2 51 -6 -4 -8 -16 -4 -27 4 -15 3 -18 -6 -13 -9 5 -11 4 -6 -3 4 -7 1 -12 -9 -12 -17 0 -20 7 -29 58 -5 28 -3 32 17 32 21 1 21 1 3 15 -10 8 -23 12 -29 8 -6 -4 -7 -1 -3 6 5 7 15 10 25 7 12 -5 11 -2 -3 9 -64 49 -78 67 -74 95 2 16 1 27 -4 24 -4 -3 -8 6 -8 20 0 29 9 33 29 13 11 -10 12 -9 6 2 -6 11 -4 13 8 8 9 -3 26 4 42 19 14 13 30 24 36 24 13 0 11 17 -3 26 -7 4 -8 3 -4 -4 4 -7 1 -12 -8 -12 -9 0 -16 -7 -16 -15 0 -16 -15 -21 -23 -7 -2 4 -2 1 -1 -5 2 -7 -3 -13 -11 -13 -10 0 -15 10 -15 31 0 16 4 28 9 25 15 -10 61 12 61 28 0 10 6 13 15 10 8 -4 15 -13 15 -22 0 -8 2 -13 5 -10 3 3 12 63 20 134 24 217 17 389 -16 368 -8 -4 -8 -9 0 -17 15 -15 14 -27 -2 -27 -9 0 -14 13 -15 37 -1 20 -6 41 -12 47 -7 7 -9 0 -4 -24 5 -33 4 -34 -10 -16 -14 18 -15 17 -21 -7 -4 -14 -4 -31 0 -36 9 -15 -8 -14 -23 1 -15 15 -17 -5 -2 -31 20 -38 33 -195 20 -254 -6 -31 -16 -59 -21 -63 -6 -3 -9 0 -8 7 1 8 -5 40 -15 72 -17 55 -17 61 0 133 15 62 16 81 6 107 -10 27 -10 34 5 44 12 10 18 32 20 90 2 43 11 101 19 130 17 60 26 175 13 168 -4 -3 -18 13 -30 36 -20 40 -20 44 -5 77 16 33 13 60 -3 34 -4 -7 -15 -10 -25 -6 -14 5 -15 9 -4 15 11 7 10 11 -2 18 -8 6 -11 13 -6 18 4 4 12 0 17 -10 11 -18 39 -24 39 -7 0 5 -8 15 -18 21 -12 8 -17 20 -14 35 2 14 0 24 -7 24 -6 0 -11 -5 -11 -11 0 -5 -10 -3 -22 5 -30 21 -41 20 -35 -4z m-213 -74 c0 -11 -19 -15 -25 -6 -3 5 1 10 9 10 9 0 16 -2 16 -4z m314 -181 c3 -8 1 -15 -4 -15 -6 0 -10 7 -10 15 0 8 2 15 4 15 2 0 6 -7 10 -15z m-34 -170 c0 -8 -2 -15 -4 -15 -2 0 -6 7 -10 15 -3 8 -1 15 4 15 6 0 10 -7 10 -15z m125 -256 c4 -11 4 -23 1 -26 -3 -4 -6 1 -6 10 0 10 -4 17 -10 17 -5 0 -10 5 -10 10 0 18 19 10 25 -11z m3 -101 c-1 -18 -3 -27 -5 -20 -3 6 -9 10 -14 6 -5 -3 -4 6 3 20 15 34 17 33 16 -6z m-301 -20 c-3 -7 -5 -2 -5 12 0 14 2 19 5 13 2 -7 2 -19 0 -25z m145 -158 c28 -21 40 -51 28 -70 -4 -7 -10 0 -13 19 -4 20 -18 38 -39 51 -19 12 -26 20 -17 20 9 0 28 -9 41 -20z m-118 -99 c3 -5 -1 -11 -9 -14 -9 -4 -12 -1 -8 9 6 16 10 17 17 5z m45 -72 c70 -23 91 -32 91 -39 0 -7 -127 34 -138 44 -8 9 8 7 47 -5z m71 -595 c0 -8 -4 -12 -10 -9 -5 3 -10 10 -10 16 0 5 5 9 10 9 6 0 10 -7 10 -16z"/>
 <path d="M421 1672 c-14 -27 -12 -35 8 -23 7 5 11 17 9 27 -4 17 -5 17 -17 -4z"/>
 <path d="M409 1603 c-11 -29 -7 -102 12 -228 16 -99 17 -103 34 -71 12 23 12 38 0 109 -8 45 -15 99 -15 120 0 27 -4 36 -12 31 -8 -5 -9 -2 -4 12 16 38 18 54 7 54 -6 0 -16 -12 -22 -27z"/>
 <path d="M805 860 c3 -5 11 -10 16 -10 6 0 7 5 4 10 -3 6 -11 10 -16 10 -6 0 -7 -4 -4 -10z"/>
 <path d="M863 820 c1 -19 6 -41 11 -49 5 -8 10 -26 12 -40 1 -14 2 -30 3 -35 1 -6 6 -5 12 1 11 11 -8 101 -29 139 -9 16 -11 14 -9 -16z"/>
 <path d="M885 624 c-3 -20 -4 -39 -1 -42 3 -3 6 -1 7 4 1 16 7 38 14 57 4 9 3 17 -3 17 -5 0 -13 -16 -17 -36z"/>
 <path d="M582 269 c2 -7 10 -15 17 -17 8 -3 12 1 9 9 -2 7 -10 15 -17 17 -8 3 -12 -1 -9 -9z"/>
 </g>
<g id="layer106" fill="#d2c4b7" stroke="none">
 <path d="M630 2262 c6 -13 14 -21 18 -18 3 4 -2 14 -12 24 -18 16 -18 16 -6 -6z"/>
 <path d="M680 2276 c0 -2 7 -9 15 -16 13 -11 14 -10 9 4 -5 14 -24 23 -24 12z"/>
 <path d="M602 2217 c18 -18 40 -30 47 -28 11 3 12 6 2 9 -6 2 -23 15 -36 28 -13 13 -29 24 -35 24 -7 0 3 -15 22 -33z"/>
 <path d="M320 2212 c0 -5 23 -19 51 -32 28 -13 59 -36 69 -50 20 -28 40 -126 40 -197 0 -23 5 -45 10 -48 6 -3 10 -12 10 -18 0 -8 -3 -8 -9 1 -16 26 -24 -21 -29 -182 -3 -98 0 -187 7 -230 6 -39 14 -86 17 -104 3 -18 9 -30 14 -27 11 7 41 -5 35 -15 -2 -4 -16 -6 -30 -4 -37 4 -54 -35 -36 -79 23 -58 24 -73 1 -39 -27 39 -31 38 -21 -8 7 -37 14 -39 65 -25 31 8 55 -12 33 -28 -7 -5 -1 -6 16 -3 16 4 27 2 27 -4 0 -15 -49 -31 -74 -25 -37 9 47 -28 94 -41 76 -22 87 -19 82 20 -3 28 -10 36 -50 54 -26 12 -36 19 -22 16 77 -18 77 -18 76 13 -1 22 3 27 18 25 11 -2 15 1 11 7 -3 6 -1 11 4 11 6 0 11 -5 11 -12 0 -6 3 -8 6 -5 4 3 15 2 25 -3 14 -8 17 -6 16 9 0 11 -5 17 -10 14 -5 -3 -7 0 -5 8 3 8 13 13 22 13 10 -1 15 0 12 3 -6 7 20 61 41 85 10 11 12 25 7 40 -6 20 -5 21 10 9 14 -12 16 -12 10 3 -3 9 -10 16 -15 16 -5 0 -9 13 -9 29 0 17 -5 33 -11 37 -6 3 -8 17 -4 33 11 41 13 141 3 141 -4 0 -14 12 -20 28 l-12 27 -5 -40 c-4 -25 -9 -35 -14 -27 -18 28 -25 9 -10 -30 10 -28 16 -81 17 -153 1 -95 -2 -116 -22 -157 -23 -49 -41 -69 -43 -46 -3 58 -6 70 -19 79 -8 5 -32 8 -52 7 -39 -4 -50 5 -22 16 9 3 33 6 53 6 34 0 38 2 34 23 -2 12 2 55 11 95 8 39 14 97 12 127 -2 31 1 58 6 61 13 8 3 137 -14 192 -10 33 -17 42 -31 38 -9 -2 -15 0 -11 5 8 13 31 11 47 -5 12 -13 16 -10 25 20 8 27 8 34 -1 31 -7 -3 -11 -9 -10 -14 1 -5 -4 -10 -12 -10 -11 0 -12 5 -3 20 17 33 27 77 17 77 -5 0 -9 -8 -10 -17 -1 -12 -4 -9 -8 7 -4 14 -3 32 2 41 10 17 -16 69 -35 69 -5 0 -6 5 -2 12 4 6 -1 17 -11 25 -12 8 -14 13 -6 13 11 0 11 3 1 15 -12 14 -40 21 -40 10 0 -4 7 -20 16 -37 32 -62 21 -233 -21 -338 -15 -35 -29 -88 -32 -117 -5 -46 -8 -51 -18 -36 -11 15 -15 15 -29 4 -24 -20 -26 -12 -11 52 7 31 10 57 7 57 -3 0 -1 5 6 12 14 14 16 42 3 33 -17 -10 -24 63 -10 98 8 17 13 35 11 40 -1 4 1 7 6 7 8 0 10 15 14 117 2 44 -1 72 -7 72 -5 0 -9 -7 -7 -16 2 -9 -1 -12 -8 -8 -7 5 -9 -2 -5 -22 l6 -28 -18 30 c-12 20 -24 30 -35 27 -10 -2 -18 2 -18 8 0 6 -7 18 -15 26 -14 14 -19 11 -16 -9 1 -5 -3 -6 -9 -2 -5 3 -10 12 -10 19 0 13 -41 35 -74 40 -9 1 -22 8 -28 14 -14 14 -28 16 -28 4z m510 -682 c0 -5 -4 -10 -10 -10 -5 0 -10 5 -10 10 0 6 5 10 10 10 6 0 10 -4 10 -10z m-250 -40 c6 -11 8 -26 4 -32 -5 -8 -10 -5 -15 8 -16 41 -8 59 11 24z m33 -287 c14 -17 14 -18 -9 -18 -23 0 -32 14 -17 28 8 9 8 10 26 -10z"/>
 <path d="M701 2183 c-12 -13 -12 -17 3 -25 9 -5 14 -13 11 -18 -3 -4 1 -10 8 -13 9 -3 13 2 12 16 -2 12 -8 21 -14 19 -8 -2 -10 5 -6 18 8 24 5 25 -14 3z"/>
 <path d="M776 1835 c-3 -9 -6 -24 -5 -33 0 -9 5 -4 10 12 9 32 6 48 -5 21z"/>
 <path d="M427 1673 c-4 -3 -7 -11 -7 -17 0 -6 5 -5 12 2 6 6 9 14 7 17 -3 3 -9 2 -12 -2z"/>
 <path d="M418 1624 c-5 -4 -8 -19 -8 -33 1 -23 2 -24 11 -8 11 19 9 53 -3 41z"/>
 <path d="M416 1544 c-9 -23 -7 -76 5 -157 14 -92 18 -105 27 -89 5 6 1 55 -8 109 -9 54 -15 110 -14 126 3 30 -1 35 -10 11z"/>
 <path d="M500 1125 c-8 -9 -8 -15 -2 -15 12 0 26 19 19 26 -2 2 -10 -2 -17 -11z"/>
 <path d="M504 1005 c-118 -70 -138 -115 -132 -290 4 -118 20 -166 70 -213 26 -24 68 -37 68 -21 0 5 -3 9 -8 9 -4 0 -13 9 -20 21 -12 19 -12 19 10 8 21 -11 22 -11 9 4 -9 11 -10 17 -2 17 18 0 12 44 -8 62 -17 14 -21 15 -32 2 -8 -10 -15 -11 -24 -4 -6 5 -14 7 -18 4 -3 -3 -11 5 -18 18 -11 21 -11 22 4 9 9 -7 23 -11 31 -8 8 3 17 1 20 -6 3 -9 5 -9 5 1 1 6 13 12 27 12 14 0 23 -4 19 -9 -3 -5 -2 -12 3 -15 4 -3 9 13 11 35 1 22 6 50 11 62 7 17 9 10 11 -33 1 -30 3 -47 6 -37 2 9 9 17 15 17 5 0 7 -8 4 -17 -4 -10 -4 -14 -1 -11 4 4 20 -9 37 -28 17 -19 36 -34 44 -34 16 0 37 -36 29 -50 -3 -5 -25 -12 -50 -15 -24 -4 -46 -14 -49 -22 -4 -9 -1 -13 6 -10 7 2 23 0 36 -4 13 -5 22 -5 22 1 0 6 10 10 23 10 27 0 49 40 35 65 -12 21 23 60 39 44 14 -14 44 17 36 38 -5 12 -3 14 7 8 10 -6 11 -4 4 6 -12 19 -14 91 -3 105 6 7 1 22 -13 39 l-22 28 22 -6 c12 -4 32 -9 45 -12 l22 -6 -22 10 c-13 6 -23 14 -24 18 0 4 -2 22 -4 38 -3 20 1 34 12 43 15 11 14 12 -10 12 -20 0 -27 5 -27 20 0 10 -10 29 -22 40 -27 25 -135 80 -158 80 -9 0 -43 -16 -76 -35z m203 -363 c-18 -20 -23 -47 -7 -37 19 12 10 -22 -12 -41 -18 -16 -21 -17 -15 -2 4 12 2 15 -9 11 -18 -7 -18 2 2 21 8 9 16 30 16 47 1 20 4 26 9 17 6 -9 9 -8 9 7 0 14 3 16 12 7 9 -9 8 -16 -5 -30z"/>
 <path d="M870 815 c0 -5 5 -17 10 -25 5 -8 10 -10 10 -5 0 6 -5 17 -10 25 -5 8 -10 11 -10 5z"/>
 <path d="M560 587 c0 -15 4 -27 10 -27 5 0 9 9 7 20 -5 31 -17 36 -17 7z"/>
 <path d="M580 541 c0 -5 5 -13 10 -16 6 -3 10 -2 10 4 0 5 -4 13 -10 16 -5 3 -10 2 -10 -4z"/>
 <path d="M735 540 c-3 -5 -2 -10 4 -10 5 0 13 5 16 10 3 6 2 10 -4 10 -5 0 -13 -4 -16 -10z"/>
 <path d="M630 518 c0 -4 4 -8 9 -8 6 0 12 4 15 8 3 5 -1 9 -9 9 -8 0 -15 -4 -15 -9z"/>
 <path d="M540 450 c8 -5 24 -10 34 -10 26 0 18 6 -19 14 -22 5 -26 4 -15 -4z"/>
 <path d="M585 260 c3 -5 10 -10 16 -10 5 0 9 5 9 10 0 6 -7 10 -16 10 -8 0 -12 -4 -9 -10z"/>
 </g>
<g id="layer107" fill="#f3e5d9" stroke="none">
 <path d="M672 2118 c16 -42 19 -71 16 -143 -3 -85 -2 -90 17 -87 11 2 22 6 25 8 7 8 4 79 -5 100 -4 10 -10 28 -11 39 -2 11 -7 31 -11 45 -3 14 -6 28 -5 33 1 4 -2 7 -8 7 -5 0 -10 6 -10 14 0 7 -6 19 -14 25 -11 9 -9 -2 6 -41z"/>
 <path d="M437 2139 c23 -26 43 -113 43 -190 0 -29 6 -51 15 -59 8 -7 15 -19 15 -26 0 -17 -20 -19 -20 -1 0 6 -6 4 -11 -7 -6 -10 -14 -85 -17 -167 -4 -119 -1 -170 14 -254 18 -102 19 -105 45 -105 27 0 59 -27 60 -51 0 -8 6 -3 12 11 15 33 37 49 64 50 17 0 25 9 32 38 6 20 11 48 11 62 0 14 7 49 15 79 17 64 9 310 -10 329 -31 32 -91 -100 -89 -196 1 -39 -1 -51 -9 -43 -20 20 -50 12 -85 -21 l-33 -33 17 40 c12 30 17 67 16 145 0 58 4 123 10 145 13 52 17 116 6 109 -4 -3 -8 2 -8 10 0 9 -4 16 -9 16 -13 0 -20 35 -9 54 7 12 3 18 -16 26 -15 5 -26 13 -26 17 0 5 -13 17 -28 27 l-27 19 22 -24z m152 -637 c9 -21 9 -36 1 -57 -14 -37 -23 -25 -28 35 -4 55 9 66 27 22z"/>
 <path d="M534 2049 c-3 -6 -1 -16 5 -22 8 -8 11 -5 11 11 0 24 -5 28 -16 11z"/>
 <path d="M804 1628 c5 -29 3 -39 -11 -47 -15 -8 -16 -13 -6 -30 7 -11 10 -28 7 -38 -4 -14 -3 -14 7 2 7 11 17 23 22 26 5 4 8 13 5 20 -7 18 -5 35 4 32 9 -3 -12 48 -25 62 -6 6 -7 -4 -3 -27z"/>
 <path d="M415 1617 c-4 -10 -5 -21 -1 -24 10 -10 18 4 13 24 -4 17 -4 17 -12 0z"/>
 <path d="M766 1605 c4 -8 8 -15 10 -15 2 0 4 7 4 15 0 8 -4 15 -10 15 -5 0 -7 -7 -4 -15z"/>
 <path d="M800 1408 c0 -48 -7 -84 -25 -144 -11 -36 21 -24 40 15 19 39 31 156 15 146 -6 -4 -10 1 -10 9 0 8 -4 18 -10 21 -6 4 -10 -14 -10 -47z"/>
 <path d="M426 1386 c3 -33 10 -69 15 -80 11 -26 1 73 -12 112 -6 19 -7 9 -3 -32z"/>
 <path d="M610 1280 c-20 -18 -25 -18 -51 -5 -36 19 -73 19 -89 0 -9 -11 -8 -26 9 -72 11 -32 20 -52 21 -45 0 6 8 12 17 12 15 0 15 2 -2 14 -18 13 -17 14 16 31 34 18 34 18 16 -2 -17 -20 -17 -21 3 -26 16 -4 23 1 31 20 8 22 12 24 22 12 7 -8 21 -22 32 -32 20 -18 20 -18 -7 -12 -14 4 -36 2 -48 -5 -17 -9 -19 -14 -9 -26 11 -13 14 -13 27 0 12 12 19 12 51 -1 23 -10 32 -11 24 -3 -9 10 -8 20 5 46 8 19 19 34 24 34 18 0 7 50 -14 64 -30 21 -50 20 -78 -4z"/>
 <path d="M453 1183 c1 -19 6 -28 11 -23 6 6 5 18 -2 32 -10 22 -10 21 -9 -9z"/>
 <path d="M594 1118 c-4 -7 -3 -8 4 -4 13 8 15 -4 6 -28 -3 -9 -14 -17 -23 -17 -17 -1 53 -17 79 -18 24 -1 19 51 -5 66 -26 16 -52 16 -61 1z"/>
 <path d="M525 1013 c-130 -69 -147 -97 -152 -258 -4 -106 -2 -118 10 -102 10 12 16 14 19 6 2 -7 12 -9 26 -5 12 4 20 11 18 15 -3 4 1 8 9 8 8 0 15 -3 15 -7 0 -4 7 -7 15 -7 12 0 12 3 2 16 -10 12 -9 13 2 6 11 -6 13 -4 8 9 -5 11 -3 15 5 10 7 -5 9 -2 6 7 -4 10 2 14 18 14 13 0 24 -6 24 -13 0 -7 4 -11 9 -8 5 4 8 -2 7 -11 -3 -20 29 -47 44 -38 6 3 13 -1 16 -10 6 -14 8 -14 21 2 8 10 12 12 8 6 -3 -7 -3 -13 0 -13 3 0 11 14 16 30 6 17 15 30 21 30 5 0 6 9 3 20 -7 23 3 63 14 55 5 -2 7 7 5 21 -1 14 0 23 3 20 4 -3 12 -1 20 6 11 9 20 5 41 -15 16 -15 32 -27 37 -27 5 0 0 7 -12 15 -24 17 -29 69 -9 94 9 11 7 13 -10 7 -17 -5 -26 0 -42 28 -20 34 -106 98 -147 110 -12 4 -40 -5 -70 -21z m63 -105 c12 -12 -1 -48 -17 -48 -11 0 -19 31 -14 48 6 15 16 15 31 0z"/>
 <path d="M414 541 c14 -26 63 -67 71 -59 4 4 -74 88 -81 88 -2 0 2 -13 10 -29z"/>
 </g>

</svg>