<!DOCTYPE svg PUBLIC "-//W3C//DTD SVG 20010904//EN" "http://www.w3.org/TR/2001/REC-SVG-20010904/DTD/svg10.dtd">
<svg version="1.0" xmlns="http://www.w3.org/2000/svg" width="125px" height="250px" viewBox="0 0 1250 2500" preserveAspectRatio="xMidYMid meet">
<g id="layer101" fill="#1b2224" stroke="none">
 <path d="M659 2306 c-3 -3 -23 -6 -44 -7 -46 -3 -65 -14 -65 -39 0 -22 -73 -38 -94 -21 -7 6 -45 10 -87 8 -65 -2 -74 -4 -77 -22 -3 -29 7 -39 62 -61 68 -27 86 -56 99 -152 11 -84 -4 -270 -24 -302 -37 -60 -41 -83 -34 -215 3 -71 8 -164 10 -205 6 -100 10 -129 24 -143 6 -6 11 -21 11 -34 0 -16 6 -23 20 -23 11 0 23 -7 26 -15 4 -8 18 -15 32 -15 19 0 23 -3 15 -11 -19 -19 -184 11 -225 41 l-28 21 -11 -28 c-15 -41 -2 -131 38 -253 24 -73 36 -134 41 -200 4 -56 13 -102 20 -110 8 -8 23 -33 35 -54 24 -43 47 -58 47 -31 0 15 5 13 33 -9 89 -73 140 -95 110 -47 -11 17 -9 17 25 5 52 -18 76 -18 68 2 -5 13 1 15 36 12 28 -2 42 1 41 8 -2 13 65 1 98 -16 25 -14 29 -13 29 10 0 11 -9 29 -20 40 -11 11 -15 20 -10 20 6 0 15 11 20 25 5 14 16 25 24 25 22 0 30 19 15 36 -10 12 -8 19 12 40 19 20 21 27 9 34 -11 7 -12 17 -1 62 17 73 19 113 4 111 -6 -2 -19 22 -28 53 -9 30 -22 57 -30 61 -8 3 -15 13 -15 23 0 10 -5 20 -11 22 -7 2 -7 12 0 30 13 35 -2 45 -27 20 -15 -15 -22 -17 -36 -7 -15 11 -15 14 -1 25 9 7 14 19 11 27 -3 7 1 13 10 13 19 0 73 58 74 80 1 8 4 60 7 115 3 55 6 164 7 242 l1 141 -31 44 c-18 23 -41 44 -53 46 -17 3 -21 10 -21 42 0 22 8 59 17 82 14 35 18 75 18 208 l0 166 -37 38 c-30 31 -45 38 -85 42 -27 2 -51 2 -54 0z m-3 -224 c11 -72 -2 -201 -28 -272 l-23 -65 -3 67 c-2 37 2 76 7 86 6 11 11 74 12 142 2 102 5 120 15 105 7 -10 16 -38 20 -63z m123 -674 c-1 -55 -2 -59 -10 -33 -9 28 -4 95 6 95 3 0 5 -28 4 -62z"/>
 </g>
<g id="layer102" fill="#553534" stroke="none">
 <path d="M623 2284 c-7 -3 -10 -13 -7 -22 5 -15 4 -15 -6 1 -6 9 -17 17 -24 17 -21 0 -28 -30 -11 -46 8 -9 15 -19 15 -24 0 -5 9 -11 19 -15 35 -11 62 -86 64 -177 2 -97 -3 -129 -38 -221 -14 -37 -25 -77 -25 -89 0 -48 -13 -3 -20 70 -6 59 -5 90 5 118 21 59 20 258 -2 294 -17 30 -31 33 -211 43 -77 5 -97 -11 -55 -41 16 -11 39 -22 53 -23 15 -3 36 -20 54 -46 27 -39 30 -52 35 -148 3 -59 3 -112 -1 -119 -4 -7 -10 -50 -14 -94 -5 -55 -11 -82 -19 -82 -7 0 -16 -8 -20 -17 -14 -35 -17 -188 -5 -248 7 -33 13 -82 15 -110 1 -27 6 -59 11 -69 5 -14 4 -17 -4 -12 -17 11 -15 -9 3 -24 13 -11 14 -10 9 4 -4 9 -1 16 6 16 8 0 10 12 7 37 -3 21 -2 42 3 48 4 5 10 19 13 30 4 11 5 -8 3 -43 -2 -35 1 -76 7 -92 9 -24 13 -26 29 -16 15 9 21 8 28 -4 8 -12 10 -12 16 3 3 9 12 17 20 17 17 0 19 -27 2 -32 -7 -3 4 -21 29 -45 22 -22 44 -50 48 -61 7 -23 25 -30 25 -11 0 5 5 7 11 3 8 -4 8 0 0 15 -7 11 -14 21 -17 21 -3 0 -2 -6 2 -12 5 -9 2 -8 -10 1 -12 10 -14 16 -5 21 6 4 8 13 5 19 -4 6 -2 11 3 11 6 0 11 -6 11 -14 0 -8 4 -18 10 -21 5 -3 7 0 4 8 -3 8 2 14 11 14 8 0 15 -5 15 -11 0 -7 3 -7 8 -1 9 13 32 17 32 6 0 -5 -6 -11 -12 -14 -7 -2 -10 -7 -7 -11 4 -4 13 -1 20 6 15 14 39 20 76 19 12 0 25 4 28 9 3 6 -2 7 -12 4 -13 -4 -12 -1 5 12 12 9 22 21 22 26 0 6 -7 4 -17 -3 -15 -13 -15 -12 -5 8 19 34 14 51 -8 25 -18 -22 -19 -22 -17 -2 1 11 6 20 11 20 5 0 7 3 3 6 -3 3 -1 17 4 31 7 20 6 24 -4 20 -10 -4 -12 5 -8 37 5 30 11 41 23 41 10 0 23 6 30 13 9 9 9 12 0 12 -7 0 -12 -6 -12 -12 0 -9 -4 -8 -10 2 -7 11 -5 19 8 28 14 11 17 30 17 125 0 99 -3 116 -23 149 -28 45 -42 50 -63 24 -16 -20 -17 -19 -24 37 -6 43 -3 69 9 105 25 70 27 85 28 235 1 137 1 139 -28 179 -31 45 -54 59 -54 34 0 -20 -16 -21 -24 -1 -3 8 -15 15 -27 15 -18 0 -19 -2 -9 -15 11 -13 10 -14 -4 -9 -9 3 -16 10 -16 15 0 10 -17 11 -37 3z m137 -661 c0 -21 -3 -24 -9 -14 -5 8 -7 20 -4 28 8 21 13 15 13 -14z m29 -223 c1 -31 7 -62 13 -68 10 -10 10 -15 -2 -22 -8 -5 -11 -10 -6 -10 6 0 5 -5 -2 -12 -7 -7 -12 -22 -12 -35 0 -12 -6 -26 -14 -30 -15 -9 -36 -46 -36 -64 0 -7 7 -4 15 7 14 18 14 17 3 -9 l-12 -28 -12 23 c-8 16 -9 25 -2 29 6 4 7 12 3 19 -6 9 -4 11 5 5 10 -6 12 -1 8 18 -3 15 -1 24 3 21 15 -9 10 14 -7 30 -11 11 -12 16 -3 16 10 0 10 3 1 12 -10 10 -15 10 -22 -2 -7 -11 -9 -10 -7 8 0 12 5 22 10 22 4 0 5 5 1 11 -4 7 -9 7 -13 2 -3 -5 -14 -13 -25 -16 -16 -7 -18 -3 -12 30 l5 38 -14 -32 c-17 -37 -20 -39 -29 -17 -3 8 -2 13 3 10 12 -8 35 50 26 66 -3 7 2 4 12 -7 27 -29 41 -28 35 2 -4 23 -3 24 17 14 12 -7 20 -8 19 -4 -2 5 6 30 17 57 l20 48 7 -38 c4 -22 7 -64 7 -94z m-55 59 c-3 -5 -10 -7 -15 -3 -5 3 -7 10 -3 15 3 5 10 7 15 3 5 -3 7 -10 3 -15z m-264 -55 c0 -8 -5 -12 -10 -9 -6 4 -8 11 -5 16 9 14 15 11 15 -7z m41 -17 c-1 -12 -15 -9 -19 4 -3 6 1 10 8 8 6 -3 11 -8 11 -12z m34 -27 c4 -6 2 -17 -4 -24 -6 -7 -9 -15 -6 -18 3 -2 -2 -5 -10 -5 -13 0 -13 3 2 19 18 20 5 25 -16 6 -11 -10 -10 -8 0 10 15 24 24 27 34 12z m55 -58 c0 -4 -10 -9 -22 -9 -18 -2 -20 0 -8 7 18 12 30 13 30 2z"/>
 <path d="M860 1235 c-7 -9 -8 -15 -2 -15 5 0 12 7 16 15 3 8 4 15 2 15 -2 0 -9 -7 -16 -15z"/>
 <path d="M449 1146 c23 -23 29 -35 19 -38 -7 -3 -1 -7 13 -10 l26 -5 -23 35 c-13 19 -24 40 -24 46 0 6 -5 4 -10 -4 -6 -10 -10 -11 -10 -2 0 6 -5 12 -12 12 -7 0 3 -15 21 -34z"/>
 <path d="M280 1036 c0 -53 29 -186 41 -186 4 0 2 21 -5 48 -7 26 -14 74 -15 107 -3 74 -21 100 -21 31z"/>
 <path d="M776 1071 c-3 -4 6 -6 19 -3 14 2 25 6 25 8 0 8 -39 4 -44 -5z"/>
 <path d="M720 1055 c0 -12 5 -26 12 -33 9 -9 8 -12 -5 -12 -9 0 -21 8 -26 18 -9 14 -12 14 -20 3 -6 -9 -2 -20 10 -32 21 -21 44 -26 33 -6 -5 8 -2 8 9 -2 18 -15 23 -26 7 -16 -5 3 -10 1 -10 -4 0 -6 7 -11 16 -11 14 0 16 -8 12 -43 -4 -37 -1 -47 18 -66 13 -13 24 -28 24 -35 0 -6 -5 -4 -11 4 -9 12 -10 12 -5 -3 3 -10 6 -21 6 -24 0 -2 7 3 16 12 9 9 24 13 35 10 10 -4 19 -3 20 2 0 4 2 16 4 26 2 9 -1 15 -6 11 -5 -3 -7 -9 -4 -14 10 -17 -13 -19 -26 -3 -8 9 -9 14 -3 10 7 -4 14 3 18 18 4 14 10 24 15 21 4 -3 6 6 3 20 -3 18 -8 22 -17 14 -20 -16 -24 0 -9 35 18 44 18 50 -1 35 -8 -7 -15 -18 -15 -26 0 -7 -5 -16 -12 -20 -6 -4 -8 -3 -5 3 4 6 -1 19 -9 29 -9 10 -12 13 -8 5 5 -10 3 -12 -5 -6 -8 5 -11 18 -7 37 3 18 2 27 -4 23 -6 -3 -10 -14 -11 -23 0 -9 -9 1 -20 23 -13 27 -19 34 -19 20z"/>
 <path d="M346 1005 c4 -8 8 -15 10 -15 2 0 4 7 4 15 0 8 -4 15 -10 15 -5 0 -7 -7 -4 -15z"/>
 <path d="M372 960 c-9 -15 -9 -21 1 -26 6 -4 9 -4 5 1 -4 4 -3 14 4 22 6 7 9 15 7 18 -3 2 -10 -4 -17 -15z"/>
 <path d="M482 955 c6 -14 14 -21 17 -16 8 12 26 2 34 -19 4 -12 6 -12 6 2 1 9 -12 26 -28 37 -38 27 -43 26 -29 -4z"/>
 <path d="M564 939 c-15 -6 -15 -8 -3 -8 30 -2 44 -29 32 -62 -14 -38 1 -29 17 10 10 25 9 32 -7 48 -13 13 -26 17 -39 12z"/>
 <path d="M654 883 c-19 -19 -8 -31 31 -33 44 -3 47 -2 36 19 -14 25 -48 33 -67 14z"/>
 <path d="M449 878 c0 -2 -2 -10 -4 -19 -1 -9 -6 -27 -9 -40 -5 -18 -5 -20 3 -8 11 17 22 69 15 69 -2 0 -4 -1 -5 -2z"/>
 <path d="M885 838 c2 -13 8 -39 14 -58 l9 -35 1 35 c1 42 -8 80 -19 80 -5 0 -7 -10 -5 -22z"/>
 <path d="M628 822 c-20 -4 -23 -17 -7 -27 6 -4 8 -13 5 -20 -8 -21 29 -49 49 -37 14 7 12 10 -16 17 l-34 9 40 4 c52 4 64 17 39 39 -19 18 -42 22 -76 15z"/>
 <path d="M330 818 c1 -12 32 -102 49 -141 11 -26 16 -45 11 -42 -19 12 -10 -23 18 -62 15 -21 32 -48 38 -59 11 -17 21 -19 70 -12 16 2 13 28 -4 28 -9 0 -12 3 -9 6 4 4 -3 15 -14 25 -11 9 -20 21 -20 26 1 4 -3 9 -9 9 -5 1 -16 2 -22 3 -10 1 -9 4 1 10 11 7 4 22 -31 72 -25 35 -51 81 -57 102 -7 20 -14 37 -17 37 -2 0 -4 -1 -4 -2z"/>
 <path d="M805 770 c-15 -16 -15 -22 -5 -35 7 -8 9 -16 4 -16 -5 -1 7 -4 26 -8 36 -7 59 8 60 38 0 12 -3 12 -12 3 -18 -18 -32 -14 -17 5 12 15 12 16 -5 10 -14 -6 -17 -4 -12 8 8 22 -18 19 -39 -5z"/>
 <path d="M563 763 c-17 -6 -16 -28 2 -62 16 -33 45 -48 45 -25 0 9 -5 13 -12 9 -7 -4 -2 3 12 15 14 12 20 19 14 16 -7 -3 -15 1 -18 10 -4 10 -2 13 7 8 6 -4 3 2 -7 14 -20 23 -23 24 -43 15z"/>
 <path d="M930 746 c0 -16 -4 -25 -10 -21 -6 3 -13 -1 -16 -9 -3 -9 -9 -14 -14 -11 -4 2 -17 -6 -30 -20 -22 -24 -22 -24 -1 -18 12 3 30 17 41 31 12 15 20 19 20 10 0 -8 -6 -20 -12 -28 -11 -12 -10 -12 4 -1 18 13 35 77 24 88 -3 4 -6 -6 -6 -21z"/>
 <path d="M823 693 c-12 -2 -24 -11 -27 -19 -8 -21 18 -17 39 6 10 11 16 19 14 19 -2 -1 -14 -4 -26 -6z"/>
 <path d="M878 646 c-8 -9 -26 -12 -49 -9 -39 6 -83 -12 -73 -29 4 -5 20 -7 38 -4 23 4 27 3 14 -4 -9 -6 -15 -19 -13 -29 2 -14 -3 -17 -23 -17 -41 1 -42 -16 -2 -29 26 -9 39 -9 49 -1 12 9 13 8 6 -4 -6 -11 -5 -12 4 -4 7 6 14 20 15 30 2 10 9 20 17 22 11 3 11 1 -1 -7 -13 -10 -13 -11 0 -11 14 0 70 44 70 56 0 2 -11 -3 -25 -12 -23 -15 -25 -15 -19 0 5 12 2 15 -10 10 -9 -3 -13 -11 -9 -18 3 -6 3 -8 -2 -4 -4 4 -17 3 -29 -3 -21 -10 -21 -10 -1 5 36 29 65 58 65 67 0 13 -7 11 -22 -5z"/>
 <path d="M367 603 c-4 -3 -7 -18 -7 -31 0 -31 12 -21 16 13 3 26 1 29 -9 18z"/>
 <path d="M760 580 c0 -5 7 -10 16 -10 8 0 12 5 9 10 -3 6 -10 10 -16 10 -5 0 -9 -4 -9 -10z"/>
 <path d="M658 568 c5 -5 16 -8 23 -6 8 3 3 7 -10 11 -17 4 -21 3 -13 -5z"/>
 <path d="M700 555 c0 -8 2 -15 4 -15 2 0 6 7 10 15 3 8 1 15 -4 15 -6 0 -10 -7 -10 -15z"/>
 <path d="M400 522 c1 -22 39 -92 40 -72 0 8 -6 27 -14 42 -10 19 -11 28 -3 31 6 2 3 6 -6 10 -12 4 -17 1 -17 -11z"/>
 <path d="M850 530 c0 -6 11 -8 28 -4 39 10 40 14 4 14 -18 0 -32 -5 -32 -10z"/>
 <path d="M680 511 c0 -14 56 -24 82 -15 l23 8 -25 7 c-37 10 -80 10 -80 0z"/>
 <path d="M583 494 c0 -15 65 -49 75 -39 8 8 -44 52 -62 52 -7 0 -13 -6 -13 -13z"/>
 <path d="M450 480 c0 -14 29 -32 41 -24 7 4 9 3 6 -3 -8 -12 61 -78 71 -68 8 8 -58 73 -90 90 -16 7 -28 10 -28 5z"/>
 <path d="M675 463 c7 -28 -9 -30 -62 -8 -43 18 -49 15 -33 -17 11 -22 11 -22 -5 -3 -9 11 -21 19 -26 18 -5 -2 -9 1 -9 6 0 5 -7 11 -15 15 -12 4 -13 2 -6 -12 11 -20 66 -54 74 -46 3 3 16 -1 29 -10 33 -23 47 -19 18 6 -20 17 -21 20 -5 14 30 -12 106 -16 100 -5 -9 14 35 11 90 -6 27 -8 51 -13 53 -10 8 8 -39 45 -59 45 -11 0 -18 4 -15 9 9 14 -20 21 -34 8 -10 -9 -11 -9 -5 3 8 13 7 13 -8 1 -10 -8 -17 -9 -17 -3 0 6 -9 9 -20 7 -11 -2 -20 0 -20 4 0 4 -7 8 -16 8 -11 0 -14 -7 -9 -24z"/>
 </g>
<g id="layer103" fill="#4a5151" stroke="none">
 <path d="M624 2284 c-7 -3 -10 -15 -8 -27 5 -22 5 -22 -5 1 -12 25 -36 29 -45 6 -7 -19 4 -33 68 -91 33 -28 41 -67 40 -178 -1 -81 -8 -123 -28 -168 -9 -21 -23 -61 -30 -90 -12 -44 -15 -48 -19 -27 -14 64 -16 161 -3 192 7 18 14 81 15 141 2 90 0 108 -13 113 -9 3 -16 10 -16 16 0 5 5 6 10 3 11 -7 14 8 4 18 -10 9 -34 -4 -27 -16 3 -6 1 -7 -5 -3 -6 3 -15 -2 -21 -11 -5 -10 -13 -14 -18 -10 -4 5 0 15 11 22 10 8 15 18 12 24 -4 6 2 8 14 6 11 -2 20 0 20 5 0 8 -45 13 -200 22 -72 5 -92 -12 -51 -41 16 -12 38 -21 49 -21 25 0 71 -53 79 -91 3 -16 8 -29 12 -29 9 0 2 -175 -9 -235 -5 -27 -9 -69 -9 -92 -1 -30 -5 -43 -15 -43 -8 0 -17 -8 -21 -17 -13 -36 -17 -180 -5 -243 6 -36 13 -87 15 -115 1 -27 6 -59 11 -69 5 -14 4 -17 -4 -12 -17 11 -15 -9 3 -24 13 -11 14 -10 9 4 -4 9 -1 16 6 16 8 0 10 12 7 37 -3 21 -2 42 3 48 4 5 10 19 14 30 3 11 3 -10 1 -46 -2 -46 1 -73 10 -86 8 -11 11 -24 7 -28 -4 -5 -1 -5 6 -1 7 4 10 12 7 17 -8 12 28 -2 37 -15 4 -6 9 -4 14 7 3 9 12 17 20 17 17 0 19 -27 2 -32 -7 -3 4 -21 29 -45 22 -22 44 -50 48 -61 7 -23 25 -30 25 -11 0 5 5 7 11 3 8 -4 8 0 0 15 -7 11 -14 21 -17 21 -3 0 -2 -6 2 -12 5 -9 2 -8 -10 1 -12 10 -14 16 -5 21 6 4 8 13 5 19 -4 6 -2 11 3 11 6 0 11 -6 11 -14 0 -8 4 -18 10 -21 5 -3 7 0 4 8 -3 8 2 14 11 14 8 0 15 -5 15 -11 0 -7 3 -7 8 -1 9 13 32 17 32 6 0 -5 -6 -11 -12 -14 -7 -2 -10 -7 -7 -11 4 -4 13 -1 20 6 15 14 39 20 76 19 12 0 25 4 28 9 3 6 -2 7 -12 4 -13 -4 -12 -1 5 12 12 9 22 21 22 26 0 6 -7 4 -17 -3 -15 -13 -15 -12 -5 8 19 34 14 51 -8 25 -18 -22 -19 -22 -17 -2 1 11 6 20 11 20 5 0 7 3 3 6 -3 3 -1 17 4 31 7 20 6 24 -4 20 -10 -4 -12 5 -8 37 5 30 11 41 23 41 10 0 23 6 30 13 9 9 9 12 0 12 -7 0 -12 -6 -12 -12 0 -9 -4 -8 -10 2 -7 11 -5 18 5 26 8 6 15 19 15 29 0 14 -3 15 -14 6 -12 -10 -13 -8 -9 8 3 11 10 19 17 18 8 -1 10 26 9 91 -1 74 -6 100 -23 126 -23 38 -50 54 -50 31 0 -8 -5 -15 -10 -15 -6 0 -14 -9 -18 -20 -15 -40 -12 128 2 172 22 64 31 150 28 268 -2 98 -4 107 -31 144 -34 48 -51 56 -52 24 l0 -23 -16 23 c-17 24 -49 31 -40 9 3 -8 -1 -14 -9 -14 -8 0 -14 6 -14 14 0 13 -15 16 -36 7z m162 -352 c-4 -3 -11 0 -16 8 -15 24 -11 33 6 15 9 -9 13 -19 10 -23z m-16 -207 c0 -5 -10 0 -21 12 -13 12 -18 26 -14 33 6 9 12 6 21 -11 7 -13 13 -28 14 -34z m-7 -106 c-4 -15 -8 -17 -13 -8 -10 15 -1 41 10 34 5 -3 6 -14 3 -26z m-313 -110 c0 -6 -4 -7 -10 -4 -5 3 -10 11 -10 16 0 6 5 7 10 4 6 -3 10 -11 10 -16z m341 -116 c2 -39 7 -69 11 -67 4 3 8 0 8 -5 0 -6 -5 -11 -11 -11 -5 0 -8 -4 -4 -9 3 -5 1 -12 -5 -16 -5 -3 -10 -17 -10 -30 0 -13 -6 -28 -14 -32 -15 -9 -36 -46 -36 -64 0 -7 7 -4 15 7 14 18 14 17 3 -9 l-12 -28 -12 23 c-8 16 -9 25 -2 29 6 4 7 12 3 19 -6 9 -4 11 5 5 10 -6 12 -1 8 18 -3 15 -1 24 3 21 15 -9 10 14 -7 30 -11 11 -12 16 -3 16 10 0 10 3 1 12 -10 10 -15 10 -22 -2 -7 -11 -9 -10 -7 8 0 12 5 22 10 22 4 0 5 5 1 11 -4 7 -9 7 -13 2 -3 -5 -14 -13 -25 -16 -16 -7 -18 -4 -13 23 8 37 0 39 -14 3 -8 -22 -12 -24 -19 -13 -6 8 -10 20 -10 25 0 6 4 4 9 -4 7 -11 10 -9 15 7 4 11 6 24 5 28 -3 21 4 68 8 52 2 -10 9 -18 14 -18 5 0 9 -6 9 -14 0 -8 7 -17 16 -20 15 -6 15 -4 2 16 -8 13 -17 42 -20 64 -5 37 -4 41 13 37 25 -7 52 -50 38 -59 -6 -4 -15 0 -20 7 -6 9 -9 10 -9 2 0 -6 7 -19 16 -27 17 -17 26 -21 22 -8 -2 4 6 29 17 55 l20 49 7 -34 c4 -18 8 -65 9 -105z m-321 42 c0 -5 -5 -3 -10 5 -5 8 -10 20 -10 25 0 6 5 3 10 -5 5 -8 10 -19 10 -25z m0 -31 c0 -8 -4 -12 -10 -9 -5 3 -10 10 -10 16 0 5 5 9 10 9 6 0 10 -7 10 -16z m41 -17 c-1 -12 -15 -9 -19 4 -3 6 1 10 8 8 6 -3 11 -8 11 -12z m34 -27 c4 -6 2 -17 -4 -24 -6 -7 -9 -15 -6 -18 3 -2 -2 -5 -10 -5 -13 0 -13 3 2 19 18 20 5 25 -16 6 -11 -10 -10 -8 0 10 15 24 24 27 34 12z m55 -58 c0 -4 -10 -9 -22 -9 -18 -2 -20 0 -8 7 18 12 30 13 30 2z"/>
 <path d="M860 1235 c-7 -9 -8 -15 -2 -15 5 0 12 7 16 15 3 8 4 15 2 15 -2 0 -9 -7 -16 -15z"/>
 <path d="M449 1146 c23 -23 29 -35 19 -38 -7 -3 -1 -7 13 -10 l26 -5 -23 35 c-13 19 -24 40 -24 46 0 6 -5 4 -10 -4 -6 -10 -10 -11 -10 -2 0 6 -5 12 -12 12 -7 0 3 -15 21 -34z"/>
 <path d="M776 1071 c-3 -4 6 -6 19 -3 14 2 25 6 25 8 0 8 -39 4 -44 -5z"/>
 <path d="M283 1002 c7 -68 22 -129 38 -146 4 -5 2 14 -6 43 -17 64 -15 52 -15 116 0 35 -4 55 -11 55 -9 0 -10 -20 -6 -68z"/>
 <path d="M720 1055 c0 -12 5 -26 12 -33 9 -9 8 -12 -5 -12 -9 0 -21 8 -26 18 -9 14 -12 14 -20 3 -6 -9 -2 -20 10 -32 21 -21 44 -26 33 -6 -5 8 -2 8 9 -2 18 -15 23 -26 7 -16 -5 3 -10 1 -10 -4 0 -6 7 -11 16 -11 14 0 16 -8 12 -43 -4 -37 -1 -47 18 -66 13 -13 24 -28 24 -35 0 -6 -5 -4 -11 4 -9 12 -10 12 -5 -3 3 -10 6 -21 6 -24 0 -2 7 3 16 12 9 9 24 13 35 10 10 -4 19 -3 20 2 0 4 2 16 4 26 2 9 -1 15 -6 11 -5 -3 -7 -9 -4 -14 10 -17 -13 -19 -26 -3 -8 9 -9 14 -3 10 7 -4 14 3 18 18 4 14 10 24 15 21 4 -3 6 6 3 20 -3 18 -8 22 -17 14 -20 -16 -24 0 -9 35 18 44 18 50 -1 35 -8 -7 -15 -18 -15 -26 0 -7 -5 -16 -12 -20 -6 -4 -8 -3 -5 3 4 6 -1 19 -9 29 -9 10 -12 13 -8 5 5 -10 3 -12 -5 -6 -8 5 -11 18 -7 37 3 18 2 27 -4 23 -6 -3 -10 -14 -11 -23 0 -9 -9 1 -20 23 -13 27 -19 34 -19 20z"/>
 <path d="M346 1005 c4 -8 8 -15 10 -15 2 0 4 7 4 15 0 8 -4 15 -10 15 -5 0 -7 -7 -4 -15z"/>
 <path d="M372 960 c-9 -15 -9 -21 1 -26 6 -4 9 -4 5 1 -4 4 -3 14 4 22 6 7 9 15 7 18 -3 2 -10 -4 -17 -15z"/>
 <path d="M476 965 c4 -8 14 -15 25 -15 10 0 23 -8 28 -17 6 -10 11 -13 11 -6 0 11 -51 53 -64 53 -3 0 -3 -7 0 -15z"/>
 <path d="M567 933 c12 -2 25 -15 31 -31 4 -14 11 -21 15 -16 10 17 -22 54 -46 53 l-22 -2 22 -4z"/>
 <path d="M655 883 c-16 -16 -10 -37 8 -30 7 2 22 1 33 -4 27 -10 36 -2 24 21 -13 24 -47 31 -65 13z"/>
 <path d="M449 878 c0 -2 -2 -10 -4 -19 -1 -9 -6 -27 -9 -40 -5 -18 -5 -20 3 -8 11 17 22 69 15 69 -2 0 -4 -1 -5 -2z"/>
 <path d="M885 838 c2 -13 8 -39 14 -58 l9 -35 1 35 c1 42 -8 80 -19 80 -5 0 -7 -10 -5 -22z"/>
 <path d="M330 817 c0 -8 38 -115 54 -150 9 -22 12 -36 7 -32 -22 13 -10 -17 31 -81 35 -54 46 -64 63 -59 11 4 25 7 31 7 16 2 13 28 -3 28 -8 0 -12 4 -9 8 3 5 -4 14 -14 22 -10 8 -17 17 -14 22 4 7 -17 12 -38 10 -3 -1 -9 5 -12 13 -3 9 0 12 10 8 22 -8 17 4 -26 61 -22 29 -47 74 -56 100 -13 38 -24 58 -24 43z"/>
 <path d="M610 811 c0 -6 5 -13 11 -16 6 -4 8 -13 5 -20 -8 -21 29 -49 49 -37 14 7 12 10 -16 17 l-34 9 40 4 c51 4 66 19 41 38 -22 16 -96 19 -96 5z"/>
 <path d="M805 770 c-15 -16 -15 -22 -5 -35 7 -8 9 -16 4 -16 -5 -1 7 -4 26 -8 36 -7 59 8 60 38 0 12 -3 12 -12 3 -18 -18 -32 -14 -17 5 12 15 12 16 -5 10 -14 -6 -17 -4 -12 8 8 22 -18 19 -39 -5z"/>
 <path d="M563 763 c-17 -6 -16 -28 2 -62 16 -33 45 -48 45 -25 0 9 -5 13 -12 9 -7 -4 -2 3 12 15 14 12 20 19 14 16 -7 -3 -15 1 -18 10 -4 10 -2 13 6 8 7 -4 8 -3 4 4 -10 17 -39 30 -53 25z"/>
 <path d="M930 746 c0 -16 -4 -25 -10 -21 -6 3 -13 -1 -16 -9 -3 -9 -9 -14 -14 -11 -4 2 -17 -6 -30 -20 -22 -24 -22 -24 -1 -18 12 3 30 17 41 31 12 15 20 19 20 10 0 -8 -6 -20 -12 -28 -11 -12 -10 -12 4 -1 18 13 35 77 24 88 -3 4 -6 -6 -6 -21z"/>
 <path d="M823 693 c-12 -2 -24 -11 -27 -19 -8 -21 18 -17 39 6 10 11 16 19 14 19 -2 -1 -14 -4 -26 -6z"/>
 <path d="M878 646 c-8 -9 -26 -12 -49 -9 -39 6 -83 -12 -73 -29 4 -5 20 -7 38 -4 23 4 27 3 14 -4 -9 -6 -15 -19 -13 -29 2 -14 -3 -17 -23 -17 -41 1 -42 -16 -2 -29 26 -9 39 -9 49 -1 12 9 13 8 6 -4 -6 -11 -5 -12 4 -4 7 6 14 20 15 30 2 10 9 20 17 22 11 3 11 1 -1 -7 -13 -10 -13 -11 0 -11 14 0 70 44 70 56 0 2 -11 -3 -25 -12 -23 -15 -25 -15 -19 0 5 12 2 15 -10 10 -9 -3 -13 -11 -9 -18 3 -6 3 -8 -2 -4 -4 4 -17 3 -29 -3 -21 -10 -21 -10 -1 5 36 29 65 58 65 67 0 13 -7 11 -22 -5z"/>
 <path d="M360 573 c0 -14 3 -23 7 -19 10 10 11 46 1 46 -4 0 -8 -12 -8 -27z"/>
 <path d="M760 580 c0 -5 7 -10 16 -10 8 0 12 5 9 10 -3 6 -10 10 -16 10 -5 0 -9 -4 -9 -10z"/>
 <path d="M400 524 c1 -21 39 -96 40 -77 0 6 -5 24 -12 40 -6 15 -12 31 -12 35 -2 17 -16 19 -16 2z"/>
 <path d="M850 530 c0 -6 11 -8 28 -4 39 10 40 14 4 14 -18 0 -32 -5 -32 -10z"/>
 <path d="M680 511 c0 -14 56 -24 82 -15 l23 8 -25 7 c-37 10 -80 10 -80 0z"/>
 <path d="M583 494 c0 -15 65 -49 75 -39 8 8 -44 52 -62 52 -7 0 -13 -6 -13 -13z"/>
 <path d="M450 480 c0 -14 29 -32 41 -24 7 4 9 3 6 -3 -8 -12 61 -78 71 -68 8 8 -58 73 -90 90 -16 7 -28 10 -28 5z"/>
 <path d="M675 463 c7 -28 -9 -30 -62 -8 -43 18 -49 15 -33 -17 11 -22 11 -22 -5 -3 -9 11 -21 19 -26 18 -5 -2 -9 1 -9 6 0 5 -7 11 -15 15 -12 4 -13 2 -6 -12 11 -20 66 -54 74 -46 3 3 16 -1 29 -10 33 -23 47 -19 18 6 -20 17 -21 20 -5 14 30 -12 106 -16 100 -5 -9 14 35 11 90 -6 27 -8 51 -13 53 -10 8 8 -39 45 -59 45 -11 0 -18 4 -15 9 9 14 -20 21 -34 8 -10 -9 -11 -9 -5 3 8 13 7 13 -8 1 -10 -8 -17 -9 -17 -3 0 6 -9 9 -20 7 -11 -2 -20 0 -20 4 0 4 -7 8 -16 8 -11 0 -14 -7 -9 -24z"/>
 </g>
<g id="layer104" fill="#5b5c5b" stroke="none">
 <path d="M627 2263 c-3 -18 0 -32 11 -40 16 -12 15 -13 -1 -7 -10 4 -24 21 -32 38 -9 21 -14 25 -14 12 -1 -12 -6 -16 -16 -12 -23 9 6 -32 52 -73 43 -38 44 -41 47 -186 2 -72 -1 -117 -9 -130 -16 -26 -55 -141 -55 -161 0 -8 -4 -13 -8 -10 -13 8 -23 176 -12 196 5 10 12 72 16 138 6 108 5 122 -10 128 -9 3 -16 10 -16 16 0 5 5 6 10 3 11 -7 14 8 4 18 -10 9 -34 -4 -27 -16 3 -6 1 -7 -5 -3 -6 3 -15 -2 -21 -11 -5 -10 -13 -14 -18 -10 -4 5 0 15 11 22 10 8 15 18 12 24 -4 6 2 8 14 6 11 -2 20 0 20 5 0 8 -63 15 -198 22 -42 2 -56 -1 -63 -13 -10 -19 26 -49 60 -49 24 0 70 -54 78 -91 3 -16 8 -29 12 -29 9 0 3 -177 -8 -235 -5 -27 -10 -71 -10 -97 -1 -37 -4 -46 -16 -42 -22 9 -30 -36 -30 -161 0 -119 22 -205 52 -205 13 0 14 8 8 43 -4 23 -9 60 -11 81 -3 35 -2 38 10 21 8 -12 12 -33 9 -56 -3 -21 -1 -39 6 -43 7 -5 11 4 11 24 l0 31 40 -32 c23 -18 39 -38 36 -44 -2 -6 7 -12 19 -13 18 -1 25 4 27 21 2 12 9 21 16 20 6 -2 13 3 14 10 0 6 2 17 3 22 2 6 4 24 5 40 1 17 4 23 7 13 6 -22 32 -32 28 -10 -15 75 -15 81 3 75 9 -3 25 -13 35 -21 15 -14 17 -13 17 6 0 15 5 20 15 16 10 -4 15 0 16 12 2 34 18 -60 18 -109 1 -26 8 -64 16 -84 19 -46 19 -50 -5 -58 -11 -3 -19 -9 -19 -13 4 -27 -3 -62 -11 -57 -5 3 -10 -3 -10 -15 0 -17 3 -19 19 -11 15 8 20 7 25 -5 3 -8 11 -12 17 -9 6 4 8 14 5 22 -3 8 1 24 9 36 19 28 20 47 0 21 -14 -18 -14 -18 -13 9 1 15 6 27 11 27 4 0 5 4 2 10 -3 5 1 25 10 43 8 18 18 50 20 72 3 21 13 43 22 50 14 10 15 24 9 94 -7 85 -31 143 -61 147 -12 2 -14 -3 -9 -19 6 -19 5 -20 -8 -10 -18 16 -28 7 -28 -23 0 -17 -4 -22 -15 -18 -11 5 -15 -1 -16 -22 0 -28 -1 -28 -9 -6 -12 28 -3 52 16 45 11 -4 14 11 14 81 0 62 5 96 17 119 12 25 17 69 20 197 l5 165 -32 43 c-37 49 -52 54 -46 15 l5 -28 -22 28 c-25 30 -37 34 -37 12 0 -8 -6 -15 -14 -15 -8 0 -16 7 -20 15 -9 24 -23 18 -29 -12z m77 -42 c-2 -3 -12 3 -22 13 -16 17 -16 18 5 5 12 -7 20 -15 17 -18z m82 -289 c-4 -3 -11 0 -16 8 -15 24 -11 33 6 15 9 -9 13 -19 10 -23z m-16 -207 c0 -5 -10 0 -21 12 -13 12 -18 26 -14 33 6 9 12 6 21 -11 7 -13 13 -28 14 -34z m-339 -98 c-8 -8 -11 -7 -11 4 0 20 13 34 18 19 3 -7 -1 -17 -7 -23z m16 -39 c-3 -7 -5 -2 -5 12 0 14 2 19 5 13 2 -7 2 -19 0 -25z m3 -74 c0 -8 -4 -12 -10 -9 -5 3 -10 10 -10 16 0 5 5 9 10 9 6 0 10 -7 10 -16z"/>
 <path d="M481 1280 c-1 -55 0 -60 26 -74 25 -12 32 -12 56 0 15 8 27 11 28 7 0 -4 2 -18 3 -30 1 -12 -1 -20 -6 -17 -18 11 -6 -14 17 -36 26 -25 47 -21 25 5 -11 13 -8 14 18 9 27 -5 33 -3 43 20 7 14 16 26 20 26 4 0 6 8 4 18 -15 75 -15 74 -41 68 -22 -6 -24 -4 -20 19 3 13 0 27 -5 30 -5 4 -9 -1 -9 -10 0 -11 -5 -15 -15 -11 -9 3 -15 0 -15 -7 0 -8 -12 -13 -30 -13 -16 0 -30 3 -30 8 0 4 -5 8 -11 8 -5 0 -7 -6 -3 -12 4 -7 -2 -5 -13 5 -11 9 -23 14 -27 10 -4 -4 -4 0 -1 9 4 9 2 19 -3 22 -5 3 -10 -21 -11 -54z"/>
 <path d="M669 1318 c-5 -18 -6 -38 -1 -34 7 8 12 36 6 36 -2 0 -4 -1 -5 -2z"/>
 <path d="M442 1250 c0 -14 2 -19 5 -12 2 6 2 18 0 25 -3 6 -5 1 -5 -13z"/>
 <path d="M284 1040 c0 -17 3 -30 8 -30 5 0 7 11 5 25 -4 36 -13 39 -13 5z"/>
 <path d="M292 980 c0 -14 2 -19 5 -12 2 6 2 18 0 25 -3 6 -5 1 -5 -13z"/>
 <path d="M827 973 c-4 -3 -7 -13 -7 -22 1 -13 3 -13 11 2 11 19 8 33 -4 20z"/>
 <path d="M797 913 c3 -7 9 -10 14 -7 14 8 11 21 -5 21 -8 0 -12 -6 -9 -14z"/>
 <path d="M842 905 c-6 -14 -8 -25 -3 -25 8 0 23 41 17 47 -1 2 -8 -8 -14 -22z"/>
 <path d="M807 831 c-4 -17 -3 -21 5 -13 5 5 8 16 6 23 -3 8 -7 3 -11 -10z"/>
 <path d="M890 817 c0 -9 4 -18 9 -21 5 -4 8 1 7 9 -3 21 -16 31 -16 12z"/>
 <path d="M624 804 c3 -9 6 -20 6 -25 0 -5 5 -9 11 -9 6 0 9 7 6 14 -4 10 -1 13 9 9 7 -3 14 -9 14 -14 0 -12 37 -12 45 0 10 17 -26 41 -62 41 -28 0 -34 -3 -29 -16z"/>
 <path d="M816 774 c-11 -7 -17 -16 -15 -19 3 -3 14 2 25 9 10 8 17 17 14 19 -3 3 -14 -1 -24 -9z"/>
 <path d="M827 749 c-15 -9 -16 -12 -2 -25 12 -12 18 -13 37 -2 20 10 21 13 5 16 -9 2 -15 8 -12 13 8 12 -5 11 -28 -2z"/>
 <path d="M370 714 c0 -17 45 -87 58 -92 7 -2 -2 18 -19 45 -40 60 -39 58 -39 47z"/>
 <path d="M805 680 c-3 -5 1 -10 9 -10 8 0 18 5 21 10 3 6 -1 10 -9 10 -8 0 -18 -4 -21 -10z"/>
 <path d="M787 632 c-22 -3 -26 -6 -17 -17 9 -10 18 -11 41 -3 16 5 29 13 29 17 0 8 -8 8 -53 3z"/>
 <path d="M416 581 c-4 -6 5 -18 19 -27 18 -11 22 -19 15 -24 -9 -5 -9 -9 -1 -14 6 -4 11 -2 11 5 0 8 4 8 18 -1 9 -7 2 1 -16 19 -17 17 -32 34 -31 37 2 11 -9 15 -15 5z"/>
 <path d="M766 541 c-10 -15 43 -19 55 -5 9 11 6 14 -19 14 -17 0 -33 -4 -36 -9z"/>
 <path d="M685 510 c3 -5 21 -10 38 -10 24 0 28 3 17 10 -20 13 -63 13 -55 0z"/>
 <path d="M602 483 c2 -9 16 -20 32 -24 l28 -8 -23 25 c-26 28 -42 31 -37 7z"/>
 <path d="M460 471 c0 -5 5 -13 10 -16 6 -3 10 -2 10 4 0 5 -4 13 -10 16 -5 3 -10 2 -10 -4z"/>
 <path d="M670 470 c0 -16 40 -31 105 -41 34 -5 71 -11 81 -14 12 -4 9 0 -6 9 -14 8 -36 15 -50 16 -14 0 -34 6 -45 13 -26 18 -85 29 -85 17z"/>
 <path d="M580 458 c0 -18 18 -34 28 -24 3 4 -2 14 -11 23 -16 16 -17 16 -17 1z"/>
 <path d="M500 442 c0 -7 9 -16 53 -51 27 -21 20 -7 -13 28 -31 32 -40 37 -40 23z"/>
 <path d="M644 431 c10 -16 56 -20 56 -5 0 9 -11 14 -31 14 -16 0 -28 -4 -25 -9z"/>
 </g>
<g id="layer105" fill="#8f7272" stroke="none">
 <path d="M627 2262 c-3 -17 1 -31 11 -39 16 -12 15 -13 -1 -7 -10 4 -23 17 -30 29 -10 20 -14 21 -25 9 -11 -12 -5 -22 39 -64 29 -28 59 -50 66 -50 7 0 13 -8 13 -17 0 -15 -2 -16 -10 -3 -12 19 -11 26 -13 -112 -1 -64 1 -114 5 -112 4 3 -6 -20 -21 -50 -16 -30 -35 -80 -42 -111 -9 -39 -19 -59 -33 -67 -17 -9 -19 -8 -8 3 14 15 16 126 2 163 -6 18 -5 33 5 53 7 15 17 80 21 144 l7 116 -31 12 c-27 11 -34 11 -48 -3 -22 -23 -32 -11 -11 12 10 10 17 27 17 36 0 15 -6 17 -27 13 -16 -3 -43 1 -61 9 -21 8 -41 10 -55 5 -12 -5 -32 -5 -45 0 -17 7 -24 5 -29 -8 -9 -23 32 -54 64 -48 14 2 23 1 19 -2 -3 -3 8 -21 24 -40 17 -18 30 -45 30 -58 0 -27 17 -34 26 -10 6 16 24 11 24 -6 0 -6 -4 -8 -9 -5 -5 3 -12 -1 -15 -10 -10 -26 -7 -36 8 -31 12 5 13 0 4 -26 -13 -38 -23 -51 -15 -20 3 13 1 25 -4 28 -5 4 -7 -22 -5 -56 2 -35 0 -73 -5 -86 -5 -13 -12 -59 -15 -103 -5 -54 -11 -80 -19 -80 -7 0 -16 -8 -20 -17 -5 -15 -4 -16 6 -5 22 21 29 14 29 -28 0 -22 -4 -40 -9 -40 -4 0 -6 11 -3 25 3 20 1 24 -11 19 -8 -3 -18 -15 -21 -27 -15 -58 3 -222 30 -263 19 -28 35 -23 28 9 -3 12 -7 51 -10 87 l-4 65 18 -40 c11 -23 42 -60 69 -83 l50 -41 23 24 c13 13 29 46 36 72 7 27 13 38 13 25 1 -13 5 -20 11 -17 13 8 13 58 -1 72 -18 18 10 27 30 9 25 -23 44 -20 38 5 -4 17 -3 19 6 10 17 -17 30 -13 22 7 -5 13 -3 14 5 6 7 -7 14 -49 17 -95 4 -58 11 -93 24 -114 19 -29 19 -29 25 -7 4 12 11 22 16 22 6 0 8 9 5 21 -7 26 10 76 29 83 17 7 19 33 2 39 -10 4 -9 6 1 6 11 1 11 4 0 18 -8 9 -10 18 -4 20 15 5 6 100 -11 114 -8 6 -14 17 -14 24 0 7 -8 15 -19 18 -14 3 -17 0 -14 -14 3 -11 0 -19 -6 -19 -6 0 -11 5 -11 11 0 5 -5 7 -11 3 -7 -4 -9 -21 -6 -43 5 -27 4 -32 -4 -18 -17 28 -32 20 -27 -16 2 -19 -1 -34 -7 -34 -5 0 -10 19 -10 41 0 32 3 40 16 38 14 -2 17 9 18 68 1 46 -3 69 -9 65 -6 -4 -10 5 -8 22 1 16 -2 35 -6 42 -7 11 -4 11 14 1 20 -11 22 -10 17 5 -4 9 -7 19 -7 21 0 3 -4 2 -10 -1 -5 -3 -10 -1 -10 4 0 6 8 11 18 11 14 0 21 13 30 51 15 62 15 82 2 74 -5 -3 -10 -1 -10 4 0 6 5 11 10 11 11 0 12 152 2 186 -4 11 -17 33 -30 49 -19 23 -25 26 -32 15 -5 -8 -6 -19 -4 -25 3 -5 -6 2 -20 18 -29 31 -36 33 -36 12 0 -8 -6 -15 -12 -15 -7 0 1 -11 17 -25 l30 -25 -28 12 c-15 6 -30 22 -33 34 -9 34 -31 37 -37 6z m-157 -112 c0 -5 -4 -10 -10 -10 -5 0 -10 5 -10 10 0 6 5 10 10 10 6 0 10 -4 10 -10z m67 -88 c-10 -9 -17 -11 -17 -5 0 7 5 15 11 18 5 4 8 21 5 38 l-5 32 11 -33 c9 -28 8 -36 -5 -50z m63 4 c0 -2 -7 -6 -15 -10 -8 -3 -15 -1 -15 4 0 6 7 10 15 10 8 0 15 -2 15 -4z m-60 -75 c0 -6 -4 -13 -10 -16 -5 -3 -10 1 -10 9 0 9 5 16 10 16 6 0 10 -4 10 -9z m250 -48 c0 -24 -25 -9 -28 17 -3 21 -2 22 12 11 9 -7 16 -20 16 -28z m-21 -228 c0 -14 -2 -16 -6 -5 -3 8 -13 24 -23 35 -13 14 -16 30 -13 54 l6 34 18 -49 c11 -27 19 -58 18 -69z m-79 -134 c0 -34 -10 -20 -15 20 -3 25 -2 30 5 19 5 -8 10 -26 10 -39z m-244 -78 c-11 -29 -17 -6 -9 33 7 36 8 37 11 11 2 -16 1 -36 -2 -44z"/>
 <path d="M625 1209 c-3 -4 2 -6 10 -5 21 3 28 13 10 13 -9 0 -18 -4 -20 -8z"/>
 <path d="M663 800 c27 -22 47 -26 47 -10 0 6 -12 15 -26 20 -40 16 -49 12 -21 -10z"/>
 <path d="M630 780 c0 -5 5 -10 10 -10 6 0 10 5 10 10 0 6 -4 10 -10 10 -5 0 -10 -4 -10 -10z"/>
 <path d="M684 462 c4 -3 14 -7 22 -8 9 -1 13 0 10 4 -4 3 -14 7 -22 8 -9 1 -13 0 -10 -4z"/>
 </g>
<g id="layer106" fill="#7c9375" stroke="none">
 <path d="M747 2266 c-3 -7 4 -21 15 -30 11 -10 17 -20 13 -24 -3 -4 -14 3 -23 14 -9 12 -27 27 -39 33 -30 15 -37 -8 -9 -31 12 -10 17 -17 11 -18 -5 0 -26 13 -45 30 -25 21 -36 26 -42 17 -5 -7 0 -19 13 -29 15 -13 17 -18 7 -18 -17 0 -48 31 -48 49 0 9 -3 9 -14 -1 -20 -19 -7 -37 63 -88 33 -24 58 -47 55 -51 -2 -5 -10 -6 -17 -3 -9 3 -12 -24 -12 -110 0 -69 4 -112 9 -108 6 3 -1 -12 -14 -33 -13 -22 -34 -73 -46 -114 -15 -54 -28 -80 -45 -90 -23 -15 -24 -15 -7 4 20 25 22 107 4 186 -8 33 -10 62 -5 70 5 8 6 21 4 29 -2 8 0 22 6 30 7 11 9 3 7 -32 -2 -26 0 -44 4 -40 3 4 8 33 10 65 3 49 1 57 -14 57 -13 0 -18 8 -18 25 0 16 6 25 15 25 18 0 19 -12 3 -28 -9 -9 -8 -12 5 -12 12 0 17 8 17 30 0 17 -5 30 -12 30 -9 0 -8 4 2 10 13 8 10 14 -15 34 -38 30 -48 24 -40 -25 5 -29 2 -45 -12 -66 -23 -34 -52 -116 -58 -163 -2 -19 -9 -60 -14 -90 -13 -76 -13 -277 0 -325 7 -24 27 -54 53 -78 79 -75 71 -72 99 -35 14 18 28 53 33 78 7 43 8 44 14 15 6 -28 7 -29 14 -8 4 14 1 33 -9 53 -12 23 -12 30 -3 30 8 1 5 7 -6 15 -11 8 -15 15 -9 15 6 0 25 -11 41 -25 36 -30 42 -31 42 -5 0 11 7 20 15 20 8 0 15 5 15 11 0 5 -4 8 -8 5 -4 -2 -9 16 -10 41 -1 41 0 45 18 40 11 -3 20 -4 20 -2 0 14 -34 93 -46 106 -8 9 -18 30 -23 46 -7 25 -5 33 15 48 13 10 24 24 24 31 0 8 7 14 16 14 12 0 15 6 9 23 -3 12 -9 33 -12 47 -6 25 -6 25 16 6 23 -21 21 -24 25 34 1 8 4 20 8 26 10 14 7 64 -3 58 -4 -2 -10 3 -13 12 -4 10 -2 13 6 8 17 -11 4 93 -18 139 -19 39 -29 46 -37 23z m63 -222 c0 -8 -5 -12 -10 -9 -6 4 -8 11 -5 16 9 14 15 11 15 -7z m-220 -34 c0 -5 -4 -10 -10 -10 -5 0 -10 5 -10 10 0 6 5 10 10 10 6 0 10 -4 10 -10z m-50 -19 c0 -5 -6 -14 -14 -20 -12 -10 -13 -8 -9 8 5 21 23 30 23 12z m154 -409 c4 -22 2 -31 -5 -27 -10 7 -20 28 -34 75 -7 25 -7 25 13 5 11 -11 22 -35 26 -53z"/>
 <path d="M320 2215 c0 -23 41 -42 82 -40 21 2 36 -1 33 -6 -3 -4 -13 -5 -23 -2 -10 4 -5 -7 16 -30 17 -21 32 -47 32 -57 0 -28 24 -25 40 6 13 24 15 24 27 8 7 -10 13 -13 13 -8 0 6 -7 19 -15 30 -17 22 -20 54 -4 54 21 0 3 23 -21 27 -13 2 -32 11 -42 20 -15 13 -23 14 -44 5 -31 -15 -67 -16 -59 -2 3 6 -3 10 -14 10 -12 0 -21 -7 -21 -15z m150 -71 c0 -8 -4 -12 -10 -9 -5 3 -10 13 -10 21 0 8 5 12 10 9 6 -3 10 -13 10 -21z"/>
 <path d="M490 2035 c-7 -8 -8 -15 -2 -15 5 0 15 7 22 15 7 8 8 15 2 15 -5 0 -15 -7 -22 -15z"/>
 <path d="M830 1674 c0 -11 -6 -14 -21 -9 -21 7 -22 5 -16 -36 5 -32 4 -38 -3 -21 -5 12 -14 22 -20 22 -14 0 -12 -37 5 -94 8 -27 15 -77 15 -110 0 -44 6 -69 20 -91 20 -29 20 -30 26 -7 4 12 10 22 14 22 5 0 6 9 3 20 -3 11 0 34 7 50 10 24 10 33 0 45 -7 9 -10 18 -7 21 9 9 27 -6 27 -22 0 -8 5 -12 10 -9 7 4 7 13 0 26 -8 13 -7 19 0 19 6 0 4 7 -4 16 -17 16 -22 39 -7 30 5 -3 9 15 9 40 1 32 -5 54 -20 75 -24 32 -38 37 -38 13z m0 -180 c0 -8 -4 -12 -10 -9 -5 3 -10 10 -10 16 0 5 5 9 10 9 6 0 10 -7 10 -16z"/>
 <path d="M416 1654 c-5 -14 -4 -15 9 -4 17 14 19 20 6 20 -5 0 -12 -7 -15 -16z"/>
 <path d="M420 1620 c-18 -11 -29 -160 -11 -160 6 0 12 3 12 8 9 51 20 162 17 162 -2 0 -10 -5 -18 -10z"/>
 <path d="M436 1473 c-4 -18 -12 -33 -18 -33 -12 0 -1 -76 16 -102 6 -10 17 -18 24 -18 7 0 10 5 7 10 -4 6 -10 47 -14 93 -6 69 -8 77 -15 50z"/>
 <path d="M660 803 c29 -20 50 -25 50 -12 0 5 -12 14 -26 19 -39 15 -51 12 -24 -7z"/>
 <path d="M630 780 c0 -5 5 -10 10 -10 6 0 10 5 10 10 0 6 -4 10 -10 10 -5 0 -10 -4 -10 -10z"/>
 </g>
<g id="layer107" fill="#96827d" stroke="none">
 <path d="M747 2266 c-3 -7 4 -21 15 -30 11 -10 17 -20 13 -24 -3 -4 -14 3 -23 14 -9 12 -27 27 -39 33 -30 15 -37 -8 -9 -31 12 -10 17 -17 11 -18 -5 0 -26 13 -45 30 -25 21 -36 26 -42 17 -5 -7 0 -19 13 -29 15 -13 17 -18 7 -18 -17 0 -48 31 -48 49 0 9 -3 9 -14 -1 -20 -19 -7 -37 63 -88 33 -24 58 -47 55 -51 -2 -5 -10 -6 -17 -3 -9 3 -12 -24 -12 -110 0 -69 4 -112 9 -108 6 3 -1 -12 -14 -33 -13 -22 -34 -73 -46 -114 -15 -54 -28 -80 -45 -90 -23 -15 -24 -15 -7 4 20 25 22 107 4 186 -8 33 -10 62 -5 70 5 8 6 21 4 29 -2 8 0 22 6 30 7 11 9 3 7 -32 -2 -26 0 -44 4 -40 3 4 8 33 10 65 3 49 1 57 -14 57 -13 0 -18 8 -18 25 0 16 6 25 15 25 18 0 19 -12 3 -28 -9 -9 -8 -12 5 -12 12 0 17 8 17 30 0 17 -5 30 -12 30 -9 0 -8 4 2 10 13 8 10 14 -15 34 -38 30 -48 24 -40 -25 5 -29 2 -45 -12 -66 -23 -34 -52 -116 -58 -163 -2 -19 -9 -60 -14 -90 -14 -80 -13 -277 1 -303 6 -12 13 -33 14 -46 3 -26 50 -81 70 -81 7 0 19 -9 27 -20 14 -20 15 -19 38 11 13 17 29 52 35 78 10 39 12 42 13 16 1 -27 3 -28 13 -11 8 14 7 27 -6 52 -11 25 -12 34 -3 34 6 0 3 7 -7 15 -11 8 -15 15 -9 15 6 0 25 -11 41 -25 36 -30 42 -31 42 -5 0 11 7 20 15 20 8 0 15 5 15 11 0 5 -4 8 -8 5 -4 -2 -9 16 -10 41 -1 41 0 45 18 40 11 -3 20 -4 20 -2 0 14 -34 93 -46 106 -8 9 -18 30 -23 46 -7 25 -5 33 15 48 13 10 24 24 24 31 0 8 7 14 16 14 12 0 15 6 9 23 -3 12 -9 33 -12 47 -6 25 -6 25 16 6 23 -21 21 -24 25 34 1 8 4 20 8 26 10 14 7 64 -3 58 -4 -2 -10 3 -13 12 -4 10 -2 13 6 8 17 -11 4 93 -18 139 -19 39 -29 46 -37 23z m63 -222 c0 -8 -5 -12 -10 -9 -6 4 -8 11 -5 16 9 14 15 11 15 -7z m-220 -34 c0 -5 -4 -10 -10 -10 -5 0 -10 5 -10 10 0 6 5 10 10 10 6 0 10 -4 10 -10z m-50 -19 c0 -5 -6 -14 -14 -20 -12 -10 -13 -8 -9 8 5 21 23 30 23 12z m154 -409 c4 -22 2 -31 -5 -27 -10 7 -20 28 -34 75 -7 25 -7 25 13 5 11 -11 22 -35 26 -53z"/>
 <path d="M320 2215 c0 -23 41 -42 82 -40 21 2 36 -1 33 -6 -3 -4 -13 -5 -23 -2 -10 4 -5 -7 16 -30 17 -21 32 -47 32 -57 0 -28 24 -25 40 6 13 24 15 24 27 8 7 -10 13 -13 13 -8 0 6 -7 19 -15 30 -17 22 -20 54 -4 54 21 0 3 23 -21 27 -13 2 -32 11 -42 20 -15 13 -23 14 -44 5 -31 -15 -67 -16 -59 -2 3 6 -3 10 -14 10 -12 0 -21 -7 -21 -15z m150 -71 c0 -8 -4 -12 -10 -9 -5 3 -10 13 -10 21 0 8 5 12 10 9 6 -3 10 -13 10 -21z"/>
 <path d="M490 2035 c-7 -8 -8 -15 -2 -15 5 0 15 7 22 15 7 8 8 15 2 15 -5 0 -15 -7 -22 -15z"/>
 <path d="M835 1663 c6 -26 6 -27 -13 -10 -29 26 -34 21 -28 -25 5 -33 4 -38 -4 -20 -5 12 -14 22 -20 22 -15 0 -12 -41 5 -90 8 -23 15 -72 15 -109 0 -49 5 -74 20 -96 20 -29 20 -30 26 -7 4 12 10 22 14 22 5 0 6 9 3 20 -3 11 0 34 7 50 10 24 10 33 0 45 -7 9 -10 18 -7 21 9 9 27 -6 27 -22 0 -8 5 -12 10 -9 7 4 7 13 0 26 -8 13 -7 19 0 19 6 0 4 7 -4 16 -17 16 -22 39 -7 30 5 -3 9 15 9 40 1 32 -5 54 -20 75 -27 36 -42 37 -33 2z m-5 -169 c0 -8 -4 -12 -10 -9 -5 3 -10 10 -10 16 0 5 5 9 10 9 6 0 10 -7 10 -16z"/>
 <path d="M406 1598 c-9 -35 -7 -138 3 -138 13 0 21 27 15 45 -4 8 -2 21 3 28 15 19 13 87 -2 87 -7 0 -15 -10 -19 -22z"/>
 <path d="M435 1471 c-4 -17 -11 -31 -17 -31 -12 0 -1 -76 16 -102 6 -10 17 -18 24 -18 8 0 10 5 6 12 -5 7 -10 47 -12 88 -2 41 -5 76 -7 78 -2 2 -6 -10 -10 -27z"/>
 </g>
<g id="layer108" fill="#b6a29e" stroke="none">
 <path d="M748 2268 c-2 -6 4 -20 15 -31 10 -10 16 -22 12 -25 -3 -4 -14 3 -23 14 -24 30 -59 47 -64 32 -3 -7 5 -20 16 -29 12 -10 17 -21 13 -25 -4 -5 -21 6 -38 24 -31 33 -44 39 -54 23 -3 -5 5 -17 17 -25 16 -12 18 -16 7 -16 -16 0 -43 25 -50 47 -3 8 -8 7 -17 -3 -10 -11 -4 -21 30 -54 23 -22 47 -40 53 -40 15 0 47 -35 39 -43 -3 -3 -11 -4 -17 -1 -9 3 -12 -28 -12 -110 0 -63 3 -112 7 -110 4 3 -6 -20 -22 -50 -15 -30 -34 -80 -40 -110 -7 -36 -19 -61 -33 -71 -11 -8 -23 -12 -26 -9 -3 3 2 10 11 15 13 7 16 23 13 87 -2 42 -8 90 -14 106 -10 25 -13 27 -28 15 -12 -10 -11 -5 4 16 25 35 40 105 23 105 -6 0 -8 5 -5 10 14 23 24 7 28 -42 l3 -53 2 58 c2 45 -1 57 -13 57 -9 0 -15 9 -15 25 0 16 6 25 16 25 11 0 14 -6 9 -21 -5 -15 -4 -19 4 -15 14 9 14 43 0 51 -6 4 -8 14 -4 22 5 14 -32 52 -45 45 -9 -4 -5 -107 5 -114 6 -4 -5 -6 -24 -5 -23 1 -36 -3 -39 -13 -5 -13 -3 -13 11 -1 21 17 21 10 2 -35 -14 -34 -24 -80 -45 -209 -5 -27 -9 -100 -9 -162 -1 -87 2 -115 14 -127 16 -16 20 -30 6 -22 -23 14 17 -59 42 -78 16 -11 39 -31 52 -42 l24 -22 25 37 c14 20 26 48 26 62 0 13 5 31 10 39 8 12 10 10 10 -10 0 -19 3 -21 12 -12 12 12 10 20 -33 103 -12 25 24 13 52 -17 12 -13 26 -24 30 -24 10 0 22 68 20 108 -2 26 1 32 18 32 17 0 19 4 12 18 -5 9 -13 31 -18 47 -5 17 -14 29 -20 28 -6 -1 -14 14 -18 35 -4 20 -12 43 -17 50 -8 9 -7 11 6 6 11 -4 16 -1 16 11 0 9 5 13 10 10 6 -3 13 2 17 12 4 10 13 23 20 28 11 8 11 16 1 44 -11 27 -11 35 0 38 6 3 10 9 6 14 -3 5 0 9 6 9 7 0 9 -7 6 -16 -3 -9 -3 -21 1 -27 11 -18 21 34 12 65 -4 15 -4 30 1 33 5 3 11 -3 13 -12 3 -10 5 -4 4 14 -1 24 -5 30 -18 28 -12 -3 -16 1 -12 11 3 7 10 11 16 7 15 -9 0 94 -21 139 -18 39 -28 46 -34 26z m-168 -148 c0 -5 -4 -10 -10 -10 -5 0 -10 5 -10 10 0 6 5 10 10 10 6 0 10 -4 10 -10z m-40 -127 c0 -5 -8 -17 -17 -28 -14 -18 -15 -18 -9 -2 3 10 6 23 6 28 0 5 5 9 10 9 6 0 10 -3 10 -7z m146 -381 c3 -15 8 -35 11 -46 10 -35 -18 -5 -38 41 -24 55 -24 56 1 43 11 -6 22 -23 26 -38z"/>
 <path d="M320 2216 c0 -24 30 -39 76 -37 27 1 43 -3 39 -8 -3 -6 -13 -7 -23 -4 -10 4 -5 -7 16 -30 17 -21 32 -47 32 -57 0 -11 6 -20 13 -20 19 0 42 46 39 81 -1 16 3 29 8 29 6 0 8 5 5 10 -4 6 -10 8 -14 5 -4 -2 -23 6 -41 20 -26 19 -37 22 -57 14 -32 -12 -66 -12 -58 1 3 6 -3 10 -14 10 -12 0 -21 -6 -21 -14z m150 -67 c0 -11 -4 -17 -10 -14 -5 3 -10 13 -10 21 0 8 5 14 10 14 6 0 10 -9 10 -21z"/>
 <path d="M834 1669 c11 -38 17 -66 10 -49 -11 26 -36 50 -46 44 -5 -3 -6 -22 -3 -42 5 -33 4 -34 -5 -12 -9 20 -13 22 -19 10 -13 -23 -23 -78 -12 -61 14 21 31 -50 31 -129 0 -46 5 -73 19 -93 l18 -28 13 30 c7 17 10 40 7 50 -3 11 2 29 10 41 11 16 12 25 4 33 -15 15 -14 27 3 27 8 0 17 -8 20 -17 2 -10 3 -4 1 12 -2 17 -7 39 -11 49 -5 13 -4 17 3 13 11 -7 11 33 1 63 -3 8 -9 28 -14 44 -5 16 -15 31 -23 34 -11 4 -12 -1 -7 -19z m-4 -175 c0 -8 -4 -12 -10 -9 -5 3 -10 10 -10 16 0 5 5 9 10 9 6 0 10 -7 10 -16z"/>
 <path d="M404 1575 c-6 -46 2 -122 13 -111 4 3 8 21 9 39 2 17 5 51 8 75 4 32 2 42 -9 42 -9 0 -16 -16 -21 -45z"/>
 <path d="M435 1468 c-4 -13 -13 -26 -18 -30 -12 -7 18 -118 32 -118 7 0 3 161 -4 168 -2 2 -6 -7 -10 -20z"/>
 </g>
<g id="layer109" fill="#e3d8cc" stroke="none">
 <path d="M690 2253 c0 -5 12 -19 25 -32 14 -13 25 -29 25 -36 0 -26 -12 -44 -26 -38 -8 3 -11 9 -8 14 7 13 -32 75 -53 83 -26 10 -30 -5 -5 -21 12 -9 22 -24 22 -34 0 -11 4 -19 9 -19 10 0 22 -25 26 -55 2 -11 6 -28 10 -37 4 -10 3 -18 -2 -18 -5 0 -14 12 -20 28 -9 22 -10 7 -9 -75 0 -56 3 -101 6 -101 18 1 18 -5 1 -24 -21 -22 -65 -129 -76 -186 -5 -22 -15 -36 -30 -42 -13 -5 -26 -14 -30 -20 -3 -5 -11 -8 -16 -4 -6 3 -6 10 -1 17 9 11 12 27 13 70 0 9 3 15 7 13 4 -3 8 4 8 14 0 10 -3 17 -7 14 -4 -2 -5 9 -3 25 3 17 0 32 -7 37 -8 5 -10 3 -4 -7 4 -8 -4 -1 -18 16 -17 20 -21 32 -14 37 6 4 12 21 13 39 1 17 6 34 10 38 5 3 11 15 12 26 4 17 1 17 -17 -5 l-21 -25 5 30 6 30 -16 -28 c-9 -15 -17 -44 -20 -65 -2 -20 -8 -50 -14 -65 -6 -16 -14 -93 -17 -171 -7 -140 -6 -144 14 -150 21 -7 25 -37 9 -64 -7 -11 39 -63 90 -104 21 -16 22 -16 36 5 8 12 22 46 32 75 19 60 15 107 -13 128 -15 12 -14 13 11 4 41 -14 55 -12 32 6 -11 8 -20 25 -21 37 -1 12 -3 27 -5 33 -2 7 -1 12 4 13 25 3 36 -1 40 -16 4 -14 5 -12 6 5 1 26 16 29 30 5 8 -14 9 -10 4 16 -5 28 -3 33 8 26 11 -7 12 -6 3 6 -7 8 -15 30 -19 49 -12 61 -16 72 -30 66 -11 -4 -13 5 -6 32 1 1 10 -2 20 -8 18 -9 19 -8 11 21 -7 23 -5 31 5 36 11 4 12 10 4 24 -9 17 -7 19 15 15 19 -3 24 -1 21 13 -2 10 4 33 13 51 12 25 13 35 4 38 -7 2 -12 10 -12 18 0 8 -6 14 -14 14 -7 0 -16 9 -19 20 -3 11 -1 20 4 20 5 0 9 -6 9 -12 0 -7 13 -22 28 -33 l27 -20 -19 29 c-10 16 -13 25 -7 22 6 -4 11 0 11 9 0 10 -5 14 -12 9 -10 -5 -10 -4 -1 6 9 10 9 18 -2 34 -8 12 -16 32 -18 44 -4 29 -57 80 -57 55z m-210 -687 c0 -13 6 -27 13 -29 9 -4 9 -6 -1 -6 -7 -1 -17 11 -22 25 -12 32 -12 34 0 34 6 0 10 -11 10 -24z m100 -134 c0 -15 -2 -15 -10 -2 -13 20 -13 33 0 25 6 -3 10 -14 10 -23z"/>
 <path d="M586 2226 c3 -7 16 -18 30 -24 13 -7 24 -16 24 -22 0 -5 5 -10 12 -10 7 0 -3 16 -22 35 -35 36 -53 45 -44 21z"/>
 <path d="M343 2191 c8 -9 24 -11 52 -7 28 3 48 0 63 -10 12 -8 23 -10 27 -5 9 16 -17 26 -87 31 -55 4 -64 3 -55 -9z"/>
 <path d="M435 2137 c10 -15 20 -25 23 -22 3 3 -5 16 -17 28 l-23 22 17 -28z"/>
 <path d="M479 2145 c-1 -3 -2 -8 -3 -12 -1 -5 -6 -19 -10 -32 -12 -34 8 -48 28 -20 20 29 21 55 1 63 -8 3 -16 3 -16 1z"/>
 <path d="M840 1668 c0 -7 5 -20 10 -28 8 -12 10 -11 10 7 0 12 -4 25 -10 28 -5 3 -10 0 -10 -7z"/>
 <path d="M797 1658 c-2 -7 -3 -29 0 -48 3 -33 3 -33 -7 -10 -10 22 -13 23 -21 9 -6 -11 -4 -29 6 -52 8 -19 17 -71 21 -116 4 -48 12 -85 20 -92 15 -12 17 -8 14 34 -1 15 3 27 9 27 13 0 15 37 2 44 -5 4 -12 0 -14 -6 -5 -12 -9 8 -12 57 -1 11 -4 25 -8 31 -4 7 3 9 20 6 25 -5 25 -6 8 -18 -10 -8 -17 -14 -14 -15 2 0 12 -2 22 -4 11 -2 16 -1 13 2 -3 4 -1 12 6 20 9 11 7 15 -10 20 -12 3 -19 9 -16 15 3 5 0 15 -6 23 -7 8 -10 26 -6 39 6 26 -18 58 -27 34z"/>
 <path d="M701 1635 c0 -5 3 -16 8 -23 7 -11 9 -10 14 3 4 9 3 14 -2 10 -5 -3 -12 1 -14 7 -3 7 -6 9 -6 3z"/>
 <path d="M424 1612 c-12 -7 -26 -102 -15 -102 4 0 11 25 17 55 5 30 10 55 9 55 0 0 -5 -4 -11 -8z"/>
 </g>

</svg>