<!DOCTYPE svg PUBLIC "-//W3C//DTD SVG 20010904//EN" "http://www.w3.org/TR/2001/REC-SVG-20010904/DTD/svg10.dtd">
<svg version="1.0" xmlns="http://www.w3.org/2000/svg" width="125px" height="250px" viewBox="0 0 1250 2500" preserveAspectRatio="xMidYMid meet">
<g id="layer101" fill="#1b1918" stroke="none">
 <path d="M625 2299 c-56 -8 -92 -30 -80 -49 8 -12 -66 -20 -86 -9 -31 16 -140 5 -155 -15 -19 -27 -9 -39 52 -66 31 -13 62 -33 69 -44 23 -36 39 -198 26 -263 -6 -31 -11 -78 -11 -105 0 -34 -4 -48 -14 -48 -41 0 -54 -200 -23 -365 14 -72 14 -82 0 -97 -15 -16 -15 -18 0 -18 19 0 23 -20 5 -20 -8 0 -5 -7 6 -15 20 -15 20 -15 0 -30 -18 -14 -18 -14 0 -15 13 0 16 -3 9 -12 -10 -13 -14 -48 -5 -48 3 0 11 8 19 17 13 17 13 16 7 -6 -4 -17 -3 -21 6 -16 9 6 10 -1 5 -24 -8 -38 0 -40 19 -3 12 21 15 23 16 8 0 -11 -25 -42 -59 -73 -36 -32 -64 -67 -71 -89 -7 -19 -13 -88 -13 -152 -2 -103 1 -123 22 -169 13 -30 44 -71 72 -97 27 -25 49 -51 50 -58 0 -7 4 -4 8 7 8 19 8 19 26 -3 14 -16 21 -18 27 -9 6 9 12 9 27 0 11 -7 27 -10 35 -7 8 3 17 -2 20 -13 9 -25 45 -67 52 -60 4 3 -3 19 -15 35 -25 35 -27 46 -6 38 8 -3 28 0 45 5 17 6 37 8 45 5 24 -9 30 -6 27 11 -2 10 1 14 10 10 7 -3 21 -8 31 -12 19 -8 24 10 5 19 -13 6 -1 4 55 -10 37 -9 35 11 -4 22 -36 11 -35 30 1 26 22 -2 23 -1 8 11 -21 16 -7 43 17 33 12 -4 16 -2 12 8 -3 8 -1 17 6 19 9 3 9 8 0 18 -19 19 -16 29 7 29 11 0 20 5 20 10 0 6 -8 10 -17 10 -14 0 -15 2 -4 9 8 5 11 16 6 30 -5 18 -2 21 22 21 25 1 26 2 10 14 -15 12 -15 15 -2 26 23 19 18 28 -15 24 -28 -3 -30 -2 -20 16 8 16 8 20 -4 20 -10 0 -13 6 -10 15 4 8 1 15 -6 15 -6 0 -11 12 -10 28 1 15 1 36 1 47 -2 20 -2 20 -16 1 -14 -19 -15 -19 -15 8 0 19 -6 29 -20 33 -23 6 -25 16 -9 45 10 18 9 20 -5 15 -12 -5 -16 0 -17 16 0 21 -1 21 -11 -3 -10 -25 -10 -25 -28 15 -19 45 -16 66 7 38 14 -17 14 -17 10 5 -3 12 -1 20 3 17 5 -3 11 -1 15 5 4 6 18 1 35 -12 17 -12 33 -18 37 -15 3 4 -2 14 -13 22 -10 8 -14 15 -7 15 6 0 18 14 27 30 13 27 13 30 -2 31 -14 0 -13 2 3 8 11 5 23 7 28 4 15 -9 6 25 -13 47 -21 24 -28 56 -10 45 14 -9 13 8 -2 23 -9 9 -7 16 6 31 11 12 14 21 7 26 -6 3 -9 18 -6 33 9 41 5 250 -4 276 -16 41 -63 88 -83 83 -15 -4 -18 1 -18 32 0 21 9 73 20 116 15 58 20 111 20 207 l0 129 -37 45 c-29 35 -43 44 -61 41 -12 -2 -25 0 -28 4 -6 10 -5 10 -89 -2z m29 -309 c0 -100 -3 -123 -26 -180 l-27 -65 0 55 c-1 30 6 106 14 168 8 62 13 132 9 155 l-5 42 18 -30 c15 -24 18 -51 17 -145z m126 -576 c0 -30 -4 -54 -10 -54 -6 0 -10 27 -10 61 0 37 4 58 10 54 6 -3 10 -31 10 -61z m125 -234 c3 -5 -1 -10 -9 -10 -9 0 -16 5 -16 10 0 6 4 10 9 10 6 0 13 -4 16 -10z m-137 -178 c2 -12 -1 -22 -7 -22 -6 0 -11 4 -11 9 0 5 -3 17 -7 27 -4 12 -2 15 8 12 8 -2 15 -14 17 -26z"/>
 </g>
<g id="layer102" fill="#65625e" stroke="none">
 <path d="M680 2306 c0 -2 9 -6 20 -9 11 -3 18 -1 14 4 -5 9 -34 13 -34 5z"/>
 <path d="M585 2293 c-11 -3 -24 -9 -29 -13 -5 -5 8 -5 29 0 20 4 34 6 31 3 -3 -4 -1 -12 5 -20 9 -9 8 -13 0 -13 -6 0 -11 5 -11 10 0 13 -37 13 -45 0 -4 -6 14 -30 39 -54 60 -59 81 -128 73 -241 -6 -82 -33 -179 -47 -170 -4 3 -11 -2 -14 -11 -9 -24 -7 -31 5 -14 9 12 10 12 5 -3 -3 -11 -9 -30 -12 -43 -10 -41 -21 -27 -28 37 -8 81 -5 129 4 69 6 -35 7 -29 5 30 -2 51 0 67 5 50 6 -17 8 -6 5 35 -3 41 -2 52 4 35 5 -15 6 11 3 67 -3 64 -1 97 7 107 7 9 8 17 2 20 -5 3 -12 0 -15 -6 -4 -7 -4 -3 -2 10 6 30 -35 51 -91 47 -47 -4 -90 4 -75 14 6 3 -17 6 -51 7 -42 1 -54 -2 -39 -7 12 -5 30 -6 40 -3 15 5 15 4 1 -5 -10 -7 -27 -7 -47 -2 -35 10 -43 6 -35 -17 4 -10 2 -13 -5 -8 -8 5 -10 2 -5 -9 3 -9 9 -13 12 -7 3 5 29 -1 59 -14 72 -33 94 -70 88 -149 -3 -42 -2 -51 3 -30 11 39 14 -96 4 -175 -6 -48 -8 -51 -13 -25 -4 17 -4 -42 -2 -130 3 -88 2 -157 -2 -154 -4 4 -7 34 -7 68 0 33 -5 61 -9 61 -19 0 -28 -39 -32 -145 -3 -63 -1 -99 4 -85 5 16 6 6 3 -30 -2 -33 -1 -47 4 -35 6 16 9 12 14 -20 10 -57 9 -103 -2 -87 -6 10 -10 10 -21 -3 -10 -12 -10 -15 4 -15 9 0 16 -4 16 -10 0 -5 -5 -10 -11 -10 -5 0 -7 -4 -4 -10 10 -17 23 -11 28 13 3 16 5 14 6 -9 1 -25 -4 -33 -21 -38 -22 -7 -22 -7 -3 -15 12 -5 23 -4 26 2 4 5 10 1 13 -9 8 -23 111 -85 130 -78 10 4 12 13 7 32 -11 39 -5 290 6 304 6 7 9 40 7 72 -2 40 0 56 7 49 13 -13 14 -84 2 -154 -7 -44 -6 -61 4 -75 7 -10 13 -28 13 -41 0 -12 9 -45 20 -72 l19 -50 -24 5 c-13 2 -27 -1 -31 -7 -4 -7 -3 -9 3 -6 13 8 23 -24 23 -72 0 -23 -8 -41 -24 -56 -28 -26 -72 -40 -81 -25 -3 5 -13 7 -23 4 -9 -3 0 4 21 16 23 13 37 28 37 40 0 25 2 25 -60 -7 -59 -31 -89 -64 -91 -102 -1 -25 -2 -25 -8 4 -6 24 -2 36 18 60 14 17 5 10 -21 -16 -42 -42 -47 -51 -43 -81 3 -19 2 -26 -2 -16 -5 10 -8 -43 -8 -116 0 -74 3 -130 6 -124 4 5 9 -2 13 -17 4 -14 4 -31 0 -37 -5 -7 -2 -8 6 -3 10 6 12 4 7 -8 -4 -10 -2 -16 5 -14 6 1 13 -4 16 -12 3 -9 0 -11 -9 -7 -8 4 7 -12 32 -36 25 -24 50 -52 57 -63 11 -20 11 -20 12 0 0 12 -12 28 -28 37 -15 9 -36 27 -47 40 l-20 23 25 -21 c44 -36 79 -54 132 -69 29 -7 44 -14 33 -14 -13 -1 -16 -4 -9 -11 11 -11 47 -3 39 9 -2 4 4 7 13 7 9 0 32 1 51 2 30 2 32 4 20 20 -11 14 -11 15 1 4 21 -18 46 -15 90 13 45 29 75 68 67 89 -4 10 -1 13 9 9 7 -3 14 1 14 8 0 7 3 10 6 7 3 -4 1 -15 -5 -26 -9 -16 -7 -21 10 -25 15 -4 19 -2 15 8 -3 8 0 16 7 18 8 3 6 11 -7 25 -10 11 -16 27 -13 34 4 10 6 10 6 1 1 -14 41 -18 41 -4 0 5 -9 11 -20 14 -17 4 -20 14 -20 54 0 48 -18 122 -41 165 -17 34 -51 68 -61 62 -5 -3 -7 -2 -6 3 2 5 -16 27 -39 49 -24 23 -43 47 -43 55 1 10 6 8 16 -6 16 -20 16 -19 9 4 -5 17 -4 22 6 19 7 -2 17 -20 22 -39 10 -38 53 -79 77 -72 11 4 12 2 3 -4 -10 -7 -10 -13 2 -29 14 -18 14 -18 15 9 0 21 -6 30 -20 34 -23 6 -25 16 -9 45 10 18 9 20 -5 15 -12 -5 -16 0 -17 16 0 21 -1 21 -11 -3 -10 -25 -10 -25 -28 15 -9 22 -15 44 -12 49 3 5 0 6 -7 2 -6 -4 -9 -11 -6 -16 3 -4 -2 -10 -10 -14 -46 -17 19 50 77 80 37 19 46 45 54 152 3 48 9 110 13 137 l8 50 2 -40 c1 -25 4 -35 10 -27 4 7 4 36 0 65 -5 29 -7 81 -4 117 3 52 2 58 -5 30 -8 -33 -9 -33 -6 12 3 41 -1 52 -28 85 -23 26 -37 35 -50 30 -13 -5 -15 -11 -6 -26 13 -25 13 -32 -2 -29 -7 2 -14 -8 -17 -22 -4 -16 -14 -26 -26 -27 -19 -1 -19 -1 -3 11 19 14 39 97 37 150 -2 28 -2 28 -9 -9 -6 -33 -7 -35 -9 -11 -2 42 20 110 31 94 4 -7 5 2 2 22 -4 24 -3 31 4 21 7 -9 9 8 7 55 -3 58 -2 62 4 24 6 -33 8 -8 9 93 l2 138 -37 45 c-21 24 -45 44 -55 44 -10 0 -17 -3 -17 -7 3 -19 -2 -25 -13 -16 -7 6 -26 13 -43 16 -16 4 -24 4 -17 1 6 -3 12 -10 12 -15 0 -5 -13 -3 -30 6 -16 8 -30 14 -32 14 -2 -1 -12 -3 -23 -6z m213 -43 c33 -39 33 -40 29 -132 l-3 -93 -2 97 c-2 79 -5 99 -19 110 -26 20 -57 58 -47 58 5 0 24 -18 42 -40z m51 -544 c8 -10 9 -16 1 -21 -5 -3 -10 1 -10 9 0 8 -8 17 -17 19 -15 4 -15 5 -2 6 9 0 22 -5 28 -13z m-69 -165 c18 -97 10 -273 -11 -239 -12 18 -11 31 1 23 6 -3 10 3 10 14 0 22 -20 30 -21 9 -2 -34 -17 33 -17 72 l1 45 8 -50 7 -50 -1 65 c0 36 3 77 7 92 5 16 3 41 -3 60 -7 20 -8 29 -1 22 5 -5 14 -34 20 -63z m-158 -3 c-8 -8 -9 -4 -5 13 4 13 8 18 11 10 2 -7 -1 -18 -6 -23z m-165 -80 c-3 -7 -5 -2 -5 12 0 14 2 19 5 13 2 -7 2 -19 0 -25z m130 -35 c-3 -10 -5 -4 -5 12 0 17 2 24 5 18 2 -7 2 -21 0 -30z m-120 -15 c-3 -7 -5 -2 -5 12 0 14 2 19 5 13 2 -7 2 -19 0 -25z m11 -98 c-4 -3 -12 -17 -18 -30 l-11 -25 7 25 c4 14 9 45 12 70 l6 45 6 -40 c3 -22 2 -42 -2 -45z m262 -10 c6 -11 8 -20 6 -20 -3 0 -10 9 -16 20 -6 11 -8 20 -6 20 3 0 10 -9 16 -20z m-52 -277 c18 -40 15 -45 -11 -20 -13 12 -21 28 -19 35 6 19 16 14 30 -15z m-298 -103 c-6 -11 -13 -20 -16 -20 -2 0 0 9 6 20 6 11 13 20 16 20 2 0 0 -9 -6 -20z m296 -114 c-11 -45 -85 -59 -100 -19 -10 25 14 45 47 40 26 -3 31 0 41 26 l11 30 3 -28 c2 -15 1 -37 -2 -49z m-211 14 c3 -10 1 -29 -5 -40 -15 -28 -64 -24 -67 5 -2 11 0 14 3 8 3 -7 15 -13 27 -13 21 0 20 1 -3 17 -14 9 -27 18 -29 19 -11 8 14 24 39 24 20 0 31 -6 35 -20z m375 -35 c-7 -8 -20 -15 -29 -15 -11 0 -8 5 9 14 33 19 35 19 20 1z"/>
 <path d="M764 1499 c-3 -6 -1 -16 5 -22 8 -8 11 -5 11 11 0 24 -5 28 -16 11z"/>
 <path d="M600 799 c0 -12 25 -22 41 -17 6 2 0 9 -15 16 -16 7 -26 8 -26 1z"/>
 <path d="M371 2157 c2 -2 18 -11 34 -21 l30 -17 -24 20 c-13 12 -28 21 -34 21 -6 0 -8 -1 -6 -3z"/>
 <path d="M630 2155 c0 -5 5 -17 10 -25 5 -8 10 -10 10 -5 0 6 -5 17 -10 25 -5 8 -10 11 -10 5z"/>
 <path d="M622 2080 c0 -19 2 -27 5 -17 2 9 2 25 0 35 -3 9 -5 1 -5 -18z"/>
 <path d="M442 2070 c0 -14 2 -19 5 -12 2 6 2 18 0 25 -3 6 -5 1 -5 -13z"/>
 <path d="M663 2000 c0 -41 2 -58 4 -37 2 20 2 54 0 75 -2 20 -4 3 -4 -38z"/>
 <path d="M408 1688 c-3 -7 -2 -21 1 -30 8 -23 34 -7 29 17 -4 22 -24 31 -30 13z"/>
 <path d="M392 1635 c0 -16 2 -22 5 -12 2 9 2 23 0 30 -3 6 -5 -1 -5 -18z"/>
 <path d="M383 1535 c0 -38 2 -53 4 -32 2 20 2 52 0 70 -2 17 -4 1 -4 -38z"/>
 <path d="M892 1324 c-2 -23 0 -25 13 -14 12 10 13 16 4 26 -15 18 -14 18 -17 -12z"/>
 <path d="M412 1290 c0 -14 2 -19 5 -12 2 6 2 18 0 25 -3 6 -5 1 -5 -13z"/>
 <path d="M886 1264 c-12 -31 -6 -72 11 -78 15 -6 15 -8 3 -16 -11 -7 -9 -9 8 -7 27 2 28 17 2 47 -21 24 -28 56 -10 45 6 -3 10 -2 10 4 0 17 -18 21 -24 5z"/>
 <path d="M857 1133 c-10 -12 -34 -31 -53 -41 -33 -17 -34 -19 -18 -37 15 -20 15 -20 11 3 -3 12 -1 20 3 17 5 -3 11 -1 15 5 4 6 18 1 35 -12 17 -12 33 -18 37 -15 3 4 -2 14 -13 22 -10 8 -14 15 -7 15 6 0 18 13 26 29 13 26 13 30 -2 34 -9 2 -24 -6 -34 -20z m17 -8 c-4 -8 -11 -15 -16 -15 -6 0 -5 6 2 15 7 8 14 15 16 15 2 0 1 -7 -2 -15z"/>
 <path d="M419 1126 c-4 -3 -5 -46 -1 -46 3 0 11 8 19 18 13 16 13 15 7 -7 -4 -17 -3 -21 6 -16 9 6 10 -1 6 -26 -6 -31 -6 -32 8 -16 8 11 12 26 9 35 -4 10 -2 13 5 8 16 -9 15 -39 0 -55 -9 -9 -2 -8 19 3 47 24 48 34 4 52 -22 9 -43 24 -46 33 -4 14 -26 24 -36 17z"/>
 <path d="M580 1019 c0 -27 34 -22 38 6 3 17 1 17 -7 5 -7 -10 -11 -11 -11 -2 0 6 -4 12 -10 12 -5 0 -10 -9 -10 -21z"/>
 <path d="M558 973 c6 -2 18 -2 25 0 6 3 1 5 -13 5 -14 0 -19 -2 -12 -5z"/>
 <path d="M882 884 c-6 -11 -5 -29 6 -55 14 -36 32 -52 32 -29 0 6 -4 10 -10 10 -5 0 -9 18 -8 40 2 46 -6 59 -20 34z"/>
 <path d="M910 771 c0 -17 18 -21 24 -6 3 9 0 15 -9 15 -8 0 -15 -4 -15 -9z"/>
 <path d="M343 715 c0 -33 2 -45 4 -27 2 18 2 45 0 60 -2 15 -4 0 -4 -33z"/>
 <path d="M931 742 c-6 -2 -11 -13 -11 -23 0 -11 5 -17 10 -14 6 4 7 12 3 18 -5 9 -3 9 8 0 12 -10 18 -10 27 -1 7 7 12 15 12 18 0 6 -32 8 -49 2z"/>
 <path d="M933 694 c-16 -16 -17 -64 -3 -64 6 0 9 12 8 28 -3 23 0 27 20 25 26 -3 28 3 5 16 -13 6 -22 5 -30 -5z"/>
 <path d="M857 503 c-14 -17 -13 -18 16 -20 28 -2 30 -1 15 11 -10 7 -15 16 -11 19 3 4 4 7 1 7 -3 0 -12 -8 -21 -17z"/>
 <path d="M811 456 l-24 -13 22 -13 c24 -12 44 -4 22 9 -10 6 -9 10 4 14 10 5 14 3 9 -5 -5 -7 0 -9 14 -6 12 4 22 2 22 -3 0 -5 7 -9 15 -9 24 0 17 17 -9 24 -13 3 -30 8 -38 11 -7 2 -24 -2 -37 -9z"/>
 <path d="M527 420 c13 -14 19 -16 25 -7 4 7 1 15 -10 19 -29 11 -32 9 -15 -12z"/>
 <path d="M770 433 c0 -6 -10 -9 -22 -7 -13 2 -16 1 -8 -2 8 -4 20 -11 27 -16 15 -12 24 4 12 22 -5 9 -9 10 -9 3z"/>
 <path d="M668 408 c5 -5 19 -4 33 1 23 10 22 10 -8 8 -18 0 -29 -5 -25 -9z"/>
 <path d="M636 402 c-6 -10 35 -72 47 -72 14 0 7 17 -17 43 -13 14 -21 28 -18 31 3 3 3 6 -1 6 -3 0 -8 -4 -11 -8z"/>
 </g>
<g id="layer103" fill="#9e6e67" stroke="none">
 <path d="M751 2297 c2 -1 13 -9 24 -17 19 -14 19 -14 6 3 -7 9 -18 17 -24 17 -6 0 -8 -1 -6 -3z"/>
 <path d="M683 2269 c5 -19 4 -20 -12 -5 -10 9 -28 16 -41 16 -22 0 -23 -1 -5 -20 22 -24 9 -27 -16 -4 -11 10 -25 14 -35 10 -15 -6 -11 -13 23 -49 69 -71 78 -97 78 -222 0 -103 -3 -117 -39 -217 -21 -60 -43 -108 -49 -108 -5 0 -3 8 4 17 12 15 12 16 -5 10 -15 -6 -17 -5 -8 6 8 9 9 37 6 78 -4 38 1 111 10 179 17 117 14 222 -7 249 -8 10 -26 11 -68 7 -36 -4 -60 -3 -64 4 -3 5 -33 8 -68 6 -82 -4 -86 -23 -12 -55 37 -16 61 -33 70 -52 23 -43 39 -211 26 -263 -22 -89 -25 -287 -6 -403 10 -59 23 -114 28 -121 7 -9 4 -17 -12 -29 -18 -12 -22 -23 -19 -52 3 -20 9 -45 13 -55 6 -14 5 -17 -3 -12 -6 4 -16 21 -22 39 -8 27 -9 24 -5 -25 3 -31 8 -64 12 -73 5 -15 3 -16 -14 -7 -21 12 -33 7 -33 -12 0 -6 5 -4 10 4 5 8 10 10 10 3 0 -6 8 -10 18 -8 9 2 20 4 24 4 4 1 5 8 2 16 -4 8 -1 15 5 15 6 0 11 -8 11 -19 0 -25 79 -78 91 -60 4 7 5 17 2 22 -3 4 -6 47 -7 95 -2 48 -6 96 -11 106 -6 13 -3 22 8 31 9 7 15 14 13 16 -9 11 -15 69 -6 64 6 -3 7 1 4 9 -3 9 -10 16 -15 16 -5 0 -9 5 -9 11 0 5 5 7 10 4 6 -3 11 4 11 17 1 16 4 12 9 -12 l7 -35 2 38 c0 20 -3 37 -9 37 -5 0 -10 8 -10 18 0 14 2 15 10 2 8 -12 10 -12 10 5 0 11 7 31 15 45 14 25 14 25 15 3 0 -13 -4 -23 -9 -23 -4 0 -4 -24 1 -52 7 -35 6 -65 -1 -88 -16 -55 8 -191 43 -245 16 -24 16 -25 -4 -25 -17 0 -20 -6 -20 -45 0 -51 20 -63 21 -12 l1 32 9 -30 c5 -16 15 -34 22 -40 12 -8 12 -16 0 -45 -7 -19 -11 -25 -9 -12 4 22 -16 52 -35 52 -5 0 -9 -6 -9 -12 0 -34 -117 -77 -134 -49 -6 10 20 35 47 44 9 4 17 13 17 22 0 19 -2 19 -45 -5 -76 -43 -95 -62 -95 -96 0 -18 -4 -36 -10 -39 -5 -3 -10 -15 -10 -26 0 -16 3 -18 19 -10 26 14 66 -28 56 -59 -7 -23 -47 -43 -69 -34 -23 9 -27 32 -16 101 6 36 9 68 6 70 -2 3 -12 -7 -22 -22 -14 -22 -18 -50 -18 -153 -1 -115 1 -132 23 -177 14 -27 27 -54 30 -60 2 -5 -4 -3 -15 5 -10 8 -3 -3 15 -23 19 -20 37 -37 40 -37 2 0 -4 9 -14 20 -10 11 -13 20 -7 20 6 0 14 -5 17 -10 18 -29 165 -74 165 -51 0 9 5 8 14 -2 19 -19 72 -11 56 8 -17 20 6 28 24 9 14 -13 22 -14 52 -4 19 7 38 18 41 26 3 8 9 12 13 9 11 -7 33 22 25 35 -4 6 -1 9 7 8 8 -2 13 6 12 19 0 12 3 20 8 17 16 -10 26 39 11 55 -7 9 -13 20 -12 25 0 5 -4 12 -11 16 -7 4 -9 17 -4 34 5 21 9 24 15 14 5 -7 9 -8 9 -3 0 6 4 3 10 -5 5 -8 5 -19 1 -25 -5 -5 -5 -19 -1 -29 5 -15 9 -16 15 -7 4 8 2 17 -6 22 -9 6 -10 9 -2 9 6 0 12 10 11 23 0 35 -20 107 -29 107 -5 0 -10 10 -10 23 -1 13 -4 8 -8 -13 -5 -27 -11 -36 -30 -38 -13 -2 -27 0 -32 5 -5 5 3 9 19 8 23 0 27 5 30 31 3 33 -29 84 -54 84 -17 0 -19 16 -1 23 7 3 5 6 -5 6 -10 1 -18 6 -18 12 0 5 -3 8 -7 6 -5 -2 -18 7 -30 20 -12 13 -17 23 -11 23 6 0 3 11 -7 26 -9 15 -12 24 -7 20 6 -3 13 -2 17 4 3 5 -2 10 -12 10 -14 0 -15 2 -5 9 8 4 12 10 11 12 -2 2 3 13 10 24 9 14 11 15 7 3 -3 -10 0 -20 6 -24 7 -5 8 -2 3 6 -6 10 -4 12 8 7 9 -3 26 4 42 19 14 13 28 24 31 24 3 0 13 7 22 17 12 12 17 34 17 84 0 38 3 69 8 69 4 0 7 9 7 20 0 11 -4 20 -10 20 -5 0 -10 5 -10 11 0 5 5 7 10 4 6 -3 11 -3 11 2 7 40 9 70 10 149 0 51 -2 107 -6 125 -5 27 -4 31 5 19 10 -13 11 -13 7 0 -2 8 -9 16 -15 16 -7 1 -19 2 -27 3 -8 0 -15 7 -15 15 0 8 -5 18 -11 22 -8 4 -9 -4 -5 -27 7 -32 6 -33 -8 -15 -15 19 -16 18 -22 -12 -4 -19 -13 -32 -21 -32 -11 0 -13 -5 -8 -17 29 -69 40 -270 17 -308 -8 -15 -12 -16 -12 -5 -1 12 -4 11 -15 -3 -13 -18 -14 -18 -25 3 -6 12 -21 25 -33 30 -17 7 -18 9 -4 9 9 1 26 -8 37 -19 17 -17 21 -18 26 -6 3 8 1 23 -5 35 -15 27 -13 118 4 165 12 33 12 45 0 79 -11 33 -11 42 -1 53 8 7 16 10 20 7 3 -4 6 0 7 8 0 8 2 55 4 104 5 114 8 135 19 135 4 0 6 13 4 29 -2 17 -1 28 4 25 4 -3 8 54 8 125 0 89 -4 131 -11 131 -6 0 -8 7 -5 16 5 14 4 15 -7 5 -18 -14 -40 9 -31 32 3 8 0 18 -7 23 -7 4 -15 2 -17 -4 -3 -9 -10 -8 -25 3 -30 21 -40 19 -34 -6z m69 -63 c4 -6 12 -12 18 -12 5 -1 15 -2 20 -3 6 0 10 -6 10 -12 0 -5 -5 -7 -11 -3 -6 3 -14 1 -18 -5 -4 -6 -15 -9 -25 -5 -13 5 -15 9 -5 15 10 6 7 13 -12 28 -20 18 -21 20 -4 14 11 -3 23 -11 27 -17z m-209 -22 c-3 -8 -9 -14 -13 -14 -13 0 -22 19 -15 30 9 14 34 0 28 -16z m142 -14 c11 -13 14 -20 6 -20 -13 0 -41 24 -41 34 0 12 18 5 35 -14z m121 -55 c0 -14 -3 -25 -7 -25 -4 0 -14 11 -23 25 -16 24 -16 25 7 25 18 0 23 -6 23 -25z m-4 -49 c5 4 5 -4 -2 -16 -14 -27 -37 -12 -25 17 5 12 9 14 12 5 3 -6 9 -9 15 -6z m-228 -41 c-6 -16 -24 -21 -24 -7 0 11 11 22 21 22 5 0 6 -7 3 -15z m206 -135 c0 -5 -4 -10 -10 -10 -5 0 -10 5 -10 10 0 6 5 10 10 10 6 0 10 -4 10 -10z m-3 -34 c0 -8 -6 -12 -15 -9 -11 5 -11 7 0 14 7 5 13 9 14 9 0 0 1 -6 1 -14z m93 -256 c0 -5 -4 -10 -10 -10 -5 0 -10 5 -10 10 0 6 5 10 10 10 6 0 10 -4 10 -10z m-303 -256 c1 -18 -2 -23 -9 -16 -6 6 -8 18 -5 26 9 22 12 20 14 -10z m173 -4 c6 -11 8 -20 6 -20 -3 0 -10 9 -16 20 -6 11 -8 20 -6 20 3 0 10 -9 16 -20z m-170 -245 c0 -5 -5 -3 -10 5 -5 8 -10 11 -10 6 0 -5 -7 -3 -15 4 -8 7 -12 16 -10 21 7 10 45 -21 45 -36z m200 15 c0 -5 -4 -10 -10 -10 -5 0 -10 5 -10 10 0 6 5 10 10 10 6 0 10 -4 10 -10z m-88 -318 c-17 -26 -58 -39 -81 -25 -9 6 -16 25 -17 45 -1 34 0 34 37 34 28 -1 39 3 39 14 0 13 1 13 10 0 7 -11 10 -7 11 20 1 30 3 27 9 -15 5 -37 3 -56 -8 -73z m123 59 c-6 -5 -25 10 -25 20 0 5 6 4 14 -3 8 -7 12 -15 11 -17z m80 -100 c3 -5 1 -12 -5 -16 -5 -3 -10 1 -10 9 0 18 6 21 15 7z m-57 -18 c10 -20 5 -44 -12 -55 -19 -13 -28 -9 -22 9 4 9 1 20 -6 24 -9 6 -9 11 1 23 17 21 28 20 39 -1z m12 -114 c0 -5 4 -8 9 -5 15 10 21 -22 6 -34 -20 -16 -49 -4 -41 16 3 9 6 20 6 25 0 5 5 9 10 9 6 0 10 -5 10 -11z m-51 -108 c24 -15 3 -32 -24 -19 -13 6 -22 15 -19 19 7 11 25 11 43 0z"/>
 <path d="M600 801 c0 -10 19 -25 25 -20 1 2 -3 10 -11 17 -8 7 -14 8 -14 3z"/>
 <path d="M349 2239 c14 -5 28 -6 32 -2 4 4 -6 9 -24 10 -30 1 -31 1 -8 -8z"/>
 <path d="M622 2080 c0 -19 2 -27 5 -17 2 9 2 25 0 35 -3 9 -5 1 -5 -18z"/>
 <path d="M663 2005 c0 -33 2 -45 4 -27 2 18 2 45 0 60 -2 15 -4 0 -4 -33z"/>
 <path d="M452 1990 c0 -14 2 -19 5 -12 2 6 2 18 0 25 -3 6 -5 1 -5 -13z"/>
 <path d="M832 1960 c0 -14 2 -19 5 -12 2 6 2 18 0 25 -3 6 -5 1 -5 -13z"/>
 <path d="M602 1910 c0 -14 2 -19 5 -12 2 6 2 18 0 25 -3 6 -5 1 -5 -13z"/>
 <path d="M592 1835 c0 -16 2 -22 5 -12 2 9 2 23 0 30 -3 6 -5 -1 -5 -18z"/>
 <path d="M442 1800 c0 -14 2 -19 5 -12 2 6 2 18 0 25 -3 6 -5 1 -5 -13z"/>
 <path d="M850 1705 c13 -14 26 -25 28 -25 3 0 -5 11 -18 25 -13 14 -26 25 -28 25 -3 0 5 -11 18 -25z"/>
 <path d="M421 1672 c-14 -27 -12 -35 8 -23 7 5 11 17 9 27 -4 17 -5 17 -17 -4z"/>
 <path d="M410 1614 c-15 -38 -11 -135 9 -254 l17 -105 19 38 c17 37 17 42 -1 157 -10 67 -23 116 -28 113 -6 -4 -6 1 -1 13 15 36 17 64 6 64 -6 0 -16 -12 -21 -26z"/>
 <path d="M383 1535 c0 -38 2 -53 4 -32 2 20 2 52 0 70 -2 17 -4 1 -4 -38z"/>
 <path d="M765 1491 c-3 -5 -1 -12 5 -16 5 -3 10 1 10 9 0 18 -6 21 -15 7z"/>
 <path d="M753 1420 c0 -25 2 -35 4 -22 2 12 2 32 0 45 -2 12 -4 2 -4 -23z"/>
 <path d="M900 1403 c0 -21 3 -24 9 -14 5 8 7 20 4 28 -8 21 -13 15 -13 -14z"/>
 <path d="M760 1351 c0 -6 5 -13 10 -16 6 -3 10 1 10 9 0 9 -4 16 -10 16 -5 0 -10 -4 -10 -9z"/>
 <path d="M904 1332 c3 -5 0 -12 -6 -15 -7 -2 -10 -7 -7 -11 3 -4 12 0 18 8 9 11 9 16 0 22 -7 4 -9 3 -5 -4z"/>
 <path d="M890 1271 c0 -5 5 -13 10 -16 6 -3 10 -2 10 4 0 5 -4 13 -10 16 -5 3 -10 2 -10 -4z"/>
 <path d="M400 1235 c-10 -12 -10 -15 2 -15 8 0 15 7 15 15 0 8 -1 15 -2 15 -2 0 -8 -7 -15 -15z"/>
 <path d="M882 1215 c-1 -13 5 -26 14 -29 8 -3 13 -10 10 -14 -3 -5 1 -9 9 -9 17 0 19 15 5 37 -7 11 -10 11 -10 2 0 -7 -4 -11 -10 -7 -5 3 -7 12 -4 19 3 8 2 16 -3 19 -5 3 -10 -5 -11 -18z"/>
 <path d="M411 1201 c-10 -6 -10 -10 -1 -16 13 -8 24 -1 19 14 -3 6 -10 7 -18 2z"/>
 <path d="M406 1152 c-3 -4 4 -9 15 -9 23 -2 25 3 4 10 -8 4 -16 3 -19 -1z"/>
 <path d="M877 1145 c6 -19 -33 -56 -52 -49 -8 4 -15 1 -15 -6 0 -6 -5 -8 -12 -4 -6 4 -8 3 -4 -4 3 -5 0 -12 -6 -15 -10 -4 -11 -7 0 -18 10 -11 12 -10 12 3 0 26 25 41 40 23 13 -15 35 -11 25 6 -4 5 -2 9 4 9 5 0 16 13 24 29 13 27 13 30 -3 34 -12 3 -17 0 -13 -8z"/>
 <path d="M487 1060 c3 -11 -1 -28 -8 -37 -13 -15 -11 -15 19 1 17 9 32 21 32 26 0 14 -17 12 -23 -2 -3 -7 -6 -3 -6 10 -1 12 -5 22 -10 22 -5 0 -7 -9 -4 -20z"/>
 <path d="M461 1051 c-7 -5 -11 -15 -9 -22 3 -10 8 -7 17 9 13 24 12 26 -8 13z"/>
 <path d="M751 1041 c-11 -7 -11 -9 0 -13 7 -2 18 -19 24 -37 10 -31 12 -32 25 -15 8 11 10 15 5 11 -6 -5 -16 6 -25 27 -11 26 -19 33 -29 27z"/>
 <path d="M580 1026 c0 -8 7 -16 15 -20 13 -4 14 -2 5 14 -13 23 -20 26 -20 6z"/>
 <path d="M816 968 c-15 -21 -14 -24 17 -58 17 -19 35 -39 38 -43 3 -4 4 7 1 24 -3 20 -12 33 -24 37 -20 5 -22 40 -3 54 6 5 6 8 -2 8 -6 0 -19 -10 -27 -22z"/>
 <path d="M389 943 l-24 -28 28 24 c15 14 27 26 27 28 0 8 -8 1 -31 -24z"/>
 <path d="M890 900 c-5 -17 -5 -62 1 -71 10 -16 17 34 8 57 -4 10 -8 17 -9 14z"/>
 <path d="M343 715 c0 -33 2 -45 4 -27 2 18 2 45 0 60 -2 15 -4 0 -4 -33z"/>
 <path d="M940 733 c0 -15 -2 -16 -10 -3 -8 12 -10 10 -10 -9 0 -23 1 -24 20 -6 11 10 17 22 14 26 -8 14 -14 11 -14 -8z"/>
 <path d="M920 663 c0 -12 5 -25 10 -28 13 -8 13 15 0 35 -8 12 -10 11 -10 -7z"/>
 <path d="M910 610 c0 -5 9 -10 20 -10 11 0 20 5 20 10 0 6 -9 10 -20 10 -11 0 -20 -4 -20 -10z"/>
 <path d="M900 572 c0 -5 7 -13 16 -16 10 -4 14 -1 12 6 -5 15 -28 23 -28 10z"/>
 <path d="M884 539 c-5 -9 -2 -10 9 -6 9 3 18 2 21 -4 2 -5 3 -4 2 3 -3 17 -23 21 -32 7z"/>
 <path d="M875 490 c-3 -5 1 -10 10 -10 9 0 13 5 10 10 -3 6 -8 10 -10 10 -2 0 -7 -4 -10 -10z"/>
 <path d="M481 436 c7 -15 15 -23 17 -16 3 7 -3 19 -13 28 -15 16 -16 15 -4 -12z"/>
 <path d="M806 444 c-3 -8 -2 -13 3 -9 5 3 12 -1 14 -7 4 -9 8 -10 14 -2 4 6 17 16 28 23 20 12 9 10 -29 -5 -14 -5 -17 -4 -12 4 4 7 3 12 -2 12 -6 0 -13 -7 -16 -16z"/>
 <path d="M885 440 c-3 -5 1 -10 9 -10 9 0 16 5 16 10 0 6 -4 10 -9 10 -6 0 -13 -4 -16 -10z"/>
 <path d="M770 430 c0 -5 -8 -7 -17 -3 -15 5 -14 3 2 -10 23 -17 37 -13 28 8 -6 17 -13 20 -13 5z"/>
 <path d="M530 421 c0 -17 18 -21 24 -6 3 9 0 15 -9 15 -8 0 -15 -4 -15 -9z"/>
 <path d="M585 410 c3 -5 11 -10 16 -10 6 0 7 5 4 10 -3 6 -11 10 -16 10 -6 0 -7 -4 -4 -10z"/>
 <path d="M680 410 c-18 -12 -2 -12 25 0 13 6 15 9 5 9 -8 0 -22 -4 -30 -9z"/>
 <path d="M647 383 c-7 -11 32 -57 41 -49 4 4 -1 13 -10 20 -10 7 -15 15 -12 18 3 4 1 9 -5 12 -5 4 -12 3 -14 -1z"/>
 </g>
<g id="layer104" fill="#a7887f" stroke="none">
 <path d="M751 2297 c2 -1 13 -9 24 -17 19 -14 19 -14 6 3 -7 9 -18 17 -24 17 -6 0 -8 -1 -6 -3z"/>
 <path d="M683 2269 c5 -19 4 -20 -12 -5 -10 9 -28 16 -41 16 -22 0 -23 -1 -5 -20 22 -24 9 -27 -16 -4 -11 10 -25 14 -35 10 -15 -6 -11 -13 23 -49 69 -71 78 -97 78 -222 0 -102 -3 -117 -38 -215 -32 -88 -43 -108 -69 -123 l-31 -18 7 32 c3 17 6 36 6 41 0 6 8 8 18 6 17 -5 18 1 14 66 -2 39 4 120 12 179 20 133 13 232 -17 248 -11 6 -38 8 -64 4 -26 -4 -49 -2 -57 4 -7 6 -39 9 -72 7 -79 -4 -82 -23 -9 -55 37 -16 61 -33 70 -52 23 -44 39 -211 26 -264 -6 -25 -14 -107 -17 -183 -4 -108 -1 -158 14 -237 16 -90 20 -100 43 -105 23 -6 23 -6 -8 -17 -45 -16 -54 -53 -27 -117 5 -14 4 -17 -4 -12 -6 4 -16 21 -21 39 l-9 32 -1 -30 c-1 -37 16 -102 29 -110 6 -3 7 1 4 9 -3 9 -1 16 5 16 6 0 11 -9 11 -19 0 -19 55 -61 79 -61 6 0 11 16 11 35 0 19 -5 35 -10 35 -6 0 -8 -11 -4 -27 7 -25 6 -27 -9 -14 -10 7 -17 10 -17 5 0 -5 -6 2 -13 16 -18 33 -11 49 19 44 25 -5 25 -6 29 71 1 17 -3 41 -9 54 -8 18 -7 26 7 36 9 6 15 14 13 16 -9 11 -15 69 -6 64 6 -3 7 1 4 9 -3 9 -10 16 -15 16 -5 0 -9 5 -9 11 0 5 5 7 10 4 6 -3 11 4 11 17 1 16 4 12 9 -12 l7 -35 2 38 c0 20 -3 37 -9 37 -5 0 -10 8 -10 18 0 14 2 15 10 2 8 -12 10 -12 10 5 0 11 6 30 13 43 11 20 13 9 10 -75 -2 -54 -4 -118 -5 -143 0 -55 23 -150 46 -185 16 -24 16 -25 -4 -25 -16 0 -20 -7 -20 -34 0 -42 20 -59 21 -19 l1 28 9 -32 c11 -38 29 -53 29 -24 0 12 5 21 11 21 5 0 8 3 5 8 -2 4 3 16 11 27 12 16 14 16 10 3 -3 -10 -1 -20 5 -24 7 -5 8 -2 3 6 -6 10 -4 12 8 7 9 -3 26 4 42 19 14 13 30 24 36 24 10 0 12 14 2 23 -3 4 -12 2 -20 -4 -17 -14 -17 2 0 20 10 11 10 13 0 7 -9 -5 -13 1 -13 21 1 27 1 27 16 8 8 -11 18 -19 22 -17 3 2 9 -5 13 -15 11 -30 22 50 16 110 -4 34 -3 45 3 32 8 -19 9 -19 9 2 1 12 -5 24 -11 27 -10 3 -8 9 4 19 16 12 17 31 15 155 -1 77 2 135 6 129 6 -8 7 -7 4 3 -2 8 -9 16 -15 16 -7 1 -19 2 -27 3 -8 0 -15 7 -15 15 0 8 -5 18 -11 22 -8 4 -9 -4 -5 -27 7 -32 6 -33 -8 -15 -15 19 -16 18 -22 -12 -4 -19 -13 -32 -21 -32 -11 0 -13 -5 -8 -17 33 -80 39 -267 12 -320 -10 -18 -21 -33 -25 -33 -4 0 -14 15 -22 33 -12 26 -24 34 -60 43 l-45 11 40 10 c24 6 39 15 37 22 -3 15 17 43 27 37 14 -9 11 56 -4 77 -15 21 -15 21 -15 -13 0 -48 -15 -70 -26 -39 -12 34 -12 42 0 58 8 11 8 13 -1 7 -9 -5 -11 -2 -7 9 4 8 14 20 23 25 20 10 47 -3 37 -19 -4 -6 -4 -16 0 -22 4 -7 12 1 20 20 11 27 11 39 -1 74 -10 29 -11 45 -4 54 6 6 8 20 5 30 -3 10 -2 38 3 63 9 44 9 44 10 -24 1 -98 11 -76 15 35 2 52 6 105 10 119 4 14 -2 5 -13 -19 -23 -48 -27 -48 -40 -3 -8 27 -7 30 10 27 10 -2 22 1 25 7 4 7 2 8 -5 4 -8 -5 -11 11 -9 62 2 39 6 68 9 66 4 -2 9 3 13 11 3 8 11 15 17 15 8 0 10 -22 6 -72 -3 -45 -2 -61 3 -43 12 48 12 285 -1 285 -6 0 -8 7 -5 16 5 14 4 15 -7 5 -18 -14 -40 9 -31 32 3 8 0 18 -7 23 -7 4 -15 2 -17 -4 -3 -9 -10 -8 -25 3 -30 21 -40 19 -34 -6z m69 -63 c4 -6 12 -12 18 -12 5 -1 15 -2 20 -3 6 0 10 -6 10 -12 0 -5 -5 -7 -11 -3 -6 3 -14 1 -18 -5 -4 -6 -15 -9 -25 -5 -13 5 -15 9 -5 15 10 6 7 13 -12 28 -20 18 -21 20 -4 14 11 -3 23 -11 27 -17z m-209 -2 c3 -3 3 -12 0 -20 -6 -16 -33 -19 -33 -4 0 6 -5 10 -11 10 -8 0 -7 -5 1 -15 23 -28 3 -27 -26 1 -18 17 -22 25 -12 21 10 -4 28 -2 40 3 29 11 33 11 41 4z m33 -18 c1 -9 -2 -16 -8 -14 -6 2 -12 12 -14 22 -1 9 2 16 8 14 6 -2 12 -12 14 -22z m109 -16 c11 -13 14 -20 6 -20 -13 0 -41 24 -41 34 0 12 18 5 35 -14z m-109 -44 c-2 -20 -9 -31 -19 -30 -10 1 -13 -4 -10 -15 5 -13 3 -14 -8 -3 -17 15 -37 16 -22 1 9 -9 8 -15 -2 -25 -20 -20 -24 -17 -23 17 1 22 7 33 20 37 10 2 18 13 18 24 0 10 5 16 10 13 6 -3 10 -2 10 3 0 5 7 9 15 9 10 0 13 -9 11 -31z m230 -16 c1 -16 0 -30 -1 -30 -2 0 -13 14 -25 30 l-21 30 23 0 c19 0 23 -6 24 -30z m-16 -42 c0 -5 5 -6 10 -3 16 10 12 -11 -5 -25 -15 -13 -15 -14 -29 34 -3 10 0 13 10 9 7 -3 14 -9 14 -15z m-216 -43 c-4 -8 -10 -15 -15 -15 -5 0 -9 7 -9 15 0 8 7 15 15 15 9 0 12 -6 9 -15z m-14 -175 c0 -11 -2 -20 -4 -20 -2 0 -6 9 -9 20 -3 11 -1 20 4 20 5 0 9 -9 9 -20z m292 -222 c-7 -7 -12 -8 -12 -2 0 14 12 26 19 19 2 -3 -1 -11 -7 -17z m22 -34 c9 -24 7 -27 -9 -10 -17 17 -19 26 -6 26 5 0 12 -7 15 -16z m-124 -45 c0 -6 -4 -7 -10 -4 -5 3 -10 11 -10 16 0 6 5 7 10 4 6 -3 10 -11 10 -16z m-183 -205 c1 -18 -2 -23 -9 -16 -6 6 -8 18 -5 26 9 22 12 20 14 -10z m226 -202 c4 -6 5 -17 1 -23 -4 -8 -9 -7 -15 2 -7 11 -9 10 -9 -3 0 -30 -17 -20 -18 11 0 21 4 28 16 27 9 0 21 -7 25 -14z"/>
 <path d="M349 2239 c14 -5 28 -6 32 -2 4 4 -6 9 -24 10 -30 1 -31 1 -8 -8z"/>
 <path d="M622 2080 c0 -19 2 -27 5 -17 2 9 2 25 0 35 -3 9 -5 1 -5 -18z"/>
 <path d="M663 2005 c0 -33 2 -45 4 -27 2 18 2 45 0 60 -2 15 -4 0 -4 -33z"/>
 <path d="M452 1990 c0 -14 2 -19 5 -12 2 6 2 18 0 25 -3 6 -5 1 -5 -13z"/>
 <path d="M832 1960 c0 -14 2 -19 5 -12 2 6 2 18 0 25 -3 6 -5 1 -5 -13z"/>
 <path d="M602 1910 c0 -14 2 -19 5 -12 2 6 2 18 0 25 -3 6 -5 1 -5 -13z"/>
 <path d="M592 1835 c0 -16 2 -22 5 -12 2 9 2 23 0 30 -3 6 -5 -1 -5 -18z"/>
 <path d="M442 1800 c0 -14 2 -19 5 -12 2 6 2 18 0 25 -3 6 -5 1 -5 -13z"/>
 <path d="M850 1705 c13 -14 26 -25 28 -25 3 0 -5 11 -18 25 -13 14 -26 25 -28 25 -3 0 5 -11 18 -25z"/>
 <path d="M421 1672 c-14 -27 -12 -35 8 -23 7 5 11 17 9 27 -4 17 -5 17 -17 -4z"/>
 <path d="M410 1614 c-15 -37 -11 -135 8 -254 12 -68 21 -100 27 -91 4 8 8 29 7 48 -1 20 3 31 8 28 13 -8 13 -1 -5 92 -8 43 -15 91 -15 106 0 19 -4 26 -12 21 -8 -5 -9 -2 -3 12 15 36 17 64 6 64 -6 0 -16 -12 -21 -26z"/>
 <path d="M383 1535 c0 -38 2 -53 4 -32 2 20 2 52 0 70 -2 17 -4 1 -4 -38z"/>
 <path d="M765 1491 c-3 -5 -1 -12 5 -16 5 -3 10 1 10 9 0 18 -6 21 -15 7z"/>
 <path d="M753 1420 c0 -25 2 -35 4 -22 2 12 2 32 0 45 -2 12 -4 2 -4 -23z"/>
 <path d="M900 1403 c0 -21 3 -24 9 -14 5 8 7 20 4 28 -8 21 -13 15 -13 -14z"/>
 <path d="M760 1351 c0 -6 5 -13 10 -16 6 -3 10 1 10 9 0 9 -4 16 -10 16 -5 0 -10 -4 -10 -9z"/>
 <path d="M740 1345 c0 -5 5 -17 10 -25 5 -8 10 -10 10 -5 0 6 -5 17 -10 25 -5 8 -10 11 -10 5z"/>
 <path d="M904 1332 c3 -5 0 -12 -6 -15 -7 -2 -10 -7 -7 -11 3 -4 12 0 18 8 9 11 9 16 0 22 -7 4 -9 3 -5 -4z"/>
 <path d="M890 1271 c0 -5 5 -13 10 -16 6 -3 10 -2 10 4 0 5 -4 13 -10 16 -5 3 -10 2 -10 -4z"/>
 <path d="M400 1235 c-10 -12 -10 -15 2 -15 8 0 15 7 15 15 0 8 -1 15 -2 15 -2 0 -8 -7 -15 -15z"/>
 <path d="M882 1215 c-1 -13 5 -26 14 -29 8 -3 13 -10 10 -14 -3 -5 1 -9 9 -9 17 0 19 15 5 37 -7 11 -10 11 -10 2 0 -7 -4 -11 -10 -7 -5 3 -7 12 -4 19 3 8 2 16 -3 19 -5 3 -10 -5 -11 -18z"/>
 <path d="M411 1201 c-10 -6 -10 -10 -1 -16 13 -8 24 -1 19 14 -3 6 -10 7 -18 2z"/>
 <path d="M406 1152 c-3 -4 4 -9 15 -9 23 -2 25 3 4 10 -8 4 -16 3 -19 -1z"/>
 <path d="M877 1145 c6 -19 -33 -56 -52 -49 -8 4 -15 1 -15 -6 0 -6 -5 -8 -12 -4 -6 4 -8 3 -4 -4 3 -5 0 -12 -6 -15 -10 -4 -11 -7 0 -18 10 -11 12 -10 12 3 0 26 25 41 40 23 13 -15 35 -11 25 6 -4 5 -2 9 4 9 5 0 16 13 24 29 13 27 13 30 -3 34 -12 3 -17 0 -13 -8z"/>
 <path d="M416 1123 c-3 -3 -6 -11 -6 -17 0 -6 5 -4 10 4 5 8 10 10 10 4 0 -6 7 -11 15 -11 20 0 19 4 -4 16 -10 6 -21 7 -25 4z"/>
 <path d="M487 1060 c3 -11 -1 -28 -8 -37 -13 -15 -11 -15 19 1 17 9 32 21 32 26 0 14 -17 12 -23 -2 -3 -7 -6 -3 -6 10 -1 12 -5 22 -10 22 -5 0 -7 -9 -4 -20z"/>
 <path d="M461 1051 c-7 -5 -11 -15 -9 -22 3 -10 8 -7 17 9 13 24 12 26 -8 13z"/>
 <path d="M751 1041 c-11 -7 -11 -9 0 -13 7 -2 18 -19 24 -37 10 -31 12 -32 25 -15 8 11 10 15 5 11 -6 -5 -16 6 -25 27 -11 26 -19 33 -29 27z"/>
 <path d="M534 1026 c-12 -6 -40 -25 -63 -40 -34 -24 -41 -34 -41 -62 0 -18 -4 -36 -10 -39 -5 -3 -10 -15 -10 -26 0 -16 3 -18 19 -10 26 14 66 -28 56 -59 -7 -23 -47 -43 -69 -34 -23 9 -27 32 -16 101 6 36 9 68 6 70 -2 3 -12 -7 -22 -22 -14 -22 -18 -50 -18 -153 -1 -115 1 -132 23 -177 14 -27 27 -54 30 -60 2 -5 -4 -3 -15 5 -10 8 -3 -3 15 -23 19 -20 37 -37 40 -37 2 0 -4 9 -14 20 -10 11 -13 20 -7 20 6 0 14 -5 17 -10 8 -13 87 -49 126 -57 21 -4 34 -1 40 8 6 10 9 10 9 2 0 -8 14 -13 36 -13 30 0 34 2 25 14 -17 21 6 32 27 13 22 -19 82 -4 89 23 3 11 11 16 19 13 8 -3 14 -2 14 1 0 4 -12 11 -26 16 -14 6 -23 14 -19 19 3 6 -3 14 -12 20 -17 10 -16 11 4 17 14 4 24 17 28 35 4 16 9 29 11 29 16 0 44 -23 44 -35 0 -19 16 -19 24 0 3 9 0 15 -10 15 -8 0 -12 5 -9 10 3 6 1 10 -5 10 -7 0 -10 6 -7 14 3 8 2 16 -3 18 -6 2 -11 15 -12 30 -2 26 -18 29 -18 3 0 -7 -7 -16 -16 -19 -24 -9 -27 -8 -20 11 4 9 1 20 -6 24 -16 10 8 39 33 39 11 0 19 5 19 10 0 6 -9 10 -19 10 -11 0 -22 4 -25 8 -2 4 8 8 22 7 23 0 27 5 30 31 4 37 -30 84 -61 84 -22 1 -22 1 -3 15 17 13 18 15 3 15 -9 0 -17 5 -17 11 0 5 -4 7 -10 4 -5 -3 -10 -1 -10 5 0 6 -10 15 -22 19 -17 7 -26 5 -35 -7 -11 -14 -13 -11 -13 16 0 18 -2 32 -4 32 -2 0 -11 3 -20 6 -10 4 -16 1 -16 -7 0 -35 -117 -78 -134 -50 -6 10 20 35 47 44 9 4 17 13 17 22 0 17 -7 18 -36 1z m148 -234 c-17 -26 -58 -39 -81 -25 -9 6 -16 25 -17 45 -1 34 0 34 37 34 28 -1 39 3 39 14 0 13 1 13 10 0 7 -11 10 -7 11 20 1 30 3 27 9 -15 5 -37 3 -56 -8 -73z m123 59 c-6 -5 -25 10 -25 20 0 5 6 4 14 -3 8 -7 12 -15 11 -17z m-17 -93 c-6 -18 -28 -21 -28 -4 0 9 7 16 16 16 9 0 14 -5 12 -12z m8 -249 c3 -6 2 -15 -4 -21 -11 -11 -52 6 -52 22 0 14 47 13 56 -1z m-46 -35 c0 -8 -4 -12 -10 -9 -5 3 -10 10 -10 16 0 5 5 9 10 9 6 0 10 -7 10 -16z"/>
 <path d="M600 801 c0 -10 19 -25 25 -20 1 2 -3 10 -11 17 -8 7 -14 8 -14 3z"/>
 <path d="M580 1026 c0 -8 7 -16 15 -20 13 -4 14 -2 5 14 -13 23 -20 26 -20 6z"/>
 <path d="M816 968 c-15 -21 -14 -24 17 -58 17 -19 35 -39 38 -43 3 -4 4 7 1 24 -3 20 -12 33 -24 37 -20 5 -22 40 -3 54 6 5 6 8 -2 8 -6 0 -19 -10 -27 -22z"/>
 <path d="M389 943 l-24 -28 28 24 c15 14 27 26 27 28 0 8 -8 1 -31 -24z"/>
 <path d="M890 900 c-5 -17 -5 -62 1 -71 10 -16 17 34 8 57 -4 10 -8 17 -9 14z"/>
 <path d="M861 809 c0 -22 5 -42 14 -49 10 -8 12 -17 6 -28 -6 -10 -4 -21 5 -30 9 -9 11 -18 6 -26 -5 -6 -6 -20 -2 -30 5 -15 9 -16 15 -7 4 8 2 17 -6 22 -9 6 -10 9 -2 9 6 0 12 10 11 23 0 34 -20 107 -29 107 -4 0 -10 10 -12 23 -3 14 -5 9 -6 -14z"/>
 <path d="M343 715 c0 -33 2 -45 4 -27 2 18 2 45 0 60 -2 15 -4 0 -4 -33z"/>
 <path d="M940 733 c0 -15 -2 -16 -10 -3 -8 12 -10 10 -10 -9 0 -23 1 -24 20 -6 11 10 17 22 14 26 -8 14 -14 11 -14 -8z"/>
 <path d="M920 663 c0 -12 5 -25 10 -28 13 -8 13 15 0 35 -8 12 -10 11 -10 -7z"/>
 <path d="M910 610 c0 -5 9 -10 20 -10 11 0 20 5 20 10 0 6 -9 10 -20 10 -11 0 -20 -4 -20 -10z"/>
 <path d="M900 572 c0 -5 7 -13 16 -16 10 -4 14 -1 12 6 -5 15 -28 23 -28 10z"/>
 <path d="M884 539 c-5 -9 -2 -10 9 -6 9 3 18 2 21 -4 2 -5 3 -4 2 3 -3 17 -23 21 -32 7z"/>
 <path d="M875 490 c-3 -5 1 -10 10 -10 9 0 13 5 10 10 -3 6 -8 10 -10 10 -2 0 -7 -4 -10 -10z"/>
 <path d="M481 436 c7 -15 15 -23 17 -16 3 7 -3 19 -13 28 -15 16 -16 15 -4 -12z"/>
 <path d="M806 444 c-3 -8 -2 -13 3 -9 5 3 12 -1 14 -7 4 -9 8 -10 14 -2 4 6 17 16 28 23 20 12 9 10 -29 -5 -14 -5 -17 -4 -12 4 4 7 3 12 -2 12 -6 0 -13 -7 -16 -16z"/>
 <path d="M885 440 c-3 -5 1 -10 9 -10 9 0 16 5 16 10 0 6 -4 10 -9 10 -6 0 -13 -4 -16 -10z"/>
 <path d="M770 430 c0 -5 -8 -7 -17 -3 -15 5 -14 3 2 -10 23 -17 37 -13 28 8 -6 17 -13 20 -13 5z"/>
 <path d="M530 421 c0 -17 18 -21 24 -6 3 9 0 15 -9 15 -8 0 -15 -4 -15 -9z"/>
 <path d="M585 410 c3 -5 11 -10 16 -10 6 0 7 5 4 10 -3 6 -11 10 -16 10 -6 0 -7 -4 -4 -10z"/>
 <path d="M680 410 c-18 -12 -2 -12 25 0 13 6 15 9 5 9 -8 0 -22 -4 -30 -9z"/>
 <path d="M647 383 c-7 -11 32 -57 41 -49 4 4 -1 13 -10 20 -10 7 -15 15 -12 18 3 4 1 9 -5 12 -5 4 -12 3 -14 -1z"/>
 </g>
<g id="layer105" fill="#bba59c" stroke="none">
 <path d="M751 2297 c2 -1 13 -9 24 -17 19 -14 19 -14 6 3 -7 9 -18 17 -24 17 -6 0 -8 -1 -6 -3z"/>
 <path d="M683 2271 c4 -18 3 -18 -24 -3 -31 19 -49 11 -29 -13 17 -20 1 -19 -21 1 -10 9 -26 14 -35 10 -13 -5 -7 -16 33 -60 63 -68 77 -116 71 -233 -6 -120 -64 -287 -110 -320 -18 -12 -33 -21 -35 -19 -2 1 3 29 11 62 8 32 15 54 15 48 1 -6 7 -11 14 -11 9 0 12 16 9 61 -2 34 3 109 12 167 9 59 16 119 16 134 0 27 -1 28 -20 10 -11 -10 -17 -21 -15 -26 3 -4 1 -11 -5 -14 -7 -4 -8 -11 -2 -18 5 -7 8 -30 6 -52 -4 -48 -4 -60 -3 -80 2 -63 -4 -145 -10 -145 -17 0 -18 150 -1 195 7 20 7 31 -1 41 -6 8 -9 25 -7 39 5 25 -5 34 -17 15 -4 -6 -10 -8 -15 -5 -4 3 -6 -5 -3 -16 4 -16 2 -20 -8 -17 -19 6 -22 78 -4 85 8 2 11 12 8 20 -4 10 -2 14 4 10 6 -4 13 0 17 8 7 18 -15 20 -32 3 -9 -9 -12 -8 -12 5 0 9 -16 24 -35 33 -39 18 -47 29 -14 19 16 -5 20 -3 17 6 -3 10 -23 14 -69 13 -52 0 -65 -3 -67 -17 -2 -9 2 -17 9 -17 29 0 101 -44 114 -70 24 -47 39 -202 26 -268 -22 -110 -24 -307 -4 -416 l19 -98 38 -13 c54 -19 65 -12 55 33 -4 20 -5 40 -2 45 3 5 -1 14 -8 19 -11 7 -11 11 -1 15 6 2 12 11 12 19 0 9 5 12 10 9 6 -3 10 -1 10 4 0 6 -4 11 -10 11 -5 0 -10 8 -10 17 0 9 3 13 7 10 3 -4 14 10 23 30 l17 38 -2 -95 c-1 -52 -5 -103 -9 -112 -13 -30 2 -37 42 -21 41 16 46 33 24 86 -7 16 -12 36 -12 45 0 22 37 82 50 82 5 0 10 10 10 23 1 22 1 22 17 2 l16 -20 -9 20 c-4 11 -8 53 -8 93 -1 39 -5 72 -10 72 -4 0 -3 7 4 15 10 12 10 25 1 59 -14 56 -14 56 4 56 9 0 15 9 15 25 0 14 -4 25 -10 25 -5 0 -10 5 -10 11 0 5 5 7 11 3 7 -4 10 6 7 32 -1 21 2 39 8 41 13 4 6 53 -8 53 -5 0 -6 5 -3 10 4 7 12 7 25 0 16 -9 17 -7 6 15 -6 14 -14 25 -18 25 -5 0 -8 7 -8 15 0 9 6 12 15 9 9 -4 15 0 15 9 0 12 -8 15 -30 12 -16 -2 -30 0 -30 5 0 14 30 32 45 26 18 -7 20 5 3 22 -16 16 -28 15 -28 -3 0 -19 -14 -19 -29 -1 -9 11 -9 16 0 22 8 4 9 3 5 -4 -9 -16 7 -15 22 0 15 15 16 48 2 48 -5 0 -10 -5 -10 -11 0 -5 -10 -3 -22 5 -30 21 -41 20 -35 -3z m3 -98 c11 -12 13 -18 5 -21 -13 -4 -41 16 -41 29 0 14 17 10 36 -8z m-119 -829 c1 -18 -2 -23 -9 -16 -6 6 -8 18 -5 26 9 22 12 20 14 -10z"/>
 <path d="M330 2246 c0 -2 9 -6 20 -9 11 -3 18 -1 14 4 -5 9 -34 13 -34 5z"/>
 <path d="M586 2173 c3 -47 14 -56 14 -10 0 20 -3 38 -8 41 -4 2 -7 -11 -6 -31z"/>
 <path d="M622 2080 c0 -19 2 -27 5 -17 2 9 2 25 0 35 -3 9 -5 1 -5 -18z"/>
 <path d="M663 2005 c0 -33 2 -45 4 -27 2 18 2 45 0 60 -2 15 -4 0 -4 -33z"/>
 <path d="M452 1990 c0 -14 2 -19 5 -12 2 6 2 18 0 25 -3 6 -5 1 -5 -13z"/>
 <path d="M812 1975 c0 -16 2 -22 5 -12 2 9 2 23 0 30 -3 6 -5 -1 -5 -18z"/>
 <path d="M832 1960 c0 -14 2 -19 5 -12 2 6 2 18 0 25 -3 6 -5 1 -5 -13z"/>
 <path d="M592 1840 c0 -14 2 -19 5 -12 2 6 2 18 0 25 -3 6 -5 1 -5 -13z"/>
 <path d="M776 1825 c-3 -9 -5 -33 -5 -53 2 -33 2 -32 9 13 8 53 6 66 -4 40z"/>
 <path d="M442 1800 c0 -14 2 -19 5 -12 2 6 2 18 0 25 -3 6 -5 1 -5 -13z"/>
 <path d="M850 1705 c13 -14 26 -25 28 -25 3 0 -5 11 -18 25 -13 14 -26 25 -28 25 -3 0 5 -11 18 -25z"/>
 <path d="M826 1680 c5 -32 4 -33 -9 -17 -14 17 -15 16 -21 -8 -4 -14 -4 -31 0 -37 4 -7 -1 -8 -16 -3 -20 6 -22 5 -15 -11 33 -81 40 -268 12 -321 -22 -41 -29 -41 -45 -4 -14 32 -66 56 -95 45 -20 -7 -20 -5 -6 -79 15 -80 32 -110 71 -125 18 -7 40 -19 49 -27 14 -11 20 -10 43 12 15 14 31 25 37 25 13 0 11 17 -3 26 -7 4 -8 3 -4 -4 4 -7 1 -12 -8 -12 -9 0 -16 -7 -16 -16 0 -10 -5 -14 -16 -10 -8 3 -12 2 -9 -4 3 -6 -1 -10 -9 -10 -9 0 -16 8 -16 19 0 11 -3 28 -7 38 -6 15 -4 16 9 5 11 -9 23 -10 42 -2 14 5 26 12 26 15 0 4 -4 3 -10 0 -6 -4 -10 5 -10 21 0 15 3 24 7 21 16 -17 43 57 49 136 5 76 14 118 14 69 0 -12 5 -22 11 -22 8 0 10 40 8 129 -2 71 0 124 4 118 6 -8 7 -8 5 2 -2 8 -13 15 -24 16 -19 1 -20 -1 -8 -34 7 -20 13 -47 13 -61 l1 -25 -15 29 c-8 15 -12 32 -9 37 3 5 1 9 -4 9 -5 0 -9 13 -10 30 0 16 -5 37 -11 47 -8 14 -9 10 -5 -17z"/>
 <path d="M421 1672 c-14 -27 -12 -35 8 -23 7 5 11 17 9 27 -4 17 -5 17 -17 -4z"/>
 <path d="M417 1620 c-12 -17 -17 -43 -16 -85 0 -75 32 -284 41 -270 20 32 7 282 -15 296 -5 4 -5 15 3 28 6 12 10 30 8 39 -3 14 -6 13 -21 -8z"/>
 <path d="M383 1535 c0 -38 2 -53 4 -32 2 20 2 52 0 70 -2 17 -4 1 -4 -38z"/>
 <path d="M765 1491 c-3 -5 -1 -12 5 -16 5 -3 10 1 10 9 0 18 -6 21 -15 7z"/>
 <path d="M709 1448 c-5 -20 -2 -26 11 -25 10 0 16 11 17 26 2 23 1 24 -6 6 l-8 -20 -5 20 c-3 17 -5 16 -9 -7z"/>
 <path d="M753 1415 c0 -22 2 -30 4 -17 2 12 2 30 0 40 -3 9 -5 -1 -4 -23z"/>
 <path d="M900 1403 c0 -21 3 -24 9 -14 5 8 7 20 4 28 -8 21 -13 15 -13 -14z"/>
 <path d="M760 1351 c0 -6 5 -13 10 -16 6 -3 10 1 10 9 0 9 -4 16 -10 16 -5 0 -10 -4 -10 -9z"/>
 <path d="M904 1332 c3 -5 0 -12 -6 -15 -7 -2 -10 -7 -7 -11 3 -4 12 0 18 8 9 11 9 16 0 22 -7 4 -9 3 -5 -4z"/>
 <path d="M470 1291 c-13 -25 -13 -57 1 -83 6 -11 8 -22 5 -25 -3 -3 -12 9 -20 28 -14 31 -15 32 -16 9 0 -33 18 -98 30 -105 6 -3 7 1 4 9 -3 9 -1 16 5 16 6 0 11 -7 11 -16 0 -18 24 -14 26 4 1 7 2 17 3 23 0 5 5 8 10 4 5 -3 13 4 16 16 5 16 9 18 15 9 6 -9 9 -8 13 6 10 34 -6 103 -27 116 -22 15 -65 8 -76 -11z"/>
 <path d="M862 1250 c0 -19 2 -27 5 -17 2 9 2 25 0 35 -3 9 -5 1 -5 -18z"/>
 <path d="M400 1235 c-10 -12 -10 -15 2 -15 8 0 15 7 15 15 0 8 -1 15 -2 15 -2 0 -8 -7 -15 -15z"/>
 <path d="M882 1215 c-1 -13 5 -26 14 -29 8 -3 13 -10 10 -14 -3 -5 1 -9 9 -9 17 0 19 15 5 37 -7 11 -10 11 -10 2 0 -7 -4 -11 -10 -7 -5 3 -7 12 -4 19 3 8 2 16 -3 19 -5 3 -10 -5 -11 -18z"/>
 <path d="M830 1223 c0 -4 5 -15 10 -23 8 -13 10 -13 10 2 0 9 -4 20 -10 23 -5 3 -10 3 -10 -2z"/>
 <path d="M411 1201 c-8 -6 -9 -11 -3 -15 6 -3 14 -1 17 5 9 14 2 20 -14 10z"/>
 <path d="M406 1152 c-3 -4 4 -9 15 -9 23 -2 25 3 4 10 -8 4 -16 3 -19 -1z"/>
 <path d="M877 1145 c6 -19 -33 -56 -52 -49 -8 4 -15 1 -15 -6 0 -6 -6 -8 -12 -4 -7 4 -10 4 -6 -1 4 -4 3 -14 -3 -21 -7 -8 -7 -14 1 -19 5 -3 10 0 10 8 0 25 26 39 40 22 13 -15 35 -11 25 6 -4 5 -2 9 4 9 5 0 16 13 24 29 13 27 13 30 -3 34 -12 3 -17 0 -13 -8z"/>
 <path d="M416 1123 c-3 -3 -6 -11 -6 -17 0 -6 5 -4 10 4 5 8 10 10 10 4 0 -6 7 -11 15 -11 20 0 19 4 -4 16 -10 6 -21 7 -25 4z"/>
 <path d="M640 1085 c0 -38 19 -50 21 -12 1 17 3 15 10 -10 5 -18 14 -35 21 -39 7 -4 8 -3 4 4 -4 6 0 25 8 41 14 27 14 30 -2 37 -9 4 -27 9 -39 11 -20 3 -23 -1 -23 -32z"/>
 <path d="M506 1102 c-3 -5 8 -16 25 -26 28 -17 49 -15 49 5 0 6 -4 8 -9 4 -5 -3 -12 -1 -16 5 -4 6 -11 8 -16 5 -5 -4 -9 -1 -9 4 0 13 -17 15 -24 3z"/>
 <path d="M489 1058 c10 -27 27 -34 34 -13 4 8 2 15 -2 15 -5 0 -12 -6 -14 -12 -3 -7 -6 -3 -6 10 -1 12 -5 22 -11 22 -5 0 -6 -9 -1 -22z"/>
 <path d="M450 1034 c0 -8 5 -12 10 -9 6 4 8 11 5 16 -9 14 -15 11 -15 -7z"/>
 <path d="M751 1041 c-11 -7 -11 -9 0 -13 7 -2 18 -19 24 -37 10 -31 12 -32 25 -15 9 10 10 15 3 11 -8 -5 -15 1 -19 18 -3 14 -10 25 -16 25 -5 0 -6 5 -3 10 8 12 4 12 -14 1z"/>
 <path d="M518 1017 c-75 -45 -91 -65 -85 -109 3 -24 16 -51 31 -67 31 -33 32 -45 6 -71 -34 -34 -65 -23 -80 28 -5 20 -5 30 1 27 5 -4 9 11 9 34 0 21 3 48 6 58 6 17 5 17 -10 2 -18 -17 -35 -110 -36 -191 0 -69 18 -143 46 -183 30 -45 31 -54 2 -29 -13 10 -7 2 11 -19 19 -20 37 -37 40 -37 2 0 -4 9 -14 20 -10 11 -13 20 -7 20 6 0 14 -5 17 -10 9 -15 84 -47 128 -55 28 -6 37 -4 37 6 0 11 3 11 10 -1 8 -12 11 -13 19 -1 6 9 11 10 15 2 4 -6 15 -11 24 -11 12 0 13 3 4 12 -27 27 -2 40 27 14 35 -31 115 24 82 57 -7 7 -8 3 -4 -12 4 -18 -7 -28 -20 -18 -2 1 -11 -4 -20 -11 -18 -15 -37 -8 -37 13 0 8 6 12 14 9 9 -3 13 1 13 13 -1 10 4 17 11 15 11 -2 17 11 13 31 -1 5 8 11 19 14 11 3 18 9 15 13 -3 5 -1 11 5 15 5 3 10 13 10 21 0 8 -4 12 -10 9 -5 -3 -10 -1 -10 4 0 15 23 14 40 -1 8 -7 6 -3 -4 10 -11 12 -14 22 -8 22 7 0 12 10 12 23 -1 20 -2 20 -11 5 -5 -10 -19 -18 -31 -18 -18 0 -19 2 -7 17 11 13 11 17 2 20 -7 3 -13 11 -13 18 0 7 -6 15 -12 17 -10 4 -10 10 0 32 10 23 15 25 33 16 30 -17 46 -6 51 34 2 19 2 33 0 31 -3 -2 -14 7 -25 21 -13 17 -26 24 -38 21 -24 -6 -25 9 -1 22 15 9 15 10 -5 11 -12 0 -27 8 -32 19 -14 26 -49 33 -61 13 -8 -14 -9 -13 -10 9 0 24 -16 49 -32 49 -4 0 -8 -6 -8 -12 0 -33 -110 -75 -133 -51 -9 8 22 43 38 43 11 0 25 21 25 36 0 8 -15 2 -52 -19z m175 -168 c4 -53 3 -57 -23 -73 -57 -33 -88 -16 -88 48 0 21 3 35 7 30 11 -16 71 -11 71 6 0 13 1 13 10 0 7 -11 10 -7 10 19 0 51 7 34 13 -30z m122 31 c4 -6 -1 -7 -12 -3 -16 6 -16 5 -4 -10 8 -10 9 -17 3 -17 -15 0 -25 18 -17 30 8 13 22 13 30 0z m15 -73 c10 -4 8 -6 -7 -6 -16 -1 -23 5 -23 17 0 10 3 13 8 6 4 -6 14 -14 22 -17z m-302 -309 c15 -15 15 -28 1 -28 -5 0 -8 4 -4 9 3 6 -3 14 -12 20 -10 6 -13 11 -7 11 5 0 15 -5 22 -12z"/>
 <path d="M822 977 c-16 -19 -10 -39 24 -80 l31 -37 -5 30 c-2 17 -9 33 -15 37 -6 3 -7 1 -3 -5 4 -7 3 -12 -3 -12 -21 0 -26 58 -6 72 6 5 6 8 -1 8 -6 0 -16 -6 -22 -13z"/>
 <path d="M389 943 l-24 -28 28 24 c15 14 27 26 27 28 0 8 -8 1 -31 -24z"/>
 <path d="M889 895 c-2 -9 -1 -55 1 -67 1 -7 5 -2 9 12 4 14 4 30 -1 36 -4 6 -5 14 -1 17 3 4 3 7 0 7 -4 0 -7 -2 -8 -5z"/>
 <path d="M416 864 c-8 -20 -4 -25 11 -16 7 4 9 13 4 21 -6 10 -10 9 -15 -5z"/>
 <path d="M875 783 c4 -10 9 -35 12 -57 4 -26 8 -34 14 -24 10 17 -10 98 -23 98 -6 0 -7 -8 -3 -17z"/>
 <path d="M343 715 c0 -33 2 -45 4 -27 2 18 2 45 0 60 -2 15 -4 0 -4 -33z"/>
 <path d="M800 766 c0 -2 7 -6 15 -10 8 -3 15 -1 15 4 0 6 -7 10 -15 10 -8 0 -15 -2 -15 -4z"/>
 <path d="M941 743 c3 -20 -2 -27 -11 -13 -8 13 -10 12 -10 -2 0 -22 13 -23 29 -4 8 10 9 16 1 21 -6 4 -10 3 -9 -2z"/>
 <path d="M920 663 c0 -12 5 -25 10 -28 13 -8 13 15 0 35 -8 12 -10 11 -10 -7z"/>
 <path d="M890 644 c0 -8 5 -12 10 -9 6 3 10 10 10 16 0 5 -4 9 -10 9 -5 0 -10 -7 -10 -16z"/>
 <path d="M910 610 c0 -5 9 -10 20 -10 11 0 20 5 20 10 0 6 -9 10 -20 10 -11 0 -20 -4 -20 -10z"/>
 <path d="M880 595 c0 -8 2 -15 4 -15 2 0 6 7 10 15 3 8 1 15 -4 15 -6 0 -10 -7 -10 -15z"/>
 <path d="M900 572 c0 -5 7 -13 16 -16 10 -4 14 -1 12 6 -5 15 -28 23 -28 10z"/>
 <path d="M890 538 c-12 -8 -12 -9 2 -5 9 3 19 1 22 -6 3 -9 5 -9 5 0 1 18 -13 23 -29 11z"/>
 <path d="M875 490 c-3 -5 1 -10 10 -10 9 0 13 5 10 10 -3 6 -8 10 -10 10 -2 0 -7 -4 -10 -10z"/>
 <path d="M481 436 c7 -15 15 -23 17 -16 3 7 -3 19 -13 28 -15 16 -16 15 -4 -12z"/>
 <path d="M806 444 c-5 -14 -4 -15 9 -4 17 14 19 20 6 20 -5 0 -12 -7 -15 -16z"/>
 <path d="M839 440 c-13 -10 -18 -19 -11 -20 6 0 12 4 12 8 0 5 10 14 23 20 12 6 17 11 11 11 -7 1 -22 -8 -35 -19z"/>
 <path d="M885 440 c-3 -5 1 -10 9 -10 9 0 16 5 16 10 0 6 -4 10 -9 10 -6 0 -13 -4 -16 -10z"/>
 <path d="M770 430 c0 -5 -8 -7 -17 -3 -15 5 -14 3 2 -10 23 -17 37 -13 28 8 -6 17 -13 20 -13 5z"/>
 <path d="M530 421 c0 -6 5 -13 10 -16 6 -3 10 1 10 9 0 9 -4 16 -10 16 -5 0 -10 -4 -10 -9z"/>
 <path d="M585 410 c3 -5 11 -10 16 -10 6 0 7 5 4 10 -3 6 -11 10 -16 10 -6 0 -7 -4 -4 -10z"/>
 <path d="M680 410 c-18 -12 -2 -12 25 0 13 6 15 9 5 9 -8 0 -22 -4 -30 -9z"/>
 <path d="M658 354 c18 -25 32 -31 32 -14 0 6 -7 13 -15 16 -8 4 -13 9 -10 13 2 4 -2 8 -10 8 -10 0 -10 -5 3 -23z"/>
 </g>
<g id="layer106" fill="#e6dbd3" stroke="none">
 <path d="M602 2217 c34 -33 60 -36 86 -10 20 20 6 33 -26 23 -19 -5 -37 -3 -53 6 -40 22 -43 16 -7 -19z m58 -7 c0 -5 -4 -10 -10 -10 -5 0 -10 5 -10 10 0 6 5 10 10 10 6 0 10 -4 10 -10z"/>
 <path d="M320 2212 c0 -5 7 -13 16 -16 10 -4 14 -1 12 6 -5 15 -28 23 -28 10z"/>
 <path d="M381 2191 c-22 -6 -22 -7 12 -23 48 -23 67 -55 74 -122 8 -80 18 -69 17 19 -1 69 -3 78 -29 105 -30 31 -34 32 -74 21z"/>
 <path d="M693 2185 c-3 -10 0 -21 8 -26 11 -7 10 -9 -4 -9 -10 0 -15 -4 -12 -10 3 -5 2 -10 -4 -10 -5 0 -13 9 -16 21 -4 11 -9 18 -12 16 -2 -3 1 -16 8 -29 19 -33 21 -45 22 -118 2 -91 -4 -138 -25 -189 -31 -74 -58 -163 -52 -172 3 -5 -3 -9 -13 -9 -10 0 -33 -14 -51 -31 l-32 -30 7 43 c5 24 7 78 7 120 -1 61 -6 82 -22 103 -11 14 -23 21 -26 16 -4 -5 -11 -71 -17 -147 -11 -135 -6 -212 22 -344 9 -40 13 -45 38 -46 25 -1 30 4 36 30 4 17 7 43 5 59 -1 15 3 27 9 27 7 0 9 10 5 24 -7 29 4 55 16 36 4 -7 10 2 14 24 4 23 13 36 23 36 11 0 13 -5 8 -17 -7 -15 -8 -59 -4 -108 0 -5 -3 -32 -7 -59 -7 -46 -6 -48 13 -38 45 25 49 39 25 105 -27 77 -28 90 -3 82 20 -6 31 16 31 66 0 14 6 39 14 55 11 21 12 41 6 74 -4 25 -4 52 0 61 5 8 7 24 5 35 -2 10 -4 22 -4 27 -1 4 -9 7 -18 7 -14 0 -11 7 13 28 21 18 34 40 39 67 11 58 12 86 2 92 -4 2 -5 14 -2 24 4 11 1 26 -5 34 -6 8 -9 23 -5 35 4 13 1 22 -9 26 -9 3 -14 10 -11 14 3 5 1 11 -5 15 -6 3 -13 -1 -17 -10z m37 -95 c0 -5 -4 -10 -10 -10 -5 0 -10 5 -10 10 0 6 5 10 10 10 6 0 10 -4 10 -10z m-7 -50 c-3 -11 -9 -17 -14 -15 -10 7 -1 35 11 35 5 0 6 -9 3 -20z m-63 -417 c0 -17 -4 -34 -9 -37 -5 -3 -8 17 -8 44 1 54 17 47 17 -7z m-165 -143 c3 -5 2 -10 -4 -10 -5 0 -13 5 -16 10 -3 6 -2 10 4 10 5 0 13 -4 16 -10z"/>
 <path d="M622 2080 c0 -19 2 -27 5 -17 2 9 2 25 0 35 -3 9 -5 1 -5 -18z"/>
 <path d="M663 2000 c0 -25 2 -35 4 -22 2 12 2 32 0 45 -2 12 -4 2 -4 -23z"/>
 <path d="M481 1934 c-1 -56 23 -78 41 -38 10 22 10 28 0 32 -6 2 -12 10 -12 18 0 9 -4 13 -9 10 -5 -4 -12 0 -14 6 -3 7 -6 -6 -6 -28z"/>
 <path d="M427 1673 c-4 -3 -7 -11 -7 -17 0 -6 5 -5 12 2 6 6 9 14 7 17 -3 3 -9 2 -12 -2z"/>
 <path d="M800 1637 c0 -20 -4 -37 -10 -37 -5 0 -10 5 -10 10 0 6 -5 10 -11 10 -5 0 -7 -5 -3 -12 12 -19 33 -130 34 -175 0 -44 5 -49 30 -33 12 7 15 33 16 114 1 69 -2 104 -9 103 -6 -1 -13 7 -15 18 -8 38 -22 40 -22 2z m30 -107 c0 -5 -4 -10 -10 -10 -5 0 -10 5 -10 10 0 6 5 10 10 10 6 0 10 -4 10 -10z"/>
 <path d="M409 1603 c-16 -42 13 -337 31 -319 3 3 1 51 -4 108 -5 57 -9 133 -9 171 0 37 -2 67 -4 67 -2 0 -8 -12 -14 -27z"/>
 <path d="M753 1415 c0 -22 2 -30 4 -17 2 12 2 30 0 40 -3 9 -5 -1 -4 -23z"/>
 <path d="M572 1350 c0 -19 2 -27 5 -17 2 9 2 25 0 35 -3 9 -5 1 -5 -18z"/>
 <path d="M760 1351 c0 -6 5 -13 10 -16 6 -3 10 1 10 9 0 9 -4 16 -10 16 -5 0 -10 -4 -10 -9z"/>
 <path d="M810 1318 c-7 -16 -17 -28 -21 -28 -4 0 -8 -8 -7 -17 0 -22 -10 -64 -17 -71 -3 -3 -5 2 -5 11 0 9 -6 14 -13 11 -7 -2 -21 9 -30 26 -15 25 -83 67 -93 57 -2 -1 2 -31 9 -66 9 -46 20 -73 40 -94 21 -23 31 -27 37 -18 5 9 10 10 14 2 4 -6 13 -11 19 -11 7 0 6 4 -3 10 -9 6 -11 10 -3 10 7 0 10 7 7 15 -4 8 -10 15 -16 15 -5 0 -6 -5 -2 -12 4 -6 3 -8 -3 -5 -14 9 -9 50 7 55 8 3 11 -1 7 -10 -3 -9 0 -21 6 -27 14 -14 40 -15 32 -1 -3 6 -1 10 6 10 7 0 10 3 6 6 -3 4 0 13 8 21 8 8 15 24 15 35 0 12 7 30 17 40 12 14 14 23 6 40 l-11 23 -12 -27z m-105 -168 c3 -5 -1 -10 -9 -10 -9 0 -16 5 -16 10 0 6 4 10 9 10 6 0 13 -4 16 -10z"/>
 <path d="M904 1332 c3 -5 0 -12 -6 -15 -7 -2 -10 -7 -7 -11 3 -4 12 0 18 8 9 11 9 16 0 22 -7 4 -9 3 -5 -4z"/>
 <path d="M475 1280 c-27 -30 -6 -94 35 -109 24 -8 30 -7 30 3 0 8 9 16 19 19 18 4 18 8 6 43 -17 51 -63 73 -90 44z m55 -66 c0 -8 -5 -12 -10 -9 -6 4 -8 11 -5 16 9 14 15 11 15 -7z"/>
 <path d="M401 1237 c-8 -10 -7 -14 2 -14 8 0 14 6 14 14 0 7 -1 13 -2 13 -2 0 -8 -6 -14 -13z"/>
 <path d="M441 1215 c0 -26 16 -82 18 -63 1 4 13 3 27 -2 20 -8 25 -7 21 2 -2 7 -10 12 -16 10 -7 -1 -21 17 -31 40 -19 41 -20 42 -19 13z"/>
 <path d="M909 1205 c0 -5 -2 -17 -4 -26 -1 -9 4 -16 11 -16 8 0 14 5 14 11 0 15 -19 44 -21 31z"/>
 <path d="M405 1190 c4 -6 11 -8 16 -5 14 9 11 15 -7 15 -8 0 -12 -5 -9 -10z"/>
 <path d="M885 1140 c4 -6 11 -8 16 -5 14 9 11 15 -7 15 -8 0 -12 -5 -9 -10z"/>
 <path d="M651 1089 c1 -28 3 -30 7 -9 4 23 5 23 12 6 6 -19 7 -19 13 3 3 13 3 20 0 17 -4 -3 -12 -1 -20 5 -10 9 -13 5 -12 -22z"/>
 <path d="M870 1104 c0 -8 5 -12 10 -9 6 4 8 11 5 16 -9 14 -15 11 -15 -7z"/>
 <path d="M797 1074 c-13 -17 -14 -24 -5 -30 7 -4 10 -3 5 1 -4 5 0 17 10 27 14 16 18 16 33 3 14 -13 16 -12 17 4 2 27 -38 24 -60 -5z"/>
 <path d="M540 1019 c0 -5 -4 -8 -9 -5 -11 7 -90 -50 -98 -70 -10 -26 15 -94 32 -88 9 4 18 -3 24 -17 5 -13 10 -18 10 -10 1 8 4 11 7 8 12 -11 -17 -64 -41 -77 -13 -7 -34 -10 -46 -7 -24 6 -22 4 34 -37 21 -15 36 -31 32 -34 -3 -4 -9 -2 -13 4 -4 6 -22 19 -39 28 -34 17 -41 32 -52 119 -7 50 -7 49 -14 -43 -8 -98 2 -179 29 -231 17 -33 82 -91 95 -84 5 4 9 1 9 -6 0 -7 3 -9 7 -6 3 4 -9 26 -28 50 -33 40 -33 41 -5 19 16 -12 34 -22 41 -22 7 0 20 -10 29 -23 9 -12 14 -17 11 -10 -3 8 5 6 25 -3 39 -20 90 -15 104 11 6 11 14 22 18 25 4 3 3 12 -2 20 -14 22 -12 40 5 40 8 0 15 5 15 10 0 6 11 8 25 4 22 -5 25 -3 25 19 0 14 5 29 11 33 6 3 9 14 6 24 -2 9 0 25 5 34 9 16 2 19 -37 19 -5 0 -11 20 -12 44 -2 52 14 64 53 38 21 -13 29 -14 38 -4 7 8 7 10 0 6 -14 -8 -52 19 -41 29 4 4 12 3 18 -3 12 -12 39 -6 39 8 0 5 -10 9 -23 9 -26 0 -47 17 -47 38 0 10 7 13 21 9 17 -5 19 -3 10 6 -8 8 -16 9 -29 1 -14 -9 -22 -4 -46 30 -16 23 -31 35 -34 28 -2 -7 -8 -10 -13 -6 -5 3 -9 -4 -9 -15 0 -12 4 -21 9 -21 5 0 9 -26 8 -58 0 -58 -17 -86 -58 -93 -23 -4 -69 12 -63 23 3 5 6 24 6 41 0 28 3 32 27 31 15 0 32 -3 38 -7 6 -4 10 10 11 34 1 22 7 49 13 60 12 23 4 69 -12 69 -5 0 -12 -7 -15 -15 -4 -8 -12 -15 -19 -15 -7 0 -18 -7 -25 -15 -12 -15 -80 -21 -93 -9 -10 10 17 44 35 44 10 0 18 7 18 15 0 8 -4 15 -10 15 -5 0 -10 -5 -10 -11z m-20 -98 c0 -5 -7 -12 -16 -15 -14 -5 -15 -4 -4 9 14 17 20 19 20 6z m182 -176 c-9 -18 -142 -79 -142 -65 0 4 24 16 53 27 30 11 51 25 49 32 -1 7 2 10 7 7 5 -3 14 1 21 9 16 20 25 12 12 -10z"/>
 <path d="M825 981 c-3 -5 0 -13 6 -17 7 -4 9 -3 5 4 -3 5 0 13 6 15 9 4 10 6 1 6 -6 1 -14 -3 -18 -8z"/>
 <path d="M855 905 c3 -35 13 -42 13 -10 0 14 -4 28 -8 30 -5 3 -7 -6 -5 -20z"/>
 <path d="M388 908 c-3 -7 -1 -24 3 -38 6 -22 7 -20 8 13 1 38 -3 47 -11 25z"/>
 <path d="M889 895 c-2 -9 -1 -55 1 -67 1 -7 5 -2 9 12 4 14 4 30 -1 36 -4 6 -5 14 -1 17 3 4 3 7 0 7 -4 0 -7 -2 -8 -5z"/>
 <path d="M342 750 c0 -14 2 -19 5 -12 2 6 2 18 0 25 -3 6 -5 1 -5 -13z"/>
 <path d="M915 610 c-3 -5 3 -10 14 -10 12 0 21 5 21 10 0 6 -6 10 -14 10 -8 0 -18 -4 -21 -10z"/>
 <path d="M905 570 c-3 -5 1 -10 10 -10 9 0 13 5 10 10 -3 6 -8 10 -10 10 -2 0 -7 -4 -10 -10z"/>
 <path d="M481 440 c14 -31 19 -36 19 -24 0 6 -7 19 -16 30 -14 18 -14 18 -3 -6z"/>
 <path d="M540 450 c8 -5 24 -10 34 -10 26 0 18 6 -19 14 -22 5 -26 4 -15 -4z"/>
 <path d="M830 435 c-7 -9 -8 -15 -2 -15 5 0 12 7 16 15 3 8 4 15 2 15 -2 0 -9 -7 -16 -15z"/>
 <path d="M890 440 c-13 -8 -12 -10 3 -10 9 0 17 5 17 10 0 12 -1 12 -20 0z"/>
 <path d="M535 421 c-3 -5 -1 -12 5 -16 5 -3 10 1 10 9 0 18 -6 21 -15 7z"/>
 <path d="M673 345 c0 -8 4 -15 9 -15 4 0 8 4 8 9 0 6 -4 12 -8 15 -5 3 -9 -1 -9 -9z"/>
 </g>

</svg>