<!DOCTYPE svg PUBLIC "-//W3C//DTD SVG 20010904//EN" "http://www.w3.org/TR/2001/REC-SVG-20010904/DTD/svg10.dtd">
<svg version="1.0" xmlns="http://www.w3.org/2000/svg" width="125px" height="250px" viewBox="0 0 1250 2500" preserveAspectRatio="xMidYMid meet">
<g id="layer101" fill="#262728" stroke="none">
 <path d="M400 2403 c0 -6 -24 -8 -55 -5 -34 3 -60 0 -69 -7 -8 -7 -28 -13 -45 -13 -17 -1 -31 -4 -31 -8 0 -4 -16 -11 -35 -14 -26 -5 -35 -12 -35 -26 0 -11 5 -20 11 -20 13 0 1 -42 -15 -52 -6 -4 14 -8 45 -8 44 0 58 4 63 17 5 12 10 13 18 5 8 -8 1 -22 -27 -54 -21 -24 -42 -44 -47 -46 -22 -9 11 -103 66 -190 23 -37 24 -42 9 -43 -14 0 -13 -3 5 -11 13 -7 21 -17 18 -25 -3 -8 2 -25 11 -39 14 -22 14 -27 2 -34 -11 -7 -11 -10 3 -15 9 -4 14 -13 11 -21 -3 -10 2 -14 20 -14 18 0 28 -8 38 -31 12 -31 11 -33 -21 -62 l-35 -31 -9 32 c-11 41 -24 42 -18 1 4 -24 1 -30 -9 -27 -11 3 -15 31 -17 109 -4 147 -22 153 -22 7 0 -116 0 -116 -25 -122 -15 -4 -30 -17 -35 -31 -5 -14 -20 -30 -33 -36 -26 -12 -52 -57 -62 -106 -10 -49 9 -40 23 11 11 41 17 51 56 84 27 22 56 13 103 -32 l47 -44 -32 -16 c-38 -20 -42 -43 -8 -52 22 -5 23 -8 13 -39 -10 -33 -1 -102 19 -150 8 -19 7 -19 -16 -4 -54 36 -85 205 -48 261 24 37 6 44 -31 12 -36 -30 -40 -24 -10 18 25 35 20 47 -7 17 -10 -12 -19 -35 -19 -53 -1 -17 -6 -30 -12 -29 -13 3 -22 -82 -18 -159 4 -60 36 -149 67 -184 18 -20 25 -64 10 -64 -5 0 -17 7 -28 15 -24 18 -38 19 -28 3 6 -10 3 -9 -9 0 -9 8 -24 33 -33 58 -16 41 -34 59 -34 32 0 -19 48 -114 66 -128 9 -8 20 -25 25 -38 9 -23 14 -24 57 -19 64 8 133 39 211 95 36 26 79 52 96 58 16 6 34 20 40 32 5 12 17 25 27 27 9 3 28 22 43 41 20 26 32 33 46 29 20 -7 27 9 9 20 -10 6 6 43 23 56 5 3 8 10 7 15 -1 5 9 12 22 15 l23 5 -22 8 c-27 9 -29 19 -8 36 8 7 15 24 15 38 0 13 8 31 18 38 16 12 15 13 -8 14 -20 0 -22 2 -10 10 8 5 10 10 3 10 -6 0 -9 9 -6 20 4 16 9 18 25 9 22 -12 40 -3 20 10 -18 11 -4 41 15 34 11 -4 14 -2 11 8 -2 7 10 33 28 56 18 23 41 66 52 95 11 29 27 67 36 83 9 17 16 51 16 76 0 28 6 51 14 59 8 6 22 33 30 58 13 40 14 53 2 92 -12 41 -17 46 -52 54 -69 15 -69 15 -48 31 16 12 17 14 3 15 -18 0 -42 -23 -33 -32 2 -3 -2 -8 -10 -11 -21 -8 -28 41 -7 52 9 5 22 6 30 3 8 -3 11 0 7 7 -5 7 3 11 23 11 21 0 31 5 31 15 0 9 9 15 24 15 14 0 28 5 32 11 5 8 -1 10 -20 7 -14 -3 -26 -1 -26 3 0 5 -4 9 -9 9 -14 0 -91 52 -91 61 0 5 -6 6 -13 3 -7 -2 -38 2 -68 10 -31 8 -61 10 -70 5 -9 -4 -26 -5 -38 -2 -14 3 -26 1 -31 -7 -9 -15 -81 -15 -110 0 -16 9 -22 8 -26 -5 -8 -19 -34 -20 -34 0 0 8 -6 15 -12 15 -7 0 -23 3 -35 6 -13 4 -23 2 -23 -3z m15 -33 c8 -13 -5 -13 -25 0 -13 8 -13 10 2 10 9 0 20 -4 23 -10z m-238 -39 c0 -11 -6 -17 -14 -14 -14 6 -17 16 -6 26 12 13 22 7 20 -12z m250 -231 c20 -75 20 -80 3 -80 -35 0 -46 33 -42 123 1 20 6 37 10 37 4 0 17 -36 29 -80z m-193 -857 c33 -65 33 -78 4 -62 -29 15 -39 30 -33 48 3 7 1 19 -3 25 -26 33 -41 98 -35 143 6 41 8 44 14 23 7 -24 7 -24 9 5 2 17 6 -6 10 -50 5 -56 15 -96 34 -132z m16 -134 c0 -14 -17 -10 -23 5 -4 10 -1 13 9 9 7 -3 14 -9 14 -14z"/>
 <path d="M55 2260 c-3 -5 3 -10 14 -10 12 0 24 0 28 -1 4 0 9 4 11 10 5 14 -45 15 -53 1z"/>
 </g>
<g id="layer102" fill="#6b3938" stroke="none">
 <path d="M400 2403 c0 -6 -24 -8 -55 -5 -34 3 -60 0 -69 -7 -8 -7 -28 -13 -45 -13 -17 -1 -31 -4 -31 -8 0 -4 -16 -11 -35 -14 -26 -5 -35 -12 -35 -26 0 -11 4 -20 9 -20 5 0 12 -7 15 -16 3 -8 2 -12 -4 -9 -6 3 -10 0 -10 -9 0 -8 -6 -17 -12 -19 -7 -3 12 -6 43 -6 44 -1 58 3 63 16 5 12 10 13 18 5 8 -8 8 -15 0 -25 -7 -8 -10 -16 -7 -19 3 -3 -5 -13 -17 -24 l-23 -19 20 25 20 25 -23 -19 c-12 -11 -21 -26 -20 -35 2 -10 -3 -15 -14 -13 -13 2 -18 -4 -18 -23 0 -14 3 -24 8 -22 4 3 8 -6 8 -19 1 -14 20 -56 42 -94 33 -57 37 -70 24 -71 -13 0 -11 -3 6 -11 13 -7 21 -17 17 -26 -6 -16 18 -55 28 -45 4 3 7 4 7 0 0 -3 -7 -13 -16 -21 -14 -14 -14 -17 0 -22 8 -3 12 -12 9 -20 -4 -10 3 -14 22 -14 28 0 28 0 9 23 -12 14 -8 13 12 -5 47 -43 67 -37 39 12 -18 32 -19 44 -1 37 23 -9 37 37 20 62 -9 12 -19 19 -24 16 -5 -3 -8 3 -7 14 0 11 4 18 8 15 14 -8 17 25 3 36 -11 10 -14 10 -14 1 0 -7 -4 -10 -8 -7 -5 3 -9 26 -11 53 -1 26 -6 52 -10 58 -5 5 -5 20 0 33 11 30 17 28 12 -5 -3 -24 -2 -25 7 -8 7 15 8 11 3 -19 -4 -28 -3 -37 6 -32 6 4 11 0 11 -9 0 -9 9 -24 21 -34 15 -12 21 -29 22 -63 1 -25 5 -41 9 -35 4 6 10 8 14 4 4 -3 2 -13 -5 -20 -16 -21 -26 -103 -12 -111 6 -4 11 -15 11 -25 0 -10 7 -24 15 -31 8 -7 15 -29 15 -49 0 -20 7 -47 16 -59 19 -27 10 -28 -23 -2 -14 11 -32 20 -40 20 -9 0 -13 6 -10 14 3 8 -1 20 -10 27 -13 11 -18 10 -35 -10 -15 -19 -16 -26 -6 -33 10 -7 10 -9 -2 -5 -21 5 -20 28 3 54 17 20 18 26 7 53 -7 17 -15 29 -17 27 -2 -3 2 -17 9 -32 11 -25 10 -29 -20 -56 -18 -16 -27 -29 -22 -29 6 0 8 -5 5 -10 -3 -6 6 -15 21 -20 30 -12 51 5 33 26 -7 8 -7 14 0 19 6 3 13 -5 17 -19 3 -13 15 -27 27 -30 28 -7 87 -63 87 -82 0 -23 -15 -16 -41 17 -13 17 -36 40 -51 51 -26 18 -28 18 -28 2 0 -9 31 -48 70 -87 49 -48 74 -82 82 -111 18 -56 16 -204 -2 -236 -8 -14 -13 -28 -12 -32 1 -5 -3 -8 -10 -8 -6 0 -36 -19 -66 -41 -30 -23 -73 -52 -96 -65 -22 -13 -36 -24 -29 -24 6 0 46 24 88 53 93 63 93 63 130 79 17 7 30 20 30 28 0 8 14 22 30 30 17 9 29 22 29 32 -1 10 2 16 6 13 4 -3 13 2 20 10 7 9 21 13 31 10 20 -7 26 9 9 20 -7 4 -7 11 -2 18 5 7 9 26 9 42 0 44 12 85 25 85 9 0 9 -3 0 -12 -7 -7 -12 -22 -12 -34 0 -18 4 -20 27 -16 27 5 27 5 5 15 -26 12 -27 20 -7 37 8 7 15 24 15 38 0 13 8 31 18 38 16 12 15 13 -8 14 -20 0 -22 2 -10 10 8 5 10 10 3 10 -6 0 -9 9 -6 20 4 16 9 18 25 9 22 -12 40 -3 20 10 -18 11 -4 41 15 34 11 -4 14 -2 11 8 -3 8 -11 13 -18 11 -11 -3 -11 0 -1 12 7 9 17 14 21 11 11 -7 33 22 26 34 -4 5 -1 13 5 17 8 5 10 2 5 -7 -4 -8 0 -5 8 6 9 11 14 25 11 33 -2 7 -1 11 4 8 12 -8 22 20 14 41 -5 11 -3 14 6 8 10 -6 11 -2 6 15 -4 14 -3 20 3 16 16 -10 41 56 43 116 1 34 7 56 13 55 6 -1 10 6 10 15 -1 10 3 15 9 11 6 -4 8 2 5 15 -4 12 -3 20 2 17 15 -9 19 41 6 85 -13 45 -30 58 -79 59 -19 1 -26 -3 -21 -11 4 -7 3 -8 -4 -4 -16 9 -16 -26 -1 -41 9 -9 8 -11 -2 -10 -22 4 -39 17 -39 30 0 7 4 6 10 -3 8 -13 10 -12 10 3 0 9 -6 17 -12 18 -7 0 -5 4 5 8 10 4 19 11 19 16 1 6 8 15 17 22 15 11 15 12 0 13 -9 0 -22 -7 -29 -15 -7 -8 -9 -15 -4 -15 5 0 2 -5 -6 -10 -8 -5 -15 -13 -15 -17 0 -4 -6 -17 -12 -28 -11 -18 -12 -17 -10 12 1 17 6 29 11 26 5 -3 7 6 4 21 -6 29 15 48 41 38 8 -3 11 0 7 7 -5 7 3 11 23 11 21 0 31 5 31 15 0 9 9 15 24 15 14 0 28 5 32 11 5 8 -1 10 -20 7 -14 -3 -26 -1 -26 3 0 5 -4 9 -9 9 -14 0 -91 52 -91 61 0 5 -6 6 -13 3 -7 -2 -38 2 -68 10 -31 8 -61 10 -70 5 -9 -4 -26 -5 -38 -2 -14 3 -26 1 -31 -7 -9 -15 -81 -15 -110 0 -16 9 -22 8 -26 -5 -8 -19 -34 -20 -34 0 0 8 -6 15 -12 15 -7 0 -23 3 -35 6 -13 4 -23 2 -23 -3z m-98 -42 c-2 -10 6 -12 27 -9 17 2 28 2 26 -2 -2 -3 9 -6 23 -5 16 0 26 -5 24 -13 -1 -7 17 -17 43 -24 28 -8 40 -15 32 -20 -8 -5 -7 -8 6 -8 15 0 16 -3 7 -20 -9 -17 -8 -20 10 -20 12 0 20 5 18 12 -2 6 7 22 21 36 20 20 37 26 78 28 52 2 53 2 30 -16 -13 -12 -26 -15 -32 -9 -5 5 -17 9 -26 9 -20 0 -33 -41 -16 -52 9 -6 9 -8 0 -8 -7 0 -16 8 -22 17 -11 20 -26 11 -18 -11 3 -8 19 -17 36 -21 17 -4 31 -11 31 -16 0 -5 11 -7 24 -3 16 4 31 -2 50 -18 l28 -23 -22 -20 c-22 -20 -22 -20 -42 8 -16 22 -23 25 -34 16 -11 -9 -14 -8 -14 5 0 9 -3 16 -7 17 -5 0 -25 2 -46 5 -33 4 -42 0 -68 -28 -25 -28 -29 -39 -25 -68 4 -24 3 -30 -4 -20 -12 19 -12 13 -1 -28 8 -28 7 -32 -8 -32 -33 0 -45 28 -43 97 1 60 0 64 -16 52 -14 -11 -13 -9 2 8 10 13 28 25 40 29 38 12 45 22 32 49 -10 22 -25 30 -48 26 -5 0 -8 6 -8 14 0 20 -14 19 -31 -1 -12 -14 -14 -14 -25 0 -25 35 -53 -4 -45 -63 2 -7 -3 -10 -9 -6 -6 3 -9 18 -8 33 2 19 -2 27 -17 30 -29 6 -65 32 -65 47 0 14 75 45 100 41 8 -1 14 -8 12 -15z m113 9 c8 -13 -5 -13 -25 0 -13 8 -13 10 2 10 9 0 20 -4 23 -10z m270 -20 c-3 -5 -11 -10 -16 -10 -6 0 -7 5 -4 10 3 6 11 10 16 10 6 0 7 -4 4 -10z m50 0 c4 -7 13 -7 24 0 26 13 85 -7 117 -42 15 -15 23 -28 16 -28 -6 0 -15 6 -19 13 -5 8 -20 10 -43 6 l-35 -6 33 -2 c21 -1 32 -6 32 -16 0 -8 -7 -15 -15 -15 -8 0 -14 -3 -14 -7 5 -32 -6 -31 -46 6 -24 22 -51 41 -60 41 -18 0 -20 -26 -2 -33 7 -4 8 -6 1 -6 -7 -1 -19 10 -28 24 -10 15 -12 25 -6 25 6 0 8 5 5 10 -3 6 3 10 15 10 12 0 18 5 15 10 -4 6 -11 8 -16 5 -5 -4 -9 -1 -9 4 0 14 27 14 35 1z m-558 -19 c0 -11 -6 -17 -14 -14 -14 6 -17 16 -6 26 12 13 22 7 20 -12z m389 -196 c9 -8 11 -15 6 -15 -5 0 -15 7 -22 15 -7 8 -9 15 -6 15 4 0 14 -7 22 -15z m73 -4 c12 -8 8 -16 -18 -46 -17 -20 -34 -50 -38 -66 -3 -16 -9 -29 -14 -29 -5 0 -2 17 6 37 12 29 13 38 3 44 -9 6 -8 10 5 15 9 3 14 10 11 15 -3 5 0 9 5 9 6 0 11 7 11 15 0 17 9 19 29 6z m179 -36 c-6 -14 -13 -23 -15 -21 -5 5 15 46 22 46 3 0 -1 -11 -7 -25z m-282 -27 c4 -6 3 -8 -4 -4 -6 3 -13 2 -17 -4 -3 -5 -1 -10 4 -10 6 0 11 -8 11 -17 0 -15 -2 -14 -16 3 -8 10 -13 13 -9 7 3 -7 -1 -23 -9 -35 -18 -26 -21 -71 -6 -99 7 -13 7 -19 0 -19 -5 0 -10 5 -10 11 0 5 -4 7 -10 4 -6 -3 -7 1 -4 9 4 9 1 16 -6 16 -7 0 -10 7 -6 17 4 9 2 19 -4 23 -7 5 -8 15 -1 33 6 15 8 34 4 44 -4 11 -3 14 5 9 7 -4 12 -17 13 -29 0 -15 2 -17 6 -7 5 14 43 60 49 60 2 0 6 -5 10 -12z m319 -8 c16 -17 16 -20 3 -15 -9 4 -19 13 -22 21 -7 19 -2 18 19 -6z m94 -94 c-1 -20 -1 -20 -6 -1 -3 11 -15 31 -26 45 l-22 25 28 -24 c15 -14 26 -34 26 -45z m-143 -55 c45 -48 44 -57 -2 -15 -20 19 -39 32 -43 30 -4 -3 -5 12 -2 32 4 29 6 32 9 13 2 -13 19 -40 38 -60z m-286 -38 c-11 -17 -11 -17 -6 0 3 10 6 24 7 30 0 9 2 9 5 0 3 -7 0 -20 -6 -30z m412 -35 c-7 -7 -12 -8 -12 -2 0 14 12 26 19 19 2 -3 -1 -11 -7 -17z m-406 -15 c-2 -9 -10 -17 -19 -19 -21 -3 -21 0 -1 20 20 20 23 20 20 -1z m64 -17 c0 -8 -13 -23 -30 -33 -32 -19 -37 -29 -18 -35 7 -3 2 -7 -11 -11 -17 -4 -21 -2 -17 9 3 9 -1 14 -14 14 -11 0 -20 4 -20 9 0 15 29 33 41 25 7 -4 9 -3 5 4 -7 12 20 31 47 32 9 0 17 -6 17 -14z m30 -31 c-5 -14 -19 -39 -31 -55 -18 -24 -20 -32 -9 -45 7 -8 8 -15 2 -15 -11 0 -22 23 -22 49 0 9 9 27 20 39 11 12 20 25 20 31 0 8 7 13 27 20 1 1 -2 -10 -7 -24z m64 -68 c11 -23 27 -51 35 -61 15 -18 15 -18 -7 -7 -13 7 -36 13 -52 13 -17 1 -37 9 -46 20 -16 17 -16 18 9 18 14 0 29 -4 32 -10 3 -5 11 -10 16 -10 6 0 7 5 4 10 -12 19 -24 70 -17 70 4 0 16 -19 26 -43z m-41 -4 c-7 -2 -19 -2 -25 0 -7 3 -2 5 12 5 14 0 19 -2 13 -5z m-81 -76 c8 -18 15 -59 16 -92 l2 -60 -30 95 c-16 52 -30 96 -30 97 0 1 6 0 13 -3 8 -3 20 -19 29 -37z m161 -14 c-7 -2 -19 -2 -25 0 -7 3 -2 5 12 5 14 0 19 -2 13 -5z m-15 -46 c6 -5 16 -6 21 -2 5 3 12 1 16 -5 3 -5 1 -10 -5 -10 -6 0 -10 -6 -9 -12 1 -7 1 -22 0 -32 -1 -18 -2 -18 -20 -2 -11 10 -27 19 -37 20 -10 2 -25 13 -33 26 l-16 24 28 -18 c29 -20 38 -11 10 9 -14 11 -13 12 8 11 13 -1 30 -5 37 -9z m-75 -60 c3 -8 1 -20 -4 -28 -6 -10 -9 -7 -9 14 0 29 5 35 13 14z m114 -64 c-3 -10 -5 -4 -5 12 0 17 2 24 5 18 2 -7 2 -21 0 -30z m-127 -153 c-6 -21 -16 -42 -22 -46 -8 -5 -9 0 -5 17 4 13 10 49 14 79 6 53 7 54 15 22 5 -20 5 -48 -2 -72z"/>
 <path d="M209 2340 c-7 -5 -10 -13 -5 -17 5 -4 11 -3 13 4 2 7 11 9 19 6 8 -3 14 -3 14 0 0 10 -27 15 -41 7z"/>
 <path d="M274 2319 c12 -8 25 -8 40 -1 18 9 16 11 -19 11 -33 0 -37 -1 -21 -10z"/>
 <path d="M430 2185 c6 -8 9 -20 5 -27 -4 -7 2 -2 13 12 12 14 18 27 16 30 -3 2 -9 -2 -14 -10 -7 -10 -10 -11 -10 -2 0 6 -5 12 -11 12 -8 0 -8 -4 1 -15z"/>
 <path d="M396 2182 c5 -4 15 -23 22 -42 l11 -35 -6 35 c-7 42 -11 50 -26 50 -8 0 -9 -3 -1 -8z"/>
 <path d="M805 2320 c3 -5 16 -10 28 -9 21 0 21 1 2 9 -28 12 -37 12 -30 0z"/>
 <path d="M704 1539 c-3 -6 -1 -16 4 -21 8 -8 11 -5 9 11 -1 24 -3 25 -13 10z"/>
 <path d="M55 2260 c-3 -5 3 -10 14 -10 12 0 24 0 28 -1 4 0 9 4 11 10 5 14 -45 15 -53 1z"/>
 <path d="M230 1785 c0 -68 4 -104 10 -100 6 3 10 48 10 100 0 52 -4 97 -10 100 -6 4 -10 -32 -10 -100z"/>
 <path d="M413 1755 c-6 -19 -10 -35 -8 -35 2 0 11 -3 20 -7 15 -5 16 -3 7 14 -6 11 -8 29 -5 41 9 36 -3 25 -14 -13z"/>
 <path d="M278 1688 c4 -26 2 -30 -12 -25 -9 4 -16 2 -16 -3 0 -12 20 -13 38 -1 9 5 11 17 6 34 -9 38 -22 34 -16 -5z"/>
 <path d="M188 1649 c-10 -5 -18 -17 -18 -25 0 -8 -13 -22 -29 -31 -31 -19 -56 -60 -66 -110 -10 -49 9 -40 23 11 6 25 19 51 27 58 9 7 22 19 30 26 25 22 55 13 102 -32 l47 -44 -32 -16 c-38 -20 -42 -43 -8 -52 22 -5 23 -8 13 -39 -10 -33 -1 -102 19 -150 8 -19 7 -19 -16 -4 -54 36 -85 205 -48 261 24 37 6 44 -31 12 -36 -30 -40 -24 -10 18 25 35 20 47 -7 17 -10 -12 -19 -35 -19 -53 -1 -17 -6 -30 -12 -29 -13 3 -22 -82 -18 -159 4 -60 36 -149 67 -184 10 -11 18 -31 18 -43 l0 -23 34 26 c34 25 57 29 84 13 21 -14 14 -25 -23 -37 -42 -14 -96 -8 -130 14 -29 19 -39 20 -29 4 6 -10 3 -9 -9 0 -9 8 -24 33 -33 58 -16 41 -34 59 -34 32 0 -19 48 -114 66 -128 9 -8 20 -24 24 -36 7 -17 17 -22 45 -22 l37 0 -27 14 c-31 16 -48 19 -25 4 13 -8 12 -10 -2 -10 -22 0 -24 26 -2 34 9 3 28 6 42 6 26 -1 26 -1 8 -15 -31 -24 -8 -17 61 16 35 17 63 36 63 44 0 7 7 18 15 25 8 7 15 17 15 22 0 7 -5 6 -13 -1 -8 -6 -17 -8 -21 -4 -4 4 -4 -1 0 -12 5 -13 -3 -9 -24 14 -32 33 -42 61 -21 61 5 0 7 5 4 10 -4 6 1 31 11 55 9 25 14 48 11 51 -3 3 -11 -13 -18 -35 -7 -23 -14 -39 -17 -36 -3 2 3 25 13 51 l17 46 20 -29 20 -28 -6 34 c-3 18 -6 49 -6 68 0 20 -4 32 -10 28 -5 -3 -10 -1 -10 4 0 6 4 11 9 11 5 0 14 14 20 31 7 21 14 28 23 23 16 -11 42 -15 33 -6 -4 4 -10 7 -13 7 -4 0 -12 4 -19 8 -18 11 -43 -3 -44 -27 -1 -17 -2 -18 -6 -3 -3 10 1 25 8 33 6 8 9 18 5 21 -4 4 -11 1 -16 -7 -6 -8 -10 -10 -10 -5 0 6 -5 3 -10 -5 -5 -8 -15 -15 -22 -16 -37 -3 -40 -7 -8 -14 l35 -7 -37 -2 c-20 0 -39 3 -42 8 -8 13 39 42 51 30 5 -5 9 -2 10 9 1 9 6 34 11 55 6 21 6 37 1 37 -5 0 -9 -13 -9 -29 0 -17 -4 -33 -10 -36 -9 -5 -12 2 -9 21 2 11 -56 66 -86 80 l-30 15 30 -27 30 -26 -32 18 c-40 22 -42 39 -5 52 15 6 20 11 12 11 -8 0 -23 -4 -32 -10z m87 -89 c10 -11 14 -20 8 -20 -5 0 -18 9 -28 20 -10 11 -14 20 -8 20 5 0 18 -9 28 -20z m-41 -317 c33 -65 33 -78 4 -62 -29 15 -39 30 -33 48 3 7 1 19 -3 25 -26 33 -41 98 -35 143 6 41 8 44 14 23 7 -24 7 -24 9 5 2 17 6 -6 10 -50 5 -56 15 -96 34 -132z m20 -138 c3 -9 0 -12 -9 -9 -7 3 -16 12 -19 19 -3 9 0 12 9 9 7 -3 16 -12 19 -19z"/>
 <path d="M258 1628 c5 -5 16 -8 23 -6 8 3 3 7 -10 11 -17 4 -21 3 -13 -5z"/>
 <path d="M425 1434 c6 -2 10 -30 9 -62 -1 -31 0 -42 3 -24 3 21 10 32 20 32 14 0 13 3 -3 22 -19 21 -19 21 0 14 16 -5 17 -4 6 9 -7 8 -20 15 -29 14 -9 0 -11 -3 -6 -5z"/>
 <path d="M480 1403 c0 -24 2 -43 4 -43 8 0 12 60 4 72 -4 8 -8 -4 -8 -29z"/>
 <path d="M431 1270 c0 -25 -4 -56 -7 -70 -5 -24 -4 -24 25 8 17 18 31 38 31 45 -1 6 -8 -1 -18 -18 l-17 -30 -6 55 -6 55 -2 -45z"/>
 <path d="M275 1000 c-13 -6 -15 -9 -5 -9 8 0 22 4 30 9 18 12 2 12 -25 0z"/>
 </g>
<g id="layer103" fill="#625b5c" stroke="none">
 <path d="M400 2403 c0 -6 -24 -8 -55 -5 -34 3 -60 0 -69 -7 -8 -7 -28 -13 -45 -13 -17 -1 -31 -4 -31 -8 0 -4 -16 -11 -35 -14 -26 -5 -35 -12 -35 -26 0 -11 4 -20 9 -20 5 0 12 -7 15 -16 3 -8 2 -12 -4 -9 -6 3 -10 0 -10 -9 0 -8 -6 -17 -12 -19 -7 -3 12 -6 43 -6 44 -1 58 3 63 16 5 12 10 13 18 5 8 -8 8 -15 0 -25 -7 -8 -10 -16 -7 -19 3 -3 -5 -13 -17 -24 l-23 -19 20 25 20 25 -23 -19 c-12 -11 -21 -26 -20 -35 2 -10 -3 -15 -14 -13 -13 2 -18 -4 -18 -23 0 -14 3 -24 8 -22 4 3 8 -6 8 -19 1 -14 20 -56 42 -94 33 -57 37 -70 24 -71 -13 0 -11 -3 6 -11 13 -7 21 -17 17 -26 -6 -16 18 -55 28 -45 4 3 7 4 7 0 0 -3 -7 -13 -16 -21 -14 -14 -14 -17 0 -22 8 -3 12 -12 9 -20 -4 -10 3 -14 22 -14 26 0 27 1 13 18 -8 9 -18 24 -23 32 -4 8 7 -2 24 -22 18 -21 39 -38 47 -38 17 0 17 8 -1 40 -18 32 -19 44 -1 37 23 -9 37 37 20 62 -9 12 -19 19 -24 16 -5 -3 -8 3 -7 14 0 11 4 18 8 15 14 -8 17 25 3 36 -11 10 -14 9 -14 -6 0 -39 -16 7 -19 53 -1 26 -7 53 -12 60 -7 8 -7 18 1 32 14 28 18 26 13 -6 -3 -24 -2 -25 7 -8 7 15 8 11 3 -19 -4 -28 -3 -37 6 -32 6 4 11 0 11 -9 0 -9 9 -24 21 -34 15 -12 21 -29 22 -63 1 -25 5 -41 9 -35 4 6 10 8 14 4 4 -3 2 -12 -4 -20 -6 -7 -14 -31 -18 -53 -4 -31 -1 -48 15 -74 31 -52 42 -82 37 -97 -4 -9 -1 -11 5 -7 7 4 10 1 7 -7 -3 -8 1 -26 9 -41 17 -34 11 -35 -31 -3 -18 14 -39 25 -46 25 -6 0 -10 6 -7 14 3 8 -1 20 -10 27 -13 11 -18 10 -35 -10 -15 -19 -16 -26 -6 -33 10 -7 10 -9 -2 -5 -21 5 -20 28 3 54 17 20 18 26 7 53 -7 17 -15 29 -17 27 -2 -3 2 -17 9 -32 11 -25 10 -29 -20 -56 -18 -16 -27 -29 -22 -29 6 0 8 -5 5 -10 -3 -6 6 -15 21 -20 30 -12 51 5 33 26 -7 8 -7 14 0 19 6 3 13 -6 17 -20 3 -14 12 -25 18 -25 17 0 79 -47 91 -70 5 -10 13 -19 18 -19 8 -1 8 -5 1 -26 -5 -11 -17 -2 -47 35 -22 28 -51 57 -64 65 -21 14 -23 14 -23 -2 0 -10 31 -48 70 -84 61 -58 71 -73 85 -125 20 -76 19 -165 -2 -212 -9 -20 -15 -40 -15 -44 1 -5 -3 -8 -10 -8 -6 0 -36 -19 -66 -41 -30 -23 -73 -52 -96 -65 -22 -13 -36 -24 -29 -24 6 0 46 24 88 53 93 63 93 63 129 79 16 7 32 19 34 27 3 8 0 11 -7 7 -6 -4 -11 -4 -11 -1 0 3 13 11 29 16 17 6 42 26 56 45 20 26 32 33 46 29 20 -7 27 9 9 20 -10 6 6 43 23 56 5 3 8 10 7 15 -1 5 9 12 22 15 l23 5 -22 8 c-27 9 -29 19 -8 36 8 7 15 24 15 38 0 13 8 31 18 38 16 12 15 13 -8 14 -20 0 -22 2 -10 10 8 5 10 10 3 10 -6 0 -9 9 -6 20 4 16 9 18 25 9 22 -12 40 -3 20 10 -18 11 -4 41 15 34 11 -4 14 -2 11 8 -3 8 -11 13 -18 11 -11 -3 -11 0 -1 12 7 9 17 14 21 11 11 -7 33 22 26 34 -4 5 -1 13 5 17 8 5 10 2 5 -7 -4 -8 0 -5 8 6 9 11 14 25 11 33 -2 7 -1 11 4 8 12 -8 22 20 14 41 -5 11 -3 14 6 8 10 -6 11 -2 6 15 -4 14 -3 20 3 16 16 -9 42 57 42 107 0 28 6 49 15 57 9 7 14 19 11 27 -4 9 -1 11 6 7 7 -5 9 0 6 14 -4 12 -3 20 2 17 15 -9 19 41 6 85 -13 45 -30 58 -79 59 -19 1 -26 -3 -21 -11 4 -7 3 -8 -4 -4 -23 14 -12 -31 11 -48 14 -10 16 -14 5 -10 -19 6 -24 -5 -10 -22 4 -5 -5 4 -20 21 -27 30 -37 52 -18 40 6 -3 10 -1 10 4 0 6 -6 11 -12 12 -7 0 -5 4 5 8 10 4 19 11 19 16 1 6 8 15 17 22 15 11 15 12 0 13 -18 0 -42 -23 -33 -32 2 -3 -2 -8 -10 -11 -21 -8 -28 41 -7 52 9 5 22 6 30 3 8 -3 11 0 7 7 -5 7 3 11 23 11 21 0 31 5 31 15 0 9 9 15 24 15 14 0 28 5 32 11 5 8 -1 10 -20 7 -14 -3 -26 -1 -26 3 0 5 -4 9 -9 9 -14 0 -91 52 -91 61 0 5 -6 6 -13 3 -7 -2 -38 2 -68 10 -31 8 -61 10 -70 5 -9 -4 -26 -5 -38 -2 -14 3 -26 1 -31 -7 -9 -15 -81 -15 -110 0 -16 9 -22 8 -26 -5 -8 -19 -34 -20 -34 0 0 8 -6 15 -12 15 -7 0 -23 3 -35 6 -13 4 -23 2 -23 -3z m-98 -42 c-2 -10 6 -12 27 -9 17 2 28 2 26 -2 -2 -3 9 -6 23 -5 16 0 26 -5 24 -13 -1 -7 17 -17 43 -24 28 -8 40 -15 32 -20 -8 -5 -7 -8 6 -8 15 0 16 -3 7 -20 -9 -17 -8 -20 10 -20 12 0 20 5 18 12 -2 6 7 22 21 36 20 20 37 26 78 28 52 2 53 2 30 -16 -13 -12 -26 -15 -32 -9 -12 12 -45 12 -45 0 0 -5 -3 -16 -6 -25 -4 -11 0 -16 12 -17 14 0 15 -2 5 -6 -8 -3 -20 2 -28 12 -14 20 -29 14 -20 -9 3 -8 19 -17 36 -21 17 -4 31 -11 31 -16 0 -5 11 -7 24 -3 16 4 31 -2 50 -18 l28 -23 -22 -20 c-22 -20 -22 -20 -42 8 -16 22 -23 25 -34 16 -11 -9 -14 -8 -14 5 0 9 -3 16 -7 17 -5 0 -25 2 -46 5 -33 4 -42 0 -68 -28 -25 -28 -29 -39 -25 -68 4 -24 3 -30 -4 -20 -12 19 -12 13 -1 -28 8 -28 7 -32 -8 -32 -33 0 -45 28 -43 97 1 60 0 64 -16 52 -14 -11 -13 -9 2 8 10 13 28 25 40 29 38 12 45 22 32 49 -10 22 -25 30 -48 26 -5 0 -8 6 -8 14 0 20 -14 19 -31 -1 -12 -14 -14 -14 -25 0 -25 35 -53 -4 -45 -63 2 -7 -3 -10 -9 -6 -6 3 -9 18 -8 33 2 19 -2 27 -17 30 -29 6 -65 32 -65 47 0 14 75 45 100 41 8 -1 14 -8 12 -15z m113 9 c8 -13 -5 -13 -25 0 -13 8 -13 10 2 10 9 0 20 -4 23 -10z m270 -20 c-3 -5 -11 -10 -16 -10 -6 0 -7 5 -4 10 3 6 11 10 16 10 6 0 7 -4 4 -10z m50 0 c4 -7 13 -7 24 0 26 13 85 -7 117 -42 15 -15 23 -28 16 -28 -6 0 -15 6 -19 13 -5 8 -20 10 -43 6 l-35 -6 33 -2 c21 -1 32 -6 32 -16 0 -8 -7 -15 -15 -15 -8 0 -14 -3 -14 -7 5 -32 -6 -31 -46 6 -24 22 -51 41 -60 41 -18 0 -20 -26 -2 -33 7 -4 8 -6 1 -6 -7 -1 -19 10 -28 24 -10 15 -12 25 -6 25 6 0 8 5 5 10 -3 6 3 10 15 10 12 0 18 5 15 10 -4 6 -11 8 -16 5 -5 -4 -9 -1 -9 4 0 14 27 14 35 1z m-558 -19 c0 -11 -6 -17 -14 -14 -14 6 -17 16 -6 26 12 13 22 7 20 -12z m645 -234 c-19 -38 -36 -66 -39 -64 -2 3 8 29 23 59 16 31 26 68 26 88 -1 35 -1 35 11 10 11 -22 9 -33 -21 -93z m-256 38 c9 -8 11 -15 6 -15 -5 0 -15 7 -22 15 -7 8 -9 15 -6 15 4 0 14 -7 22 -15z m-339 -27 c-3 -7 -5 -2 -5 12 0 14 2 19 5 13 2 -7 2 -19 0 -25z m413 22 c12 -8 11 -13 -11 -37 -37 -39 -49 -66 -50 -110 -1 -33 -2 -35 -8 -13 -5 15 -3 39 6 59 11 27 11 36 1 42 -9 6 -8 10 5 15 9 3 14 10 11 15 -3 5 0 9 5 9 6 0 11 7 11 15 0 17 9 19 30 5z m263 -104 c26 -20 53 -36 60 -37 9 0 9 -2 0 -6 -7 -2 -13 -12 -13 -21 0 -9 -8 -2 -18 17 -9 19 -35 44 -57 56 -22 12 -42 30 -43 41 -4 17 -3 18 10 2 7 -9 34 -33 61 -52z m-367 42 c4 -6 3 -8 -4 -4 -6 3 -13 2 -17 -4 -3 -5 -1 -10 4 -10 6 0 11 -8 11 -17 0 -15 -2 -14 -16 3 -8 10 -13 13 -9 7 3 -7 -1 -23 -9 -35 -18 -26 -21 -71 -6 -99 7 -13 7 -19 0 -19 -5 0 -10 5 -10 11 0 5 -4 7 -10 4 -6 -3 -7 1 -4 9 4 9 1 16 -6 16 -7 0 -10 7 -6 17 4 9 2 19 -4 23 -7 5 -8 15 -1 33 6 15 8 34 4 44 -4 11 -3 14 5 9 7 -4 12 -17 13 -29 0 -15 2 -17 6 -7 5 14 43 60 49 60 2 0 6 -5 10 -12z m186 -100 c-8 -8 -9 -4 -5 13 4 13 8 18 11 10 2 -7 -1 -18 -6 -23z m59 -22 c5 -6 20 -26 35 -43 14 -18 23 -39 21 -45 -4 -9 -6 -7 -6 3 -1 22 -34 50 -60 52 -14 1 -20 6 -16 15 3 7 6 28 6 45 1 26 3 28 6 8 3 -13 9 -29 14 -35z m-261 -73 c-11 -17 -11 -17 -6 0 3 10 6 24 7 30 0 9 2 9 5 0 3 -7 0 -20 -6 -30z m412 -35 c-7 -7 -12 -8 -12 -2 0 14 12 26 19 19 2 -3 -1 -11 -7 -17z m-307 -55 c-9 -20 -23 -45 -32 -55 -9 -10 -12 -18 -7 -18 5 0 3 -4 -5 -9 -8 -6 -10 -14 -5 -22 9 -15 15 -39 9 -39 -2 0 -10 13 -18 29 -17 34 -7 66 36 117 28 33 33 44 19 44 -14 0 -76 -94 -74 -112 0 -10 -3 -18 -9 -18 -15 0 -10 -18 15 -58 24 -37 42 -147 26 -157 -9 -6 -20 19 -20 44 0 9 -9 34 -20 56 -11 21 -18 41 -15 43 2 2 -2 11 -10 19 -9 8 -15 33 -15 59 0 29 -4 44 -13 44 -7 0 -13 9 -14 20 -1 11 2 20 7 20 5 0 11 9 15 19 3 11 13 22 21 25 8 3 13 2 10 -3 -9 -15 73 -9 86 6 21 26 31 -11 13 -54z m230 27 c-6 -9 -9 -9 -16 1 -10 17 0 34 13 21 6 -6 7 -16 3 -22z m-171 -103 c11 -23 27 -51 35 -61 15 -18 15 -18 -7 -7 -13 7 -36 13 -52 13 -17 1 -37 9 -46 20 -16 17 -16 18 9 18 14 0 29 -4 32 -10 3 -5 11 -10 16 -10 6 0 7 5 4 10 -12 19 -24 70 -17 70 4 0 16 -19 26 -43z m-41 -4 c-7 -2 -19 -2 -25 0 -7 3 -2 5 12 5 14 0 19 -2 13 -5z m80 -90 c-7 -2 -19 -2 -25 0 -7 3 -2 5 12 5 14 0 19 -2 13 -5z m-15 -46 c6 -5 16 -6 21 -2 5 3 12 1 16 -5 3 -5 1 -10 -5 -10 -7 0 -10 -6 -7 -12 2 -7 1 -21 -2 -31 -7 -18 -8 -18 -21 -1 -8 10 -10 15 -3 11 8 -5 11 0 10 13 -1 20 -2 20 -14 4 -7 -10 -13 -27 -13 -38 0 -23 0 -23 -46 48 l-19 29 28 -17 c29 -20 38 -11 10 9 -14 11 -13 12 8 11 13 -1 30 -5 37 -9z m-76 -91 c-9 -18 -11 -16 -11 19 0 33 1 37 10 21 8 -12 8 -25 1 -40z m104 -55 c-9 -10 -16 -26 -16 -37 0 -19 -20 -58 -20 -39 0 24 22 85 30 85 6 0 11 12 11 28 2 24 2 25 6 4 3 -13 -2 -31 -11 -41z m-107 -97 c1 -17 -8 -48 -18 -70 -11 -21 -17 -42 -14 -46 2 -5 -1 -8 -6 -8 -14 0 -13 2 4 75 8 33 15 76 16 95 1 32 2 33 9 10 4 -14 8 -39 9 -56z m5 -89 c-9 -14 -18 -25 -21 -25 -5 0 5 18 20 38 17 22 18 13 1 -13z"/>
 <path d="M209 2340 c-7 -5 -10 -13 -5 -17 5 -4 11 -3 13 4 2 7 11 9 19 6 8 -3 14 -3 14 0 0 10 -27 15 -41 7z"/>
 <path d="M274 2319 c12 -8 25 -8 40 -1 18 9 16 11 -19 11 -33 0 -37 -1 -21 -10z"/>
 <path d="M430 2185 c6 -8 9 -20 5 -27 -4 -7 2 -2 13 12 12 14 18 27 16 30 -3 2 -9 -2 -14 -10 -7 -10 -10 -11 -10 -2 0 6 -5 12 -11 12 -8 0 -8 -4 1 -15z"/>
 <path d="M396 2182 c5 -4 15 -23 22 -42 l11 -35 -6 35 c-7 42 -11 50 -26 50 -8 0 -9 -3 -1 -8z"/>
 <path d="M805 2320 c3 -5 16 -10 28 -9 21 0 21 1 2 9 -28 12 -37 12 -30 0z"/>
 <path d="M55 2260 c-3 -5 3 -10 14 -10 12 0 24 0 28 -1 4 0 9 4 11 10 5 14 -45 15 -53 1z"/>
 <path d="M230 1785 c0 -68 4 -104 10 -100 6 3 10 48 10 100 0 52 -4 97 -10 100 -6 4 -10 -32 -10 -100z"/>
 <path d="M410 1736 c0 -8 5 -18 10 -21 6 -3 10 1 10 9 0 8 -4 18 -10 21 -5 3 -10 -1 -10 -9z"/>
 <path d="M278 1688 c4 -26 2 -30 -12 -25 -9 4 -16 2 -16 -3 0 -12 20 -13 38 -1 9 5 11 17 6 34 -9 38 -22 34 -16 -5z"/>
 <path d="M188 1649 c-10 -5 -18 -17 -18 -25 0 -8 -13 -22 -29 -31 -31 -19 -56 -60 -66 -110 -10 -49 9 -40 23 11 6 25 19 51 27 58 9 7 22 19 30 26 25 22 55 13 102 -32 l47 -44 -32 -16 c-38 -20 -42 -43 -8 -52 22 -5 23 -8 13 -39 -10 -33 -1 -102 19 -150 8 -19 7 -19 -16 -4 -54 36 -85 205 -48 261 24 37 6 44 -31 12 -36 -30 -40 -24 -10 18 25 35 20 47 -7 17 -10 -12 -19 -35 -19 -53 -1 -17 -6 -30 -12 -29 -13 3 -22 -82 -18 -159 4 -60 36 -149 67 -184 10 -11 18 -31 18 -43 l0 -23 34 26 c34 25 57 29 84 13 21 -14 14 -25 -23 -37 -42 -14 -96 -8 -130 14 -29 19 -39 20 -29 4 6 -10 3 -9 -9 0 -9 8 -24 33 -33 58 -16 41 -34 59 -34 32 0 -19 48 -114 66 -128 9 -8 20 -24 24 -36 7 -17 17 -22 45 -22 l37 0 -27 14 c-31 16 -48 19 -25 4 13 -8 12 -10 -2 -10 -22 0 -24 26 -2 34 9 3 28 6 42 6 26 -1 26 -1 8 -15 -31 -24 -8 -17 61 16 35 17 63 36 63 44 0 7 7 18 15 25 8 7 15 17 15 22 0 7 -5 6 -13 -1 -8 -6 -17 -8 -21 -4 -4 4 -4 -1 0 -12 5 -13 -3 -9 -24 14 -32 33 -42 61 -21 61 5 0 7 5 4 10 -4 6 1 31 11 55 9 25 14 48 11 51 -3 3 -11 -13 -18 -35 -7 -23 -14 -39 -17 -36 -3 2 3 25 13 51 l17 46 20 -29 20 -28 -6 34 c-3 18 -6 49 -6 68 0 20 -4 32 -10 28 -5 -3 -10 -1 -10 4 0 6 4 11 9 11 5 0 14 14 20 30 8 24 7 30 -5 30 -8 0 -14 -10 -15 -22 -1 -22 -1 -22 -9 2 -6 22 -8 23 -15 8 -5 -12 -18 -18 -40 -18 -47 0 -51 15 -10 40 21 13 37 32 41 48 3 15 7 33 10 40 2 6 -1 12 -6 12 -6 0 -10 -13 -10 -29 0 -17 -4 -33 -10 -36 -9 -5 -12 2 -9 21 2 11 -56 66 -86 80 l-30 15 30 -27 30 -26 -32 18 c-40 22 -42 39 -5 52 15 6 20 11 12 11 -8 0 -23 -4 -32 -10z m87 -89 c10 -11 14 -20 8 -20 -5 0 -18 9 -28 20 -10 11 -14 20 -8 20 5 0 18 -9 28 -20z m-41 -317 c33 -65 33 -78 4 -62 -29 15 -39 30 -33 48 3 7 1 19 -3 25 -26 33 -41 98 -35 143 6 41 8 44 14 23 7 -24 7 -24 9 5 2 17 6 -6 10 -50 5 -56 15 -96 34 -132z m20 -138 c3 -9 0 -12 -9 -9 -7 3 -16 12 -19 19 -3 9 0 12 9 9 7 -3 16 -12 19 -19z"/>
 <path d="M258 1628 c5 -5 16 -8 23 -6 8 3 3 7 -10 11 -17 4 -21 3 -13 -5z"/>
 <path d="M483 1400 c0 -25 2 -35 4 -22 2 12 2 32 0 45 -2 12 -4 2 -4 -23z"/>
 <path d="M432 1350 c0 -19 2 -27 5 -17 2 9 2 25 0 35 -3 9 -5 1 -5 -18z"/>
 <path d="M431 1270 c0 -25 -4 -56 -7 -70 -5 -24 -4 -24 25 8 17 18 31 38 31 45 -1 6 -8 -1 -18 -18 l-17 -30 -6 55 -6 55 -2 -45z"/>
 <path d="M275 1000 c-13 -6 -15 -9 -5 -9 8 0 22 4 30 9 18 12 2 12 -25 0z"/>
 </g>
<g id="layer104" fill="#8c6968" stroke="none">
 <path d="M400 2403 c0 -6 -21 -8 -50 -5 -60 6 -102 -7 -55 -18 17 -3 29 -10 28 -16 -1 -5 13 -9 30 -8 38 1 72 -16 54 -28 -7 -4 6 -10 31 -14 41 -6 67 -23 40 -25 -7 -1 -2 -4 12 -8 28 -8 60 7 60 27 0 10 10 12 40 7 23 -4 40 -3 40 3 0 5 12 7 28 4 26 -4 26 -4 8 11 -20 14 -20 15 0 20 10 4 42 6 71 6 28 -1 57 2 64 7 8 4 9 3 5 -4 -4 -7 -1 -12 7 -12 8 0 26 -9 41 -21 14 -11 30 -18 35 -14 14 8 62 -5 55 -16 -3 -5 -13 -5 -24 1 -26 14 -33 13 -26 -6 5 -12 1 -14 -15 -9 -13 4 -19 3 -16 -2 4 -6 -2 -19 -13 -31 -16 -17 -18 -26 -10 -44 l11 -23 -5 23 c-5 24 19 43 43 34 8 -3 11 0 7 7 -5 7 3 11 23 11 21 0 31 5 31 15 0 9 9 15 24 15 14 0 28 5 32 11 5 8 -1 10 -20 7 -14 -3 -26 -1 -26 3 0 5 -4 9 -9 9 -14 0 -91 52 -91 61 0 5 -6 6 -13 3 -7 -2 -38 2 -68 10 -31 8 -61 10 -70 5 -9 -4 -26 -5 -38 -2 -14 3 -26 1 -31 -7 -5 -7 -25 -12 -51 -11 -24 2 -52 2 -62 2 -10 0 -15 5 -11 12 3 7 -1 4 -9 -5 -17 -22 -37 -23 -37 -3 0 8 -6 15 -12 15 -7 0 -23 3 -35 6 -13 4 -23 2 -23 -3z m15 -33 c8 -13 -5 -13 -25 0 -13 8 -13 10 2 10 9 0 20 -4 23 -10z m205 -20 c0 -5 -4 -10 -9 -10 -6 0 -13 5 -16 10 -3 6 1 10 9 10 9 0 16 -4 16 -10z"/>
 <path d="M200 2370 c0 -4 -16 -11 -35 -14 -26 -5 -35 -12 -35 -26 0 -11 4 -20 9 -20 5 0 12 -7 15 -16 3 -8 2 -12 -4 -9 -6 3 -10 0 -10 -9 0 -8 -6 -17 -12 -19 -7 -3 12 -6 43 -6 44 -1 58 3 63 16 5 12 9 14 18 5 9 -9 4 -21 -23 -48 -18 -21 -28 -33 -20 -29 9 5 12 3 9 -6 -3 -8 -10 -15 -16 -15 -7 -1 -16 -2 -22 -3 -5 0 -9 -13 -9 -28 1 -21 2 -23 6 -8 6 24 23 45 23 28 0 -7 -4 -23 -10 -38 -5 -14 -6 -24 -2 -21 5 3 16 -12 26 -32 13 -29 13 -33 1 -18 -8 11 -15 24 -15 30 0 5 -3 7 -6 4 -9 -9 36 -89 46 -83 5 3 7 -1 4 -9 -3 -9 4 -25 19 -38 31 -30 47 -61 46 -90 -1 -17 -3 -14 -11 12 -12 43 -26 60 -47 59 -11 0 -9 -4 7 -11 13 -7 21 -17 18 -25 -3 -8 2 -25 11 -39 13 -20 14 -27 4 -34 -9 -5 -10 -10 -2 -14 15 -10 33 3 25 17 -3 7 10 -5 29 -26 35 -39 59 -37 37 2 -15 28 -13 38 10 44 11 3 20 13 20 24 0 12 -3 14 -8 6 -13 -20 -52 93 -52 149 0 20 -3 43 -6 52 -5 13 -9 12 -25 -7 -13 -15 -11 -6 7 28 43 79 46 83 86 101 21 9 38 21 38 26 0 5 -9 4 -19 -2 -11 -5 -26 -10 -33 -10 -7 1 -1 8 15 16 31 17 35 39 8 47 -12 3 -18 -1 -17 -11 0 -9 -8 -17 -19 -19 -16 -1 -17 -1 -2 3 13 4 16 11 11 27 -10 32 -12 33 -41 6 -14 -13 -23 -18 -19 -11 9 16 -22 28 -36 14 -6 -6 -11 -35 -11 -64 0 -29 -2 -41 -4 -25 -3 15 -8 25 -13 22 -15 -9 -20 12 -5 25 18 15 8 40 -17 40 -11 0 -34 10 -51 22 -17 12 -27 17 -23 10 5 -8 2 -10 -9 -6 -19 8 -15 29 6 30 8 0 25 5 39 11 14 6 32 13 40 15 8 3 0 6 -17 5 -18 0 -33 -3 -33 -7z m27 -262 c-3 -7 -5 -2 -5 12 0 14 2 19 5 13 2 -7 2 -19 0 -25z"/>
 <path d="M642 2298 c-8 -8 -9 -15 -1 -25 8 -9 8 -13 1 -13 -6 0 -16 9 -22 19 -9 18 -50 26 -50 10 0 -4 -3 -14 -6 -23 -4 -11 0 -16 12 -17 14 0 15 -2 5 -6 -8 -3 -20 2 -28 12 -15 21 -26 16 -18 -8 4 -8 22 -18 41 -21 19 -4 34 -11 34 -16 0 -4 8 -6 19 -3 10 3 30 -6 46 -19 26 -23 27 -26 11 -39 -9 -8 -37 -38 -61 -67 -44 -53 -45 -55 -45 -128 0 -41 -4 -74 -8 -74 -14 0 -8 133 6 158 17 29 14 32 -20 25 -22 -4 -27 -12 -32 -48 -4 -25 -13 -46 -22 -49 -22 -8 -15 -62 8 -58 24 4 31 -15 15 -38 l-14 -21 -6 21 c-3 11 -10 20 -17 20 -6 0 -9 -3 -7 -7 3 -5 -1 -14 -9 -21 -12 -11 -15 -10 -20 3 -4 8 -4 25 -1 37 5 18 4 19 -8 7 -21 -21 -29 -103 -12 -118 12 -9 13 -6 9 15 -4 20 -1 25 9 22 8 -3 13 -12 11 -22 -2 -9 4 -16 13 -16 8 0 15 6 15 14 0 19 30 42 38 30 12 -17 74 -9 88 11 10 14 14 15 14 4 0 -12 2 -12 10 1 13 20 12 13 -5 -43 -16 -55 -45 -107 -59 -107 -5 0 -1 -9 8 -19 10 -11 15 -25 10 -32 -4 -8 -3 -10 4 -5 8 5 12 -1 12 -14 0 -30 -19 -15 -38 29 -19 44 -18 54 19 112 33 52 39 74 9 36 -11 -14 -20 -29 -20 -35 0 -5 -9 -17 -19 -26 -11 -10 -17 -24 -14 -32 3 -8 0 -14 -6 -14 -17 0 -13 -17 13 -58 26 -39 50 -188 27 -166 -10 9 -40 101 -43 131 -1 7 -6 9 -11 6 -6 -4 -8 0 -4 10 3 9 1 17 -5 19 -7 3 -14 26 -18 54 -4 34 -10 48 -19 46 -8 -2 -11 3 -8 12 4 9 2 18 -3 21 -17 11 -19 -13 -4 -44 9 -18 13 -39 10 -47 -4 -10 -2 -13 6 -8 7 5 9 2 6 -8 -4 -8 3 -30 14 -49 l20 -33 -24 17 c-40 29 -79 48 -90 45 -5 -2 3 -10 19 -18 38 -19 83 -61 83 -77 0 -8 4 -12 9 -8 15 9 20 -9 8 -26 -11 -14 -16 -11 -42 20 -16 20 -44 49 -62 64 -26 23 -33 25 -33 12 0 -9 31 -47 70 -84 38 -37 75 -81 81 -97 7 -16 13 -76 15 -134 2 -85 0 -108 -13 -123 -12 -13 -14 -20 -5 -29 14 -14 46 8 38 27 -2 6 2 38 9 71 7 32 16 77 19 99 3 22 6 45 7 50 0 6 5 -1 9 -15 11 -34 12 -94 2 -105 -5 -6 -13 -22 -20 -37 -10 -23 -9 -26 5 -21 12 5 14 3 8 -8 -8 -12 -6 -12 8 0 18 15 23 26 7 16 -18 -11 -11 6 15 36 14 18 22 36 18 46 -4 10 -2 14 4 10 14 -9 44 54 45 93 1 20 5 27 15 23 10 -4 11 -9 4 -16 -6 -6 -11 -19 -11 -29 0 -11 -9 -37 -20 -58 -11 -22 -18 -40 -15 -40 4 0 -4 -10 -17 -22 -13 -13 -17 -17 -7 -10 9 7 24 10 33 6 17 -7 23 11 6 21 -10 6 6 43 23 56 5 3 8 10 7 15 -1 5 9 12 22 15 l23 5 -22 8 c-27 9 -29 19 -8 36 8 7 15 24 15 38 0 13 8 31 18 38 16 12 15 13 -5 14 -20 0 -23 -5 -25 -42 l-1 -43 -7 45 c-4 25 -8 39 -8 32 -2 -10 -7 -10 -22 -2 -16 9 -20 8 -20 -6 0 -10 -14 3 -35 32 -19 27 -35 52 -35 56 0 4 20 4 45 2 38 -5 44 -3 39 10 -3 9 -12 16 -19 16 -7 0 -21 3 -31 7 -13 5 -15 3 -9 -8 4 -8 6 -12 2 -9 -3 3 -5 7 -4 10 1 3 -11 23 -26 44 -26 40 -26 40 -7 59 11 10 17 23 14 29 -5 7 -1 9 9 5 12 -4 14 -2 10 11 -16 41 26 -11 46 -57 14 -34 33 -57 57 -72 l37 -22 28 31 c32 36 52 44 23 10 -19 -23 -19 -23 1 -6 11 9 28 32 38 50 l19 33 -22 -25 c-18 -21 -17 -17 6 32 15 31 32 54 38 51 5 -4 7 1 3 11 -9 23 23 102 34 84 6 -8 9 5 9 35 0 32 6 57 19 72 14 18 18 39 17 84 -1 33 2 55 6 48 5 -7 8 -8 8 -1 0 6 -3 14 -7 18 -4 4 -8 15 -8 24 0 12 -13 20 -40 26 -70 15 -70 15 -49 31 16 12 17 14 3 15 -9 0 -22 -7 -29 -15 -7 -8 -9 -15 -4 -15 4 0 -1 -7 -12 -15 -18 -14 -18 -14 4 -8 13 3 22 1 22 -7 0 -14 25 -40 39 -40 12 0 15 -13 4 -23 -3 -4 -12 -2 -20 4 -9 9 -13 8 -13 0 0 -6 5 -12 10 -12 6 -1 14 -2 19 -3 5 0 13 -5 18 -10 5 -5 3 -6 -4 -2 -18 10 -16 -4 5 -28 17 -20 16 -20 -3 -6 -11 8 -24 21 -28 28 -4 6 -15 12 -22 12 -8 0 -16 5 -16 10 -5 40 -18 54 -35 39 -8 -6 -14 -17 -14 -24 0 -21 51 -76 62 -68 7 3 8 1 4 -5 -4 -7 -1 -12 6 -12 7 0 19 -9 26 -20 15 -25 30 -25 49 -2 13 15 13 15 3 -5 -6 -13 -15 -23 -20 -23 -6 0 -10 -8 -10 -17 -1 -11 -7 -5 -15 14 -8 20 -29 40 -55 53 -22 11 -45 31 -49 43 -9 21 -9 21 -17 2 -4 -11 -13 -27 -21 -36 -17 -20 -25 -77 -12 -93 48 -58 93 -136 78 -136 -19 0 -24 6 -25 32 -2 29 -16 48 -51 66 -18 10 -22 8 -26 -10 -4 -12 -8 -20 -11 -18 -10 11 27 146 54 200 44 88 41 125 -15 178 -25 23 -49 42 -53 42 -19 0 -21 -14 -5 -32 26 -29 8 -21 -29 12 -37 34 -39 35 -56 18z m130 -60 c-7 -7 -12 -8 -12 -2 0 14 12 26 19 19 2 -3 -1 -11 -7 -17z m-22 -33 c-7 -9 -15 -13 -17 -11 -7 7 7 26 19 26 6 0 6 -6 -2 -15z m200 -35 c-8 -5 -6 -17 10 -45 16 -28 18 -41 10 -49 -6 -6 -10 -7 -9 -1 4 17 -20 65 -32 65 -6 0 -9 7 -5 15 3 9 0 15 -9 15 -7 0 -16 4 -19 8 -2 4 11 6 31 4 20 -3 30 -8 23 -12z m-204 -41 c0 -18 -2 -18 -12 -5 -6 9 -13 13 -16 10 -4 -3 -9 -1 -13 5 -4 7 3 11 17 11 17 0 24 -6 24 -21z m-86 -110 c-6 -10 -7 -19 -2 -19 5 0 9 -7 9 -15 0 -22 -10 -18 -23 9 -7 15 -8 30 -2 40 13 24 30 9 18 -15z m54 6 c3 -8 1 -15 -4 -15 -6 0 -10 7 -10 15 0 8 2 15 4 15 2 0 6 -7 10 -15z m29 -22 c-7 -2 -13 -11 -13 -18 0 -8 -5 -17 -12 -21 -6 -4 -9 -3 -6 2 3 5 8 17 11 27 4 9 12 17 19 16 10 0 10 -2 1 -6z m-28 -123 c3 -5 -1 -10 -9 -10 -8 0 -18 5 -21 10 -3 6 1 10 9 10 8 0 18 -4 21 -10z m65 -236 c0 -2 -7 -4 -15 -4 -8 0 -15 4 -15 10 0 5 7 7 15 4 8 -4 15 -8 15 -10z m-146 -130 c4 -9 4 -26 0 -37 -5 -16 -8 -17 -15 -6 -11 18 -11 59 0 59 5 0 12 -7 15 -16z m-69 -353 c-3 -6 -11 -11 -16 -11 -5 0 -4 6 3 14 14 16 24 13 13 -3z"/>
 <path d="M55 2260 c-3 -5 3 -10 14 -10 12 0 24 0 28 -1 4 0 9 4 11 10 5 14 -45 15 -53 1z"/>
 <path d="M490 2250 c-12 -8 -10 -10 8 -10 13 0 20 4 17 10 -7 12 -6 12 -25 0z"/>
 <path d="M484 2184 c-6 -3 -9 -16 -6 -30 4 -23 2 -25 -18 -19 -22 7 -22 5 -16 -31 5 -29 4 -35 -4 -24 -8 11 -9 8 -4 -15 8 -36 14 -45 14 -20 0 14 3 15 15 5 13 -10 19 -8 35 13 17 22 25 25 45 17 16 -6 27 -5 34 4 8 9 2 20 -24 43 -23 21 -33 37 -29 47 6 16 -16 21 -42 10z"/>
 <path d="M364 2149 c-9 -19 -11 -28 -4 -24 9 6 10 -1 5 -24 -4 -20 -3 -31 4 -31 6 0 11 -6 11 -13 0 -16 27 -41 53 -50 9 -4 17 -2 17 3 0 6 -8 10 -19 10 -33 0 -45 28 -43 96 1 35 -1 64 -3 64 -2 0 -12 -14 -21 -31z"/>
 <path d="M620 2145 c7 -9 15 -13 17 -11 7 7 -7 26 -19 26 -6 0 -6 -6 2 -15z"/>
 <path d="M370 1983 c0 -5 5 -15 10 -23 8 -12 10 -11 10 8 0 12 -4 22 -10 22 -5 0 -10 -3 -10 -7z"/>
 <path d="M232 1792 c2 -55 6 -95 10 -89 12 18 9 175 -2 182 -8 5 -10 -25 -8 -93z"/>
 <path d="M307 1803 c-14 -13 -6 -23 19 -23 22 0 25 2 14 15 -14 16 -23 19 -33 8z"/>
 <path d="M362 1746 c11 -26 10 -30 -20 -57 -18 -16 -29 -29 -24 -29 11 0 62 54 62 66 0 6 -7 19 -15 30 -14 17 -14 17 -3 -10z"/>
 <path d="M896 1755 c-9 -26 -7 -32 5 -12 6 10 9 21 6 23 -2 3 -7 -2 -11 -11z"/>
 <path d="M410 1736 c0 -8 5 -18 10 -21 6 -3 10 1 10 9 0 8 -4 18 -10 21 -5 3 -10 -1 -10 -9z"/>
 <path d="M278 1690 c2 -16 8 -30 13 -30 10 0 11 7 3 38 -9 33 -21 27 -16 -8z"/>
 <path d="M358 1668 c-25 -26 -26 -29 -8 -38 24 -13 30 -13 30 0 0 6 -7 10 -15 10 -12 0 -12 3 2 20 12 14 20 16 29 9 8 -7 14 -7 18 0 4 6 -1 14 -11 19 -13 6 -25 1 -45 -20z"/>
 <path d="M170 1625 c-5 -14 -20 -30 -33 -36 -26 -12 -52 -57 -62 -106 -10 -49 9 -40 23 11 6 25 19 51 27 58 9 7 22 19 31 27 8 7 26 11 41 8 l27 -5 -24 18 c-15 11 -21 23 -17 34 4 9 4 16 1 16 -2 0 -9 -11 -14 -25z"/>
 <path d="M786 1601 l-28 -29 22 -12 c23 -12 43 -4 22 9 -17 10 -4 41 14 34 8 -3 14 0 14 5 0 23 -18 20 -44 -7z"/>
 <path d="M720 1595 c0 -7 6 -18 14 -24 8 -7 12 -21 9 -31 -4 -15 0 -20 13 -19 11 0 14 3 8 5 -7 3 -10 14 -7 24 3 13 0 20 -8 20 -10 1 -8 4 4 11 24 14 21 24 -8 25 -14 1 -25 -4 -25 -11z"/>
 <path d="M264 1543 l38 -41 -31 -16 c-37 -20 -40 -43 -7 -52 22 -5 23 -8 13 -39 -10 -33 -1 -102 19 -150 8 -19 7 -19 -16 -4 -54 36 -85 205 -48 261 24 37 6 44 -31 12 -36 -30 -40 -24 -10 18 25 35 20 47 -7 17 -10 -12 -19 -35 -19 -53 -1 -17 -6 -30 -12 -29 -13 3 -22 -82 -18 -159 4 -60 36 -149 67 -184 18 -20 25 -64 10 -64 -5 0 -17 7 -28 15 -24 18 -38 19 -28 3 6 -10 3 -9 -9 0 -9 8 -24 33 -33 58 -16 41 -34 59 -34 32 0 -19 48 -114 66 -128 9 -8 20 -24 25 -37 5 -13 16 -22 26 -22 17 1 17 2 1 6 -48 12 0 54 49 43 29 -7 32 -6 22 7 -7 8 -21 12 -31 10 -22 -6 -23 2 -2 31 8 12 11 22 6 22 -6 0 -12 7 -16 15 -4 13 -2 13 14 5 12 -7 21 -7 25 0 3 6 21 8 38 5 30 -5 31 -4 13 10 -11 8 -23 15 -27 15 -4 0 -6 11 -5 25 0 14 4 25 8 25 9 0 49 121 42 131 -3 5 -2 15 3 22 5 8 12 -2 19 -28 11 -34 13 -36 13 -13 1 15 -4 39 -11 53 -10 21 -8 32 9 65 15 28 17 37 7 33 -8 -3 -14 -13 -15 -22 -1 -9 -4 -5 -8 9 l-7 25 -15 -26 c-13 -25 -16 -25 -46 -12 -33 13 -45 33 -20 33 8 0 21 8 30 18 16 17 14 21 -26 58 l-42 39 39 -42z m-30 -300 c33 -65 33 -78 4 -62 -29 15 -39 30 -33 48 3 7 1 19 -3 25 -26 33 -41 98 -35 143 6 41 8 44 14 23 7 -24 7 -24 9 5 2 17 6 -6 10 -50 5 -56 15 -96 34 -132z"/>
 <path d="M460 1104 c-63 -50 -74 -64 -17 -23 26 19 57 40 70 46 13 8 16 13 7 12 -8 0 -35 -16 -60 -35z"/>
 <path d="M350 1030 c-19 -11 -31 -19 -27 -20 11 0 67 29 67 35 0 7 -1 7 -40 -15z"/>
 <path d="M275 1000 c-13 -6 -15 -9 -5 -9 8 0 22 4 30 9 18 12 2 12 -25 0z"/>
 </g>
<g id="layer105" fill="#ad9d9b" stroke="none">
 <path d="M400 2403 c0 -6 -21 -8 -50 -5 -27 2 -57 1 -67 -3 -19 -8 -20 -8 82 -34 21 -5 46 -19 55 -30 8 -11 25 -21 38 -23 12 -2 22 -7 22 -13 -3 -23 36 -21 58 2 18 19 29 23 51 18 16 -3 32 -2 35 3 3 6 16 8 29 4 19 -5 20 -4 9 11 -12 14 -11 17 10 21 29 7 138 12 133 7 -10 -9 74 -43 115 -46 25 -2 38 -1 30 3 -37 18 -90 55 -90 63 0 4 -6 6 -13 3 -7 -2 -38 2 -68 10 -31 8 -61 10 -70 5 -9 -4 -26 -5 -38 -2 -14 3 -26 1 -31 -7 -5 -7 -25 -12 -51 -11 -24 2 -52 2 -62 2 -10 0 -15 5 -11 12 3 7 -1 4 -9 -5 -17 -22 -37 -23 -37 -3 0 8 -6 15 -12 15 -7 0 -23 3 -35 6 -13 4 -23 2 -23 -3z m366 -20 c-4 -4 -19 -9 -34 -10 -21 -3 -24 -1 -12 7 17 11 57 14 46 3z m-351 -13 c8 -13 -5 -13 -25 0 -13 8 -13 10 2 10 9 0 20 -4 23 -10z m207 -22 c-6 -6 -19 -7 -29 -3 -17 7 -17 8 2 15 24 9 41 2 27 -12z m-87 -38 c3 -6 -4 -10 -17 -10 -18 0 -20 2 -8 10 19 12 18 12 25 0z"/>
 <path d="M200 2371 c0 -5 -16 -12 -35 -15 -26 -5 -35 -12 -35 -26 0 -11 4 -20 9 -20 5 0 12 -7 15 -16 3 -8 2 -12 -4 -9 -6 3 -10 0 -10 -9 0 -8 -6 -17 -12 -19 -7 -3 12 -6 43 -6 44 -1 58 3 63 16 5 12 9 14 18 5 9 -9 4 -21 -23 -49 -22 -25 -24 -29 -6 -14 15 14 27 20 27 14 0 -6 -7 -16 -16 -24 -8 -7 -22 -26 -30 -42 -15 -27 -14 -33 20 -103 19 -41 31 -72 25 -68 -7 4 -7 -1 0 -15 7 -11 14 -21 17 -21 3 0 2 5 -2 12 -4 6 -3 8 3 5 6 -4 16 -20 23 -37 7 -16 16 -30 20 -30 5 0 6 -9 3 -19 -6 -22 14 -64 26 -56 9 5 24 -20 30 -52 1 -5 5 -1 10 6 6 9 6 22 0 32 -12 23 -12 62 1 54 13 -8 13 18 1 31 -6 5 -12 23 -15 39 -3 17 -10 44 -15 61 -5 17 -7 42 -4 56 6 31 -13 46 -22 18 -3 -11 -13 -20 -22 -20 -14 0 -14 2 0 18 10 10 17 23 17 28 0 6 14 32 32 60 18 27 32 53 33 57 0 5 11 14 24 22 14 7 26 20 27 29 3 21 -2 20 -33 -4 -37 -29 -53 -24 -18 5 17 14 23 24 15 23 -9 -2 -14 3 -12 11 3 12 1 12 -15 0 -10 -8 -24 -21 -31 -29 -12 -13 -13 -13 -8 3 5 16 2 19 -26 21 -14 1 -15 -1 -17 -71 -2 -37 -4 -43 -11 -28 -6 14 -9 16 -10 5 -1 -8 -5 -4 -9 10 -5 14 -4 29 1 35 16 18 9 45 -13 45 -11 0 -35 10 -52 22 -17 12 -27 17 -23 10 5 -8 2 -10 -9 -6 -19 8 -15 29 6 30 34 2 70 34 39 34 -5 0 -10 -4 -10 -9z m41 -216 c12 8 11 3 -1 -31 -15 -39 -35 -17 -24 28 5 21 9 27 12 15 2 -9 8 -15 13 -12z m99 -240 c0 -7 8 -19 18 -24 15 -9 15 -10 0 -11 -9 0 -18 -6 -21 -12 -2 -7 -8 -9 -13 -5 -5 4 -2 12 6 17 12 7 12 12 2 22 -15 15 -16 28 -2 28 6 0 10 -7 10 -15z"/>
 <path d="M642 2298 c-10 -10 -8 -16 10 -30 13 -9 19 -20 14 -25 -4 -4 -18 4 -31 20 -27 30 -60 36 -69 11 -4 -9 -5 -18 -4 -18 2 -1 14 -7 28 -14 l25 -12 -25 6 c-14 3 -30 13 -37 21 -6 8 -14 10 -17 5 -9 -15 15 -29 69 -43 29 -7 63 -24 80 -40 18 -17 42 -29 57 -29 27 0 53 22 41 34 -4 4 0 4 10 0 9 -3 17 -9 17 -13 -1 -13 -51 -42 -61 -35 -8 4 -8 1 0 -14 14 -26 14 -55 1 -47 -5 3 -10 15 -10 26 0 10 -5 19 -11 19 -7 0 -17 7 -24 16 -10 14 -15 12 -46 -17 -71 -70 -79 -87 -79 -166 0 -40 -4 -73 -9 -73 -5 0 -9 21 -9 48 1 26 0 56 -1 67 -1 11 -1 29 1 40 2 12 -4 21 -14 23 -10 2 -18 -2 -18 -8 0 -6 6 -8 13 -4 10 6 10 4 0 -7 -7 -7 -13 -21 -13 -31 0 -10 -9 -26 -20 -35 -21 -18 -27 -58 -10 -68 6 -3 10 0 10 7 0 8 5 7 17 -4 13 -14 14 -20 4 -32 -7 -8 -10 -23 -7 -33 5 -15 14 -18 46 -15 39 4 40 5 41 41 0 26 2 31 8 17 6 -17 9 -16 25 9 25 37 29 27 11 -30 -10 -35 -11 -53 -4 -62 6 -6 8 -17 4 -22 -3 -6 6 -28 20 -48 14 -21 25 -42 25 -47 0 -20 52 -65 68 -59 9 4 13 2 9 -4 -4 -6 -1 -13 5 -16 9 -3 7 -9 -6 -20 -19 -14 -19 -15 3 -26 23 -13 45 -6 25 7 -12 8 -12 40 0 60 4 7 11 10 15 7 5 -2 17 5 27 18 l19 22 -22 -19 c-13 -11 -23 -15 -23 -9 0 12 39 49 49 46 3 -1 8 1 11 4 3 4 -1 2 -9 -2 -10 -6 -13 -4 -8 6 3 8 16 39 28 69 40 99 59 136 59 116 0 -11 3 -17 6 -13 4 3 3 14 -1 24 -5 10 -10 29 -12 43 -5 36 -34 72 -73 92 -40 20 -50 16 -24 -9 9 -10 19 -16 20 -13 1 3 6 2 10 -2 4 -5 -4 -8 -17 -9 -13 0 -18 -3 -11 -6 6 -2 12 -9 12 -15 0 -6 -6 -6 -15 2 -8 7 -12 16 -9 21 3 5 -2 12 -10 15 -9 3 -16 13 -16 22 0 12 -4 11 -16 -6 -15 -22 -15 -24 2 -38 17 -14 18 -15 1 -10 -14 5 -16 2 -8 -13 6 -10 17 -21 26 -24 9 -4 12 -13 9 -22 -4 -10 3 -27 17 -43 27 -30 33 -77 9 -77 -8 0 -15 9 -15 20 0 11 -8 29 -17 39 -10 11 -18 23 -18 28 0 10 -33 -2 -42 -15 -3 -6 -2 -22 3 -36 9 -25 8 -25 -6 -7 -14 18 -15 18 -15 2 0 -9 -4 -15 -9 -12 -4 3 -1 27 7 53 12 36 13 48 3 51 -9 3 -8 7 3 16 20 15 25 88 7 94 -10 3 -12 0 -8 -13 7 -17 -20 -75 -35 -75 -10 0 -10 3 2 35 5 14 6 24 1 21 -5 -3 -12 1 -15 10 -9 24 -8 27 13 21 12 -3 22 1 25 9 3 8 13 14 21 14 22 0 42 22 40 41 -2 9 1 23 6 30 7 12 9 11 10 -1 1 -24 17 21 18 51 1 33 -26 60 -35 35 -3 -9 -11 -16 -16 -16 -6 0 -5 7 2 15 24 28 2 27 -24 -2 -31 -33 -34 -21 -6 22 25 37 25 37 0 53 -29 18 -46 5 -24 -19 10 -11 12 -19 6 -19 -7 0 -24 14 -39 30 -30 34 -34 35 -51 18z m28 -256 c0 -15 -28 -47 -35 -40 -8 8 13 48 25 48 6 0 10 -4 10 -8z m0 -57 c0 -8 -4 -15 -10 -15 -5 0 -10 7 -10 15 0 8 5 15 10 15 6 0 10 -7 10 -15z m235 -25 c3 -5 2 -10 -4 -10 -5 0 -13 5 -16 10 -3 6 -2 10 4 10 5 0 13 -4 16 -10z m-185 -80 c0 -5 -6 -10 -14 -10 -8 0 -18 5 -21 10 -3 6 3 10 14 10 12 0 21 -4 21 -10z m100 -70 c0 -5 -4 -10 -10 -10 -5 0 -10 5 -10 10 0 6 5 10 10 10 6 0 10 -4 10 -10z m-101 -38 c-2 -21 0 -42 3 -48 6 -9 4 -38 -3 -54 -5 -13 -14 69 -10 103 4 49 13 48 10 -1z m61 -127 c0 -2 -7 -5 -15 -9 -9 -3 -15 0 -15 9 0 9 6 12 15 9 8 -4 15 -7 15 -9z"/>
 <path d="M960 2301 c-8 -6 -28 -7 -45 -4 -27 6 -29 5 -16 -11 13 -15 12 -16 -13 -6 -19 7 -25 7 -21 -1 4 -5 -3 -18 -14 -28 -18 -15 -19 -23 -11 -42 10 -23 10 -23 6 -1 -5 24 19 43 43 34 8 -3 11 0 7 7 -5 7 3 11 23 11 21 0 31 5 31 15 0 9 9 15 24 15 14 0 28 5 31 10 8 13 -25 13 -45 1z"/>
 <path d="M55 2260 c-3 -5 3 -10 14 -10 12 0 24 0 28 -1 4 0 9 4 11 10 5 14 -45 15 -53 1z"/>
 <path d="M490 2250 c-13 -8 -12 -10 3 -10 9 0 17 5 17 10 0 12 -1 12 -20 0z"/>
 <path d="M420 2225 c-14 -8 -20 -14 -14 -15 5 0 19 7 30 15 24 18 16 19 -16 0z"/>
 <path d="M880 2215 c-7 -8 -9 -15 -4 -15 5 0 2 -5 -6 -10 -12 -8 -11 -10 5 -8 45 3 85 -3 85 -13 0 -5 -4 -7 -10 -4 -16 10 -12 -4 11 -35 17 -22 20 -37 16 -66 -7 -41 -15 -53 -25 -39 -4 6 -17 19 -30 29 -23 20 -23 20 -16 0 4 -10 20 -31 35 -46 16 -15 24 -30 19 -33 -6 -4 -10 -14 -9 -23 0 -14 2 -14 6 -2 3 8 14 26 24 39 11 13 19 29 19 35 -1 6 -7 0 -15 -14 -19 -32 -19 -22 -1 22 8 19 14 58 12 89 l-3 54 -39 9 c-69 15 -69 15 -48 31 16 12 17 14 3 15 -9 0 -22 -7 -29 -15z"/>
 <path d="M487 2183 c-4 -3 -7 -17 -7 -31 0 -17 -4 -23 -15 -19 -22 9 -28 -9 -15 -48 15 -46 27 -52 50 -22 15 18 26 23 46 19 19 -3 25 -1 20 7 -4 6 -2 11 4 11 6 0 -2 12 -20 26 -21 19 -29 32 -25 45 5 14 1 19 -13 19 -10 0 -22 -3 -25 -7z m48 -54 c11 -16 1 -19 -13 -3 -7 8 -8 14 -3 14 5 0 13 -5 16 -11z"/>
 <path d="M376 2171 c-5 -7 -10 -34 -12 -59 l-3 -45 15 28 c16 31 16 101 0 76z"/>
 <path d="M172 2145 c0 -16 2 -22 5 -12 2 9 2 23 0 30 -3 6 -5 -1 -5 -18z"/>
 <path d="M190 2086 c0 -11 40 -86 45 -86 3 0 -4 19 -16 43 -23 45 -29 54 -29 43z"/>
 <path d="M381 2064 c0 -12 7 -28 17 -35 15 -12 16 -12 6 1 -7 8 -14 24 -17 35 -4 19 -5 19 -6 -1z"/>
 <path d="M258 1928 c13 -7 21 -17 17 -26 -3 -7 2 -23 11 -35 16 -21 16 -21 10 12 -7 41 -23 61 -45 60 -11 0 -9 -4 7 -11z"/>
 <path d="M443 1908 c-6 -7 -12 -25 -15 -40 -4 -20 0 -29 17 -36 17 -8 25 -5 39 12 l18 21 -7 -24 c-5 -16 -4 -21 4 -17 12 8 15 49 5 59 -4 4 -15 -3 -25 -14 -16 -19 -19 -20 -25 -5 -3 9 -4 25 -1 36 6 23 3 25 -10 8z"/>
 <path d="M231 1843 c0 -26 4 -68 8 -93 8 -40 9 -35 10 42 0 48 -3 90 -9 93 -6 4 -10 -12 -9 -42z"/>
 <path d="M291 1831 c-7 -5 -9 -11 -4 -14 5 -3 15 -2 22 2 7 5 9 11 4 14 -5 3 -15 2 -22 -2z"/>
 <path d="M426 1821 c-4 -7 -5 -15 -2 -18 9 -9 19 4 14 18 -4 11 -6 11 -12 0z"/>
 <path d="M307 1803 c-14 -13 -6 -23 19 -23 22 0 25 2 14 15 -14 16 -23 19 -33 8z"/>
 <path d="M637 1793 c-4 -3 -7 -11 -7 -17 0 -6 5 -5 12 2 6 6 9 14 7 17 -3 3 -9 2 -12 -2z"/>
 <path d="M362 1746 c11 -26 10 -30 -20 -57 -18 -16 -29 -29 -24 -29 11 0 62 54 62 66 0 6 -7 19 -15 30 -14 17 -14 17 -3 -10z"/>
 <path d="M896 1755 c-9 -26 -7 -32 5 -12 6 10 9 21 6 23 -2 3 -7 -2 -11 -11z"/>
 <path d="M410 1735 c0 -8 4 -15 10 -15 5 0 7 7 4 15 -4 8 -8 15 -10 15 -2 0 -4 -7 -4 -15z"/>
 <path d="M278 1690 c2 -16 8 -30 13 -30 10 0 11 7 3 38 -9 33 -21 27 -16 -8z"/>
 <path d="M366 1671 c-20 -26 -20 -26 0 -9 15 13 23 15 31 7 7 -7 13 -7 17 0 4 5 -1 14 -11 19 -14 8 -22 4 -37 -17z"/>
 <path d="M580 1686 c0 -2 7 -9 15 -16 13 -11 14 -10 9 4 -5 14 -24 23 -24 12z"/>
 <path d="M170 1625 c-5 -14 -20 -30 -33 -36 -26 -12 -52 -57 -62 -106 -10 -49 9 -40 23 11 6 25 19 51 27 58 9 7 22 19 31 27 8 7 26 11 41 8 l27 -5 -24 18 c-15 11 -21 23 -17 34 4 9 4 16 1 16 -2 0 -9 -11 -14 -25z"/>
 <path d="M410 1640 c8 -5 20 -10 25 -10 6 0 3 5 -5 10 -8 5 -19 10 -25 10 -5 0 -3 -5 5 -10z"/>
 <path d="M610 1631 c0 -19 -3 -20 -21 -10 -21 11 -21 11 -3 -20 23 -38 29 -39 42 -2 8 23 7 32 -4 42 -11 9 -14 7 -14 -10z"/>
 <path d="M355 1630 c3 -5 11 -10 16 -10 6 0 7 5 4 10 -3 6 -11 10 -16 10 -6 0 -7 -4 -4 -10z"/>
 <path d="M806 1622 c-3 -6 -1 -14 5 -17 15 -10 25 3 12 16 -7 7 -13 7 -17 1z"/>
 <path d="M390 1613 c0 -6 34 -45 75 -86 41 -42 75 -72 75 -68 0 13 -149 167 -150 154z"/>
 <path d="M484 1592 c16 -17 33 -29 37 -26 9 5 24 -35 21 -56 -2 -13 -1 -13 7 -1 6 9 5 23 -2 40 -15 35 -27 49 -27 31 -1 -11 -3 -11 -11 2 -5 10 -20 23 -32 29 -18 10 -17 6 7 -19z"/>
 <path d="M650 1605 c0 -6 6 -12 13 -12 6 0 20 -4 30 -8 13 -5 16 -3 11 8 -7 18 -54 29 -54 12z"/>
 <path d="M730 1601 c12 -8 12 -11 1 -11 -11 0 -11 -3 0 -17 8 -9 13 -24 11 -35 -2 -12 3 -18 15 -17 10 0 13 3 7 5 -7 3 -10 14 -7 24 3 12 0 20 -8 20 -8 0 -5 6 7 15 10 8 14 15 7 15 -6 0 -20 3 -30 6 -15 5 -15 4 -3 -5z"/>
 <path d="M184 1549 c-10 -12 -19 -35 -19 -53 -1 -17 -6 -30 -12 -29 -13 3 -22 -82 -18 -159 4 -60 36 -149 67 -184 18 -20 25 -64 10 -64 -5 0 -17 7 -28 15 -24 18 -38 19 -28 3 6 -10 3 -9 -9 0 -9 8 -24 33 -33 58 -16 41 -34 59 -34 32 0 -21 42 -102 68 -130 21 -23 28 -25 46 -15 12 6 25 10 29 9 5 -1 6 2 2 8 -4 6 1 22 9 35 9 14 12 25 7 25 -5 0 -11 7 -15 15 -4 13 -2 13 14 5 12 -6 21 -7 25 0 3 5 20 8 38 6 29 -4 30 -3 12 10 -10 8 -22 14 -27 14 -9 0 -6 43 4 50 11 9 48 122 42 131 -3 5 -2 14 2 21 5 8 10 6 15 -8 5 -10 5 6 2 36 -3 30 -6 61 -6 69 0 10 -5 8 -16 -6 -15 -17 -19 -18 -49 -6 -32 13 -44 33 -19 33 8 0 21 8 30 18 16 17 14 20 -21 53 l-37 34 34 -37 33 -36 -31 -16 c-37 -20 -40 -43 -7 -52 22 -5 23 -8 13 -39 -10 -33 -1 -102 19 -150 8 -19 7 -19 -16 -4 -54 36 -85 205 -48 261 24 37 6 44 -31 12 -36 -30 -40 -24 -10 18 25 35 20 47 -7 17z m50 -306 c33 -65 33 -78 4 -62 -29 15 -39 30 -33 48 3 7 1 19 -3 25 -26 33 -41 98 -35 143 6 41 8 44 14 23 7 -24 7 -24 9 5 2 17 6 -6 10 -50 5 -56 15 -96 34 -132z"/>
 <path d="M620 1559 c0 -3 9 -23 19 -45 12 -24 16 -43 10 -48 -12 -13 -12 -56 1 -56 5 0 10 10 9 23 0 12 2 33 5 47 4 18 -1 34 -19 55 -14 17 -25 27 -25 24z"/>
 <path d="M602 1469 c-1 -36 -8 -79 -16 -95 -14 -29 -28 -195 -14 -170 13 24 39 227 35 279 -3 49 -3 48 -5 -14z"/>
 <path d="M750 1471 c0 -22 -6 -44 -15 -51 -8 -7 -15 -23 -15 -35 0 -19 4 -21 27 -17 27 5 27 5 5 15 -26 12 -27 20 -7 37 8 7 15 24 15 38 0 13 8 31 18 38 16 12 15 13 -5 14 -20 0 -23 -5 -23 -39z"/>
 <path d="M724 1494 c-13 -5 -6 -54 7 -54 5 0 9 14 9 30 0 17 -1 30 -2 29 -2 0 -8 -3 -14 -5z"/>
 <path d="M692 1445 c-7 -14 -12 -32 -12 -39 0 -8 -7 -19 -15 -26 -19 -16 -19 -56 0 -64 11 -4 17 3 22 24 3 17 9 30 12 30 4 0 8 23 8 50 1 28 0 50 -1 50 -2 0 -8 -11 -14 -25z m-12 -91 c0 -8 -4 -12 -10 -9 -5 3 -10 10 -10 16 0 5 5 9 10 9 6 0 10 -7 10 -16z"/>
 <path d="M362 1440 c0 -14 2 -19 5 -12 2 6 2 18 0 25 -3 6 -5 1 -5 -13z"/>
 <path d="M550 1401 c0 -17 5 -33 10 -36 6 -4 10 8 10 29 0 20 -4 36 -10 36 -5 0 -10 -13 -10 -29z"/>
 <path d="M695 1320 c-9 -16 -13 -30 -9 -30 3 0 -4 -9 -17 -19 -29 -23 -39 -18 -16 7 16 18 16 20 -4 38 l-21 19 6 -31 c5 -23 1 -37 -16 -60 l-22 -29 22 19 c12 11 22 15 22 11 0 -4 8 -1 19 9 10 9 25 14 35 10 17 -7 23 11 6 21 -10 6 6 43 25 57 6 5 5 8 -2 8 -7 0 -19 -13 -28 -30z"/>
 <path d="M558 1158 c-10 -10 -14 -18 -9 -18 10 0 36 29 30 34 -2 1 -12 -6 -21 -16z"/>
 <path d="M460 1104 c-63 -50 -74 -64 -17 -23 26 19 57 40 70 46 13 8 16 13 7 12 -8 0 -35 -16 -60 -35z"/>
 <path d="M280 1000 c-8 -5 -10 -10 -5 -10 6 0 17 5 25 10 8 5 11 10 5 10 -5 0 -17 -5 -25 -10z"/>
 </g>
<g id="layer106" fill="#e3e0db" stroke="none">
 <path d="M400 2401 c0 -4 -22 -6 -50 -3 -62 6 -103 -8 -50 -17 20 -4 38 -2 42 4 5 6 8 6 8 -2 0 -15 84 -53 116 -53 17 0 22 4 17 16 -4 10 -1 14 8 12 8 -2 15 2 15 7 1 6 -7 9 -18 7 -11 -2 -18 3 -18 13 0 12 -6 15 -20 10 -11 -4 -20 -2 -20 4 0 6 -7 11 -15 11 -8 0 -15 -4 -15 -9z m66 -32 c4 -6 -9 -9 -35 -6 -55 5 -62 14 -12 15 22 0 43 -4 47 -9z"/>
 <path d="M708 2399 c-7 -4 -25 -5 -42 -2 -21 4 -27 3 -22 -5 5 -8 -2 -12 -21 -13 -15 -1 -39 -2 -53 -2 -14 -1 -28 3 -32 8 -5 6 -8 3 -8 -7 0 -9 6 -19 13 -21 10 -4 -22 -11 -43 -9 -3 0 -6 -8 -7 -18 -1 -15 5 -17 34 -15 19 2 37 6 40 9 3 3 14 1 25 -5 13 -7 23 -7 32 0 7 6 16 8 19 4 6 -5 11 17 9 38 0 3 12 4 28 3 16 -1 31 4 34 11 3 8 20 15 38 17 l33 3 -32 6 c-18 3 -38 2 -45 -2z m-78 -44 c10 -12 10 -15 -1 -16 -8 -1 -18 0 -24 1 -5 2 -19 2 -30 2 -17 -1 -17 1 5 13 32 18 35 18 50 0z"/>
 <path d="M791 2382 c-21 -7 -11 -19 14 -19 14 0 31 -7 38 -15 15 -19 47 -31 47 -17 0 6 7 3 16 -6 9 -9 19 -13 23 -10 3 4 -5 16 -19 27 -15 12 -26 15 -28 9 -2 -6 -11 -11 -19 -11 -11 0 -13 3 -5 13 6 7 8 17 4 22 -7 10 -50 14 -71 7z"/>
 <path d="M200 2370 c0 -5 -9 -10 -19 -10 -11 0 -23 -5 -26 -10 -4 -6 -10 -8 -14 -6 -3 3 -7 -4 -7 -15 0 -10 4 -19 9 -19 5 0 6 -7 3 -16 -3 -8 -2 -12 4 -9 6 3 10 1 10 -4 0 -6 -5 -11 -11 -11 -5 0 -7 -4 -4 -10 10 -17 82 -12 89 6 3 8 11 12 17 9 6 -4 8 -14 4 -24 -4 -11 -3 -13 5 -5 16 16 2 41 -26 47 -13 2 -24 1 -24 -3 0 -4 -7 -10 -15 -14 -12 -4 -13 -2 -6 13 12 22 -4 42 -27 34 -10 -4 -13 -1 -10 8 3 8 11 14 19 15 34 2 70 34 39 34 -5 0 -10 -4 -10 -10z"/>
 <path d="M966 2302 c-4 -3 -19 -6 -34 -7 -17 0 -26 -6 -24 -14 2 -9 -3 -11 -13 -7 -10 3 -26 -4 -43 -21 -21 -21 -23 -25 -7 -19 11 5 28 8 38 8 9 0 15 3 12 8 -7 11 21 21 40 14 9 -4 15 0 15 10 0 15 11 20 37 17 6 -1 14 2 17 7 6 9 -29 14 -38 4z"/>
 <path d="M716 2291 c-3 -5 6 -16 20 -26 25 -16 25 -16 15 4 -14 25 -28 34 -35 22z"/>
 <path d="M307 2283 c-4 -3 -7 -15 -7 -27 0 -20 0 -20 15 0 8 10 15 22 15 27 0 9 -14 9 -23 0z"/>
 <path d="M364 2282 c-5 -4 -14 -20 -19 -36 -6 -16 -18 -30 -28 -32 -26 -4 -33 -12 -19 -26 7 -7 12 -19 11 -27 0 -11 -2 -12 -6 -3 -11 28 -21 9 -18 -35 l4 -48 -12 36 c-10 30 -14 34 -24 23 -7 -7 -13 -18 -13 -24 0 -5 -6 -10 -14 -10 -19 0 -10 -32 28 -98 17 -29 36 -62 42 -73 10 -17 12 -18 17 -5 4 10 13 13 23 9 14 -5 14 -3 2 16 -11 18 -11 23 1 30 12 8 12 14 1 40 -12 29 -14 31 -30 16 -24 -22 -36 -2 -16 27 9 12 16 30 16 39 0 10 5 19 11 21 6 2 12 20 13 40 4 47 25 98 42 98 7 0 15 4 18 9 7 11 -18 21 -30 13z"/>
 <path d="M640 2280 c0 -5 5 -10 10 -10 6 0 10 5 10 10 0 6 -4 10 -10 10 -5 0 -10 -4 -10 -10z"/>
 <path d="M55 2260 c-3 -5 3 -10 14 -10 12 0 24 0 28 -1 4 0 9 4 11 10 5 14 -45 15 -53 1z"/>
 <path d="M570 2260 c0 -5 9 -10 19 -10 18 0 61 -31 107 -78 l22 -22 5 37 c5 44 -6 76 -17 48 -3 -9 -3 -21 0 -27 3 -5 -3 -4 -14 3 -12 7 -18 17 -15 23 3 5 2 6 -3 3 -6 -3 -29 3 -53 14 -50 22 -51 22 -51 9z"/>
 <path d="M400 2250 c-13 -8 -13 -10 2 -10 9 0 20 5 23 10 8 13 -5 13 -25 0z"/>
 <path d="M880 2215 c-7 -8 -9 -15 -4 -15 5 0 2 -5 -6 -10 -8 -5 -10 -10 -5 -10 6 0 17 5 25 10 8 5 11 10 6 10 -6 0 -1 7 10 15 16 12 16 14 3 15 -9 0 -22 -7 -29 -15z"/>
 <path d="M740 2175 c0 -14 5 -25 10 -25 6 0 10 11 10 25 0 14 -4 25 -10 25 -5 0 -10 -11 -10 -25z"/>
 <path d="M370 2154 c-11 -12 -10 -18 3 -32 16 -15 17 -14 17 16 0 36 -2 38 -20 16z"/>
 <path d="M650 2090 c-34 -35 -40 -47 -40 -84 0 -46 17 -106 30 -106 4 0 10 15 12 34 2 19 0 32 -4 30 -4 -3 -8 1 -8 10 0 8 -5 16 -11 18 -7 2 -7 12 2 31 14 30 39 36 40 10 0 -12 4 -8 11 10 5 15 13 27 18 27 12 0 20 28 14 45 -9 23 -22 18 -64 -25z"/>
 <path d="M490 2096 c0 -8 4 -17 9 -20 5 -4 7 3 4 14 -6 23 -13 26 -13 6z"/>
 <path d="M458 2078 c2 -10 8 -15 13 -12 14 8 11 31 -5 31 -8 0 -11 -8 -8 -19z"/>
 <path d="M220 2020 c6 -11 13 -20 16 -20 2 0 0 9 -6 20 -6 11 -13 20 -16 20 -2 0 0 -9 6 -20z"/>
 <path d="M586 2020 c-4 -14 -5 -52 -4 -85 2 -42 -1 -60 -9 -60 -16 0 -17 -11 -3 -33 11 -16 11 -16 6 1 -3 9 -1 17 4 17 6 0 10 -4 10 -10 0 -25 16 -6 19 23 4 39 4 37 -7 112 -7 48 -10 55 -16 35z"/>
 <path d="M808 2000 c6 -8 12 -22 12 -32 0 -10 5 -18 11 -18 6 0 8 -10 5 -22 -3 -13 -3 -17 0 -10 5 10 9 10 20 1 8 -6 12 -15 9 -19 -3 -4 2 -13 9 -19 20 -17 32 24 14 46 -11 14 -11 16 1 8 10 -5 12 -4 7 3 -10 17 -26 15 -26 -4 0 -8 -4 -13 -9 -10 -5 3 -7 16 -3 28 4 17 2 20 -12 15 -9 -4 -15 -3 -12 2 3 4 -4 17 -17 27 -12 10 -16 12 -9 4z"/>
 <path d="M544 1950 c0 -11 6 -20 13 -20 15 0 15 2 7 24 -9 22 -20 20 -20 -4z"/>
 <path d="M500 1935 c0 -8 7 -15 16 -15 14 0 14 3 4 15 -7 8 -14 15 -16 15 -2 0 -4 -7 -4 -15z"/>
 <path d="M250 1930 c8 -5 20 -10 25 -10 6 0 3 5 -5 10 -8 5 -19 10 -25 10 -5 0 -3 -5 5 -10z"/>
 <path d="M677 1907 c-15 -10 -16 -21 -10 -66 5 -30 13 -55 18 -55 17 -2 17 42 1 74 -13 27 -13 31 2 39 9 5 14 12 11 15 -3 3 -13 0 -22 -7z"/>
 <path d="M274 1899 c-3 -6 -1 -16 5 -22 8 -8 11 -5 11 11 0 24 -5 28 -16 11z"/>
 <path d="M240 1827 l5 -62 3 54 c2 30 0 58 -5 62 -4 4 -6 -20 -3 -54z"/>
 <path d="M310 1861 c0 -12 39 -35 46 -28 3 2 -7 12 -21 21 -14 9 -25 12 -25 7z"/>
 <path d="M440 1850 c-13 -8 -12 -10 3 -10 9 0 17 5 17 10 0 12 -1 12 -20 0z"/>
 <path d="M300 1831 c0 -7 -5 -9 -12 -5 -7 5 -8 3 -3 -5 5 -9 10 -10 18 -2 6 6 8 14 4 18 -4 3 -7 1 -7 -6z"/>
 <path d="M758 1786 c2 -19 -1 -43 -7 -53 -9 -16 -11 -14 -11 12 -1 17 -5 39 -10 50 -7 17 -9 16 -9 -10 -1 -44 9 -75 25 -75 8 0 22 -8 32 -18 28 -28 49 -33 64 -14 11 13 11 14 -1 7 -9 -5 -12 -4 -7 3 11 18 14 88 5 103 -6 9 -9 -1 -11 -31 -1 -44 -1 -44 -5 -7 -2 20 -8 37 -14 37 -5 0 -9 -17 -10 -37 -1 -37 -1 -38 -8 -8 -7 28 -28 75 -34 75 -2 0 -1 -15 1 -34z"/>
 <path d="M305 1800 c-9 -15 -1 -23 21 -18 15 3 16 4 1 16 -11 9 -17 10 -22 2z"/>
 <path d="M660 1777 c0 -11 49 -100 49 -89 1 17 -28 80 -40 88 -5 3 -9 4 -9 1z"/>
 <path d="M280 1686 c0 -9 5 -16 10 -16 6 0 10 4 10 9 0 6 -4 13 -10 16 -5 3 -10 -1 -10 -9z"/>
 <path d="M740 1684 c0 -8 5 -12 10 -9 6 3 10 10 10 16 0 5 -4 9 -10 9 -5 0 -10 -7 -10 -16z"/>
 <path d="M835 1650 c-21 -24 -28 -50 -13 -50 5 0 8 6 5 13 -2 6 5 22 16 35 11 12 18 22 15 22 -3 0 -13 -9 -23 -20z"/>
 <path d="M144 1596 c-35 -23 -59 -63 -69 -113 -10 -49 9 -40 23 11 6 24 18 50 26 57 33 30 44 37 61 40 15 3 16 6 4 15 -10 8 -22 6 -45 -10z"/>
 <path d="M779 1579 c-6 -13 -7 -19 -1 -15 6 3 12 0 15 -6 2 -7 8 -9 13 -5 5 4 2 12 -5 16 -7 5 -10 14 -7 20 4 6 5 11 2 11 -3 0 -10 -10 -17 -21z"/>
 <path d="M420 1577 c0 -2 15 -16 33 -33 l32 -29 -29 33 c-28 30 -36 37 -36 29z"/>
 <path d="M184 1549 c-10 -12 -19 -35 -19 -53 -1 -17 -6 -30 -12 -29 -13 3 -22 -82 -18 -159 4 -60 36 -149 67 -184 10 -11 18 -28 18 -38 0 -15 3 -16 15 -6 13 11 13 14 0 27 -21 20 -19 26 4 14 28 -16 35 14 8 32 -22 15 -22 15 6 10 16 -3 28 -1 28 6 1 6 2 15 3 20 0 6 7 16 14 23 6 6 12 21 12 33 0 11 7 33 15 48 8 15 10 25 5 22 -5 -3 -12 7 -16 22 -3 15 -10 42 -15 58 -8 27 -7 28 5 12 14 -18 14 -18 19 0 3 10 3 -4 1 -32 l-3 -50 14 55 c7 30 12 56 9 59 -2 2 -4 -1 -4 -7 0 -6 -11 -9 -25 -6 -20 4 -27 -1 -36 -23 -11 -28 -2 -114 16 -158 9 -19 8 -19 -15 -4 -54 36 -85 205 -48 261 24 37 6 44 -31 12 -36 -30 -40 -24 -10 18 25 35 20 47 -7 17z m41 -291 c10 -20 22 -35 27 -32 4 3 5 -3 1 -12 -4 -11 -2 -15 4 -11 6 4 14 0 17 -9 3 -8 2 -12 -4 -9 -6 3 -10 1 -10 -5 0 -7 -7 -7 -22 1 -29 15 -39 30 -33 48 3 7 1 19 -3 25 -26 33 -41 98 -35 143 6 41 8 44 14 23 7 -24 7 -24 9 5 2 17 6 -6 10 -50 4 -44 15 -97 25 -117z m68 87 c4 -8 3 -16 -1 -19 -4 -3 -9 4 -9 15 -2 23 3 25 10 4z"/>
 <path d="M747 1551 c-4 -17 -3 -21 5 -13 5 5 8 16 6 23 -3 8 -7 3 -11 -10z"/>
 <path d="M270 1535 c13 -14 26 -25 28 -25 3 0 -5 11 -18 25 -13 14 -26 25 -28 25 -3 0 5 -11 18 -25z"/>
 <path d="M755 1499 c-11 -17 0 -20 21 -4 17 13 17 14 2 15 -9 0 -20 -5 -23 -11z"/>
 <path d="M737 1422 c-20 -22 -20 -67 1 -50 10 9 10 13 0 19 -9 6 -8 13 6 28 11 12 17 21 14 21 -3 0 -12 -8 -21 -18z"/>
 <path d="M676 1277 c-14 -11 -13 -12 9 -13 14 -1 25 2 25 6 0 16 -17 19 -34 7z"/>
 <path d="M80 1168 c0 -21 42 -102 68 -130 24 -26 50 -29 36 -5 -4 7 -4 9 1 5 4 -4 14 -3 22 4 11 9 8 14 -17 29 -36 22 -44 24 -34 7 6 -9 3 -9 -9 0 -9 8 -22 29 -29 48 -6 19 -16 34 -21 34 -4 0 -5 5 -2 10 3 6 1 10 -4 10 -6 0 -11 -5 -11 -12z"/>
 </g>

</svg>