<!DOCTYPE svg PUBLIC "-//W3C//DTD SVG 20010904//EN" "http://www.w3.org/TR/2001/REC-SVG-20010904/DTD/svg10.dtd">
<svg version="1.0" xmlns="http://www.w3.org/2000/svg" width="125px" height="250px" viewBox="0 0 1250 2500" preserveAspectRatio="xMidYMid meet">
<g id="layer101" fill="#1e2325" stroke="none">
 <path d="M656 2361 c-4 -5 0 -11 6 -14 7 -3 -36 -3 -97 -2 -130 4 -151 0 -159 -27 -4 -17 -8 -19 -19 -10 -10 9 -19 7 -35 -9 -27 -24 -27 -21 -1 -72 19 -36 21 -51 15 -127 -5 -66 -2 -102 12 -160 11 -41 25 -100 32 -130 7 -30 26 -86 42 -124 15 -38 28 -82 28 -99 0 -16 -18 -65 -40 -109 -22 -44 -40 -91 -40 -105 0 -33 -14 -22 -39 32 -24 51 -16 95 17 95 35 0 82 30 83 53 2 40 -2 62 -15 72 -7 6 -11 16 -9 22 7 18 -19 25 -50 14 -24 -9 -25 -8 -21 15 3 18 0 24 -14 24 -25 0 -62 -28 -62 -47 0 -25 -53 -112 -72 -116 -26 -7 -22 -45 12 -123 17 -37 29 -72 27 -78 -2 -6 3 -16 12 -23 14 -11 13 -12 -7 -13 -13 0 -20 -4 -17 -10 3 -5 15 -10 26 -10 10 0 19 -4 19 -10 0 -5 -10 -10 -22 -10 -17 0 -19 -3 -9 -9 7 -5 10 -14 7 -20 -5 -7 1 -11 13 -11 23 0 28 -28 11 -60 -8 -15 -6 -22 11 -33 13 -9 16 -17 10 -22 -21 -12 -12 -35 15 -35 22 0 24 -3 18 -22 -3 -13 -11 -24 -15 -26 -5 -2 -9 -10 -9 -18 0 -8 -5 -23 -12 -33 -9 -15 -9 -23 2 -35 19 -24 22 -85 5 -103 -20 -19 -19 -33 1 -33 12 0 15 -6 9 -23 -15 -49 -17 -77 -5 -77 7 0 10 -7 6 -15 -3 -9 1 -18 9 -21 8 -4 15 -10 15 -16 0 -5 11 -19 25 -32 15 -14 25 -34 25 -50 0 -34 18 -69 31 -61 5 4 9 20 9 36 0 26 2 29 19 19 11 -5 38 -9 60 -7 l41 3 0 -38 c0 -21 4 -38 9 -38 14 0 41 41 41 62 0 13 8 18 28 18 15 0 34 6 41 12 10 11 16 8 31 -12 15 -20 20 -22 34 -11 9 7 16 18 16 24 0 6 14 23 31 38 25 22 30 31 20 42 -8 11 -7 27 8 68 20 60 21 63 21 83 0 8 10 16 22 18 34 5 35 36 1 50 -22 9 -24 12 -10 15 19 5 22 18 7 28 -15 10 -12 46 7 67 15 17 15 19 0 36 -21 23 -22 43 -3 36 19 -7 30 14 16 31 -9 11 -8 19 3 36 9 12 13 28 10 35 -3 9 2 14 17 14 20 0 21 2 9 17 -10 11 -10 14 -1 9 8 -5 12 -1 12 12 0 18 50 96 76 117 11 10 22 45 28 95 2 14 9 43 15 65 24 86 8 201 -33 235 -9 7 -16 21 -16 31 0 11 -4 19 -10 19 -5 0 -10 24 -10 53 0 37 -3 48 -10 37 -5 -8 -10 -36 -10 -62 0 -42 -3 -48 -21 -48 -17 0 -20 -4 -15 -25 4 -15 -1 -35 -12 -55 l-19 -30 -13 150 -13 150 30 67 c29 64 65 167 77 224 3 15 -1 34 -10 48 -15 21 -15 23 2 36 17 12 17 15 4 29 -10 10 -35 15 -80 15 -129 1 -201 -3 -183 -10 17 -7 17 -8 0 -8 -10 -1 -20 6 -23 14 -7 17 -20 20 -28 6z m-56 -312 c0 -115 -4 -208 -8 -205 -5 3 -21 23 -36 45 -27 39 -28 44 -27 161 1 66 6 133 12 148 12 30 38 62 51 62 4 0 8 -95 8 -211z m128 197 c65 -33 66 -99 7 -278 -19 -59 -35 -114 -35 -123 0 -23 -33 -85 -45 -85 -29 0 -32 24 -28 223 4 217 9 271 23 262 5 -3 11 -1 15 5 9 14 31 13 63 -4z m182 -665 c9 -28 9 -43 1 -59 -6 -11 -14 -45 -17 -77 -6 -46 -14 -65 -48 -105 l-41 -49 -3 49 c-2 39 2 57 23 88 30 45 55 121 55 164 0 40 15 35 30 -11z"/>
 </g>
<g id="layer102" fill="#723b3a" stroke="none">
 <path d="M640 2354 c-14 -7 -39 -14 -57 -14 -17 0 -35 -6 -39 -12 -4 -7 -4 -10 1 -6 4 4 14 0 22 -8 9 -8 23 -12 34 -9 10 3 35 2 55 -4 33 -9 39 -8 51 9 8 11 19 18 24 14 6 -3 5 -11 -2 -21 -10 -12 -10 -19 1 -36 13 -22 13 -22 -8 -4 -22 20 -75 16 -89 -6 -4 -7 -11 -68 -14 -137 l-7 -125 3 146 2 146 -23 -5 c-14 -2 -30 -17 -39 -35 -20 -41 -19 -45 6 -13 11 14 25 26 30 26 5 0 9 -87 9 -209 0 -181 -2 -209 -15 -207 -8 1 -21 8 -28 16 -9 10 -9 11 1 6 15 -9 16 10 1 20 -6 3 -17 20 -25 38 -7 17 -13 25 -14 18 0 -7 4 -21 9 -31 7 -12 5 -26 -4 -45 -11 -20 -12 -33 -5 -46 14 -26 12 -34 -4 -21 -18 16 -26 57 -12 71 8 8 7 13 -4 20 -11 7 -11 10 -2 10 7 0 11 4 8 9 -3 5 -3 23 0 41 5 22 9 28 15 18 5 -7 8 34 8 97 -1 70 -4 101 -9 85 -4 -14 -8 -20 -9 -13 -1 18 -31 4 -32 -16 -1 -14 -12 20 -23 68 -4 18 42 67 60 63 8 -2 14 2 14 8 0 5 -11 10 -25 10 -16 0 -25 6 -25 15 0 21 -27 19 -40 -2 -8 -13 -13 -14 -16 -5 -7 14 -44 16 -44 2 0 -5 -4 -10 -10 -10 -5 0 -10 7 -10 15 0 8 7 15 16 15 8 0 12 4 9 10 -7 11 -42 -8 -50 -28 -3 -7 4 -30 14 -50 13 -25 20 -68 24 -132 3 -57 2 -79 -2 -55 l-8 40 -2 -34 c-1 -31 22 -142 56 -269 8 -29 19 -50 24 -47 5 3 6 0 4 -8 -3 -7 2 -31 11 -53 19 -42 35 -146 22 -138 -13 8 -71 -119 -74 -161 -2 -39 -14 -55 -20 -25 -1 8 -12 33 -24 55 -12 22 -18 31 -15 20 3 -11 3 -16 -2 -12 -4 5 -8 25 -9 45 -2 25 0 31 5 18 7 -19 8 -19 13 2 4 13 14 22 26 22 24 0 82 29 82 41 0 5 -11 2 -25 -7 -23 -15 -25 -15 -19 0 3 9 10 13 16 10 5 -3 12 3 15 15 3 11 9 19 13 16 12 -7 -1 38 -14 50 -6 6 -11 17 -11 25 0 8 -8 15 -18 16 -13 2 -14 1 -2 -3 18 -5 15 -25 -5 -31 -7 -3 -10 0 -7 5 7 11 -34 33 -58 33 -8 0 -15 5 -15 11 0 6 9 9 20 6 11 -3 20 -1 20 4 0 14 -33 11 -57 -6 -17 -12 -21 -22 -17 -44 4 -16 1 -32 -5 -35 -7 -5 -9 -1 -5 11 3 10 -3 3 -15 -15 -12 -18 -18 -38 -15 -44 5 -7 2 -8 -6 -3 -9 6 -12 4 -8 -7 4 -10 0 -14 -16 -14 -33 1 -32 -37 5 -120 17 -41 29 -77 26 -81 -4 -3 1 -12 11 -19 16 -12 15 -13 -6 -14 -13 0 -20 -4 -17 -10 3 -5 15 -10 26 -10 10 0 19 -4 19 -10 0 -5 -10 -10 -22 -10 -17 0 -19 -3 -9 -9 7 -5 10 -14 7 -20 -4 -7 1 -11 13 -11 10 0 22 6 24 13 3 6 3 -4 0 -23 -3 -19 -10 -43 -14 -52 -7 -12 -3 -21 12 -31 13 -9 16 -17 10 -22 -21 -12 -12 -35 15 -35 22 0 24 -3 18 -22 -3 -13 -11 -24 -15 -26 -5 -2 -9 -10 -9 -18 0 -8 -5 -23 -12 -33 -9 -15 -9 -23 2 -35 19 -24 22 -85 5 -103 -32 -31 -14 -43 24 -17 22 16 23 16 16 -5 -5 -17 -2 -21 15 -21 11 0 23 7 26 15 8 19 33 19 40 1 3 -8 12 -12 21 -9 8 3 19 0 23 -7 5 -8 16 -15 24 -16 9 -1 14 1 11 6 -3 4 2 10 10 13 10 4 12 1 8 -11 -6 -15 -5 -15 10 -3 9 7 14 18 10 24 -4 6 -1 7 8 1 8 -5 16 -9 19 -9 26 -4 49 -18 43 -28 -4 -7 1 -6 10 2 14 11 15 16 5 29 -10 13 -10 14 0 8 17 -10 15 -1 -4 18 -16 17 -59 22 -49 7 3 -5 1 -13 -5 -16 -6 -4 -9 -1 -8 6 2 6 -3 14 -11 17 -8 3 -11 0 -7 -7 4 -6 3 -11 -2 -11 -10 0 -26 29 -24 43 1 4 -5 7 -14 7 -8 0 -12 5 -9 10 3 6 2 10 -2 10 -5 0 -8 18 -8 40 l0 40 39 -38 c26 -25 36 -31 31 -17 -4 11 -10 31 -13 45 -3 14 -16 41 -29 60 -12 19 -23 48 -23 65 -1 16 -11 42 -23 58 l-23 27 7 -52 c5 -29 11 -67 14 -84 6 -27 3 -32 -17 -39 -12 -4 -26 -7 -30 -6 -5 1 -8 -6 -8 -15 0 -8 5 -12 10 -9 6 3 10 1 10 -4 0 -6 7 -11 16 -11 8 0 12 -5 9 -10 -4 -7 -14 -6 -28 2 -12 7 -25 11 -29 10 -4 -1 -4 6 -1 15 4 10 2 14 -5 10 -6 -4 -13 1 -16 10 -3 10 -4 1 -1 -20 3 -27 1 -35 -8 -30 -7 4 -21 9 -32 10 -18 3 -18 1 4 -17 14 -12 18 -20 10 -20 -11 0 -11 -3 1 -10 13 -9 13 -11 0 -19 -17 -12 -34 9 -20 23 6 6 2 19 -13 34 -20 21 -20 24 -5 33 10 6 15 16 12 27 -5 14 -4 14 4 2 8 -10 8 -18 1 -27 -8 -9 -5 -11 10 -10 24 2 27 19 7 37 -11 9 -12 18 -5 37 5 13 7 29 3 34 -3 5 0 9 7 9 8 0 9 -12 4 -37 -6 -37 -6 -38 10 -15 15 21 15 25 1 47 -9 14 -23 25 -31 25 -8 0 -15 4 -15 10 0 6 9 6 23 2 48 -17 83 5 90 58 3 25 14 48 29 61 12 11 17 18 11 14 -9 -4 -11 -1 -6 12 6 16 5 17 -13 3 -18 -14 -18 -14 -5 3 9 12 17 14 26 7 12 -10 29 14 38 55 5 19 5 19 12 -3 7 -21 8 -21 21 -5 7 10 14 30 14 46 0 15 6 27 13 27 8 0 7 4 -3 10 -13 9 -7 14 13 11 4 0 7 9 7 22 1 19 3 17 19 -12 12 -23 20 -30 24 -20 3 8 6 -2 7 -21 2 -53 53 -175 73 -174 12 1 14 -3 6 -23 -6 -17 -5 -25 5 -29 8 -3 12 -16 9 -32 -1 -15 -1 -22 3 -15 10 22 31 3 27 -25 -1 -15 0 -21 3 -14 10 21 24 13 24 -13 0 -19 4 -23 18 -18 14 5 15 4 4 -8 -11 -12 -15 -11 -28 5 -8 11 -14 14 -14 7 0 -7 -5 -9 -12 -5 -7 4 -8 3 -4 -5 4 -6 12 -9 17 -6 13 9 11 -9 -3 -25 -11 -13 -11 -13 2 -3 19 18 33 16 26 -2 -5 -15 4 -19 34 -16 11 1 10 -3 -4 -14 -14 -10 -15 -15 -6 -15 11 0 11 -3 2 -12 -17 -17 -15 -31 3 -25 8 4 17 2 20 -3 4 -6 -1 -10 -9 -10 -21 0 -29 -17 -10 -24 8 -3 12 -2 9 4 -3 6 1 10 9 10 18 0 21 16 6 25 -15 10 -12 46 6 67 14 14 14 20 4 33 -7 9 -15 13 -18 10 -3 -2 0 -10 6 -17 8 -10 5 -13 -14 -13 -13 0 -24 3 -24 8 0 4 4 7 10 7 5 0 12 11 16 24 3 15 11 23 19 20 19 -7 29 14 15 31 -9 11 -8 19 3 36 9 12 13 28 10 35 -3 9 2 14 17 14 20 0 21 2 9 17 -10 11 -10 14 -1 9 8 -5 12 -1 12 12 0 10 14 38 30 60 17 23 29 45 29 49 -3 19 2 33 12 33 8 0 8 -5 -1 -15 -9 -11 -9 -15 -1 -15 6 0 13 6 15 13 2 6 9 29 15 50 10 31 10 41 -1 54 -11 14 -11 16 1 8 11 -6 13 -3 9 13 -4 13 -2 20 4 16 6 -4 7 9 4 33 -5 28 -4 33 3 18 7 -14 9 0 9 52 -1 39 -5 78 -10 85 -6 9 -7 5 -3 -12 8 -33 -10 -5 -19 30 -6 19 -5 21 3 10 6 -8 11 -10 11 -4 0 6 -9 19 -20 29 -11 10 -20 26 -20 37 0 10 -4 18 -10 18 -5 0 -10 24 -10 53 0 37 -3 48 -10 37 -5 -8 -10 -36 -10 -62 0 -42 -3 -48 -21 -48 -18 0 -20 -4 -15 -26 4 -15 2 -32 -5 -40 -16 -19 -20 -84 -8 -104 9 -12 9 -11 4 5 -3 11 -3 16 2 11 9 -9 11 -76 2 -70 -12 7 -20 -28 -14 -65 4 -29 3 -32 -5 -16 -8 16 -9 12 -7 -22 1 -23 -1 -39 -5 -37 -7 5 -12 -9 -10 -27 1 -4 -11 -17 -26 -30 l-27 -24 20 25 c16 21 15 21 -8 -3 -15 -15 -25 -33 -21 -40 5 -8 4 -9 -4 -2 -6 6 -13 33 -15 60 -3 48 -3 48 -5 -12 -1 -39 2 -63 9 -63 5 0 7 -5 4 -10 -14 -23 -25 5 -25 64 0 42 5 69 16 82 8 10 12 13 8 5 -5 -10 -3 -12 5 -7 7 5 10 15 7 23 -3 8 -1 11 4 8 14 -9 53 82 47 106 -3 10 -1 17 4 13 5 -3 9 10 9 30 0 19 3 36 8 38 4 2 6 30 4 62 -3 41 -7 55 -13 45 -6 -9 -8 9 -4 51 3 44 2 57 -4 40 -6 -16 -7 3 -3 55 4 58 13 96 34 140 16 35 25 68 22 79 -4 12 -2 16 5 11 8 -4 10 1 6 17 -3 13 -2 34 3 48 9 23 -4 90 -21 106 -4 4 -7 -28 -8 -72 0 -43 -5 -88 -10 -99 -7 -15 -8 -11 -4 16 3 20 1 47 -3 60 -9 23 -9 23 -16 3 -3 -12 -18 -26 -31 -32 -14 -7 -34 -26 -44 -44 l-20 -32 6 57 c4 41 2 62 -8 74 -13 16 -12 17 4 4 10 -8 17 -27 17 -48 l0 -35 35 33 c42 40 63 85 46 102 -16 16 -14 27 4 21 10 -4 15 0 15 14 0 16 -6 20 -35 19 -19 -1 -35 -5 -35 -9 0 -13 -28 -9 -33 5 -3 9 -9 8 -22 -5 -16 -15 -16 -19 -4 -35 13 -16 12 -17 -2 -5 -23 18 -30 70 -10 74 43 9 204 2 208 -9 2 -6 -5 -14 -16 -18 -18 -5 -19 -9 -8 -28 14 -24 15 -86 2 -132 -4 -16 -5 -28 -2 -25 3 3 13 32 22 65 13 53 13 61 -1 83 -14 22 -14 25 3 37 16 12 16 15 3 29 -10 10 -35 15 -80 15 -129 1 -201 -3 -183 -10 17 -7 17 -8 0 -8 -10 -1 -20 6 -23 14 -7 18 -11 18 -44 -1z m26 -23 c0 -13 -5 -17 -16 -13 -30 10 -33 16 -14 23 28 11 30 11 30 -10z m63 -86 c16 -8 32 -11 36 -7 5 4 5 1 1 -6 -4 -7 -3 -19 3 -26 6 -7 10 -46 8 -89 -1 -43 -4 -72 -6 -65 -8 24 -63 -159 -66 -220 -2 -47 -7 -67 -21 -77 -24 -18 -64 -19 -65 -2 0 6 -4 3 -9 -8 -7 -16 -8 -12 -8 17 1 20 -3 43 -8 51 -5 7 -2 5 7 -4 15 -17 17 -14 23 43 3 34 6 127 6 207 0 147 5 195 20 186 5 -3 11 -1 15 5 9 14 31 13 64 -5z m-212 -157 c-3 -7 -5 -2 -5 12 0 14 2 19 5 13 2 -7 2 -19 0 -25z m384 -55 c-8 -15 -10 -15 -11 -2 0 17 10 32 18 25 2 -3 -1 -13 -7 -23z m-145 -70 c-18 -33 -21 -26 -6 13 6 15 13 24 16 21 3 -3 -1 -18 -10 -34z m117 15 c-4 -7 -10 -33 -14 -58 l-6 -45 -2 38 c-1 35 12 77 25 77 3 0 2 -6 -3 -12z m-463 -77 c0 -32 -6 -24 -14 19 -4 25 -3 31 4 20 5 -8 10 -26 10 -39z m605 -199 c-3 -3 -14 3 -25 13 -11 10 -28 15 -40 12 -11 -3 -20 -1 -20 3 0 18 36 15 62 -4 15 -11 26 -22 23 -24z m-545 -17 c0 -5 -5 -3 -10 5 -5 8 -10 20 -10 25 0 6 5 3 10 -5 5 -8 10 -19 10 -25z m470 -20 c-7 -8 -16 -15 -21 -15 -5 0 -6 7 -3 15 4 8 13 15 21 15 13 0 13 -3 3 -15z m-441 -55 c0 -8 -6 0 -14 19 -8 18 -15 36 -15 40 1 13 29 -45 29 -59z m458 8 c-3 -7 -5 -2 -5 12 0 14 2 19 5 13 2 -7 2 -19 0 -25z m-556 -31 l-24 -22 19 27 c10 14 21 24 23 22 3 -3 -6 -15 -18 -27z m49 13 c0 -11 -4 -20 -10 -20 -5 0 -10 9 -10 20 0 11 5 20 10 20 6 0 10 -9 10 -20z m-233 -117 c-3 -10 -5 -4 -5 12 0 17 2 24 5 18 2 -7 2 -21 0 -30z m231 -28 c-12 -24 -23 -43 -26 -41 -4 5 36 86 43 86 3 0 -5 -20 -17 -45z m-31 -87 c-3 -7 -5 -2 -5 12 0 14 2 19 5 13 2 -7 2 -19 0 -25z m413 -208 c-6 -11 -12 -20 -14 -20 -2 0 -2 9 1 20 3 11 9 20 15 20 5 0 4 -9 -2 -20z m-508 -7 c-6 -2 -10 -9 -7 -14 4 -5 -1 -6 -9 -3 -20 8 -11 24 12 23 11 0 12 -2 4 -6z m557 -14 c-8 -5 -10 -9 -5 -9 16 0 -26 -40 -43 -41 -10 0 -12 -2 -3 -6 6 -2 12 -12 12 -20 0 -12 -5 -10 -20 7 -26 30 -21 45 16 45 16 0 29 6 30 13 1 6 2 17 3 23 0 5 6 7 12 3 8 -4 7 -9 -2 -15z m-536 -56 c-7 -2 -19 -2 -25 0 -7 3 -2 5 12 5 14 0 19 -2 13 -5z m64 -191 c9 2 18 -3 20 -9 3 -8 -5 -13 -21 -13 -22 0 -26 4 -25 28 1 17 3 20 6 9 2 -10 12 -16 20 -15z m-47 -35 c0 -2 -12 -14 -27 -28 l-26 -24 19 27 c16 23 34 36 34 25z"/>
 <path d="M681 1792 c-14 -34 -29 -40 -51 -19 -12 10 -12 9 -1 -5 7 -10 19 -18 26 -18 16 0 48 47 43 62 -2 6 -10 -3 -17 -20z"/>
 <path d="M445 2339 c5 -8 1 -9 -13 -5 -14 5 -21 1 -25 -14 -3 -12 -2 -20 1 -18 45 24 87 38 103 33 10 -4 19 -2 19 2 0 5 -21 10 -46 12 -33 1 -44 -1 -39 -10z"/>
 <path d="M470 2179 c0 -18 2 -19 15 -9 8 7 15 16 15 21 0 5 -7 9 -15 9 -9 0 -15 -9 -15 -21z"/>
 <path d="M520 1251 c-5 -11 -10 -25 -10 -31 0 -6 -7 -18 -15 -26 -8 -9 -15 -23 -15 -32 0 -13 2 -14 9 -4 6 9 10 1 15 -25 3 -21 21 -65 40 -97 l34 -60 -3 62 c-1 34 -8 68 -14 76 -6 8 -11 18 -10 22 1 5 1 11 -1 14 -1 3 -4 16 -6 30 -3 13 -9 29 -14 34 -5 5 -5 18 0 32 11 29 5 32 -10 5z"/>
 <path d="M555 1250 c3 -14 11 -41 16 -60 8 -32 8 -31 5 13 -2 27 -9 54 -16 60 -10 10 -11 7 -5 -13z"/>
 <path d="M390 1080 c0 -6 7 -10 15 -10 8 0 15 2 15 4 0 2 -7 6 -15 10 -8 3 -15 1 -15 -4z"/>
 <path d="M437 1028 c-8 -30 -5 -30 16 -2 14 19 15 24 4 24 -8 0 -17 -10 -20 -22z"/>
 <path d="M815 850 c13 -13 12 -16 -7 -28 -23 -13 -23 -13 -1 -9 15 3 20 1 16 -9 -3 -8 0 -14 6 -14 6 0 11 6 11 14 0 8 10 16 23 18 14 2 22 10 22 23 0 16 -7 20 -42 20 -37 0 -40 -2 -28 -15z m63 -2 c-2 -6 -10 -13 -16 -14 -7 -1 -8 0 -2 3 5 2 8 9 4 14 -3 5 0 9 6 9 7 0 10 -5 8 -12z"/>
 <path d="M703 789 c-1 -17 -7 -37 -13 -44 -6 -7 -7 -21 -3 -30 5 -15 3 -17 -10 -12 -15 6 -16 4 -6 -16 7 -12 12 -23 11 -24 -10 -14 7 -23 53 -28 54 -7 55 -8 35 -25 -11 -9 -20 -24 -20 -33 0 -18 -18 -32 -28 -22 -3 3 0 10 8 15 12 8 10 14 -14 35 -36 31 -47 33 -18 2 28 -29 28 -41 2 -25 -17 11 -22 10 -30 -2 -9 -13 -12 -13 -24 2 -7 10 -15 15 -18 13 -3 -3 -11 1 -17 9 -10 12 -9 14 7 9 22 -5 38 23 22 42 -5 6 -7 15 -4 18 11 10 13 58 3 51 -5 -3 -9 1 -9 8 0 10 -3 9 -9 -2 -6 -8 -8 -17 -5 -21 2 -4 -2 -9 -9 -12 -10 -4 -13 1 -10 16 2 12 0 33 -6 47 l-10 25 -1 -25 c-1 -14 -4 -19 -7 -12 -2 6 -9 12 -14 12 -6 0 -7 -5 -4 -10 3 -6 -3 -14 -14 -18 -11 -4 -20 -10 -20 -14 -2 -16 -16 -10 -27 11 l-11 22 -7 -23 c-6 -23 -7 -23 -18 -3 -7 11 -13 26 -14 34 -2 7 -8 19 -14 25 -8 8 -9 6 -4 -8 5 -13 4 -17 -4 -13 -6 4 -13 -1 -15 -10 -4 -17 -5 -17 -6 0 0 9 -5 18 -11 18 -5 1 -14 2 -19 3 -6 0 -16 7 -22 13 -10 10 -16 7 -26 -18 -16 -38 -17 -69 -2 -69 6 0 8 -7 5 -15 -3 -9 1 -18 9 -21 8 -4 15 -10 15 -16 0 -5 11 -19 25 -32 15 -14 25 -34 25 -50 0 -15 5 -36 11 -47 19 -36 30 -9 25 59 l-5 67 19 -25 c21 -27 21 -47 -1 -42 -8 1 -5 -4 6 -13 12 -10 34 -14 62 -12 l43 3 0 -38 c0 -21 4 -38 9 -38 14 0 41 41 41 62 0 13 8 18 28 18 15 0 34 6 41 12 10 11 16 8 31 -12 15 -20 20 -22 34 -11 9 7 16 18 16 24 0 6 14 23 31 38 25 22 30 31 20 42 -8 11 -7 27 8 68 18 53 18 55 0 56 -10 1 -22 -3 -25 -9 -4 -7 -14 -2 -26 13 -19 23 -15 7 5 -19 7 -9 13 -9 24 -1 23 20 26 3 8 -45 -14 -37 -15 -49 -5 -61 7 -9 10 -19 6 -22 -4 -4 -10 -2 -14 4 -4 6 -18 13 -32 15 l-25 5 25 11 c19 8 21 11 7 11 -10 1 -27 -3 -37 -9 -14 -7 -20 -6 -24 7 -9 21 3 31 14 13 8 -12 10 -12 10 4 0 12 5 16 15 12 12 -4 13 -2 2 14 -15 25 -32 26 -23 3 4 -10 4 -14 -1 -10 -13 13 -14 79 -1 71 8 -5 9 -1 5 10 -4 10 -7 20 -7 22 0 2 -3 4 -7 4 -5 0 -9 -14 -10 -31z m-363 -28 c-19 -37 -9 -46 16 -16 25 29 25 29 19 5 -4 -14 -12 -31 -18 -38 -8 -10 -7 -16 3 -22 8 -5 11 -12 8 -15 -10 -10 -28 4 -28 21 0 8 -4 14 -10 14 -5 0 -10 7 -10 16 0 17 18 54 26 54 2 0 0 -9 -6 -19z m294 -71 c-6 -6 -10 -3 -10 10 0 13 4 16 10 10 7 -7 7 -13 0 -20z m-236 -40 c-7 -11 -14 -16 -16 -10 -2 6 -9 7 -15 3 -7 -4 -6 1 2 10 7 9 20 17 27 17 12 0 12 -4 2 -20z m99 3 c-4 -3 -1 -13 6 -22 11 -14 10 -14 -5 -2 -14 11 -18 11 -18 1 0 -8 -3 -10 -6 -7 -7 6 13 37 24 37 3 0 2 -3 -1 -7z m-83 -28 c-4 -8 -11 -15 -16 -15 -6 0 -5 6 2 15 7 8 14 15 16 15 2 0 1 -7 -2 -15z m106 -44 c-15 -28 -40 -27 -39 2 0 21 1 21 9 2 8 -18 10 -17 22 14 8 19 14 27 16 18 2 -9 -2 -25 -8 -36z m80 1 c0 -15 -2 -15 -10 -2 -13 20 -13 33 0 25 6 -3 10 -14 10 -23z m-40 -1 c0 -5 -7 -12 -16 -15 -14 -5 -15 -4 -4 9 14 17 20 19 20 6z m-130 -47 c0 -8 -4 -12 -10 -9 -5 3 -10 10 -10 16 0 5 5 9 10 9 6 0 10 -7 10 -16z m170 3 c0 -7 -7 -22 -15 -33 -13 -17 -13 -16 -3 14 13 34 18 40 18 19z"/>
 <path d="M462 760 c0 -19 2 -27 5 -17 2 9 2 25 0 35 -3 9 -5 1 -5 -18z"/>
 <path d="M740 745 c7 -9 15 -13 17 -11 7 7 -7 26 -19 26 -6 0 -6 -6 2 -15z"/>
 <path d="M787 733 c-4 -3 -7 -11 -7 -17 0 -6 5 -5 12 2 6 6 9 14 7 17 -3 3 -9 2 -12 -2z"/>
 <path d="M652 623 c-6 -11 -7 -25 -2 -33 6 -10 10 -7 16 13 8 34 -1 46 -14 20z"/>
 </g>
<g id="layer103" fill="#535753" stroke="none">
 <path d="M640 2354 c-14 -7 -39 -14 -57 -14 -17 0 -35 -6 -39 -12 -4 -7 -4 -10 1 -6 4 4 14 0 22 -8 9 -8 23 -12 34 -9 10 3 35 2 55 -4 33 -9 39 -8 51 9 8 11 19 18 24 14 6 -3 5 -11 -2 -21 -10 -12 -10 -19 1 -36 13 -22 13 -22 -8 -4 -22 20 -75 16 -89 -6 -4 -7 -11 -68 -14 -137 l-7 -125 3 146 2 146 -23 -5 c-14 -2 -30 -17 -39 -35 -20 -41 -19 -45 6 -13 11 14 25 26 30 26 5 0 9 -87 9 -209 0 -181 -2 -209 -15 -207 -8 1 -21 8 -28 16 -9 10 -9 11 1 6 15 -9 16 10 1 20 -6 3 -17 20 -25 38 -7 17 -13 25 -14 18 0 -7 4 -21 9 -31 7 -12 6 -26 -3 -42 -7 -15 -10 -33 -5 -44 12 -31 10 -39 -5 -26 -18 15 -26 57 -14 69 6 6 6 12 -1 16 -6 4 -11 12 -11 17 0 6 5 7 12 3 7 -4 8 -3 4 5 -4 6 -4 25 -1 43 5 22 9 27 16 17 5 -9 8 30 7 96 -1 99 -1 104 -8 47 -4 -34 -10 -65 -14 -69 -3 -3 -3 16 0 43 6 46 5 48 -9 29 -9 -11 -17 -16 -17 -11 0 5 -7 3 -15 -4 -12 -10 -15 -10 -15 2 0 8 5 19 11 25 7 7 8 20 3 34 -4 13 -8 28 -9 34 0 16 46 60 61 57 8 -2 14 2 14 9 0 7 -9 9 -21 6 -15 -4 -23 0 -26 14 -7 24 -16 24 -39 2 -13 -13 -19 -14 -22 -5 -4 14 -42 16 -42 2 0 -5 -4 -10 -10 -10 -5 0 -10 7 -10 15 0 8 7 15 16 15 8 0 12 4 9 10 -7 11 -42 -8 -50 -28 -3 -7 4 -31 15 -52 12 -23 20 -59 20 -86 0 -26 3 -44 7 -41 7 8 43 -41 43 -58 0 -5 -5 -3 -10 5 -8 13 -10 13 -10 -1 0 -9 -7 -22 -15 -29 -13 -11 -15 -7 -16 26 -2 34 -3 35 -6 10 -7 -47 62 -330 78 -321 5 3 6 0 4 -8 -3 -7 2 -31 11 -53 19 -42 35 -146 22 -138 -13 8 -71 -119 -74 -161 -2 -42 -15 -55 -20 -20 -2 11 -10 25 -18 31 -9 6 -13 14 -10 17 3 3 1 14 -6 24 -11 17 -11 17 -5 -2 3 -11 3 -16 -2 -12 -4 5 -8 25 -9 45 -2 25 0 31 5 18 7 -19 8 -19 13 2 4 13 14 22 26 22 10 0 33 7 50 16 27 13 31 19 26 41 -5 17 -3 24 4 19 14 -8 3 36 -12 49 -6 6 -11 17 -11 25 0 8 -8 15 -18 16 -12 1 -13 1 -2 -3 20 -6 10 -51 -18 -78 -19 -18 -19 -18 -6 -1 29 39 6 85 -43 86 -10 0 -18 5 -18 11 0 6 9 9 20 6 11 -3 20 -1 20 4 0 14 -33 11 -57 -6 -17 -12 -21 -22 -17 -44 4 -16 1 -32 -5 -35 -7 -5 -9 -1 -5 11 3 10 -3 3 -15 -15 -12 -18 -18 -38 -15 -44 5 -7 2 -8 -6 -3 -9 6 -12 4 -8 -7 4 -10 0 -14 -16 -14 -33 1 -32 -37 5 -120 17 -41 29 -77 26 -81 -4 -3 1 -12 11 -19 16 -12 15 -13 -6 -14 -13 0 -20 -4 -17 -10 3 -5 15 -10 26 -10 10 0 19 -4 19 -10 0 -5 -10 -10 -22 -10 -17 0 -19 -3 -9 -9 7 -5 10 -14 7 -20 -4 -7 1 -11 13 -11 10 0 22 6 24 13 3 6 3 -4 0 -23 -3 -19 -10 -43 -14 -52 -7 -12 -3 -21 12 -31 13 -9 16 -17 10 -22 -21 -12 -12 -35 15 -35 22 0 24 -3 18 -22 -3 -13 -11 -24 -15 -26 -5 -2 -9 -10 -9 -18 0 -8 -5 -23 -12 -33 -9 -15 -9 -23 2 -35 19 -24 22 -85 5 -103 -32 -31 -14 -43 24 -17 22 16 23 16 16 -5 -5 -17 -2 -21 15 -21 11 0 23 7 26 15 8 19 33 19 40 1 3 -8 12 -12 21 -9 8 3 19 0 23 -7 5 -8 16 -15 24 -16 9 -1 14 1 11 6 -3 4 2 10 10 13 10 4 12 1 8 -11 -6 -15 -5 -15 10 -3 9 7 14 18 10 24 -4 6 -1 7 8 1 8 -5 16 -9 19 -9 26 -4 49 -18 43 -28 -4 -7 1 -6 10 2 14 11 15 16 5 29 -10 13 -10 14 0 8 17 -10 15 -1 -4 18 -16 17 -59 22 -49 7 3 -5 1 -13 -5 -16 -6 -4 -9 -1 -8 6 2 6 -3 14 -11 17 -8 3 -11 0 -7 -7 4 -6 3 -11 -2 -11 -10 0 -26 29 -24 43 1 4 -5 7 -14 7 -8 0 -12 5 -9 10 3 6 2 10 -2 10 -5 0 -8 18 -8 40 l0 40 39 -38 c26 -25 36 -31 31 -17 -4 11 -10 31 -13 45 -3 14 -16 41 -29 60 -12 19 -23 48 -23 65 -1 16 -11 42 -23 58 l-23 27 7 -52 c5 -29 11 -67 14 -84 6 -27 3 -32 -17 -39 -12 -4 -26 -7 -30 -6 -5 1 -8 -6 -8 -15 0 -8 5 -12 10 -9 6 3 10 1 10 -4 0 -6 7 -11 16 -11 8 0 12 -5 9 -10 -4 -7 -14 -6 -28 2 -12 7 -25 11 -29 10 -4 -1 -4 6 -1 15 4 10 2 14 -5 10 -6 -4 -13 1 -16 10 -3 10 -4 1 -1 -20 3 -27 1 -35 -8 -30 -7 4 -21 9 -32 10 -18 3 -18 1 4 -17 14 -12 18 -20 10 -20 -11 0 -11 -3 1 -10 13 -9 13 -11 0 -19 -17 -12 -34 9 -20 23 6 6 2 19 -13 34 -20 21 -20 24 -5 33 10 6 15 16 12 27 -5 14 -4 14 4 2 8 -10 8 -18 1 -27 -8 -9 -5 -11 10 -10 24 2 27 19 7 37 -11 9 -12 18 -5 37 5 13 7 29 3 34 -3 5 0 9 7 9 8 0 9 -12 4 -37 -6 -37 -6 -38 10 -15 15 21 15 25 1 47 -9 14 -23 25 -31 25 -8 0 -15 4 -15 10 0 6 9 6 23 2 48 -17 83 5 90 58 3 25 14 48 29 61 12 11 17 18 11 14 -9 -4 -11 -1 -6 12 6 16 5 17 -13 3 -18 -14 -18 -14 -5 3 9 12 17 14 26 7 12 -10 29 14 38 55 5 19 5 19 12 -3 7 -21 8 -21 21 -5 7 10 14 30 14 46 0 15 6 27 13 27 8 0 7 4 -3 10 -13 9 -7 14 13 11 4 0 7 9 7 22 1 19 3 17 19 -12 12 -23 20 -30 24 -20 3 8 6 -2 7 -21 2 -50 55 -175 73 -174 12 1 14 -4 6 -23 -6 -17 -5 -25 5 -29 8 -3 12 -16 9 -32 -1 -15 -1 -22 3 -15 10 22 31 3 27 -25 -1 -15 0 -21 3 -14 10 21 24 13 24 -13 0 -19 4 -23 18 -18 14 5 15 4 4 -8 -11 -12 -15 -11 -28 5 -8 11 -14 14 -14 7 0 -7 -5 -9 -12 -5 -7 4 -8 3 -4 -5 4 -6 12 -9 17 -6 13 9 11 -9 -3 -25 -11 -13 -11 -13 2 -3 19 18 33 16 26 -2 -5 -15 4 -19 34 -16 11 1 10 -3 -4 -14 -14 -10 -15 -15 -6 -15 11 0 11 -3 2 -12 -17 -17 -15 -31 3 -25 8 4 17 2 20 -3 4 -6 -1 -10 -9 -10 -21 0 -29 -17 -10 -24 8 -3 12 -2 9 4 -3 6 1 10 9 10 18 0 21 16 6 25 -15 10 -12 46 6 67 14 14 14 20 4 33 -7 9 -15 13 -18 10 -3 -2 0 -10 6 -17 8 -10 5 -13 -14 -13 -13 0 -24 3 -24 8 0 4 4 7 10 7 5 0 12 11 16 24 3 15 11 23 19 20 19 -7 29 14 15 31 -9 11 -8 19 3 36 9 12 13 28 10 35 -3 9 2 14 17 14 20 0 21 2 9 17 -10 11 -10 14 -1 9 8 -5 12 -1 12 12 0 10 14 38 30 60 17 23 29 45 29 49 -3 19 2 33 12 33 8 0 8 -5 -1 -15 -9 -11 -9 -15 -1 -15 6 0 13 6 15 13 2 6 9 29 15 50 10 31 10 41 -1 54 -11 14 -11 16 1 8 11 -6 13 -3 9 13 -4 13 -2 20 4 16 6 -4 7 9 4 33 -5 28 -4 33 3 18 7 -14 9 0 9 52 -1 39 -5 78 -10 85 -6 8 -7 4 -3 -12 5 -16 4 -22 -3 -15 -5 6 -12 24 -16 40 -5 22 -4 26 4 15 5 -8 10 -10 10 -4 0 6 -9 19 -20 29 -11 10 -20 26 -20 37 0 10 -4 18 -10 18 -5 0 -10 24 -10 53 0 37 -3 48 -10 37 -5 -8 -10 -36 -10 -62 0 -42 -3 -48 -21 -48 -18 0 -20 -4 -15 -26 4 -15 2 -32 -5 -40 -16 -19 -20 -84 -8 -104 9 -12 9 -11 4 5 -3 11 -3 16 2 11 9 -9 11 -76 2 -70 -12 7 -20 -28 -14 -65 4 -29 3 -32 -5 -16 -8 16 -9 12 -7 -22 1 -23 1 -40 -1 -38 -9 8 -82 -87 -76 -98 5 -8 3 -9 -4 -2 -6 6 -13 33 -15 60 -3 48 -3 48 -5 -12 -1 -39 2 -63 9 -63 5 0 7 -5 4 -10 -14 -23 -25 5 -25 64 0 42 5 69 16 82 8 10 12 13 8 5 -5 -10 -3 -12 5 -7 7 5 10 15 7 23 -3 8 -1 11 4 8 16 -10 53 85 54 137 1 33 5 48 15 48 8 0 11 6 7 16 -3 9 -6 37 -7 62 0 37 -2 43 -10 27 -6 -13 -7 3 -4 50 3 47 2 62 -4 45 -6 -16 -7 4 -3 55 4 58 13 96 34 140 16 35 25 68 22 79 -3 10 -2 16 3 13 13 -8 8 152 -5 165 -8 8 -11 -14 -11 -70 0 -49 -6 -93 -15 -113 -12 -26 -14 -28 -11 -9 13 68 13 83 5 103 -5 12 -9 17 -9 11 -1 -16 -36 -54 -50 -54 -6 0 -20 -14 -31 -32 l-19 -32 6 57 c4 41 2 61 -8 73 -13 16 -12 16 8 4 17 -11 20 -20 15 -49 l-5 -36 32 30 c17 17 39 45 48 63 15 30 14 34 -3 54 -19 20 -19 21 4 14 18 -6 22 -3 22 12 0 16 -7 20 -35 19 -19 -1 -35 -5 -35 -9 0 -13 -28 -9 -32 4 -3 9 -10 8 -22 -5 -15 -15 -16 -20 -4 -35 11 -15 11 -16 -3 -4 -23 18 -30 70 -10 74 43 9 204 2 208 -9 2 -6 -5 -14 -16 -18 -18 -5 -19 -9 -8 -28 14 -24 15 -84 2 -132 -4 -16 -5 -28 -2 -25 3 3 13 32 22 65 13 53 13 61 -1 83 -14 22 -14 25 3 37 16 12 16 15 3 29 -10 10 -35 15 -80 15 -129 1 -201 -3 -183 -10 17 -7 17 -8 0 -8 -10 -1 -20 6 -23 14 -7 18 -11 18 -44 -1z m26 -23 c0 -13 -5 -17 -16 -13 -30 10 -33 16 -14 23 28 11 30 11 30 -10z m63 -86 c16 -8 32 -11 36 -7 5 4 5 1 1 -6 -4 -7 -3 -19 3 -26 6 -7 10 -46 8 -88 -1 -42 -4 -72 -7 -67 -10 15 -73 -199 -66 -224 7 -30 -7 -86 -18 -69 -4 7 -2 19 4 27 7 8 10 20 8 26 -2 7 -10 -2 -17 -19 -14 -34 -29 -40 -51 -19 -12 10 -12 9 0 -6 8 -11 21 -16 32 -14 10 3 16 1 12 -4 -3 -5 -17 -9 -31 -9 -14 0 -31 -7 -37 -16 -9 -12 -11 -7 -8 24 2 22 -1 50 -8 63 l-11 24 19 -22 19 -22 7 61 c3 34 6 127 6 207 0 147 5 195 20 186 5 -3 11 -1 15 5 9 14 31 13 64 -5z m160 -237 c-13 -23 -26 -63 -30 -88 l-6 -45 -2 38 c0 21 4 47 9 58 14 24 -5 26 -19 2 -10 -17 -10 -17 -11 0 0 9 5 17 10 17 6 0 10 9 10 20 0 11 5 20 10 20 6 0 10 -8 10 -17 1 -17 1 -17 11 0 5 9 8 21 4 26 -5 8 16 22 23 16 2 -2 -7 -23 -19 -47z m-133 -45 c-18 -33 -21 -26 -6 13 6 15 13 24 16 21 3 -3 -1 -18 -10 -34z m-266 -37 c0 -6 -5 -3 -10 6 -6 10 -19 15 -31 13 -17 -4 -19 -2 -8 11 10 13 14 12 30 -2 11 -10 19 -22 19 -28z m-70 -1 c4 3 3 -6 -3 -19 -7 -14 -12 -24 -13 -23 -1 1 -4 18 -7 37 -5 27 -4 31 4 17 6 -9 14 -15 19 -12z m424 -101 c5 -14 4 -15 -9 -4 -17 14 -19 20 -6 20 5 0 12 -7 15 -16z m171 -122 c-3 -3 -14 3 -25 13 -11 10 -28 15 -40 12 -11 -3 -20 -1 -20 3 0 18 36 15 62 -4 15 -11 26 -22 23 -24z m-545 -17 c0 -5 -5 -3 -10 5 -5 8 -10 20 -10 25 0 6 5 3 10 -5 5 -8 10 -19 10 -25z m470 -20 c-7 -8 -16 -15 -21 -15 -5 0 -6 7 -3 15 4 8 13 15 21 15 13 0 13 -3 3 -15z m-441 -55 c0 -8 -6 0 -14 19 -8 18 -15 36 -15 40 1 13 29 -45 29 -59z m458 8 c-3 -7 -5 -2 -5 12 0 14 2 19 5 13 2 -7 2 -19 0 -25z m-507 -18 c0 -11 -4 -20 -10 -20 -5 0 -10 9 -10 20 0 11 5 20 10 20 6 0 10 -9 10 -20z m339 -55 c0 -5 -4 -3 -9 5 -5 8 -9 22 -9 30 0 16 17 -16 18 -35z m-344 6 c3 -6 -4 -15 -15 -21 -20 -11 -21 -10 -10 9 12 23 16 25 25 12z m-228 -68 c-3 -10 -5 -4 -5 12 0 17 2 24 5 18 2 -7 2 -21 0 -30z m231 -28 c-12 -24 -23 -43 -26 -41 -4 5 36 86 43 86 3 0 -5 -20 -17 -45z m325 16 c3 -14 1 -18 -9 -14 -8 3 -14 11 -14 19 0 21 17 17 23 -5z m-356 -103 c-3 -7 -5 -2 -5 12 0 14 2 19 5 13 2 -7 2 -19 0 -25z m463 -15 c0 -5 -13 -17 -28 -27 l-27 -19 24 26 c26 28 31 32 31 20z m-50 -193 c-6 -11 -12 -20 -14 -20 -2 0 -2 9 1 20 3 11 9 20 15 20 5 0 4 -9 -2 -20z m-508 -7 c-6 -2 -10 -9 -7 -14 4 -5 -1 -6 -9 -3 -20 8 -11 24 12 23 11 0 12 -2 4 -6z m557 -14 c-8 -5 -10 -9 -5 -9 16 0 -26 -40 -43 -41 -10 0 -12 -2 -3 -6 6 -2 12 -12 12 -20 0 -12 -5 -10 -20 7 -26 30 -21 45 16 45 16 0 29 6 30 13 1 6 2 17 3 23 0 5 6 7 12 3 8 -4 7 -9 -2 -15z m-536 -56 c-7 -2 -19 -2 -25 0 -7 3 -2 5 12 5 14 0 19 -2 13 -5z m64 -191 c9 2 18 -3 20 -9 3 -8 -5 -13 -21 -13 -22 0 -26 4 -25 28 1 17 3 20 6 9 2 -10 12 -16 20 -15z m-47 -35 c0 -2 -12 -14 -27 -28 l-26 -24 19 27 c16 23 34 36 34 25z"/>
 <path d="M445 2339 c5 -8 1 -9 -13 -5 -14 5 -21 1 -25 -14 -3 -12 -2 -20 1 -18 45 24 87 38 103 33 10 -4 19 -2 19 2 0 5 -21 10 -46 12 -33 1 -44 -1 -39 -10z"/>
 <path d="M470 2180 c0 -11 2 -20 5 -20 2 0 9 9 15 20 9 16 8 20 -5 20 -8 0 -15 -9 -15 -20z"/>
 <path d="M520 1251 c-5 -11 -10 -25 -10 -31 0 -6 -7 -18 -15 -26 -8 -9 -15 -23 -15 -32 0 -13 2 -14 9 -4 6 9 10 1 15 -25 3 -21 21 -65 40 -97 l34 -60 -3 62 c-1 34 -8 68 -14 76 -6 8 -11 18 -10 22 1 5 1 11 -1 14 -1 3 -4 16 -6 30 -3 13 -9 29 -14 34 -5 5 -5 18 0 32 11 29 5 32 -10 5z"/>
 <path d="M555 1250 c3 -14 11 -41 16 -60 8 -32 8 -31 5 13 -2 27 -9 54 -16 60 -10 10 -11 7 -5 -13z"/>
 <path d="M390 1080 c0 -6 7 -10 15 -10 8 0 15 2 15 4 0 2 -7 6 -15 10 -8 3 -15 1 -15 -4z"/>
 <path d="M437 1028 c-8 -30 -5 -30 16 -2 14 19 15 24 4 24 -8 0 -17 -10 -20 -22z"/>
 <path d="M815 850 c13 -13 12 -16 -7 -28 -23 -13 -23 -13 -1 -9 15 3 20 1 16 -9 -3 -8 0 -14 6 -14 6 0 11 6 11 14 0 8 10 16 23 18 14 2 22 10 22 23 0 16 -7 20 -42 20 -37 0 -40 -2 -28 -15z m63 -2 c-2 -6 -10 -13 -16 -14 -7 -1 -8 0 -2 3 5 2 8 9 4 14 -3 5 0 9 6 9 7 0 10 -5 8 -12z"/>
 <path d="M703 789 c-1 -17 -7 -37 -13 -44 -6 -7 -7 -21 -3 -30 5 -15 3 -17 -10 -12 -15 6 -16 4 -6 -16 7 -12 12 -23 11 -24 -10 -14 7 -23 53 -28 54 -7 55 -8 35 -25 -11 -9 -20 -24 -20 -33 0 -18 -18 -32 -28 -22 -3 3 0 10 8 15 12 8 10 14 -14 35 -36 31 -47 33 -18 2 28 -29 28 -41 2 -25 -17 11 -22 10 -30 -2 -9 -13 -12 -13 -24 2 -7 10 -15 15 -18 13 -3 -3 -11 1 -17 9 -10 12 -9 14 7 9 22 -5 38 23 22 42 -5 6 -7 15 -4 18 11 10 13 58 3 51 -5 -3 -9 1 -9 8 0 10 -3 9 -9 -2 -6 -8 -8 -17 -5 -21 2 -4 -2 -9 -9 -12 -10 -4 -13 1 -10 16 2 12 0 33 -6 47 l-10 25 -1 -25 c-1 -14 -4 -19 -7 -12 -2 6 -9 12 -14 12 -6 0 -7 -5 -4 -10 3 -6 -3 -14 -14 -18 -11 -4 -20 -10 -20 -14 -2 -16 -16 -10 -27 11 l-11 22 -7 -23 c-6 -23 -7 -23 -18 -3 -7 11 -13 26 -14 34 -2 7 -8 19 -14 25 -8 8 -9 6 -4 -8 5 -13 4 -17 -4 -13 -6 4 -13 -1 -15 -10 -4 -17 -5 -17 -6 0 0 9 -5 18 -11 18 -5 1 -14 2 -19 3 -6 0 -16 7 -22 13 -10 10 -16 7 -26 -18 -16 -38 -17 -69 -2 -69 6 0 8 -7 5 -15 -3 -9 1 -18 9 -21 8 -4 15 -10 15 -16 0 -5 11 -19 25 -32 15 -14 25 -34 25 -50 0 -15 5 -36 11 -47 19 -36 30 -9 25 59 l-5 67 19 -25 c21 -27 21 -47 -1 -42 -8 1 -5 -4 6 -13 12 -10 34 -14 62 -12 l43 3 0 -38 c0 -21 4 -38 9 -38 14 0 41 41 41 62 0 13 8 18 28 18 15 0 34 6 41 12 10 11 16 8 31 -12 15 -20 20 -22 34 -11 9 7 16 18 16 24 0 6 14 23 31 38 25 22 30 31 20 42 -8 11 -7 27 8 68 18 53 18 55 0 56 -10 1 -22 -3 -25 -9 -4 -7 -14 -2 -26 13 -19 23 -15 7 5 -19 7 -9 13 -9 24 -1 23 20 26 3 8 -45 -14 -37 -15 -49 -5 -61 7 -9 10 -19 6 -22 -4 -4 -10 -2 -14 4 -4 6 -18 13 -32 15 l-25 5 25 11 c19 8 21 11 7 11 -10 1 -27 -3 -37 -9 -14 -7 -20 -6 -24 7 -9 21 3 31 14 13 8 -12 10 -12 10 4 0 12 5 16 15 12 12 -4 13 -2 2 14 -15 25 -32 26 -23 3 4 -10 4 -14 -1 -10 -13 13 -14 79 -1 71 8 -5 9 -1 5 10 -4 10 -7 20 -7 22 0 2 -3 4 -7 4 -5 0 -9 -14 -10 -31z m-363 -28 c-19 -37 -9 -46 16 -16 25 29 25 29 19 5 -4 -14 -12 -31 -18 -38 -8 -10 -7 -16 3 -22 8 -5 11 -12 8 -15 -10 -10 -28 4 -28 21 0 8 -4 14 -10 14 -5 0 -10 7 -10 16 0 17 18 54 26 54 2 0 0 -9 -6 -19z m294 -71 c-6 -6 -10 -3 -10 10 0 13 4 16 10 10 7 -7 7 -13 0 -20z m-236 -40 c-7 -11 -14 -16 -16 -10 -2 6 -9 7 -15 3 -7 -4 -6 1 2 10 7 9 20 17 27 17 12 0 12 -4 2 -20z m99 3 c-4 -3 -1 -13 6 -22 11 -14 10 -14 -5 -2 -14 11 -18 11 -18 1 0 -8 -3 -10 -6 -7 -7 6 13 37 24 37 3 0 2 -3 -1 -7z m-83 -28 c-4 -8 -11 -15 -16 -15 -6 0 -5 6 2 15 7 8 14 15 16 15 2 0 1 -7 -2 -15z m106 -44 c-15 -28 -40 -27 -39 2 0 21 1 21 9 2 8 -18 10 -17 22 14 8 19 14 27 16 18 2 -9 -2 -25 -8 -36z m80 1 c0 -15 -2 -15 -10 -2 -13 20 -13 33 0 25 6 -3 10 -14 10 -23z m-40 -1 c0 -5 -7 -12 -16 -15 -14 -5 -15 -4 -4 9 14 17 20 19 20 6z m-130 -47 c0 -8 -4 -12 -10 -9 -5 3 -10 10 -10 16 0 5 5 9 10 9 6 0 10 -7 10 -16z m170 3 c0 -7 -7 -22 -15 -33 -13 -17 -13 -16 -3 14 13 34 18 40 18 19z"/>
 <path d="M462 760 c0 -19 2 -27 5 -17 2 9 2 25 0 35 -3 9 -5 1 -5 -18z"/>
 <path d="M740 745 c7 -9 15 -13 17 -11 7 7 -7 26 -19 26 -6 0 -6 -6 2 -15z"/>
 <path d="M787 733 c-4 -3 -7 -11 -7 -17 0 -6 5 -5 12 2 6 6 9 14 7 17 -3 3 -9 2 -12 -2z"/>
 <path d="M652 623 c-6 -11 -7 -25 -2 -33 6 -10 10 -7 16 13 8 34 -1 46 -14 20z"/>
 </g>
<g id="layer104" fill="#8e6a68" stroke="none">
 <path d="M640 2353 l-25 -15 25 6 c20 4 26 1 26 -13 0 -13 -6 -17 -21 -14 -16 4 -17 3 -5 -6 22 -16 58 -13 68 5 14 26 33 8 22 -21 -7 -19 -5 -26 13 -39 20 -14 20 -15 2 -9 -11 3 -17 3 -13 -1 3 -4 12 -8 20 -10 20 -3 38 -16 38 -28 0 -6 -7 -5 -17 3 -16 12 -17 12 -6 -1 6 -8 13 -33 16 -55 l4 -40 1 42 c1 23 7 45 13 49 8 5 9 -6 4 -37 l-8 -44 30 30 c16 17 37 43 47 58 17 27 17 30 -1 55 -9 15 -18 31 -18 36 0 17 -23 17 -27 0 -3 -17 -4 -16 -21 0 -17 18 -19 18 -32 0 -11 -16 -10 -21 11 -41 13 -12 24 -28 24 -35 -1 -7 -7 -2 -15 12 -8 14 -14 21 -15 15 0 -18 -33 37 -34 59 -1 15 7 24 27 31 26 10 23 11 -28 11 -33 0 -49 -3 -38 -7 17 -7 17 -8 0 -8 -10 -1 -20 6 -23 14 -7 18 -11 18 -44 -2z"/>
 <path d="M815 2350 c3 -5 14 -10 23 -10 15 0 15 2 2 10 -20 13 -33 13 -25 0z"/>
 <path d="M948 2350 c27 -11 29 -27 3 -35 -19 -6 -19 -7 2 -39 12 -19 24 -32 26 -30 2 2 -4 15 -13 30 -17 24 -17 26 0 39 16 11 16 15 5 29 -7 9 -21 16 -30 15 -11 0 -9 -3 7 -9z"/>
 <path d="M458 2343 c12 -2 30 -2 40 0 9 3 -1 5 -23 4 -22 0 -30 -2 -17 -4z"/>
 <path d="M407 2320 c-3 -11 -1 -20 4 -20 5 0 9 9 9 20 0 11 -2 20 -4 20 -2 0 -6 -9 -9 -20z"/>
 <path d="M560 2330 c0 -18 37 -31 49 -16 6 7 8 16 4 19 -10 11 -53 8 -53 -3z"/>
 <path d="M356 2305 c-11 -8 -15 -15 -9 -15 7 0 15 5 18 10 4 6 11 7 17 4 7 -4 8 -2 4 4 -9 14 -7 15 -30 -3z"/>
 <path d="M871 2307 c-9 -12 -8 -16 3 -20 19 -7 32 11 19 24 -6 6 -14 5 -22 -4z"/>
 <path d="M470 2286 c0 -15 -3 -16 -14 -7 -11 9 -15 9 -19 -1 -4 -10 -7 -10 -15 1 -7 10 -11 10 -17 1 -6 -9 -10 -9 -16 1 -7 12 -9 12 -9 0 0 -7 -6 -11 -15 -7 -18 7 -19 2 -3 -27 10 -20 10 -21 -6 -8 -16 13 -16 12 -5 -13 7 -14 15 -22 19 -16 3 5 14 -7 24 -27 10 -22 12 -33 5 -25 -7 6 -17 12 -21 12 -13 0 -9 -41 6 -56 13 -12 17 -10 35 12 12 15 21 23 21 18 0 -4 -9 -18 -21 -30 -17 -18 -19 -26 -9 -44 6 -12 9 -24 6 -28 -3 -3 -6 1 -6 9 0 8 -7 2 -14 -13 -12 -23 -13 -35 -2 -70 7 -24 17 -42 22 -41 5 1 9 -30 9 -68 0 -62 -11 -69 -15 -9 -2 16 -4 19 -7 8 -2 -9 3 -41 12 -72 17 -59 29 -76 20 -28 -4 20 -2 18 9 -9 7 -19 24 -55 36 -80 25 -48 28 -110 6 -144 -11 -16 -11 -27 0 -55 19 -53 18 -63 -6 -48 -11 7 -18 18 -16 25 3 7 1 15 -3 18 -13 7 -20 -17 -15 -51 3 -26 3 -25 -7 6 l-12 35 -13 -30 c-7 -16 -13 -39 -13 -50 0 -11 7 -2 14 20 l14 40 -5 -35 c-9 -60 -15 -70 -40 -76 -14 -4 -28 -4 -31 0 -4 3 4 6 16 6 l22 0 -24 33 c-63 84 -54 159 18 156 l30 -2 -30 -4 c-32 -5 -45 -18 -44 -43 0 -10 3 -8 8 5 5 11 21 22 37 25 19 4 28 11 26 21 -1 8 7 25 18 37 17 18 18 22 5 22 -9 0 -13 5 -10 10 10 16 -11 12 -25 -5 -7 -8 -17 -15 -22 -15 -6 0 0 8 12 18 18 14 20 22 11 43 -5 15 -17 29 -26 33 -9 3 -13 2 -10 -4 3 -6 1 -10 -4 -10 -6 0 -11 -5 -11 -12 0 -9 3 -9 12 0 7 7 17 12 22 12 21 0 -14 -23 -39 -26 -26 -2 -26 -2 -8 18 13 15 15 22 6 25 -21 8 -14 26 7 20 11 -3 20 -1 20 4 0 14 -33 11 -56 -5 -15 -11 -20 -23 -16 -44 2 -16 -1 -33 -7 -36 -7 -5 -9 0 -5 11 3 10 -7 -3 -23 -29 -15 -26 -36 -49 -45 -51 -11 -3 -18 -15 -18 -29 0 -31 51 -149 61 -142 5 3 5 -6 0 -20 -7 -18 -6 -26 4 -30 9 -3 12 0 8 10 -3 7 0 14 6 14 6 0 8 6 5 14 -3 8 -1 17 5 21 7 4 11 -4 11 -19 0 -14 -4 -26 -10 -26 -5 0 -9 -5 -7 -12 1 -6 -9 -14 -23 -18 -21 -6 -23 -8 -8 -15 10 -4 25 -4 34 -1 10 4 14 1 12 -6 -3 -7 -15 -15 -29 -19 -13 -4 -18 -7 -10 -8 7 -1 11 -7 7 -16 -4 -10 1 -15 15 -15 15 0 19 5 15 15 -3 8 -2 15 3 15 5 0 11 -11 13 -25 3 -13 2 -22 -2 -20 -4 3 -10 -7 -13 -21 -3 -18 -1 -24 9 -20 7 3 16 0 20 -6 4 -7 9 -6 15 3 8 11 12 10 24 -5 8 -11 15 -16 15 -12 0 5 7 3 15 -4 19 -16 34 -5 17 12 -16 16 -15 31 2 25 9 -4 17 3 21 16 12 37 12 56 1 54 -6 -1 -10 5 -8 13 2 8 4 22 5 32 1 21 17 13 18 -10 0 -11 4 -9 11 8 6 14 10 38 9 54 -2 35 9 27 25 -17 l11 -32 11 35 c10 32 11 33 17 13 14 -44 34 -20 36 40 0 18 4 41 9 52 l9 20 1 -20 c1 -12 7 -5 15 20 12 37 13 38 13 10 0 -16 4 -40 9 -53 l9 -23 14 25 c15 29 30 34 30 11 0 -18 16 -20 23 -2 4 9 6 9 6 -1 1 -20 -22 -39 -41 -34 -23 6 -23 -6 0 -31 9 -11 11 -17 5 -13 -8 4 -13 1 -13 -9 0 -10 5 -13 12 -9 8 5 9 2 5 -9 -3 -9 -2 -19 3 -22 6 -4 10 -14 10 -24 0 -10 11 -27 25 -37 14 -10 23 -25 20 -32 -8 -20 34 -92 51 -85 8 3 14 11 14 18 0 7 9 23 20 36 l20 24 -6 -26 c-7 -32 8 -45 26 -24 10 12 16 13 28 3 13 -11 14 -10 4 9 -9 16 -9 24 0 29 7 4 8 3 4 -4 -5 -8 1 -12 15 -12 21 0 21 1 6 18 -15 17 -15 20 -1 38 15 18 15 18 5 -3 -7 -14 -8 -24 -1 -28 5 -3 10 2 10 12 0 10 7 29 16 41 8 12 13 26 9 31 -3 5 0 13 6 17 8 5 9 3 4 -7 -4 -8 6 0 22 16 16 17 33 41 36 55 3 14 9 35 12 48 5 14 3 22 -4 22 -7 0 -9 -4 -6 -10 3 -5 0 -22 -8 -37 -8 -15 -13 -33 -11 -38 2 -6 -5 -16 -15 -22 -19 -12 -19 -11 -4 25 9 20 26 75 39 122 16 61 23 78 27 60 4 -23 4 -22 6 5 0 17 -8 53 -18 81 -15 38 -17 54 -9 62 9 9 6 18 -10 35 -12 13 -22 31 -22 40 0 9 -4 17 -10 17 -5 0 -10 24 -10 53 0 37 -3 48 -10 37 -5 -8 -10 -36 -10 -62 0 -42 -3 -48 -21 -48 -18 0 -20 -4 -15 -26 4 -14 2 -32 -4 -39 -8 -9 -5 -11 12 -8 20 4 23 0 25 -31 2 -19 -2 -38 -8 -42 -7 -4 -9 0 -5 14 7 22 -4 35 -21 24 -6 -4 -13 -17 -17 -29 -6 -18 -4 -22 7 -17 22 8 29 -49 11 -88 l-15 -33 6 30 c3 19 2 25 -3 17 -5 -7 -8 -47 -6 -88 1 -42 0 -73 -3 -70 -3 2 -27 -20 -53 -50 -27 -31 -52 -55 -57 -55 -4 0 -10 29 -14 63 -4 47 -1 69 10 88 15 22 15 24 -2 17 -10 -4 -17 -2 -17 4 0 7 9 9 21 6 17 -5 25 3 45 46 13 29 22 41 18 27 -3 -14 -17 -44 -30 -67 -14 -24 -23 -43 -20 -43 3 0 17 21 32 46 24 40 27 58 30 152 2 59 6 139 8 177 2 39 1 59 -3 45 -7 -23 -8 -22 -12 12 -3 20 -2 35 2 32 4 -2 9 20 11 50 1 30 0 52 -4 49 -5 -2 -8 -23 -8 -46 -1 -34 -3 -38 -11 -24 -5 9 -7 22 -4 27 3 6 1 10 -4 10 -6 0 -11 14 -11 30 0 17 5 30 10 30 6 0 10 9 10 19 0 11 5 23 10 26 6 3 10 -4 10 -16 0 -12 3 -20 6 -16 3 3 8 50 10 104 l5 98 -21 -32 c-11 -18 -27 -33 -35 -33 -17 0 -56 -77 -60 -119 -2 -14 -12 -46 -23 -71 -11 -25 -28 -85 -38 -134 -11 -58 -20 -83 -24 -71 -5 13 -9 15 -14 7 -4 -7 -18 -12 -32 -12 -14 0 -27 -7 -30 -15 -11 -29 -20 -15 -18 28 1 23 -4 52 -12 64 -17 27 -18 36 -1 27 7 -4 9 -3 4 2 -5 5 -10 7 -12 4 -1 -3 -13 4 -26 15 -12 11 -19 15 -16 9 4 -7 0 -15 -8 -18 -12 -4 -13 -10 -5 -25 5 -11 9 -35 9 -53 -1 -27 -3 -29 -6 -8 -3 14 -9 30 -15 37 -5 6 -10 27 -10 45 0 18 -9 50 -20 71 -18 37 -30 49 -24 25 1 -7 1 -10 -1 -5 -3 4 -10 4 -15 1 -7 -4 -8 -2 -4 4 9 14 47 36 44 25 -3 -11 20 -73 27 -73 3 0 4 4 0 9 -3 6 -2 29 2 53 6 39 7 41 15 18 6 -18 6 -14 3 15 -2 22 -9 41 -14 43 -6 2 -8 23 -5 50 4 37 3 43 -6 29 -6 -9 -8 -22 -5 -27 3 -6 1 -10 -4 -10 -6 0 -11 8 -11 18 0 14 -2 15 -10 2 -5 -8 -12 -11 -16 -7 -4 4 4 30 19 57 15 28 23 50 17 50 -5 0 -10 -4 -10 -8 0 -5 -7 -17 -15 -28 -11 -14 -14 -15 -9 -3 3 10 1 20 -5 24 -15 9 -14 25 2 25 6 0 19 11 28 23 13 19 13 26 2 47 -10 20 -13 21 -13 6z m372 -451 c4 -20 2 -23 -8 -14 -7 6 -10 17 -7 25 7 20 10 18 15 -11z m165 -116 c32 -37 29 -44 -7 -19 -16 12 -39 22 -50 23 -25 2 -26 14 -2 20 28 6 35 3 59 -24z m-246 -86 c13 -17 13 -17 -6 -3 -11 8 -22 16 -24 17 -2 2 0 3 6 3 6 0 17 -8 24 -17z m-502 -84 c-20 -40 -20 -51 -3 -94 7 -17 5 -18 -8 -8 -8 7 -18 10 -21 7 -9 -9 -20 43 -13 62 3 8 10 13 14 10 5 -3 16 10 25 29 9 19 19 35 22 35 3 0 -4 -19 -16 -41z m526 -7 c-3 -3 -5 0 -5 7 0 7 -4 10 -9 6 -5 -3 -13 0 -17 6 -4 8 -3 9 4 5 8 -4 12 0 13 11 0 14 3 12 10 -6 5 -13 7 -26 4 -29z m-187 -8 c-1 -19 -6 -38 -12 -41 -5 -4 -7 4 -3 18 4 13 7 32 7 42 0 9 2 17 5 17 3 0 5 -16 3 -36z m175 -64 c3 -11 1 -23 -4 -26 -5 -3 -8 -13 -7 -22 2 -11 -4 -17 -19 -18 -18 -1 -23 4 -23 22 0 13 3 23 8 23 22 -4 30 3 25 21 -3 11 -1 20 5 20 5 0 12 -9 15 -20z m-483 -61 c0 -6 -4 -7 -10 -4 -5 3 -10 11 -10 16 0 6 5 7 10 4 6 -3 10 -11 10 -16z m270 14 c0 -14 -19 -38 -25 -32 -8 8 5 39 16 39 5 0 9 -3 9 -7z m150 -92 c0 -6 -4 -13 -10 -16 -5 -3 -10 1 -10 9 0 9 5 16 10 16 6 0 10 -4 10 -9z m30 -23 c0 -12 -3 -18 -7 -14 -11 10 -12 36 -2 36 5 0 9 -10 9 -22z m-360 -109 c0 -6 -4 -7 -10 -4 -5 3 -10 11 -10 16 0 6 5 7 10 4 6 -3 10 -11 10 -16z m430 12 c0 -12 -20 -25 -27 -18 -7 7 6 27 18 27 5 0 9 -4 9 -9z"/>
 <path d="M591 2281 c-13 -3 -28 -17 -33 -31 -8 -23 -8 -23 10 -7 10 9 22 17 26 17 4 0 6 -99 4 -220 -2 -121 0 -220 5 -220 4 0 8 -8 8 -17 5 -64 17 108 16 227 l-1 145 -6 -120 c-6 -111 -7 -106 -6 58 1 97 1 177 1 176 0 -1 -11 -4 -24 -8z"/>
 <path d="M653 2266 c-13 -6 -23 -19 -22 -31 0 -20 0 -20 9 0 5 11 9 16 9 11 1 -5 8 -3 16 4 8 7 24 10 34 7 14 -3 18 -1 14 9 -6 16 -28 16 -60 0z"/>
 <path d="M913 2250 c2 -19 8 -44 12 -54 6 -13 5 -17 -2 -13 -18 11 -21 -92 -4 -106 11 -10 13 -8 6 12 -5 17 -4 22 5 16 9 -6 10 -1 4 16 -4 13 -6 31 -5 39 5 36 -1 94 -10 109 -7 12 -9 7 -6 -19z"/>
 <path d="M962 2210 c0 -14 2 -19 5 -12 2 6 2 18 0 25 -3 6 -5 1 -5 -13z"/>
 <path d="M523 2130 c0 -25 2 -35 4 -22 2 12 2 32 0 45 -2 12 -4 2 -4 -23z"/>
 <path d="M361 2051 c-1 -35 29 -174 37 -166 2 2 -3 35 -12 72 -8 37 -17 82 -19 98 -4 30 -4 30 -6 -4z"/>
 <path d="M906 2045 c-9 -26 -7 -32 5 -12 6 10 9 21 6 23 -2 3 -7 -2 -11 -11z"/>
 <path d="M733 1962 c-30 -90 -28 -104 2 -22 14 36 24 70 22 77 -1 7 -12 -18 -24 -55z"/>
 <path d="M844 1975 c-10 -26 1 -35 13 -10 6 14 7 25 2 25 -5 0 -12 -7 -15 -15z"/>
 <path d="M520 1936 c0 -8 4 -17 9 -20 5 -4 7 3 4 14 -6 23 -13 26 -13 6z"/>
 <path d="M702 1850 c0 -14 2 -19 5 -12 2 6 2 18 0 25 -3 6 -5 1 -5 -13z"/>
 <path d="M681 1793 c-10 -26 -10 -27 4 -9 8 11 15 23 15 28 0 15 -7 8 -19 -19z"/>
 <path d="M632 1764 c9 -9 21 -15 27 -13 6 2 -2 10 -17 17 -25 11 -25 11 -10 -4z"/>
 <path d="M882 1683 c-1 -35 2 -63 7 -63 11 0 24 31 16 38 -3 3 -6 -1 -7 -9 -1 -8 -4 11 -8 41 l-7 55 -1 -62z"/>
 <path d="M441 1718 c-1 -3 8 -27 19 -53 21 -48 27 -120 11 -129 -5 -3 -12 1 -15 10 -7 19 -19 12 -22 -12 -2 -10 3 -14 12 -10 17 6 18 1 4 -25 -18 -32 -3 -21 19 15 27 43 26 98 -4 161 -13 28 -24 47 -24 43z"/>
 <path d="M410 1663 c8 -3 19 -11 23 -17 6 -7 7 -6 4 4 -2 8 -12 16 -23 17 -13 2 -15 1 -4 -4z"/>
 <path d="M432 1624 c9 -3 19 -13 22 -22 3 -12 4 -12 3 3 -1 12 -10 21 -22 22 -15 1 -15 0 -3 -3z"/>
 <path d="M892 1430 c0 -19 2 -27 5 -17 2 9 2 25 0 35 -3 9 -5 1 -5 -18z"/>
 <path d="M340 1435 c0 -5 5 -17 10 -25 5 -8 10 -10 10 -5 0 6 -5 17 -10 25 -5 8 -10 11 -10 5z"/>
 <path d="M370 1370 c6 -11 13 -20 16 -20 2 0 0 9 -6 20 -6 11 -13 20 -16 20 -2 0 0 -9 6 -20z"/>
 <path d="M792 1333 c-1 -37 2 -63 8 -63 6 0 10 4 10 9 0 4 18 29 40 54 22 25 40 48 40 52 0 4 -19 -16 -42 -44 l-43 -50 -6 52 -6 52 -1 -62z"/>
 <path d="M302 1128 c11 -10 14 -19 8 -23 -20 -12 -10 -35 16 -35 22 0 24 -3 18 -22 -3 -13 -11 -24 -15 -26 -5 -2 -9 -10 -9 -18 0 -8 -5 -23 -12 -33 -9 -15 -9 -23 2 -35 7 -9 14 -33 16 -53 5 -54 14 -52 10 3 -1 26 -8 50 -14 52 -17 5 -15 29 3 36 8 3 15 0 15 -6 0 -6 3 -8 6 -5 4 4 2 13 -5 20 -8 11 -7 22 5 45 17 36 12 52 -17 52 -19 0 -25 11 -12 24 11 11 12 37 2 30 -6 -3 -16 -2 -22 3 -7 4 -5 0 5 -9z"/>
 <path d="M870 1115 c-10 -12 -10 -18 1 -31 10 -13 10 -17 -2 -25 -9 -5 -10 -9 -2 -9 19 0 26 20 13 35 -10 12 -10 18 0 30 7 8 10 15 7 15 -2 0 -10 -7 -17 -15z"/>
 <path d="M838 1050 c-3 -8 4 -23 15 -33 19 -16 19 -18 4 -35 -21 -23 -21 -51 -2 -76 8 -11 15 -15 15 -9 0 7 -4 15 -10 18 -15 10 -12 46 7 67 14 16 15 20 1 36 -9 9 -17 24 -20 32 -4 13 -5 13 -10 0z"/>
 <path d="M865 830 c-16 -7 -17 -9 -3 -9 9 -1 20 4 23 9 7 11 7 11 -20 0z"/>
 <path d="M832 810 c0 -14 2 -19 5 -12 2 6 2 18 0 25 -3 6 -5 1 -5 -13z"/>
 <path d="M327 781 c-4 -17 -3 -21 5 -13 5 5 8 16 6 23 -3 8 -7 3 -11 -10z"/>
 <path d="M823 765 c-3 -9 -3 -18 -1 -21 3 -3 8 4 11 16 6 23 -1 27 -10 5z"/>
 <path d="M347 763 c-4 -3 -7 -11 -7 -17 0 -6 5 -5 12 2 6 6 9 14 7 17 -3 3 -9 2 -12 -2z"/>
 <path d="M376 725 c-3 -8 -1 -15 4 -15 6 0 10 7 10 15 0 8 -2 15 -4 15 -2 0 -6 -7 -10 -15z"/>
 <path d="M801 699 c-8 -24 -8 -36 0 -46 9 -11 8 -17 -7 -29 -18 -14 -18 -15 4 -4 24 12 27 21 12 36 -8 8 -7 19 0 39 6 15 9 30 6 32 -2 2 -9 -10 -15 -28z"/>
 <path d="M318 701 c7 -4 12 -14 10 -21 -2 -7 2 -14 8 -17 7 -2 10 5 7 22 -3 15 -12 25 -22 25 -12 0 -13 -2 -3 -9z"/>
 <path d="M434 676 c-8 -9 -7 -15 3 -24 8 -8 13 -9 13 -2 0 6 5 8 10 5 14 -9 12 11 -2 23 -9 7 -16 6 -24 -2z"/>
 <path d="M350 636 c0 -2 7 -6 15 -10 8 -3 15 -1 15 4 0 6 -7 10 -15 10 -8 0 -15 -2 -15 -4z"/>
 <path d="M422 620 c0 -14 2 -19 5 -12 2 6 2 18 0 25 -3 6 -5 1 -5 -13z"/>
 <path d="M558 598 c5 -7 12 -22 15 -33 4 -16 5 -14 6 6 1 17 -5 29 -15 33 -13 5 -14 3 -6 -6z"/>
 <path d="M634 586 c5 -15 2 -17 -14 -13 -17 4 -20 0 -20 -24 0 -16 -9 -38 -20 -49 -11 -11 -16 -20 -11 -20 14 0 41 41 41 62 0 13 8 18 28 18 15 0 34 6 41 13 10 10 16 7 31 -13 15 -20 20 -22 34 -11 9 7 16 19 16 26 0 8 6 16 13 18 9 4 9 6 -1 6 -7 1 -17 -10 -22 -24 -11 -30 -21 -32 -38 -5 -14 22 -38 26 -46 8 -3 -9 -10 -7 -22 7 -15 18 -16 18 -10 1z"/>
 <path d="M470 579 c0 -6 -8 -8 -17 -5 -15 5 -15 4 1 -9 27 -20 35 -19 29 5 -6 22 -13 27 -13 9z"/>
 <path d="M505 560 c-2 -3 7 -7 20 -8 13 -1 26 2 29 6 2 4 -7 7 -21 7 -14 0 -26 -2 -28 -5z"/>
 <path d="M400 549 c0 -8 6 -24 14 -35 13 -17 15 -18 21 -2 4 9 5 25 2 35 -3 11 -5 7 -7 -12 l-2 -30 -13 30 c-8 17 -14 23 -15 14z"/>
 </g>
<g id="layer105" fill="#a3aa71" stroke="none">
 <path d="M640 2353 l-25 -15 27 6 c22 5 26 3 22 -9 -4 -8 -13 -15 -22 -15 -24 0 -10 -8 25 -15 23 -4 34 -1 41 11 14 26 33 8 22 -20 -9 -26 -5 -36 16 -36 10 0 11 6 5 23 -4 12 -6 28 -4 35 3 6 -1 12 -9 13 -7 0 5 6 27 13 l40 12 -58 0 c-34 0 -51 -3 -40 -7 17 -7 17 -8 0 -8 -10 -1 -20 6 -23 14 -7 18 -11 18 -44 -2z"/>
 <path d="M820 2350 c8 -5 20 -10 25 -10 6 0 3 5 -5 10 -8 5 -19 10 -25 10 -5 0 -3 -5 5 -10z"/>
 <path d="M948 2350 c28 -12 28 -24 1 -36 -21 -9 -21 -10 3 -29 18 -16 20 -16 9 -2 -12 15 -12 19 5 31 15 12 16 16 5 30 -7 9 -21 16 -30 15 -11 0 -9 -3 7 -9z"/>
 <path d="M448 2343 c6 -2 18 -2 25 0 6 3 1 5 -13 5 -14 0 -19 -2 -12 -5z"/>
 <path d="M407 2320 c-3 -11 -1 -20 4 -20 5 0 9 9 9 20 0 11 -2 20 -4 20 -2 0 -6 -9 -9 -20z"/>
 <path d="M560 2331 c0 -9 23 -21 41 -21 4 0 6 7 3 15 -7 16 -44 21 -44 6z"/>
 <path d="M876 2311 c-4 -7 -5 -15 -2 -18 9 -9 19 4 14 18 -4 11 -6 11 -12 0z"/>
 <path d="M774 2296 c-3 -8 4 -24 15 -35 12 -12 21 -26 21 -32 0 -6 -7 -3 -16 5 -19 19 -30 20 -40 4 -4 -7 -4 -10 1 -6 9 9 35 -9 35 -24 0 -6 -8 -4 -17 3 -16 12 -16 12 -6 -1 6 -8 13 -31 16 -50 l4 -35 1 37 c1 20 7 40 12 43 9 6 14 -8 11 -27 0 -5 8 -8 19 -8 20 0 50 45 50 76 0 11 -6 15 -20 11 -14 -3 -27 4 -44 24 -28 33 -34 35 -42 15z"/>
 <path d="M827 2296 c-3 -8 1 -17 9 -20 22 -9 23 -8 17 14 -6 23 -19 26 -26 6z"/>
 <path d="M356 2258 c4 -15 3 -18 -6 -13 -9 6 -9 2 0 -16 18 -34 24 -38 16 -11 -5 14 -3 22 5 22 7 0 10 -3 6 -6 -3 -4 3 -25 15 -48 14 -27 16 -37 6 -29 -18 15 -28 7 -27 -21 0 -21 1 -21 9 -1 8 17 9 16 9 -9 l1 -28 34 38 c22 25 31 43 25 49 -14 14 -11 25 6 25 8 0 15 5 15 11 0 5 -4 7 -10 4 -5 -3 -10 -1 -10 4 0 6 9 11 19 11 26 0 32 12 16 27 -11 10 -15 10 -19 0 -3 -8 -7 -8 -13 -2 -4 6 -18 11 -31 12 -20 3 -22 -1 -18 -30 4 -32 4 -32 -6 -5 -14 33 -52 48 -42 16z"/>
 <path d="M564 2252 c-17 -27 -17 -27 3 -9 11 9 23 17 26 17 4 0 7 -71 7 -158 0 -88 3 -195 7 -238 l7 -79 7 50 c4 28 7 111 6 185 l-1 135 -6 -130 -6 -130 -2 186 c-2 151 -5 188 -16 192 -9 4 -22 -5 -32 -21z"/>
 <path d="M658 2267 c-19 -7 -28 -18 -27 -31 0 -21 1 -21 9 -1 5 11 9 16 9 11 1 -5 8 -3 16 4 8 7 24 10 34 7 14 -3 18 -1 14 9 -6 16 -17 16 -55 1z"/>
 <path d="M867 2164 c-10 -13 -24 -24 -32 -24 -15 0 -47 -62 -59 -113 -5 -22 -4 -27 6 -21 7 4 5 -2 -5 -13 -24 -28 -53 -114 -67 -204 l-12 -77 -28 16 c-38 22 -60 10 -60 -32 0 -41 -14 -56 -17 -18 -6 87 -10 103 -25 121 -13 16 -14 20 -3 23 10 2 7 11 -11 33 l-25 30 10 -27 c8 -23 8 -28 -4 -28 -11 0 -12 -6 -7 -22 5 -13 6 -32 4 -42 -3 -13 -10 -3 -23 34 -10 29 -16 57 -13 62 3 5 -1 24 -10 43 -12 25 -21 32 -36 28 -43 -11 -38 -100 10 -217 17 -40 40 -83 51 -94 17 -19 17 -22 4 -22 -10 0 -15 -7 -13 -17 1 -10 -3 -33 -11 -50 -11 -28 -11 -36 1 -55 8 -14 12 -33 8 -48 -4 -16 -8 -21 -13 -13 -11 18 -37 4 -38 -21 -1 -19 -2 -19 -9 4 l-7 25 -7 -30 c-16 -64 -24 -75 -58 -75 -29 1 -31 2 -17 13 15 11 15 16 3 40 -16 29 -29 34 -38 15 -3 -7 -5 -2 -5 12 2 48 -1 65 -9 53 -5 -8 -13 -9 -22 -3 -13 8 -13 10 1 10 19 0 65 48 72 75 4 16 5 17 6 3 2 -36 71 -6 71 30 0 20 -23 25 -36 7 -9 -12 -19 -15 -31 -9 -16 7 -16 8 5 11 29 6 46 37 28 52 -7 6 -16 8 -19 5 -4 -4 -18 -8 -32 -10 -22 -2 -24 0 -14 12 7 9 15 11 18 5 4 -6 13 -4 24 4 16 11 16 13 2 19 -9 3 -13 2 -10 -4 3 -6 1 -10 -4 -10 -6 0 -11 5 -11 10 0 6 -3 9 -7 9 -22 -4 -33 2 -27 14 6 9 5 9 -8 -1 -12 -9 -14 -22 -8 -52 4 -23 3 -38 -2 -37 -6 1 -22 -18 -36 -44 -19 -33 -23 -50 -17 -65 5 -10 9 -38 10 -62 1 -39 0 -41 -12 -20 -16 29 -17 17 -2 -16 7 -14 16 -23 20 -20 12 7 11 -3 -1 -26 -7 -13 -6 -19 4 -23 9 -4 12 0 9 11 -2 9 3 26 11 37 l15 20 1 -20 c0 -44 -12 -65 -37 -65 -15 0 -22 -4 -17 -11 3 -6 17 -9 30 -6 19 3 24 -1 29 -27 4 -17 9 -40 11 -51 4 -15 3 -16 -4 -7 -7 11 -11 7 -14 -12 -3 -14 -1 -26 3 -26 5 0 9 6 9 13 0 9 3 8 9 -2 5 -8 14 -10 21 -6 8 5 18 1 27 -10 7 -11 13 -15 13 -11 0 5 7 3 15 -4 9 -7 19 -10 22 -6 4 4 1 11 -6 16 -8 4 -11 15 -8 25 4 9 12 13 19 9 8 -5 9 -2 5 9 -3 9 -3 16 1 16 19 -3 22 3 11 24 -14 25 -18 66 -7 73 4 2 11 -3 17 -13 8 -14 10 -10 16 22 10 60 12 62 24 32 11 -28 31 -29 31 -1 0 9 5 12 11 8 6 -3 15 0 20 7 7 12 9 11 9 -1 0 -9 -6 -22 -12 -30 -11 -12 -10 -12 5 -1 13 10 16 22 11 46 -3 19 -1 35 5 39 6 4 12 17 12 29 1 21 2 21 7 2 4 -15 8 -9 18 25 l12 45 1 -45 c1 -46 21 -97 21 -54 0 22 29 29 42 10 5 -7 8 -5 8 5 0 9 6 22 14 29 8 6 16 24 19 38 3 23 4 24 11 9 6 -12 3 -24 -8 -36 -9 -10 -16 -26 -15 -37 0 -14 2 -15 6 -4 4 8 12 20 19 25 14 12 24 74 13 80 -4 3 -4 17 0 33 6 19 1 39 -15 70 -12 23 -21 42 -19 42 8 0 75 -74 76 -84 9 -81 14 -90 35 -62 8 11 14 14 14 8 0 -7 -8 -20 -18 -30 -18 -18 -19 -18 -30 11 -7 17 -14 29 -16 26 -5 -5 19 -107 27 -115 2 -3 16 22 30 54 27 59 44 158 26 146 -5 -3 -7 -10 -4 -15 4 -5 1 -9 -6 -9 -6 0 -9 8 -6 19 2 11 -6 37 -18 59 -16 28 -18 39 -9 35 8 -3 14 0 14 7 0 17 20 1 30 -24 7 -18 9 -16 9 15 1 41 -7 53 -24 39 -8 -7 -21 1 -42 25 -27 30 -29 35 -12 35 13 0 19 7 19 24 0 13 7 26 15 30 8 3 15 0 15 -6 0 -6 2 -9 5 -7 5 6 -24 91 -36 104 -5 5 -9 14 -9 20 0 5 4 4 9 -4 7 -11 13 -6 26 20 10 19 23 41 30 49 7 8 15 32 18 53 5 35 4 37 -11 25 -15 -11 -14 -10 1 15 23 36 18 53 -6 21z m-22 -43 c3 -5 1 -12 -5 -16 -5 -3 -10 1 -10 9 0 18 6 21 15 7z m-245 -568 c0 -51 -4 -82 -9 -73 -7 14 -3 160 5 160 2 0 4 -39 4 -87z m-310 -146 c0 -5 -4 -5 -10 -2 -5 3 -10 14 -10 23 0 15 2 15 10 2 5 -8 10 -19 10 -23z m270 16 c0 -17 -18 -35 -29 -29 -8 5 -7 11 2 21 13 16 27 19 27 8z m-53 -75 c-3 -7 -5 -2 -5 12 0 14 2 19 5 13 2 -7 2 -19 0 -25z m-122 -68 c-3 -5 -10 -10 -16 -10 -5 0 -9 5 -9 10 0 6 7 10 16 10 8 0 12 -4 9 -10z m2 -97 c-11 -10 -27 8 -27 30 l0 21 16 -22 c9 -13 14 -26 11 -29z"/>
 <path d="M522 2135 c0 -16 2 -22 5 -12 2 9 2 23 0 30 -3 6 -5 -1 -5 -18z"/>
 <path d="M424 2115 c-16 -30 -17 -38 -6 -56 8 -12 11 -24 8 -27 -3 -3 -6 -2 -6 2 0 4 -7 0 -16 -9 -12 -11 -15 -26 -11 -52 4 -19 8 -37 11 -40 2 -2 22 14 45 37 31 32 41 49 40 73 0 31 -17 84 -18 60 -1 -7 -5 -13 -11 -13 -14 0 -13 33 2 48 9 9 9 12 -3 12 -9 0 -24 -16 -35 -35z"/>
 <path d="M911 2110 c0 -8 4 -22 9 -30 12 -18 12 -2 0 25 -6 13 -9 15 -9 5z"/>
 <path d="M361 2051 c-1 -35 29 -174 37 -166 2 2 -3 35 -12 72 -8 37 -17 82 -19 98 -4 30 -4 30 -6 -4z"/>
 <path d="M733 1962 c-30 -90 -28 -104 2 -22 14 36 24 70 22 77 -1 7 -12 -18 -24 -55z"/>
 <path d="M497 2013 c-4 -3 -7 -11 -7 -17 0 -6 5 -5 12 2 6 6 9 14 7 17 -3 3 -9 2 -12 -2z"/>
 <path d="M522 1980 c0 -14 2 -19 5 -12 2 6 2 18 0 25 -3 6 -5 1 -5 -13z"/>
 <path d="M864 1956 c-3 -8 -4 -29 -2 -48 3 -29 4 -27 8 15 5 48 3 58 -6 33z"/>
 <path d="M520 1936 c0 -8 4 -17 9 -20 5 -4 7 3 4 14 -6 23 -13 26 -13 6z"/>
 <path d="M702 1850 c0 -14 2 -19 5 -12 2 6 2 18 0 25 -3 6 -5 1 -5 -13z"/>
 <path d="M968 1857 c-11 -26 -10 -89 2 -107 5 -8 10 -12 10 -7 0 4 12 -5 28 -21 15 -15 19 -18 10 -7 -10 12 -18 29 -18 38 0 9 -4 17 -9 17 -6 0 -11 24 -13 53 -2 35 -5 46 -10 34z"/>
 <path d="M402 1845 c0 -11 3 -29 8 -40 11 -25 11 1 0 35 -6 20 -8 21 -8 5z"/>
 <path d="M581 1843 c7 -12 15 -20 18 -17 3 2 -3 12 -13 22 -17 16 -18 16 -5 -5z"/>
 <path d="M852 1820 c0 -19 2 -27 5 -17 2 9 2 25 0 35 -3 9 -5 1 -5 -18z"/>
 <path d="M872 1815 c0 -16 2 -22 5 -12 2 9 2 23 0 30 -3 6 -5 -1 -5 -18z"/>
 <path d="M681 1793 c-10 -26 -10 -27 4 -9 8 11 15 23 15 28 0 15 -7 8 -19 -19z"/>
 <path d="M812 1790 c7 -10 14 -18 15 -16 6 6 -9 36 -18 36 -5 0 -4 -9 3 -20z"/>
 <path d="M421 1770 c0 -8 4 -22 9 -30 12 -18 12 -2 0 25 -6 13 -9 15 -9 5z"/>
 <path d="M632 1764 c10 -10 20 -16 22 -13 3 3 -5 11 -17 18 -21 13 -21 12 -5 -5z"/>
 <path d="M881 1683 c-1 -35 3 -63 8 -63 4 0 6 24 4 53 -7 77 -11 81 -12 10z"/>
 <path d="M928 1700 c-13 -23 -14 -28 -2 -23 8 3 14 13 14 22 0 13 2 13 9 2 14 -22 11 -89 -5 -102 -9 -7 -12 -20 -8 -33 14 -52 16 -61 6 -47 -13 19 -32 -47 -33 -119 -1 -28 -4 -48 -7 -45 -3 3 -22 -10 -41 -29 -20 -20 -40 -36 -46 -38 -5 -2 -13 22 -16 52 l-6 55 -1 -64 c-2 -55 0 -62 13 -51 12 10 15 10 15 -3 0 -25 -33 -30 -52 -8 -9 12 -23 21 -32 21 -10 0 -16 8 -16 21 0 12 5 19 13 16 6 -2 11 -10 9 -16 -1 -6 2 -11 8 -11 5 0 10 6 10 13 0 8 4 7 10 -3 8 -12 10 -10 10 8 0 13 -4 20 -10 17 -5 -3 -10 -2 -10 4 0 5 4 11 10 13 5 2 7 13 4 24 -8 30 -58 37 -81 12 -13 -15 -19 -16 -32 -6 -12 10 -12 8 2 -8 9 -11 17 -29 17 -39 0 -18 1 -18 15 1 18 23 20 2 3 -26 -11 -17 -10 -22 1 -29 7 -5 10 -14 7 -20 -4 -6 -2 -11 3 -11 6 0 11 -7 11 -16 0 -13 3 -14 15 -4 8 6 20 10 27 7 9 -4 8 -6 -2 -6 -21 -1 -25 -55 -5 -71 8 -7 12 -16 9 -21 -3 -5 -2 -14 1 -19 7 -11 35 12 35 28 0 5 9 17 21 28 21 19 21 19 19 -1 -5 -44 0 -51 20 -26 11 12 17 28 13 35 -3 6 -1 6 8 -1 22 -22 44 -15 47 13 2 31 31 80 68 117 15 15 24 33 21 44 -4 16 -5 15 -6 -2 -1 -23 -41 -54 -41 -32 0 7 4 17 9 22 5 6 16 34 26 64 13 39 20 50 27 40 6 -10 7 -6 2 11 -4 14 -7 34 -5 45 6 57 2 79 -14 91 -9 7 -15 19 -12 26 4 10 6 10 6 1 2 -23 21 -13 21 10 0 30 -10 40 -27 26 -10 -9 -13 -5 -13 20 0 19 -4 30 -10 26 -5 -3 -10 -2 -10 3 0 23 -27 17 -42 -8z m-176 -332 c-7 -7 -12 -8 -12 -2 0 14 12 26 19 19 2 -3 -1 -11 -7 -17z m188 -114 c-16 -26 -27 -50 -25 -54 3 -5 -2 -10 -10 -14 -8 -3 -15 -4 -15 -2 0 14 67 116 75 116 3 0 -9 -21 -25 -46z m-130 -43 c0 -12 -20 -25 -27 -18 -7 7 6 27 18 27 5 0 9 -4 9 -9z"/>
 <path d="M440 1715 c0 -5 5 -17 10 -25 5 -8 10 -10 10 -5 0 6 -5 17 -10 25 -5 8 -10 11 -10 5z"/>
 <path d="M330 1696 c0 -2 9 -6 20 -9 11 -3 20 -1 20 4 0 5 -9 9 -20 9 -11 0 -20 -2 -20 -4z"/>
 <path d="M410 1663 c8 -3 19 -11 23 -17 6 -7 7 -6 4 4 -2 8 -12 16 -23 17 -13 2 -15 1 -4 -4z"/>
 <path d="M466 1655 c19 -51 15 -149 -4 -118 -5 7 -12 6 -22 -5 -13 -14 -12 -15 3 -9 20 7 21 3 7 -24 -18 -34 -3 -20 19 17 25 41 27 99 5 134 -10 16 -13 18 -8 5z"/>
 <path d="M923 1643 c-15 -5 -17 -29 -4 -37 12 -8 31 17 23 30 -4 6 -13 9 -19 7z"/>
 <path d="M260 1585 c-13 -24 -32 -46 -42 -48 -20 -6 -25 -51 -9 -76 6 -10 8 0 4 27 -5 34 -3 42 10 42 14 0 73 87 65 95 -2 2 -15 -16 -28 -40z"/>
 <path d="M432 1624 c9 -3 19 -13 22 -22 3 -12 4 -12 3 3 -1 12 -10 21 -22 22 -15 1 -15 0 -3 -3z"/>
 <path d="M1053 1545 c0 -22 2 -30 4 -17 2 12 2 30 0 40 -3 9 -5 -1 -4 -23z"/>
 <path d="M856 1514 c-4 -14 -5 -28 -3 -31 3 -2 8 8 11 23 4 14 5 28 3 31 -3 2 -8 -8 -11 -23z"/>
 <path d="M390 1513 c-32 -6 -50 -21 -49 -42 0 -11 3 -9 9 7 6 14 18 22 34 22 14 0 28 5 31 10 3 6 5 9 3 9 -2 -1 -14 -4 -28 -6z"/>
 <path d="M447 1450 c-3 -11 -1 -20 4 -20 5 0 9 9 9 20 0 11 -2 20 -4 20 -2 0 -6 -9 -9 -20z"/>
 <path d="M830 1450 c-6 -11 -8 -20 -6 -20 3 0 10 9 16 20 6 11 8 20 6 20 -3 0 -10 -9 -16 -20z"/>
 <path d="M227 1447 c-3 -8 1 -14 9 -14 16 0 19 13 5 21 -5 3 -11 0 -14 -7z"/>
 <path d="M892 1435 c0 -16 2 -22 5 -12 2 9 2 23 0 30 -3 6 -5 -1 -5 -18z"/>
 <path d="M340 1435 c0 -5 5 -17 10 -25 5 -8 10 -10 10 -5 0 6 -5 17 -10 25 -5 8 -10 11 -10 5z"/>
 <path d="M1026 1415 c4 -8 8 -15 10 -15 2 0 4 7 4 15 0 8 -4 15 -10 15 -5 0 -7 -7 -4 -15z"/>
 <path d="M402 1380 c0 -14 2 -19 5 -12 2 6 2 18 0 25 -3 6 -5 1 -5 -13z"/>
 <path d="M370 1370 c6 -11 13 -20 16 -20 2 0 0 9 -6 20 -6 11 -13 20 -16 20 -2 0 0 -9 6 -20z"/>
 <path d="M844 1338 l-29 -33 33 29 c30 28 37 36 29 36 -2 0 -16 -15 -33 -32z"/>
 <path d="M259 1251 c7 -5 10 -14 7 -20 -4 -7 1 -11 13 -11 14 0 19 6 18 20 -1 14 -8 20 -27 20 -18 0 -21 -3 -11 -9z"/>
 <path d="M870 1115 c-10 -12 -10 -18 1 -31 10 -13 10 -17 -2 -25 -9 -5 -10 -9 -2 -9 19 0 26 20 13 35 -10 12 -10 18 0 30 7 8 10 15 7 15 -2 0 -10 -7 -17 -15z"/>
 <path d="M307 1103 c-17 -16 -6 -33 21 -32 24 2 25 2 4 6 -15 3 -22 10 -18 19 6 15 3 18 -7 7z"/>
 <path d="M840 1042 c0 -6 7 -18 16 -27 15 -15 15 -17 -1 -35 -9 -10 -15 -27 -12 -37 4 -17 5 -17 6 1 0 11 8 27 17 37 15 17 15 20 -5 45 -12 15 -21 22 -21 16z"/>
 <path d="M321 1007 c-1 -9 -6 -26 -13 -36 -9 -15 -9 -23 3 -37 8 -9 13 -25 11 -35 -2 -9 1 -19 5 -22 4 -3 8 8 9 23 1 16 -5 31 -12 34 -18 7 -18 26 0 40 9 7 11 18 6 31 -7 17 -9 18 -9 2z"/>
 <path d="M832 810 c0 -14 2 -19 5 -12 2 6 2 18 0 25 -3 6 -5 1 -5 -13z"/>
 <path d="M327 781 c-4 -17 -3 -21 5 -13 5 5 8 16 6 23 -3 8 -7 3 -11 -10z"/>
 <path d="M801 699 c-8 -23 -8 -36 0 -45 6 -7 7 -19 3 -26 -5 -10 -4 -10 6 -1 10 9 10 15 1 26 -8 11 -9 22 -1 42 6 15 9 30 6 32 -2 2 -9 -10 -15 -28z"/>
 <path d="M326 682 c-3 -6 -1 -14 5 -17 14 -9 20 -2 10 14 -6 8 -11 9 -15 3z"/>
 <path d="M350 636 c0 -2 7 -6 15 -10 8 -3 15 -1 15 4 0 6 -7 10 -15 10 -8 0 -15 -2 -15 -4z"/>
 <path d="M750 574 c-8 -19 -15 -24 -28 -19 -13 5 -14 4 -5 -6 10 -10 15 -9 28 1 8 7 15 18 15 25 0 8 6 16 13 18 9 4 9 6 -1 6 -7 1 -17 -11 -22 -25z"/>
 <path d="M470 579 c0 -6 -8 -8 -17 -5 -15 5 -15 4 1 -9 27 -20 35 -19 29 5 -6 22 -13 27 -13 9z"/>
 <path d="M634 582 c5 -8 0 -12 -13 -12 -17 0 -21 -6 -20 -27 2 -24 2 -25 6 -5 3 14 12 22 24 22 21 0 25 15 7 26 -7 4 -8 3 -4 -4z"/>
 <path d="M666 574 c-5 -14 -4 -15 8 -5 8 7 21 9 27 5 8 -4 9 -3 5 4 -10 17 -33 15 -40 -4z"/>
 <path d="M505 560 c-2 -3 7 -7 20 -8 13 -1 26 2 29 6 2 4 -7 7 -21 7 -14 0 -26 -2 -28 -5z"/>
 <path d="M431 535 l-2 -30 -14 25 c-8 14 -14 20 -15 14 0 -5 6 -19 14 -30 13 -17 15 -18 21 -2 4 9 5 25 2 35 -3 11 -5 6 -6 -12z"/>
 <path d="M576 495 c-11 -8 -15 -15 -9 -15 6 0 16 7 23 15 16 19 11 19 -14 0z"/>
 </g>
<g id="layer106" fill="#aaa09c" stroke="none">
 <path d="M640 2353 l-25 -15 27 6 c22 5 26 3 22 -9 -4 -8 -13 -15 -22 -15 -24 0 -10 -8 25 -15 23 -4 34 -1 41 11 14 26 33 8 22 -20 -9 -26 -5 -36 16 -36 10 0 11 6 5 23 -4 12 -6 28 -4 35 3 6 -1 12 -9 13 -7 0 5 6 27 13 l40 12 -58 0 c-34 0 -51 -3 -40 -7 17 -7 17 -8 0 -8 -10 -1 -20 6 -23 14 -7 18 -11 18 -44 -2z"/>
 <path d="M948 2350 c28 -12 28 -24 1 -36 -21 -9 -21 -10 3 -29 18 -16 20 -16 9 -2 -12 15 -12 19 5 31 15 12 16 16 5 30 -7 9 -21 16 -30 15 -11 0 -9 -3 7 -9z"/>
 <path d="M448 2343 c6 -2 18 -2 25 0 6 3 1 5 -13 5 -14 0 -19 -2 -12 -5z"/>
 <path d="M407 2320 c-3 -11 -1 -20 4 -20 5 0 9 9 9 20 0 11 -2 20 -4 20 -2 0 -6 -9 -9 -20z"/>
 <path d="M560 2331 c0 -9 23 -21 41 -21 4 0 6 7 3 15 -7 16 -44 21 -44 6z"/>
 <path d="M876 2311 c-4 -7 -5 -15 -2 -18 9 -9 19 4 14 18 -4 11 -6 11 -12 0z"/>
 <path d="M774 2296 c-3 -8 4 -24 15 -35 12 -12 21 -26 21 -32 0 -6 -7 -3 -16 5 -19 19 -30 20 -40 4 -4 -7 -4 -10 1 -6 9 9 35 -9 35 -24 0 -6 -8 -4 -17 3 -16 12 -16 12 -6 -1 6 -8 13 -31 16 -50 l4 -35 1 37 c1 20 7 40 12 43 9 6 14 -8 11 -27 0 -5 8 -8 19 -8 20 0 50 45 50 76 0 11 -6 15 -20 11 -14 -3 -27 4 -44 24 -28 33 -34 35 -42 15z"/>
 <path d="M827 2296 c-3 -8 1 -17 9 -20 22 -9 23 -8 17 14 -6 23 -19 26 -26 6z"/>
 <path d="M356 2258 c4 -15 3 -18 -6 -13 -9 6 -9 2 0 -16 18 -34 24 -38 16 -11 -5 14 -3 22 5 22 7 0 10 -3 6 -6 -3 -4 3 -25 15 -48 14 -27 16 -37 6 -29 -18 15 -28 7 -27 -21 0 -21 1 -21 9 -1 8 17 9 16 9 -9 l1 -28 34 38 c22 25 31 43 25 49 -14 14 -11 25 6 25 8 0 15 5 15 11 0 5 -4 7 -10 4 -5 -3 -10 -1 -10 4 0 6 9 11 19 11 26 0 32 12 16 27 -11 10 -15 10 -19 0 -3 -8 -7 -8 -13 -2 -4 6 -18 11 -31 12 -20 3 -22 -1 -18 -30 4 -32 4 -32 -6 -5 -14 33 -52 48 -42 16z"/>
 <path d="M564 2252 c-17 -27 -17 -27 3 -9 11 9 23 17 26 17 4 0 7 -71 7 -158 0 -88 3 -195 7 -238 l7 -79 7 50 c4 28 7 111 6 185 l-1 135 -6 -130 -6 -130 -2 186 c-2 151 -5 188 -16 192 -9 4 -22 -5 -32 -21z"/>
 <path d="M658 2267 c-19 -7 -28 -18 -27 -31 0 -21 1 -21 9 -1 5 11 9 16 9 11 1 -5 8 -3 16 4 8 7 24 10 34 7 14 -3 18 -1 14 9 -6 16 -17 16 -55 1z"/>
 <path d="M867 2164 c-10 -13 -24 -24 -32 -24 -15 0 -47 -62 -59 -113 -5 -22 -4 -27 6 -21 7 4 5 -2 -5 -13 -24 -28 -53 -114 -67 -204 l-12 -77 -28 16 c-38 22 -60 10 -60 -32 0 -41 -14 -56 -17 -18 -6 87 -10 103 -25 121 -13 16 -14 20 -3 23 10 2 7 11 -11 33 l-25 30 10 -27 c8 -23 8 -28 -4 -28 -11 0 -12 -6 -7 -22 5 -13 6 -32 4 -42 -3 -13 -10 -3 -23 34 -10 29 -16 57 -13 62 3 5 -1 24 -10 43 -12 25 -21 32 -36 28 -43 -11 -39 -99 11 -217 17 -41 40 -84 50 -95 17 -18 18 -21 3 -21 -11 0 -15 -6 -12 -18 3 -11 -1 -30 -8 -43 -17 -31 -17 -44 0 -62 11 -10 13 -23 7 -43 -4 -17 -10 -24 -14 -17 -11 18 -37 4 -38 -21 -1 -19 -2 -19 -9 4 l-7 25 -7 -30 c-16 -64 -24 -75 -58 -75 -29 1 -31 2 -17 13 15 11 15 16 3 40 -16 29 -29 34 -38 15 -3 -7 -5 -2 -5 12 2 40 -2 66 -7 53 -6 -13 -34 -6 -34 9 0 5 5 6 11 2 15 -9 69 45 70 70 1 17 2 18 6 4 2 -10 12 -18 22 -18 19 0 51 30 51 48 0 20 -23 25 -36 7 -9 -12 -19 -15 -31 -9 -16 7 -16 8 5 11 29 6 46 37 28 52 -7 6 -16 8 -19 5 -4 -4 -18 -8 -32 -10 -22 -2 -24 0 -14 12 7 9 15 11 18 5 4 -6 13 -4 24 4 16 11 16 13 2 19 -9 3 -13 2 -10 -4 3 -6 1 -10 -4 -10 -6 0 -11 5 -11 10 0 6 -3 9 -7 9 -22 -4 -33 2 -27 14 6 9 5 9 -8 -1 -12 -9 -14 -22 -8 -52 4 -23 3 -38 -2 -37 -6 1 -22 -18 -36 -44 -19 -33 -23 -50 -17 -65 5 -10 9 -38 10 -62 1 -39 0 -41 -12 -20 -16 29 -17 17 -2 -16 7 -14 16 -23 20 -20 12 7 11 -3 -1 -26 -7 -13 -6 -19 4 -23 9 -4 12 0 9 11 -2 9 3 26 11 37 l15 20 1 -20 c0 -44 -12 -65 -37 -65 -15 0 -22 -4 -17 -11 3 -6 17 -9 30 -6 19 3 24 -1 29 -27 4 -17 9 -40 11 -51 4 -15 3 -16 -4 -7 -7 11 -11 7 -14 -12 -3 -14 -1 -26 3 -26 5 0 9 6 9 13 0 9 3 8 9 -2 5 -8 14 -10 21 -6 8 5 18 1 27 -10 7 -11 13 -15 13 -11 0 5 7 3 15 -4 9 -7 19 -10 22 -6 4 4 1 11 -6 16 -8 4 -11 15 -8 25 4 9 12 13 19 9 8 -5 9 -2 5 9 -3 9 -3 16 1 16 19 -3 22 3 11 24 -14 25 -18 66 -7 73 4 2 11 -3 17 -13 8 -14 10 -10 16 22 10 60 12 62 24 32 12 -31 31 -28 31 6 0 18 2 19 10 7 9 -13 11 -13 20 0 9 13 10 13 10 0 0 -9 -6 -22 -12 -30 -11 -12 -10 -12 5 0 13 10 16 21 12 42 -4 16 -2 35 4 42 7 8 14 61 17 117 4 57 8 106 10 108 2 2 4 -34 5 -80 0 -56 3 -77 9 -64 7 15 9 9 9 -25 1 -25 6 -52 12 -60 9 -12 10 -10 6 8 -4 17 -2 22 8 19 7 -3 18 0 24 6 8 8 11 6 12 -9 0 -14 2 -15 6 -4 3 8 12 23 21 32 8 10 12 28 10 43 -4 20 -3 23 8 14 18 -15 18 -34 -1 -49 -8 -7 -15 -22 -14 -34 0 -15 2 -17 6 -6 4 8 12 20 19 25 14 12 24 74 13 80 -4 3 -4 17 0 33 6 19 1 39 -15 70 -12 23 -20 42 -17 42 9 0 73 -73 74 -84 9 -81 14 -90 35 -62 8 11 14 14 14 8 0 -7 -8 -20 -18 -30 -18 -18 -19 -18 -30 11 -7 17 -14 29 -16 26 -5 -5 19 -107 27 -115 2 -3 16 22 30 54 27 59 44 158 26 146 -5 -3 -7 -10 -4 -15 4 -5 1 -9 -5 -9 -6 0 -10 8 -9 18 3 30 0 38 -27 78 -15 21 -19 32 -9 24 13 -11 18 -11 24 -1 8 13 23 1 34 -29 3 -8 6 1 6 21 1 41 -7 53 -25 39 -9 -8 -18 -3 -34 17 -12 15 -29 31 -38 35 -12 5 -9 7 11 7 22 1 27 6 27 25 0 13 7 26 15 30 8 3 15 0 15 -6 0 -6 2 -9 5 -7 5 6 -24 91 -36 104 -5 5 -9 14 -9 20 0 5 4 4 9 -4 7 -11 13 -6 26 20 10 19 23 41 30 49 7 8 15 32 18 53 5 35 4 37 -11 25 -15 -11 -14 -10 1 15 23 36 18 53 -6 21z m-22 -43 c3 -5 1 -12 -5 -16 -5 -3 -10 1 -10 9 0 18 6 21 15 7z m-555 -714 c0 -5 -4 -5 -10 -2 -5 3 -10 14 -10 23 0 15 2 15 10 2 5 -8 10 -19 10 -23z m270 21 c0 -21 -17 -41 -28 -34 -8 4 -6 13 6 26 19 23 22 24 22 8z m-53 -80 c-3 -7 -5 -2 -5 12 0 14 2 19 5 13 2 -7 2 -19 0 -25z m-122 -68 c-3 -5 -10 -10 -16 -10 -5 0 -9 5 -9 10 0 6 7 10 16 10 8 0 12 -4 9 -10z m2 -97 c-11 -10 -27 8 -27 30 l0 21 16 -22 c9 -13 14 -26 11 -29z"/>
 <path d="M522 2135 c0 -16 2 -22 5 -12 2 9 2 23 0 30 -3 6 -5 -1 -5 -18z"/>
 <path d="M425 2117 c-14 -28 -15 -37 -5 -56 6 -13 9 -25 6 -29 -3 -3 -6 -2 -6 2 0 4 -7 0 -16 -9 -12 -11 -15 -26 -11 -52 4 -19 8 -37 11 -40 2 -2 22 14 45 37 31 32 41 49 40 73 0 31 -17 84 -18 60 -1 -7 -5 -13 -11 -13 -14 0 -13 33 2 48 9 9 9 12 -3 12 -9 0 -24 -15 -34 -33z"/>
 <path d="M911 2110 c0 -8 4 -22 9 -30 12 -18 12 -2 0 25 -6 13 -9 15 -9 5z"/>
 <path d="M361 2051 c-1 -35 29 -174 37 -166 2 2 -3 35 -12 72 -8 37 -17 82 -19 98 -4 30 -4 30 -6 -4z"/>
 <path d="M733 1962 c-30 -90 -28 -104 2 -22 14 36 24 70 22 77 -1 7 -12 -18 -24 -55z"/>
 <path d="M497 2013 c-4 -3 -7 -11 -7 -17 0 -6 5 -5 12 2 6 6 9 14 7 17 -3 3 -9 2 -12 -2z"/>
 <path d="M522 1980 c0 -14 2 -19 5 -12 2 6 2 18 0 25 -3 6 -5 1 -5 -13z"/>
 <path d="M864 1956 c-3 -8 -4 -29 -2 -48 3 -29 4 -27 8 15 5 48 3 58 -6 33z"/>
 <path d="M520 1936 c0 -8 4 -17 9 -20 5 -4 7 3 4 14 -6 23 -13 26 -13 6z"/>
 <path d="M702 1850 c0 -14 2 -19 5 -12 2 6 2 18 0 25 -3 6 -5 1 -5 -13z"/>
 <path d="M968 1857 c-11 -26 -10 -89 2 -107 5 -8 10 -12 10 -7 0 4 12 -5 28 -21 15 -15 19 -18 10 -7 -10 12 -18 29 -18 38 0 9 -4 17 -9 17 -6 0 -11 24 -13 53 -2 35 -5 46 -10 34z"/>
 <path d="M402 1845 c0 -11 3 -29 8 -40 11 -25 11 1 0 35 -6 20 -8 21 -8 5z"/>
 <path d="M581 1843 c7 -12 15 -20 18 -17 3 2 -3 12 -13 22 -17 16 -18 16 -5 -5z"/>
 <path d="M852 1820 c0 -19 2 -27 5 -17 2 9 2 25 0 35 -3 9 -5 1 -5 -18z"/>
 <path d="M872 1815 c0 -16 2 -22 5 -12 2 9 2 23 0 30 -3 6 -5 -1 -5 -18z"/>
 <path d="M681 1793 c-10 -26 -10 -27 4 -9 8 11 15 23 15 28 0 15 -7 8 -19 -19z"/>
 <path d="M812 1790 c7 -10 14 -18 15 -16 6 6 -9 36 -18 36 -5 0 -4 -9 3 -20z"/>
 <path d="M421 1770 c0 -8 4 -22 9 -30 12 -18 12 -2 0 25 -6 13 -9 15 -9 5z"/>
 <path d="M632 1764 c10 -10 20 -16 22 -13 3 3 -5 11 -17 18 -21 13 -21 12 -5 -5z"/>
 <path d="M881 1683 c-1 -35 3 -63 8 -63 4 0 6 24 4 53 -7 77 -11 81 -12 10z"/>
 <path d="M928 1700 c-13 -23 -14 -28 -2 -23 8 3 14 13 14 22 0 13 2 13 9 2 14 -22 11 -89 -5 -102 -9 -7 -12 -20 -8 -33 14 -52 16 -61 6 -47 -13 19 -32 -47 -33 -119 -1 -28 -4 -48 -7 -45 -3 3 -22 -10 -41 -29 -20 -20 -40 -36 -46 -38 -5 -2 -13 22 -16 52 l-6 55 -1 -64 c-2 -55 0 -62 13 -51 12 10 15 10 15 -3 0 -25 -33 -30 -52 -8 -9 12 -23 21 -32 21 -10 0 -16 8 -16 21 0 12 5 19 13 16 6 -2 11 -10 9 -16 -1 -6 2 -11 8 -11 5 0 10 6 10 13 0 8 4 7 10 -3 8 -12 10 -10 10 8 0 13 -4 20 -10 17 -5 -3 -10 -2 -10 4 0 5 4 11 10 13 5 2 7 13 4 24 -8 30 -58 37 -81 12 -13 -15 -19 -16 -32 -6 -12 10 -12 8 2 -8 9 -11 17 -29 17 -39 0 -18 1 -18 15 1 18 23 20 2 3 -26 -11 -17 -10 -22 1 -29 7 -5 10 -14 7 -20 -4 -6 -2 -11 3 -11 6 0 11 -7 11 -16 0 -13 3 -14 15 -4 8 6 20 10 27 7 9 -4 8 -6 -2 -6 -21 -1 -25 -55 -5 -71 8 -7 12 -16 9 -21 -3 -5 -2 -14 1 -19 7 -11 35 12 35 28 0 5 9 17 21 28 21 19 21 19 19 -1 -5 -44 0 -51 20 -26 11 12 17 28 13 35 -3 6 -1 6 8 -1 22 -22 44 -15 47 13 2 31 31 80 68 117 15 15 24 33 21 44 -4 16 -5 15 -6 -2 -1 -23 -41 -54 -41 -32 0 7 4 17 9 22 5 6 16 34 26 64 13 39 20 50 27 40 6 -10 7 -6 2 11 -4 14 -7 34 -5 45 6 57 2 79 -14 91 -9 7 -15 19 -12 26 4 10 6 10 6 1 2 -23 21 -13 21 10 0 30 -10 40 -27 26 -10 -9 -13 -5 -13 20 0 19 -4 30 -10 26 -5 -3 -10 -2 -10 3 0 23 -27 17 -42 -8z m-176 -332 c-7 -7 -12 -8 -12 -2 0 14 12 26 19 19 2 -3 -1 -11 -7 -17z m188 -114 c-16 -26 -27 -50 -25 -54 3 -5 -2 -10 -10 -14 -8 -3 -15 -4 -15 -2 0 14 67 116 75 116 3 0 -9 -21 -25 -46z m-130 -43 c0 -12 -20 -25 -27 -18 -7 7 6 27 18 27 5 0 9 -4 9 -9z"/>
 <path d="M440 1715 c0 -5 5 -17 10 -25 5 -8 10 -10 10 -5 0 6 -5 17 -10 25 -5 8 -10 11 -10 5z"/>
 <path d="M330 1696 c0 -2 9 -6 20 -9 11 -3 20 -1 20 4 0 5 -9 9 -20 9 -11 0 -20 -2 -20 -4z"/>
 <path d="M410 1663 c8 -3 19 -11 23 -17 6 -7 7 -6 4 4 -2 8 -12 16 -23 17 -13 2 -15 1 -4 -4z"/>
 <path d="M466 1655 c19 -51 15 -149 -4 -118 -5 7 -12 6 -22 -5 -13 -14 -12 -15 3 -9 20 7 21 3 7 -24 -18 -34 -3 -20 19 17 25 41 27 99 5 134 -10 16 -13 18 -8 5z"/>
 <path d="M923 1643 c-15 -5 -17 -29 -4 -37 12 -8 31 17 23 30 -4 6 -13 9 -19 7z"/>
 <path d="M260 1585 c-13 -24 -32 -46 -42 -48 -20 -6 -25 -51 -9 -76 6 -10 8 0 4 27 -5 34 -3 42 10 42 14 0 73 87 65 95 -2 2 -15 -16 -28 -40z"/>
 <path d="M432 1624 c9 -3 19 -13 22 -22 3 -12 4 -12 3 3 -1 12 -10 21 -22 22 -15 1 -15 0 -3 -3z"/>
 <path d="M1053 1545 c0 -22 2 -30 4 -17 2 12 2 30 0 40 -3 9 -5 -1 -4 -23z"/>
 <path d="M856 1514 c-4 -14 -5 -28 -3 -31 3 -2 8 8 11 23 4 14 5 28 3 31 -3 2 -8 -8 -11 -23z"/>
 <path d="M390 1513 c-32 -6 -50 -21 -49 -42 0 -11 3 -9 9 7 6 14 18 22 34 22 14 0 28 5 31 10 3 6 5 9 3 9 -2 -1 -14 -4 -28 -6z"/>
 <path d="M447 1450 c-3 -11 -1 -20 4 -20 5 0 9 9 9 20 0 11 -2 20 -4 20 -2 0 -6 -9 -9 -20z"/>
 <path d="M592 1450 c0 -14 2 -19 5 -12 2 6 2 18 0 25 -3 6 -5 1 -5 -13z"/>
 <path d="M830 1450 c-6 -11 -8 -20 -6 -20 3 0 10 9 16 20 6 11 8 20 6 20 -3 0 -10 -9 -16 -20z"/>
 <path d="M227 1447 c-3 -8 1 -14 9 -14 16 0 19 13 5 21 -5 3 -11 0 -14 -7z"/>
 <path d="M892 1435 c0 -16 2 -22 5 -12 2 9 2 23 0 30 -3 6 -5 -1 -5 -18z"/>
 <path d="M340 1435 c0 -5 5 -17 10 -25 5 -8 10 -10 10 -5 0 6 -5 17 -10 25 -5 8 -10 11 -10 5z"/>
 <path d="M1026 1415 c4 -8 8 -15 10 -15 2 0 4 7 4 15 0 8 -4 15 -10 15 -5 0 -7 -7 -4 -15z"/>
 <path d="M402 1380 c0 -14 2 -19 5 -12 2 6 2 18 0 25 -3 6 -5 1 -5 -13z"/>
 <path d="M370 1370 c6 -11 13 -20 16 -20 2 0 0 9 -6 20 -6 11 -13 20 -16 20 -2 0 0 -9 6 -20z"/>
 <path d="M844 1338 l-29 -33 33 29 c30 28 37 36 29 36 -2 0 -16 -15 -33 -32z"/>
 <path d="M259 1251 c7 -5 10 -14 7 -20 -4 -7 1 -11 13 -11 14 0 19 6 18 20 -1 14 -8 20 -27 20 -18 0 -21 -3 -11 -9z"/>
 <path d="M870 1115 c-10 -12 -10 -18 1 -31 10 -13 10 -17 -2 -25 -9 -5 -10 -9 -2 -9 19 0 26 20 13 35 -10 12 -10 18 0 30 7 8 10 15 7 15 -2 0 -10 -7 -17 -15z"/>
 <path d="M307 1103 c-17 -16 -6 -33 21 -32 24 2 25 2 4 6 -15 3 -22 10 -18 19 6 15 3 18 -7 7z"/>
 <path d="M840 1042 c0 -6 7 -18 16 -27 15 -15 15 -17 -1 -35 -9 -10 -15 -27 -12 -37 4 -17 5 -17 6 1 0 11 8 27 17 37 15 17 15 20 -5 45 -12 15 -21 22 -21 16z"/>
 <path d="M321 1007 c-1 -9 -6 -26 -13 -36 -9 -15 -9 -23 3 -37 8 -9 13 -25 11 -35 -2 -9 1 -19 5 -22 4 -3 8 8 9 23 1 16 -5 31 -12 34 -18 7 -18 26 0 40 9 7 11 18 6 31 -7 17 -9 18 -9 2z"/>
 <path d="M832 810 c0 -14 2 -19 5 -12 2 6 2 18 0 25 -3 6 -5 1 -5 -13z"/>
 <path d="M327 781 c-4 -17 -3 -21 5 -13 5 5 8 16 6 23 -3 8 -7 3 -11 -10z"/>
 <path d="M801 699 c-8 -23 -8 -36 0 -45 6 -7 7 -19 3 -26 -5 -10 -4 -10 6 -1 10 9 10 15 1 26 -8 11 -9 22 -1 42 6 15 9 30 6 32 -2 2 -9 -10 -15 -28z"/>
 <path d="M326 682 c-3 -6 -1 -14 5 -17 14 -9 20 -2 10 14 -6 8 -11 9 -15 3z"/>
 <path d="M350 636 c0 -2 7 -6 15 -10 8 -3 15 -1 15 4 0 6 -7 10 -15 10 -8 0 -15 -2 -15 -4z"/>
 <path d="M750 574 c-8 -19 -15 -24 -28 -19 -13 5 -14 4 -5 -6 10 -10 15 -9 28 1 8 7 15 18 15 25 0 8 6 16 13 18 9 4 9 6 -1 6 -7 1 -17 -11 -22 -25z"/>
 <path d="M470 579 c0 -6 -8 -8 -17 -5 -15 5 -15 4 1 -9 27 -20 35 -19 29 5 -6 22 -13 27 -13 9z"/>
 <path d="M634 582 c5 -8 0 -12 -13 -12 -17 0 -21 -6 -20 -27 2 -24 2 -25 6 -5 3 14 12 22 24 22 21 0 25 15 7 26 -7 4 -8 3 -4 -4z"/>
 <path d="M666 574 c-5 -14 -4 -15 8 -5 8 7 21 9 27 5 8 -4 9 -3 5 4 -10 17 -33 15 -40 -4z"/>
 <path d="M505 560 c-2 -3 7 -7 20 -8 13 -1 26 2 29 6 2 4 -7 7 -21 7 -14 0 -26 -2 -28 -5z"/>
 <path d="M431 535 l-2 -30 -14 25 c-8 14 -14 20 -15 14 0 -5 6 -19 14 -30 13 -17 15 -18 21 -2 4 9 5 25 2 35 -3 11 -5 6 -6 -12z"/>
 <path d="M576 495 c-11 -8 -15 -15 -9 -15 6 0 16 7 23 15 16 19 11 19 -14 0z"/>
 </g>
<g id="layer107" fill="#ddd5cc" stroke="none">
 <path d="M640 2354 c-23 -13 -21 -14 30 -10 30 2 47 2 37 -1 -9 -2 -14 -9 -11 -15 4 -7 0 -7 -12 0 -14 7 -23 6 -34 -6 -13 -14 -13 -15 1 -10 9 3 22 2 29 -2 9 -6 19 -2 28 11 7 10 23 19 35 20 18 1 16 3 -8 10 -16 5 -36 7 -42 4 -7 -2 -13 0 -13 5 0 13 -9 11 -40 -6z"/>
 <path d="M949 2349 c16 -6 21 -14 16 -27 -5 -13 -4 -14 6 -5 15 15 -5 43 -30 42 -10 0 -8 -4 8 -10z"/>
 <path d="M565 2330 c3 -5 10 -10 16 -10 5 0 9 5 9 10 0 6 -7 10 -16 10 -8 0 -12 -4 -9 -10z"/>
 <path d="M945 2290 c10 -11 20 -20 22 -20 2 0 -2 9 -9 20 -7 11 -17 20 -22 20 -5 0 -1 -9 9 -20z"/>
 <path d="M727 2287 c-3 -9 1 -18 10 -21 22 -9 25 -3 10 19 -12 15 -15 16 -20 2z"/>
 <path d="M825 2290 c-3 -5 -18 -8 -33 -4 -26 5 -26 5 -8 -10 10 -8 22 -13 27 -11 4 3 11 0 15 -6 5 -8 3 -9 -6 -4 -9 6 -11 -2 -6 -35 3 -24 7 -45 9 -47 9 -8 33 9 43 30 12 27 8 48 -9 41 -7 -2 -18 5 -26 17 -11 19 -11 21 3 16 9 -4 16 -2 16 3 0 14 -18 21 -25 10z"/>
 <path d="M414 2239 c5 -40 4 -42 -9 -25 -8 11 -15 25 -15 32 0 6 -7 14 -15 18 -22 8 -21 5 24 -83 19 -36 20 -43 7 -38 -9 4 -16 2 -16 -3 0 -20 18 -18 40 5 20 21 21 27 9 41 -11 13 -11 18 -1 21 19 7 14 38 -8 58 -21 19 -21 18 -16 -26z"/>
 <path d="M680 2271 c0 -5 9 -11 19 -14 14 -3 18 -1 14 9 -6 15 -33 19 -33 5z"/>
 <path d="M561 2248 c-13 -22 -13 -23 6 -5 11 9 22 17 26 17 4 0 8 -71 10 -157 l3 -158 2 163 c2 149 1 162 -16 162 -9 0 -23 -10 -31 -22z"/>
 <path d="M633 2245 c-3 -9 -3 -19 1 -22 3 -4 6 1 6 11 0 9 4 15 9 11 5 -3 12 -1 16 5 3 5 -1 10 -10 10 -8 0 -18 -7 -22 -15z"/>
 <path d="M351 2230 c14 -31 19 -36 19 -24 0 6 -7 19 -16 30 -14 18 -14 18 -3 -6z"/>
 <path d="M775 2230 c10 -11 23 -20 28 -20 6 0 2 9 -8 20 -10 11 -23 20 -28 20 -6 0 -2 -9 8 -20z"/>
 <path d="M433 2122 c-27 -32 -28 -42 -8 -68 8 -10 14 -26 15 -34 0 -13 -1 -13 -10 0 -8 13 -11 13 -26 -1 -12 -12 -14 -25 -9 -48 4 -17 9 -31 11 -31 3 0 20 15 38 33 34 32 40 48 36 102 l-2 30 -12 -29 -13 -29 -6 29 c-3 16 -1 37 5 47 15 29 5 28 -19 -1z"/>
 <path d="M845 2140 c-3 -5 1 -10 9 -10 9 0 16 5 16 10 0 6 -4 10 -9 10 -6 0 -13 -4 -16 -10z"/>
 <path d="M802 2090 c-25 -53 -27 -73 -8 -89 19 -16 43 -4 50 25 4 13 10 24 16 24 5 0 7 12 4 26 -3 19 -1 24 8 18 9 -5 8 -2 -1 10 -14 17 -16 17 -27 1 -11 -15 -13 -14 -16 7 -4 20 -7 17 -26 -22z"/>
 <path d="M624 1990 c0 -69 1 -97 3 -62 2 34 2 90 0 125 -2 34 -3 6 -3 -63z"/>
 <path d="M363 2040 c0 -25 2 -35 4 -22 2 12 2 32 0 45 -2 12 -4 2 -4 -23z"/>
 <path d="M371 1980 c0 -8 6 -35 13 -60 8 -25 15 -38 15 -30 0 8 -6 35 -13 60 -8 25 -15 38 -15 30z"/>
 <path d="M753 1943 c-11 -27 -26 -77 -32 -113 -7 -36 -14 -72 -16 -81 -4 -23 38 -94 55 -94 8 0 15 -5 15 -12 0 -6 3 -15 8 -19 4 -4 7 -15 7 -25 0 -27 21 -35 36 -14 18 24 9 93 -15 120 -10 11 -22 31 -25 45 -6 23 -6 23 5 5 17 -28 16 -28 28 -21 7 5 2 19 -12 41 -17 27 -27 33 -44 28 -14 -3 -23 -1 -23 7 0 6 4 9 9 5 5 -3 15 1 23 8 7 8 19 12 26 9 9 -3 10 3 2 22 -7 21 -6 26 5 26 8 0 15 5 15 10 0 6 -4 10 -8 10 -4 0 -9 10 -9 23 -3 37 -13 67 -22 67 -5 0 -17 -21 -28 -47z"/>
 <path d="M862 1925 c0 -16 2 -22 5 -12 2 9 2 23 0 30 -3 6 -5 -1 -5 -18z"/>
 <path d="M427 1913 c-27 -26 34 -234 80 -276 11 -9 23 -14 28 -10 4 5 5 -1 0 -12 -4 -11 -17 -46 -29 -77 -20 -56 -20 -58 -2 -71 18 -13 18 -15 0 -53 -16 -34 -19 -36 -22 -16 -2 12 -7 22 -12 22 -4 0 -11 -10 -14 -22 -7 -22 -7 -22 -15 -3 -8 19 -8 19 -15 -2 -4 -13 -4 -33 0 -45 3 -13 3 -20 -1 -16 -4 4 -15 -7 -24 -25 -9 -17 -24 -33 -33 -35 -25 -5 -23 15 2 23 11 3 20 11 20 16 0 6 -4 8 -8 5 -4 -3 -26 -1 -47 4 -22 5 -41 7 -43 5 -3 -2 6 -40 24 -103 2 -8 9 -10 16 -5 23 14 38 11 49 -9 16 -29 0 -37 -21 -10 -18 22 -39 14 -24 -10 5 -7 3 -8 -6 -3 -8 5 -11 3 -8 -6 3 -8 11 -13 18 -11 7 1 17 -1 24 -6 6 -5 20 -12 30 -16 16 -5 17 -4 7 8 -15 18 -5 40 15 32 11 -4 11 1 -2 27 -16 30 -16 31 0 18 16 -13 17 -12 14 15 -2 16 -7 32 -13 37 -7 4 -6 10 1 15 5 4 18 18 28 32 l18 25 -6 -40 c-4 -28 -3 -34 4 -20 5 11 9 32 9 48 1 29 20 38 22 10 1 -12 4 -10 9 7 4 14 8 20 9 14 2 -19 46 -9 50 12 3 15 1 16 -12 6 -12 -10 -16 -10 -21 4 -8 21 -8 26 3 20 5 -3 11 1 15 9 3 8 11 12 19 9 11 -4 15 12 20 72 4 42 7 104 7 137 0 52 -2 58 -15 47 -14 -11 -14 -10 -7 11 8 20 9 52 3 80 0 3 -11 17 -22 30 l-22 24 6 -25 c3 -14 2 -41 -3 -60 -7 -32 -8 -32 -9 -8 -1 15 -8 45 -17 67 -8 21 -15 45 -14 52 4 31 -13 59 -34 59 -13 0 -26 -3 -29 -7z"/>
 <path d="M968 1857 c-11 -26 -10 -89 2 -107 7 -11 10 -11 10 -2 0 7 5 10 10 7 6 -3 10 -1 10 4 0 6 -4 11 -9 11 -6 0 -11 24 -13 53 -2 35 -5 46 -10 34z"/>
 <path d="M402 1840 c0 -14 2 -19 5 -12 2 6 2 18 0 25 -3 6 -5 1 -5 -13z"/>
 <path d="M681 1793 c-10 -26 -10 -27 4 -9 8 11 15 23 15 28 0 15 -7 8 -19 -19z"/>
 <path d="M632 1764 c10 -10 20 -16 22 -13 3 3 -5 11 -17 18 -21 13 -21 12 -5 -5z"/>
 <path d="M619 1719 c-6 -11 -12 -71 -14 -132 -3 -72 -1 -101 4 -82 7 25 9 21 10 -30 1 -38 4 -55 10 -46 5 7 13 11 19 7 6 -3 13 -2 17 4 4 6 10 8 15 5 13 -8 21 27 9 42 -7 7 -9 16 -5 20 3 3 6 2 6 -4 0 -6 7 -14 16 -17 13 -5 15 -1 11 19 -3 19 -1 25 9 21 8 -3 11 0 7 9 -3 8 -9 12 -14 9 -5 -3 -9 1 -10 8 0 7 -2 21 -4 31 -3 17 -2 17 14 3 36 -32 41 -13 12 49 -10 22 -19 45 -21 50 -5 13 -40 40 -62 48 -12 4 -21 -1 -29 -14z m11 -128 c0 -6 -4 -13 -10 -16 -5 -3 -10 1 -10 9 0 9 5 16 10 16 6 0 10 -4 10 -9z"/>
 <path d="M947 1709 c4 -13 8 -18 11 -10 2 7 -1 18 -6 23 -8 8 -9 4 -5 -13z"/>
 <path d="M1015 1710 c10 -11 20 -20 23 -20 3 0 -3 9 -13 20 -10 11 -20 20 -23 20 -3 0 3 -9 13 -20z"/>
 <path d="M330 1696 c0 -2 9 -6 20 -9 11 -3 20 -1 20 4 0 5 -9 9 -20 9 -11 0 -20 -2 -20 -4z"/>
 <path d="M920 1685 c-11 -13 -10 -14 4 -9 9 3 16 10 16 15 0 13 -6 11 -20 -6z"/>
 <path d="M965 1678 c-4 -13 -5 -38 -3 -54 2 -21 -1 -28 -11 -26 -11 2 -12 -8 -8 -50 4 -30 3 -45 -2 -33 -12 30 -35 -75 -28 -131 3 -33 1 -44 -8 -41 -16 7 -28 -3 -42 -35 -7 -16 -18 -28 -24 -28 -7 0 -4 9 7 23 l19 22 -24 -20 c-13 -11 -26 -19 -30 -18 -3 1 -9 24 -12 50 l-6 48 -1 -54 c-2 -43 1 -52 13 -48 22 9 30 -14 10 -29 -16 -12 -21 -12 -35 1 -9 8 -21 11 -29 6 -9 -6 -6 -10 11 -15 14 -4 18 -9 11 -13 -7 -2 -13 -17 -13 -31 0 -21 -2 -24 -10 -12 -5 8 -10 10 -10 5 0 -6 9 -18 20 -28 11 -9 20 -13 20 -8 0 5 8 11 18 15 9 3 23 9 30 12 8 4 12 -3 12 -18 1 -22 1 -22 16 5 8 15 19 25 24 22 11 -7 32 30 23 39 -3 3 -2 6 4 6 6 0 18 12 28 26 9 15 12 23 6 20 -20 -13 -12 13 12 35 12 12 17 19 12 16 -6 -3 -17 -2 -24 2 -9 6 -5 11 16 18 24 9 28 15 26 44 -3 69 -2 66 -13 49 -5 -8 -10 -10 -10 -5 0 12 20 43 20 31 0 -5 7 -3 15 4 8 7 12 17 8 23 -3 5 -8 48 -10 96 -3 87 -17 124 -28 79z m-155 -462 c0 -2 -3 -11 -6 -20 -9 -24 -33 -20 -27 4 4 16 33 30 33 16z"/>
 <path d="M299 1673 c-12 -14 -12 -16 0 -8 11 6 13 4 8 -8 -3 -9 -2 -19 4 -22 5 -4 12 2 16 11 4 10 2 19 -5 22 -7 2 -10 8 -6 13 9 15 -3 10 -17 -8z"/>
 <path d="M364 1662 c3 -5 0 -13 -6 -15 -9 -4 -10 -6 -1 -6 17 -1 25 16 12 25 -7 4 -9 3 -5 -4z"/>
 <path d="M410 1663 c8 -3 19 -11 23 -17 6 -7 7 -6 4 4 -2 8 -12 16 -23 17 -13 2 -15 1 -4 -4z"/>
 <path d="M880 1643 c0 -13 5 -23 10 -23 13 0 13 11 0 30 -8 12 -10 11 -10 -7z"/>
 <path d="M480 1592 l5 -47 3 39 c2 21 0 42 -5 47 -4 4 -6 -13 -3 -39z"/>
 <path d="M915 1630 c-8 -13 4 -32 16 -25 12 8 12 35 0 35 -6 0 -13 -4 -16 -10z"/>
 <path d="M357 1619 c-9 -6 -27 -7 -38 -4 -20 7 -20 6 -5 -18 12 -18 23 -23 41 -19 30 5 35 11 26 34 -5 13 -10 14 -24 7z"/>
 <path d="M436 1623 c6 -4 14 -15 17 -23 5 -11 6 -9 4 4 -1 11 -9 21 -17 23 -10 3 -11 2 -4 -4z"/>
 <path d="M259 1543 c-21 -43 -21 -47 -6 -73 18 -29 12 -47 -9 -29 -8 7 -14 6 -20 -2 -4 -8 -3 -9 5 -5 8 5 16 -3 24 -23 8 -23 17 -30 34 -29 19 2 23 8 22 33 0 29 -1 29 -11 8 -14 -29 -28 -30 -28 -2 0 13 4 18 13 13 10 -6 10 -4 0 7 -16 16 -17 29 -3 29 6 0 24 10 40 22 21 15 28 27 24 40 -7 23 12 24 24 1 14 -24 42 -9 42 23 0 26 -1 26 -19 10 -13 -12 -21 -14 -26 -6 -4 6 -13 9 -20 6 -7 -2 -18 1 -24 7 -23 23 -40 14 -62 -30z"/>
 <path d="M1052 1540 c0 -19 2 -27 5 -17 2 9 2 25 0 35 -3 9 -5 1 -5 -18z"/>
 <path d="M204 1526 c-3 -8 -4 -25 -1 -38 3 -18 5 -16 6 9 1 21 7 33 19 36 16 4 16 5 -1 6 -10 0 -20 -5 -23 -13z"/>
 <path d="M443 1527 c-3 -6 -1 -7 5 -3 15 9 15 1 2 -25 -6 -10 -8 -19 -6 -19 3 0 12 13 20 28 13 25 13 29 0 29 -8 0 -18 -5 -21 -10z"/>
 <path d="M728 1472 c-24 -40 -23 -47 3 -23 11 10 19 27 17 36 -2 12 -7 9 -20 -13z"/>
 <path d="M230 1415 c0 -5 5 -17 10 -25 5 -8 10 -10 10 -5 0 6 -5 17 -10 25 -5 8 -10 11 -10 5z"/>
 <path d="M402 1380 c0 -14 2 -19 5 -12 2 6 2 18 0 25 -3 6 -5 1 -5 -13z"/>
 <path d="M710 1380 c0 -11 -7 -23 -15 -26 -8 -4 -15 -11 -15 -16 0 -7 5 -7 13 0 7 6 22 9 33 6 23 -6 49 18 41 38 -4 8 -6 7 -6 -4 -1 -24 -17 -23 -24 2 -7 26 -27 26 -27 0z"/>
 <path d="M334 1373 c2 -9 8 -19 15 -21 10 -3 10 0 2 17 -14 25 -20 27 -17 4z"/>
 <path d="M844 1338 l-29 -33 33 29 c30 28 37 36 29 36 -2 0 -16 -15 -33 -32z"/>
 <path d="M1008 1347 c-3 -19 -2 -25 4 -19 6 6 8 18 6 28 -3 14 -5 12 -10 -9z"/>
 <path d="M257 1336 c-3 -8 0 -17 7 -19 10 -4 12 1 9 14 -6 23 -9 24 -16 5z"/>
 <path d="M710 1287 c0 -14 4 -28 9 -32 6 -3 8 6 5 22 -7 37 -14 42 -14 10z"/>
 <path d="M245 1290 c3 -5 13 -10 21 -10 8 0 14 5 14 10 0 6 -9 10 -21 10 -11 0 -17 -4 -14 -10z"/>
 <path d="M259 1251 c8 -5 10 -14 6 -22 -6 -9 -3 -11 9 -6 10 4 19 7 22 7 2 0 1 7 -2 15 -4 8 -16 15 -28 15 -16 0 -18 -2 -7 -9z"/>
 <path d="M927 1233 c-4 -3 -7 -14 -7 -24 0 -10 -8 -23 -17 -28 -16 -9 -15 -10 6 -11 13 0 22 3 19 6 -4 3 -2 19 2 35 9 30 8 34 -3 22z"/>
 <path d="M870 1115 c-7 -9 -11 -17 -9 -20 3 -2 10 5 17 15 14 24 10 26 -8 5z"/>
 <path d="M307 1103 c-17 -16 -6 -33 21 -32 24 2 25 2 4 6 -15 3 -22 10 -18 19 6 15 3 18 -7 7z"/>
 <path d="M872 1064 c-7 -8 -8 -14 -3 -14 10 0 25 19 20 25 -2 1 -10 -3 -17 -11z"/>
 <path d="M840 1043 c0 -6 9 -20 20 -33 11 -13 20 -20 20 -16 0 4 -9 19 -20 33 -11 14 -20 21 -20 16z"/>
 <path d="M321 1007 c0 -9 -6 -26 -13 -36 -9 -15 -9 -23 3 -37 8 -9 13 -27 12 -38 -3 -20 -2 -20 6 -1 6 13 4 25 -5 36 -17 19 -18 36 -3 41 6 2 9 15 6 28 -2 15 -5 18 -6 7z"/>
 <path d="M806 715 c-3 -9 -6 -22 -5 -28 0 -7 5 -1 10 12 5 13 8 26 5 28 -2 2 -6 -3 -10 -12z"/>
 <path d="M325 670 c3 -5 11 -10 16 -10 6 0 7 5 4 10 -3 6 -11 10 -16 10 -6 0 -7 -4 -4 -10z"/>
 <path d="M799 658 c7 -9 9 -23 5 -30 -6 -10 -4 -11 7 0 11 10 10 15 -6 30 -17 15 -18 15 -6 0z"/>
 <path d="M350 636 c0 -2 7 -6 15 -10 8 -3 15 -1 15 4 0 6 -7 10 -15 10 -8 0 -15 -2 -15 -4z"/>
 <path d="M669 573 c-13 -16 -12 -17 3 -5 9 8 23 10 29 6 8 -4 9 -3 5 4 -10 17 -21 15 -37 -5z"/>
 <path d="M454 565 c22 -17 40 -20 32 -6 -3 5 -16 11 -28 14 -22 6 -22 5 -4 -8z"/>
 <path d="M746 564 c-4 -10 -12 -14 -24 -9 -14 5 -15 4 -4 -6 10 -11 15 -10 29 4 9 9 14 19 11 22 -3 3 -8 -2 -12 -11z"/>
 <path d="M517 558 c2 -5 10 -8 18 -8 8 0 16 3 18 8 3 4 -5 7 -18 7 -13 0 -21 -3 -18 -7z"/>
 <path d="M618 563 c6 -2 18 -2 25 0 6 3 1 5 -13 5 -14 0 -19 -2 -12 -5z"/>
 <path d="M431 532 c-1 -15 -5 -21 -13 -16 -7 5 -8 3 -3 -5 10 -18 28 2 22 25 -4 15 -5 14 -6 -4z"/>
 <path d="M576 495 c-11 -8 -15 -15 -9 -15 6 0 16 7 23 15 16 19 11 19 -14 0z"/>
 </g>

</svg>