<!DOCTYPE svg PUBLIC "-//W3C//DTD SVG 20010904//EN" "http://www.w3.org/TR/2001/REC-SVG-20010904/DTD/svg10.dtd">
<svg version="1.0" xmlns="http://www.w3.org/2000/svg" width="125px" height="250px" viewBox="0 0 1250 2500" preserveAspectRatio="xMidYMid meet">
<g id="layer101" fill="#1a1d1d" stroke="none">
 <path d="M631 2288 c-55 -8 -85 -24 -76 -39 10 -15 -76 -32 -99 -20 -23 12 -124 10 -143 -2 -23 -15 -13 -27 44 -55 31 -15 65 -38 75 -52 29 -40 44 -176 30 -268 -7 -42 -12 -90 -12 -106 0 -17 -9 -39 -20 -51 -44 -47 -45 -167 -1 -450 17 -109 21 -121 49 -146 17 -15 28 -30 24 -34 -4 -3 0 -4 8 -1 8 3 22 1 30 -4 13 -9 13 -12 -1 -20 -10 -5 -46 -29 -80 -52 -89 -60 -100 -86 -102 -240 -2 -134 10 -177 67 -245 80 -95 306 -110 405 -27 84 70 112 233 60 344 -26 55 -54 89 -122 147 -42 35 -47 57 -16 74 17 9 30 7 63 -7 22 -10 50 -25 61 -35 11 -9 29 -19 40 -21 11 -2 19 -9 18 -15 -1 -6 6 -9 16 -6 9 2 23 -3 30 -11 8 -9 21 -16 31 -16 10 0 25 -11 34 -25 9 -14 23 -25 31 -25 8 0 15 -9 15 -20 0 -11 5 -20 10 -20 6 0 10 4 10 9 0 5 2 16 5 24 4 8 -13 35 -40 64 l-45 51 30 10 c38 14 38 23 0 44 -37 21 -38 36 -5 44 21 5 23 8 12 18 -8 6 -19 20 -25 31 -10 18 -11 18 -9 -7 2 -31 -16 -42 -22 -13 -5 29 -54 72 -90 80 -42 9 -46 23 -32 103 17 101 22 286 9 324 -17 50 -51 98 -69 98 -9 0 -21 -10 -27 -22 -20 -42 -14 73 9 168 16 68 20 116 19 218 -2 164 -1 156 -13 156 -5 0 -20 12 -33 27 -26 30 -62 35 -153 21z m30 -183 c20 -70 6 -219 -27 -304 l-29 -73 -7 33 c-9 38 -2 158 11 192 5 12 8 71 7 130 -2 105 -1 107 16 85 10 -13 23 -41 29 -63z m123 -641 c12 -93 5 -125 -21 -91 -18 22 -13 137 6 137 5 0 11 -21 15 -46z"/>
 </g>
<g id="layer102" fill="#5d5f59" stroke="none">
 <path d="M617 2284 c-3 -3 -3 -13 0 -22 5 -14 3 -15 -8 -4 -16 15 -49 16 -49 1 0 -6 14 -22 30 -36 17 -14 43 -46 58 -72 24 -41 27 -56 27 -136 0 -109 -6 -148 -33 -217 -12 -29 -26 -72 -32 -95 -6 -24 -13 -43 -16 -43 -4 0 -3 7 0 15 3 9 1 50 -5 92 -8 62 -7 93 7 170 19 107 16 242 -6 269 -11 12 -26 15 -65 11 -33 -3 -60 0 -78 10 -17 9 -36 11 -50 6 -12 -4 -35 -7 -52 -8 -50 0 -43 -28 13 -48 27 -10 59 -28 71 -41 38 -41 53 -193 32 -331 -6 -38 -11 -122 -12 -185 -1 -87 -3 -104 -9 -70 -4 25 -5 51 -2 58 2 7 -1 19 -8 27 -9 10 -9 15 -1 15 6 0 11 7 11 15 0 15 -19 22 -21 8 -1 -5 -3 -17 -5 -28 -2 -11 -7 -47 -10 -80 -8 -79 41 -422 63 -448 26 -28 103 -67 134 -67 15 0 34 6 42 14 12 13 14 11 13 -15 -1 -22 -5 -28 -16 -23 -62 24 -101 13 -191 -52 -63 -46 -80 -86 -86 -203 -9 -163 37 -269 140 -317 68 -31 209 -34 273 -5 113 51 165 217 113 356 -22 59 -85 135 -112 135 -19 0 -57 59 -57 89 0 12 -6 21 -15 21 -36 0 -1 49 37 52 15 1 24 6 21 11 -2 4 1 15 9 24 8 11 9 14 1 10 -7 -5 -16 1 -23 13 -6 11 -19 20 -30 20 -23 0 -35 -16 -18 -24 7 -3 4 -4 -8 -1 -12 3 -27 -1 -34 -10 -10 -12 -10 -15 4 -15 9 0 16 -3 16 -8 0 -4 -19 -6 -42 -3 -33 3 -38 6 -23 11 16 6 17 8 5 12 -8 3 -6 4 6 2 13 -2 30 6 44 21 13 14 29 25 35 25 6 0 20 7 31 14 18 14 18 15 -14 27 -37 13 -64 49 -36 49 13 0 14 3 4 15 -14 17 -25 85 -14 85 4 0 18 -9 30 -21 12 -11 30 -22 40 -23 11 -2 20 -10 22 -19 4 -18 -13 -23 -23 -7 -3 5 -20 19 -37 32 -33 23 -30 11 6 -31 13 -15 15 -21 6 -17 -8 4 -2 -5 14 -19 l30 -27 -35 6 -34 6 34 -17 c21 -11 36 -27 38 -41 2 -14 -1 -21 -7 -17 -5 3 -10 1 -10 -5 0 -7 9 -14 19 -17 22 -6 35 -40 17 -46 -6 -3 7 -12 28 -22 59 -25 15 -42 -53 -20 -12 3 -31 3 -43 -2 -19 -6 -14 -9 27 -14 28 -3 64 -12 82 -20 29 -12 33 -11 51 11 22 27 42 20 42 -14 0 -36 23 -49 70 -41 43 7 49 15 25 35 -12 10 -15 10 -15 -3 0 -16 -26 -30 -41 -21 -5 3 -9 10 -9 16 0 7 5 6 15 -2 12 -10 16 -9 21 5 4 10 1 21 -7 26 -12 7 -12 9 1 9 12 1 11 4 -4 15 -17 13 -22 13 -36 0 -15 -14 -20 -11 -53 22 -20 20 -37 42 -37 50 0 7 -10 18 -22 23 -23 10 -23 10 2 7 18 -1 24 2 22 13 -1 10 3 9 14 -5 15 -18 16 -18 10 -2 -3 10 -6 23 -6 28 0 6 -5 7 -11 3 -6 -3 -4 7 4 22 24 48 41 246 29 338 -6 43 -16 84 -23 90 -9 8 -10 8 -4 -3 5 -9 4 -12 -3 -7 -7 4 -12 13 -12 20 0 7 -7 21 -16 32 -14 18 -15 17 -10 -21 2 -22 2 -32 -1 -22 -7 26 -27 15 -34 -19 -9 -38 -11 -24 -9 61 0 39 10 107 20 153 15 62 20 120 20 220 l0 137 -36 38 c-36 38 -54 46 -54 25 0 -9 -3 -9 -12 0 -7 7 -20 12 -30 12 -10 0 -18 -5 -18 -12 0 -9 -3 -9 -12 0 -13 13 -31 16 -41 6z m162 -742 c6 -29 11 -85 11 -124 0 -67 2 -73 35 -109 37 -41 42 -54 25 -64 -6 -3 -7 1 -4 9 4 10 -14 36 -49 73 -30 32 -60 69 -67 83 -8 14 -15 20 -17 13 -3 -7 5 -27 17 -43 12 -17 20 -33 17 -36 -3 -3 -19 20 -37 51 -35 61 -34 76 3 52 24 -16 24 -15 40 42 12 43 14 67 7 92 -5 18 -6 28 -1 23 5 -5 14 -33 20 -62z m-99 -42 c0 -5 -6 -7 -14 -4 -8 3 -24 1 -35 -6 -12 -6 -21 -7 -21 -1 0 10 21 18 53 20 9 0 17 -3 17 -9z m-213 -82 c-3 -7 -5 -2 -5 12 0 14 2 19 5 13 2 -7 2 -19 0 -25z m4 -112 c-5 -12 -12 -28 -14 -36 -4 -9 -6 -7 -6 7 -1 12 4 25 9 28 6 3 11 27 12 53 1 46 1 46 5 8 3 -22 0 -49 -6 -60z m189 -6 c0 -5 -4 -10 -10 -10 -5 0 -10 5 -10 10 0 6 5 10 10 10 6 0 10 -4 10 -10z m-190 -95 c0 -5 -5 -3 -10 5 -5 8 -10 20 -10 25 0 6 5 3 10 -5 5 -8 10 -19 10 -25z"/>
 <path d="M895 1000 c-3 -5 1 -10 10 -10 9 0 13 5 10 10 -3 6 -8 10 -10 10 -2 0 -7 -4 -10 -10z"/>
 <path d="M980 967 c0 -8 7 -17 15 -21 8 -3 15 -2 15 3 0 5 -7 14 -15 21 -12 10 -15 10 -15 -3z"/>
 <path d="M1040 953 c0 -6 5 -15 11 -19 8 -4 7 -9 -2 -15 -10 -6 -9 -10 6 -15 11 -4 28 -16 37 -28 16 -19 18 -19 18 -3 0 9 -16 34 -35 55 -19 20 -35 32 -35 25z"/>
 </g>
<g id="layer103" fill="#93887f" stroke="none">
 <path d="M675 2273 c5 -15 4 -16 -6 -5 -18 17 -49 15 -49 -4 0 -13 -3 -14 -15 -4 -8 7 -22 9 -31 6 -13 -5 -6 -17 33 -60 65 -71 78 -116 70 -244 -5 -74 -14 -115 -36 -172 -17 -41 -30 -87 -31 -102 0 -22 -5 -28 -22 -28 -17 0 -19 3 -9 9 11 7 12 29 6 108 -5 67 -3 113 5 143 7 25 12 95 13 157 0 140 -4 148 -84 139 -36 -4 -60 -3 -64 4 -3 6 -34 9 -73 7 -80 -3 -89 -21 -23 -47 113 -44 132 -127 100 -453 -10 -116 -10 -154 1 -225 25 -165 26 -188 13 -201 -18 -16 -16 -65 2 -101 9 -17 13 -30 11 -30 -3 0 -12 13 -21 30 -18 35 -19 80 -3 115 9 20 7 47 -7 129 -9 58 -18 123 -19 145 -1 57 -23 52 -32 -6 -7 -50 39 -421 57 -455 5 -10 24 -25 42 -34 18 -9 39 -22 47 -30 20 -17 65 -11 90 11 29 27 26 47 -7 43 -21 -2 -29 2 -31 16 -3 15 0 18 20 13 19 -5 32 1 57 27 19 19 40 32 47 29 8 -3 14 1 14 11 0 9 -8 16 -18 16 -18 0 -52 29 -52 43 0 4 7 7 17 7 15 0 15 1 0 18 -10 11 -17 35 -17 56 l0 38 35 -31 c20 -17 38 -31 40 -31 3 0 -8 19 -24 43 -34 49 -48 87 -31 87 17 0 1 20 -24 30 -12 4 -26 3 -34 -3 -15 -12 -27 -3 -17 12 3 6 21 11 39 11 26 0 35 -5 41 -22 4 -13 7 -26 6 -30 0 -3 6 -9 14 -12 8 -3 15 -4 15 -3 0 1 9 25 19 52 17 44 17 55 6 88 -12 35 -11 39 6 50 16 10 19 24 19 84 0 39 9 109 20 155 15 61 20 118 20 213 l0 130 -35 34 c-21 20 -41 31 -49 28 -9 -4 -18 -2 -21 3 -4 6 -15 10 -27 10 -15 0 -18 -4 -13 -17z m54 -807 c-3 -3 -11 5 -18 17 -13 21 -12 21 5 5 10 -10 16 -20 13 -22z m-71 -159 c5 -24 -15 -21 -21 4 -3 13 -1 19 6 16 7 -2 13 -11 15 -20z"/>
 <path d="M820 1707 c0 -1 4 -17 9 -35 6 -20 6 -32 0 -32 -5 0 -9 9 -9 20 0 11 -4 20 -9 20 -13 0 -23 -34 -15 -54 7 -19 -7 -21 -24 -4 -15 15 -15 12 3 -60 9 -33 17 -96 19 -141 4 -75 6 -84 35 -113 17 -17 31 -38 31 -47 0 -33 12 1 21 60 18 121 10 347 -12 334 -4 -3 -15 8 -24 25 -13 25 -25 38 -25 27z"/>
 <path d="M416 1664 c-9 -22 -8 -24 9 -18 8 4 15 12 15 20 0 19 -16 18 -24 -2z"/>
 <path d="M775 1267 c0 -49 15 -71 31 -46 5 8 3 10 -7 4 -12 -8 -12 -6 0 8 9 12 10 17 2 17 -7 0 -9 5 -6 10 5 8 11 8 20 0 11 -9 12 -7 9 7 -3 10 -15 25 -27 34 -22 16 -22 16 -22 -34z"/>
 <path d="M796 1167 c3 -8 11 -14 19 -14 20 0 19 4 -5 17 -15 8 -18 8 -14 -3z"/>
 <path d="M675 1150 c-10 -11 -14 -20 -9 -20 5 0 15 9 22 20 7 11 11 20 9 20 -2 0 -12 -9 -22 -20z"/>
 <path d="M740 1132 c0 -12 4 -22 9 -22 10 0 9 26 -2 36 -4 4 -7 -2 -7 -14z"/>
 <path d="M690 1130 c0 -5 9 -10 20 -10 11 0 20 5 20 10 0 6 -9 10 -20 10 -11 0 -20 -4 -20 -10z"/>
 <path d="M821 1119 c11 -11 23 -19 25 -16 6 6 -25 37 -37 37 -5 0 0 -9 12 -21z"/>
 <path d="M665 1073 c-5 -29 -3 -40 11 -50 10 -7 24 -13 31 -13 21 0 15 31 -7 37 -18 5 -18 7 -4 34 14 27 13 29 -5 29 -14 0 -21 -10 -26 -37z"/>
 <path d="M950 1066 c0 -3 5 -17 10 -32 9 -21 13 -25 23 -15 9 10 8 15 -5 25 -10 7 -15 16 -11 19 3 4 1 7 -5 7 -7 0 -12 -2 -12 -4z"/>
 <path d="M495 1003 c-114 -74 -130 -110 -130 -278 0 -90 4 -107 29 -158 46 -95 123 -137 251 -137 124 0 186 34 232 127 24 50 28 70 27 138 0 67 -5 89 -27 133 -17 33 -37 56 -53 62 -14 6 -22 15 -19 20 4 6 -7 15 -24 21 -17 6 -33 19 -36 29 -6 19 -107 68 -158 76 -25 5 -44 -2 -92 -33z m351 -134 c2 -4 -10 -5 -27 -2 -21 3 -29 1 -24 -6 3 -6 14 -11 23 -12 14 0 13 -2 -3 -9 -11 -5 -14 -9 -6 -9 7 -1 11 -7 7 -16 -3 -8 0 -15 6 -15 6 0 8 -3 5 -6 -11 -12 -39 19 -34 38 3 10 1 21 -4 24 -5 3 -9 9 -9 15 0 10 59 9 66 -2z m4 -85 c-7 -7 -20 -14 -29 -13 -11 0 -9 3 7 9 15 6 22 18 23 37 2 25 2 25 6 5 3 -13 -1 -30 -7 -38z"/>
 </g>
<g id="layer104" fill="#b0a093" stroke="none">
 <path d="M683 2269 c5 -19 4 -20 -18 -5 -34 23 -48 20 -39 -6 6 -22 6 -22 -13 -5 -11 9 -25 17 -31 17 -22 0 -12 -25 25 -60 54 -53 75 -107 74 -198 -1 -108 -6 -138 -34 -209 -14 -34 -28 -80 -32 -101 -5 -29 -12 -42 -28 -46 -27 -7 -37 3 -14 15 19 11 22 55 8 127 -6 28 -4 68 5 115 16 82 18 265 4 287 -6 10 -29 16 -72 17 -35 1 -91 4 -126 6 -42 2 -67 -1 -74 -10 -7 -9 -5 -14 8 -19 70 -25 104 -45 118 -73 28 -53 41 -176 28 -271 -22 -167 -25 -280 -9 -375 26 -149 27 -163 11 -176 -19 -15 -18 -63 2 -100 8 -17 14 -33 12 -35 -3 -2 -14 15 -26 39 -24 47 -27 41 -11 -32 7 -35 18 -54 36 -66 21 -14 27 -15 35 -4 8 11 9 10 4 -3 -5 -16 4 -23 27 -19 4 0 7 -4 7 -9 0 -14 53 -12 72 3 8 6 18 20 21 29 5 15 0 17 -39 13 -25 -3 -49 -7 -53 -9 -4 -3 -7 3 -8 12 -2 22 58 43 81 30 12 -7 16 -4 16 9 1 18 30 65 30 47 0 -6 -6 -16 -12 -24 -7 -7 0 -4 16 8 16 12 35 22 43 22 8 0 11 5 8 10 -4 7 -13 6 -27 -1 -16 -9 -19 -8 -16 2 3 8 -2 20 -9 28 -8 8 -12 22 -10 32 3 11 1 19 -4 19 -5 0 -9 -4 -9 -9 0 -5 -6 -11 -13 -14 -8 -3 -14 5 -15 24 -2 24 2 29 19 29 17 0 20 5 17 25 -7 33 5 39 27 15 32 -36 36 -21 7 30 -21 39 -24 52 -14 58 23 15 -13 35 -49 28 -22 -4 -29 -2 -27 7 8 22 69 20 100 -3 27 -20 29 -20 35 -3 10 25 10 93 0 121 -7 19 -5 24 10 28 15 4 18 17 21 87 1 45 10 107 19 137 13 41 17 92 17 205 l0 150 -32 34 c-19 19 -38 31 -47 28 -8 -4 -17 -2 -20 3 -4 6 -13 10 -22 10 -11 0 -14 -6 -10 -21z m67 -424 c0 -8 -2 -15 -4 -15 -2 0 -6 7 -10 15 -3 8 -1 15 4 15 6 0 10 -7 10 -15z m-173 -382 c-3 -10 -5 -4 -5 12 0 17 2 24 5 18 2 -7 2 -21 0 -30z m87 -44 c-3 -5 -10 -7 -15 -3 -5 3 -7 10 -3 15 3 5 10 7 15 3 5 -3 7 -10 3 -15z m-56 -212 c8 -10 6 -13 -7 -13 -11 0 -17 6 -14 13 3 7 6 13 8 13 1 0 7 -6 13 -13z m-7 -125 c-7 -2 -18 1 -23 6 -8 8 -4 9 13 5 13 -4 18 -8 10 -11z"/>
 <path d="M823 1694 c3 -11 8 -29 12 -41 9 -32 -3 -28 -16 5 -9 24 -11 25 -20 9 -6 -9 -7 -26 -4 -37 7 -22 -5 -26 -23 -8 -16 16 -15 3 4 -57 8 -27 17 -88 19 -135 3 -80 5 -88 34 -119 17 -18 31 -38 32 -45 0 -6 5 3 10 19 23 74 23 375 -1 360 -4 -2 -13 9 -20 25 -14 35 -35 53 -27 24z"/>
 <path d="M427 1673 c-4 -3 -7 -11 -7 -17 0 -6 5 -5 12 2 6 6 9 14 7 17 -3 3 -9 2 -12 -2z"/>
 <path d="M415 1620 c-13 -20 -10 -149 5 -240 17 -106 18 -108 35 -76 13 24 12 44 -5 164 -28 187 -24 170 -35 152z"/>
 <path d="M672 1078 c-9 -32 -1 -48 23 -48 6 0 3 5 -5 10 -13 8 -13 13 2 40 14 25 15 30 3 30 -8 0 -18 -15 -23 -32z"/>
 <path d="M510 1009 c-74 -41 -118 -85 -132 -134 -6 -22 -11 -85 -12 -140 0 -114 19 -173 77 -233 51 -53 89 -65 202 -66 89 -1 105 2 143 23 109 63 154 258 86 371 l-15 25 5 -27 c7 -32 -15 -59 -47 -57 -21 1 -21 2 -2 6 24 6 35 21 35 50 0 16 -4 21 -16 16 -11 -4 -12 -9 -5 -16 17 -17 13 -27 -6 -21 -15 5 -16 4 -3 -6 13 -9 12 -11 -5 -8 -14 2 -21 14 -26 43 -7 40 4 60 25 48 5 -3 6 -1 2 5 -4 7 -16 12 -27 12 -10 0 -19 7 -19 15 0 9 -11 21 -25 27 -14 6 -24 16 -22 22 6 17 -42 37 -63 26 -15 -8 -17 -6 -13 8 3 13 -5 21 -30 30 -45 16 -44 16 -107 -19z"/>
 <path d="M960 1030 c0 -5 7 -10 15 -10 8 0 15 5 15 10 0 6 -7 10 -15 10 -8 0 -15 -4 -15 -10z"/>
 <path d="M800 860 c0 -5 7 -10 16 -10 8 0 12 5 9 10 -3 6 -10 10 -16 10 -5 0 -9 -4 -9 -10z"/>
 </g>
<g id="layer105" fill="#d0c0b2" stroke="none">
 <path d="M683 2270 c6 -24 -5 -26 -23 -5 -20 24 -43 19 -34 -7 6 -22 6 -22 -13 -5 -22 19 -43 23 -43 7 0 -6 16 -27 36 -47 20 -20 45 -56 56 -80 35 -79 27 -233 -17 -341 -14 -35 -28 -83 -32 -108 -4 -34 -9 -44 -21 -39 -8 3 -21 0 -28 -6 -19 -15 -18 0 1 74 16 64 19 107 7 107 -15 0 -12 61 4 86 13 19 18 54 20 152 2 70 1 119 -2 109 -5 -16 -7 -16 -22 2 -11 12 -35 21 -66 25 -27 3 -57 13 -67 22 -19 17 -69 13 -69 -7 0 -6 -7 -3 -16 6 -12 12 -19 13 -30 4 -11 -9 -3 -17 44 -39 32 -15 65 -39 75 -53 18 -27 37 -127 37 -194 0 -23 5 -45 10 -48 6 -3 10 -12 10 -18 0 -7 -4 -6 -10 3 -8 13 -9 13 -14 0 -19 -62 -23 -313 -6 -427 19 -122 18 -121 43 -126 19 -4 18 -4 -5 -6 -46 -2 -60 -48 -32 -107 21 -44 11 -57 -11 -15 -8 17 -17 31 -19 31 -4 0 10 -71 18 -91 8 -19 80 -61 90 -52 3 3 6 1 6 -5 0 -7 13 -12 30 -12 21 0 35 8 46 25 18 27 14 42 -8 29 -7 -5 -22 -7 -33 -6 -19 2 -19 2 -2 -12 10 -8 14 -17 9 -20 -5 -3 -15 1 -22 10 -7 8 -20 12 -28 9 -10 -4 -12 0 -8 10 3 9 2 14 -3 11 -5 -3 -14 0 -20 8 -9 10 -8 16 4 26 8 7 12 17 8 23 -4 6 0 8 10 4 10 -4 22 3 34 19 l19 25 19 -21 c18 -20 18 -20 -6 -18 -16 2 -24 -2 -24 -12 0 -9 12 -15 32 -17 27 -2 32 1 38 26 3 16 13 32 21 35 8 3 14 9 14 13 -1 13 -40 59 -40 46 0 -6 7 -18 15 -26 8 -8 11 -17 8 -21 -12 -12 -23 -6 -23 13 0 11 -5 23 -10 26 -6 4 -8 11 -5 16 4 5 -1 12 -10 15 -14 6 -14 8 1 25 9 11 23 19 31 19 9 0 11 8 7 26 -6 23 -4 25 15 19 22 -7 26 1 12 23 -4 8 -19 11 -34 8 -19 -3 -24 -1 -20 10 3 8 12 14 20 14 8 0 20 6 28 13 11 11 10 16 -6 25 -11 7 -30 10 -44 6 -19 -5 -25 -2 -25 10 0 25 80 22 107 -4 l22 -19 10 32 c11 33 10 65 -3 105 -5 15 -3 24 6 27 11 4 12 24 7 88 -4 46 -11 93 -18 105 -16 30 -15 48 3 33 11 -10 17 -4 31 32 38 100 11 387 -36 387 -6 0 -7 -4 -4 -10 9 -15 -4 -12 -21 5 -22 21 -37 19 -31 -5z m-98 -780 c3 -5 1 -18 -4 -27 -6 -10 -11 -13 -11 -6 0 6 -3 18 -6 27 -7 17 11 22 21 6z m-9 -176 c-3 -9 -6 -20 -6 -25 0 -4 -7 -6 -16 -2 -16 6 -16 7 -1 18 9 7 14 15 10 18 -3 4 -1 7 6 7 8 0 11 -6 7 -16z"/>
 <path d="M776 1845 c-3 -9 -6 -29 -5 -43 1 -22 3 -19 10 12 10 40 6 60 -5 31z"/>
 <path d="M824 1700 c13 -42 15 -70 6 -70 -5 0 -10 9 -10 19 0 11 -4 23 -10 26 -10 6 -14 -12 -10 -55 2 -21 0 -22 -14 -11 -24 20 -27 10 -10 -39 8 -24 18 -87 21 -140 6 -92 7 -98 34 -116 16 -10 30 -25 32 -34 2 -8 2 0 0 18 -3 22 -1 32 6 28 26 -17 14 245 -15 323 -16 43 -41 86 -30 51z"/>
 <path d="M427 1673 c-4 -3 -7 -11 -7 -17 0 -6 5 -5 12 2 6 6 9 14 7 17 -3 3 -9 2 -12 -2z"/>
 <path d="M415 1620 c-17 -27 -5 -196 22 -320 l5 -25 9 23 c5 13 7 27 4 32 -6 10 -28 236 -26 273 1 28 -3 34 -14 17z"/>
 <path d="M680 1094 c0 -8 5 -12 10 -9 6 3 10 10 10 16 0 5 -4 9 -10 9 -5 0 -10 -7 -10 -16z"/>
 <path d="M504 1004 c-121 -73 -140 -113 -132 -295 5 -118 22 -164 82 -217 93 -82 294 -82 373 0 70 73 98 213 59 298 -15 32 -16 33 -9 5 12 -48 9 -188 -5 -210 -12 -19 -12 -18 -7 5 14 68 14 89 3 137 -10 46 -13 51 -30 42 -10 -5 -24 -7 -30 -3 -8 5 -5 10 8 15 16 6 16 8 2 8 -21 1 -34 26 -33 66 0 22 4 30 17 29 10 -1 15 2 12 7 -3 5 -16 9 -30 9 -13 0 -24 5 -24 11 0 17 -71 79 -90 79 -10 0 -23 -7 -30 -15 -7 -9 -15 -13 -17 -11 -3 3 -16 1 -29 -4 -14 -6 -26 -6 -29 1 -4 5 -3 9 2 8 22 -4 43 3 64 19 l22 19 -33 16 c-45 23 -47 22 -116 -19z m63 -99 c0 -8 -7 -15 -15 -15 -12 0 -12 3 -2 15 7 8 13 15 15 15 1 0 2 -7 2 -15z"/>
 <path d="M960 1030 c0 -5 7 -10 16 -10 8 0 12 5 9 10 -3 6 -10 10 -16 10 -5 0 -9 -4 -9 -10z"/>
 </g>
<g id="layer106" fill="#f5e7db" stroke="none">
 <path d="M620 2272 c0 -6 5 -14 10 -17 24 -15 -4 -24 -31 -10 -16 9 -29 14 -29 12 0 -2 20 -25 45 -51 66 -72 90 -173 66 -278 -5 -21 -5 -38 -1 -38 5 0 -4 -28 -19 -62 -34 -75 -55 -160 -48 -193 5 -27 -2 -32 -19 -15 -12 12 -64 -6 -64 -22 0 -4 -4 -8 -9 -8 -5 0 -5 18 0 42 6 23 9 82 8 132 -2 61 4 112 15 156 13 47 16 82 12 128 -10 92 -19 109 -64 122 -22 5 -45 17 -53 26 -9 11 -22 13 -50 9 -22 -4 -40 -2 -44 4 -8 13 -25 14 -25 2 0 -5 19 -16 43 -26 83 -33 103 -69 114 -202 4 -51 12 -93 20 -101 15 -16 17 -32 3 -32 -5 0 -10 5 -10 12 0 9 -3 9 -12 0 -17 -17 -24 -318 -9 -401 16 -87 19 -104 20 -117 1 -7 17 -14 36 -16 27 -3 36 0 41 14 3 10 10 18 15 18 6 0 8 4 4 9 -5 10 12 25 30 26 6 1 9 6 8 13 -2 7 3 12 10 12 8 0 7 3 -2 9 -12 8 -9 11 12 16 21 6 25 10 17 20 -6 8 -23 12 -38 11 -21 -3 -29 -11 -41 -47 -13 -41 -14 -42 -23 -19 -6 16 -5 26 1 28 6 2 8 14 5 28 -3 13 -3 32 0 41 6 15 9 15 16 3 7 -12 13 -12 34 -1 23 13 52 12 87 -3 13 -6 18 1 24 31 15 83 1 289 -23 316 -15 17 -10 32 11 32 19 0 48 69 51 122 4 62 -12 179 -29 212 -16 32 -59 74 -50 49 11 -27 -15 -31 -41 -7 -13 12 -24 17 -24 11z"/>
 <path d="M740 2268 c0 -9 5 -20 10 -23 13 -8 13 5 0 25 -8 13 -10 13 -10 -2z"/>
 <path d="M799 1660 c-1 -8 0 -30 1 -49 1 -22 -2 -31 -9 -27 -6 4 -11 14 -11 22 0 8 -4 14 -10 14 -5 0 -2 -19 6 -42 9 -24 18 -87 21 -140 5 -75 10 -101 23 -113 17 -15 18 -12 25 69 9 106 3 208 -13 214 -7 2 -12 11 -12 20 0 10 -5 24 -10 32 -9 13 -10 13 -11 0z"/>
 <path d="M417 1623 c-18 -17 6 -309 27 -330 9 -9 7 37 -4 96 -5 29 -11 95 -12 147 -1 52 -2 94 -3 94 -1 0 -5 -3 -8 -7z"/>
 <path d="M650 1391 c0 -25 6 -27 13 -6 4 8 2 17 -3 20 -6 4 -10 -3 -10 -14z"/>
 <path d="M594 1346 c-3 -7 -4 -17 -3 -22 1 -5 -1 -17 -6 -27 -4 -10 -5 -21 -2 -24 4 -3 11 5 16 19 5 13 16 30 25 37 9 7 16 17 16 22 0 14 -40 10 -46 -5z"/>
 <path d="M483 1289 c-25 -9 -29 -34 -13 -71 9 -19 20 -23 57 -25 32 -1 50 3 58 13 10 14 14 13 35 -4 23 -19 24 -21 7 -28 -14 -5 -15 -9 -6 -15 8 -4 18 -1 25 9 10 13 9 19 -5 29 -11 8 -12 12 -3 13 9 0 10 5 2 19 -5 11 -10 29 -10 40 0 12 -4 21 -10 21 -5 0 -10 -4 -10 -9 0 -17 -33 -22 -54 -8 -33 21 -49 25 -73 16z"/>
 <path d="M450 1195 c0 -11 5 -27 10 -35 8 -12 10 -12 10 5 0 11 -5 27 -10 35 -8 12 -10 12 -10 -5z"/>
 <path d="M603 1088 c1 -6 -9 -15 -23 -19 l-25 -7 26 -1 c32 -1 58 23 34 32 -8 4 -14 1 -12 -5z"/>
 <path d="M575 1030 c-9 -14 24 -38 45 -33 11 3 20 7 20 8 0 9 -61 32 -65 25z"/>
 <path d="M480 987 c-91 -61 -103 -86 -108 -222 -5 -129 9 -187 58 -247 49 -59 107 -81 215 -81 50 0 100 5 110 11 17 10 15 11 -14 5 l-33 -6 43 44 c28 27 49 61 58 89 17 59 16 146 -4 176 -20 31 -19 33 8 27 20 -4 20 -4 -3 9 -19 10 -25 22 -27 53 -1 22 3 43 10 48 7 5 4 6 -10 2 -16 -4 -25 0 -34 16 -6 12 -25 35 -42 50 -27 25 -32 26 -51 14 -29 -19 -106 -31 -106 -16 0 6 8 11 17 11 13 0 14 3 5 12 -7 7 -12 20 -12 30 0 26 -9 23 -80 -25z m114 -102 c-8 -19 -21 -19 -39 -1 -10 9 -11 16 -3 24 15 15 49 -4 42 -23z"/>
 <path d="M807 485 c-15 -14 -24 -25 -19 -25 5 0 19 11 32 25 30 32 23 32 -13 0z"/>
 </g>

</svg>