<!DOCTYPE svg PUBLIC "-//W3C//DTD SVG 20010904//EN" "http://www.w3.org/TR/2001/REC-SVG-20010904/DTD/svg10.dtd">
<svg version="1.0" xmlns="http://www.w3.org/2000/svg" width="125px" height="250px" viewBox="0 0 1250 2500" preserveAspectRatio="xMidYMid meet">
<g id="layer101" fill="#111213" stroke="none">
 <path d="M650 2303 c-71 -12 -100 -24 -100 -43 0 -14 -10 -20 -40 -25 -25 -4 -46 -3 -54 4 -14 12 -124 10 -143 -2 -7 -5 -13 -17 -13 -28 0 -15 15 -27 55 -44 68 -30 84 -55 97 -147 14 -101 -5 -294 -33 -324 -40 -43 -45 -158 -14 -354 7 -47 13 -92 14 -100 2 -97 22 -138 84 -169 15 -8 26 -18 25 -22 -2 -4 -32 -27 -68 -51 -93 -63 -110 -101 -112 -249 -1 -124 11 -175 57 -235 17 -22 21 -33 12 -37 -17 -6 -38 3 -31 14 3 5 0 9 -6 9 -7 0 -9 -7 -6 -16 3 -9 6 -18 6 -20 0 -2 8 -4 18 -4 13 0 14 -2 3 -9 -7 -5 -9 -11 -4 -14 5 -3 17 3 26 13 16 19 47 18 47 -1 0 -11 -17 -12 -23 -1 -2 4 -2 2 -1 -5 2 -6 -14 -18 -34 -26 -50 -20 -56 -21 -60 -5 -3 10 -2 10 6 -1 7 -9 11 -10 17 -2 8 14 -12 41 -31 41 -7 0 -17 -7 -22 -16 -11 -20 -28 -12 -35 17 -4 15 -2 19 9 15 8 -3 14 -1 14 4 0 5 -8 11 -17 13 -17 4 -17 5 0 6 20 1 24 21 3 21 -33 0 -42 -33 -22 -80 5 -11 -5 -23 -34 -39 -51 -28 -90 -70 -91 -96 0 -19 -1 -19 -8 -1 -7 18 -8 18 -14 3 -3 -9 -13 -17 -22 -17 -24 0 -18 -44 10 -70 l25 -24 -25 -26 c-24 -25 -34 -70 -16 -70 5 0 19 13 31 30 12 16 33 33 48 36 56 12 82 27 88 50 3 13 10 24 15 24 14 0 29 -37 23 -54 -8 -20 31 -113 59 -143 35 -39 60 -26 36 18 -10 19 -9 20 18 6 42 -21 76 -27 93 -16 13 8 12 11 -4 24 -21 16 -46 60 -46 82 0 8 -15 20 -32 28 -28 12 -30 14 -10 15 27 0 39 24 22 45 -10 12 -8 21 10 50 12 19 29 35 38 35 13 1 12 5 -8 21 -23 19 -23 22 -7 34 22 15 21 24 -1 42 -9 8 -11 12 -4 8 14 -7 137 -17 194 -15 21 0 58 7 84 15 25 7 53 11 62 8 9 -4 13 -2 9 4 -4 6 9 24 28 42 19 17 35 36 35 41 0 6 7 10 16 10 8 0 12 5 9 10 -3 6 2 10 12 11 10 0 13 3 6 6 -18 7 -16 48 2 66 8 8 12 16 10 19 -2 2 -5 34 -7 70 -1 37 -5 65 -9 63 -3 -3 -12 15 -19 38 -7 23 -23 55 -36 70 -13 16 -22 33 -18 38 3 5 -1 9 -8 9 -7 0 -19 9 -26 20 -7 12 -16 19 -21 16 -11 -7 -51 22 -51 38 0 28 26 64 55 76 16 7 32 12 35 12 3 0 15 14 27 31 37 55 68 418 44 504 -14 48 -62 105 -84 99 -17 -4 -18 1 -14 47 2 29 12 86 21 127 13 55 17 108 14 200 l-3 125 -36 38 c-30 31 -45 39 -80 41 -24 2 -55 1 -69 -1z m6 -211 c13 -71 -3 -223 -31 -287 l-26 -60 6 95 c3 52 8 146 11 209 6 100 8 112 20 96 8 -10 17 -34 20 -53z m123 -697 c-1 -67 -1 -69 -14 -40 -7 17 -12 47 -11 65 2 19 4 44 5 55 1 17 3 18 11 5 5 -8 9 -46 9 -85z"/>
 <path d="M209 498 l-23 -33 30 25 c16 14 33 28 39 32 5 5 2 8 -7 8 -9 0 -27 -15 -39 -32z"/>
 <path d="M207 433 c-12 -12 -7 -22 8 -17 8 4 15 10 15 15 0 11 -14 12 -23 2z"/>
 <path d="M465 260 c-10 -11 -13 -20 -7 -20 7 0 12 5 12 11 0 5 5 7 10 4 6 -3 10 1 10 9 0 21 -3 20 -25 -4z"/>
 <path d="M580 260 c0 -5 5 -10 10 -10 6 0 10 5 10 10 0 6 -4 10 -10 10 -5 0 -10 -4 -10 -10z"/>
 <path d="M554 219 c-3 -6 -17 -9 -30 -6 -13 2 -32 -2 -41 -10 -10 -8 -12 -11 -4 -7 7 3 17 1 21 -5 5 -10 16 -9 44 3 20 8 36 20 36 25 0 14 -17 14 -26 0z"/>
 <path d="M700 140 c0 -5 5 -10 10 -10 6 0 10 5 10 10 0 6 -4 10 -10 10 -5 0 -10 -4 -10 -10z"/>
 <path d="M630 130 c0 -5 5 -10 10 -10 6 0 10 5 10 10 0 6 -4 10 -10 10 -5 0 -10 -4 -10 -10z"/>
 </g>
<g id="layer102" fill="#5e5e5d" stroke="none">
 <path d="M619 2281 c-1 -3 -1 -10 0 -14 1 -4 -7 -3 -17 2 -27 14 -50 -3 -36 -26 10 -17 6 -18 -55 -16 -153 6 -196 2 -196 -16 0 -7 25 -25 55 -40 41 -19 60 -35 73 -62 20 -42 37 -217 24 -251 -5 -13 -11 -94 -14 -181 -6 -151 -14 -209 -14 -93 0 58 -10 71 -29 37 -15 -28 -12 -166 4 -257 8 -44 18 -106 21 -139 9 -88 20 -106 80 -144 l54 -34 -37 -19 c-20 -10 -59 -34 -85 -54 -69 -50 -87 -98 -87 -229 0 -160 34 -232 135 -284 121 -61 274 -44 350 40 29 33 34 43 24 55 -10 12 -9 13 4 8 12 -4 18 4 26 33 34 122 -11 258 -114 343 -81 66 -77 100 17 162 40 27 58 45 62 65 17 87 37 346 31 408 -6 68 -27 121 -44 110 -5 -2 -11 5 -14 16 -3 12 -10 18 -17 14 -6 -4 -9 -14 -6 -22 3 -8 1 -11 -4 -8 -6 3 -11 0 -11 -7 -1 -7 -5 14 -9 47 -7 48 -4 75 13 135 17 61 20 101 19 214 -1 131 -2 141 -24 162 -13 13 -29 30 -36 39 -10 12 -17 13 -27 5 -8 -7 -15 -7 -19 -1 -6 10 -95 12 -97 2z m32 -138 c20 -41 24 -62 24 -143 0 -82 -5 -109 -35 -198 -19 -56 -37 -96 -41 -90 -17 33 -19 124 -4 215 18 110 18 260 1 283 -7 10 -3 9 10 -2 11 -10 31 -39 45 -65z m136 -515 c-3 -7 -5 -2 -5 12 0 14 2 19 5 13 2 -7 2 -19 0 -25z m1 -208 c0 -47 -3 -96 -7 -110 -7 -23 -9 -21 -24 24 -21 62 -21 94 0 170 16 57 18 59 24 31 4 -16 7 -68 7 -115z m-311 -67 c-3 -10 -5 -4 -5 12 0 17 2 24 5 18 2 -7 2 -21 0 -30z m-10 -58 c-7 -13 -14 -20 -15 -14 -2 5 2 16 8 24 18 21 20 18 7 -10z m123 -335 c0 -5 -8 -10 -17 -10 -15 0 -16 2 -3 10 19 12 20 12 20 0z m110 -115 c0 -8 -10 -19 -21 -26 -22 -11 -20 -2 6 28 13 16 15 16 15 -2z m-257 -32 c-7 -2 -19 -2 -25 0 -7 3 -2 5 12 5 14 0 19 -2 13 -5z"/>
 <path d="M422 1677 c-17 -20 -12 -40 6 -28 8 5 12 16 10 26 -3 17 -4 17 -16 2z"/>
 <path d="M403 397 c-12 -7 -37 -32 -56 -56 -20 -25 -42 -46 -51 -47 -20 -3 -20 0 -1 36 14 27 14 29 -1 23 -8 -3 -20 -15 -24 -27 -9 -21 -9 -21 -9 2 -1 40 -21 13 -21 -29 0 -22 -4 -38 -9 -34 -5 3 -11 -3 -13 -12 -2 -10 -12 -18 -23 -18 -11 0 -19 -5 -18 -12 2 -6 -15 -30 -37 -53 -65 -68 -46 -66 30 2 38 35 70 66 70 70 0 4 10 12 21 19 12 6 19 7 15 1 -3 -5 4 -12 17 -16 19 -4 22 -13 25 -56 3 -56 30 -128 56 -149 13 -11 16 -11 16 1 0 7 -9 21 -20 31 -22 18 -28 43 -7 31 6 -5 27 -18 46 -31 37 -25 111 -35 77 -10 -9 7 -22 23 -29 37 -7 13 -23 27 -37 31 -25 7 -25 7 3 8 40 1 23 21 -18 21 -28 0 -33 4 -32 20 1 16 8 20 35 20 44 0 38 24 -7 28 -23 2 -30 7 -23 15 5 7 12 20 15 30 6 15 4 16 -16 6 -22 -12 -22 -12 -3 10 19 20 10 31 -10 11 -6 -6 -10 -3 -10 9 0 11 3 18 7 15 4 -2 9 3 13 11 3 8 12 15 19 15 8 0 24 9 37 20 13 11 30 20 39 20 14 0 14 2 1 10 -20 13 -40 12 -67 -3z"/>
 <path d="M254 381 c-55 -30 -94 -69 -96 -95 -2 -25 -14 -31 -47 -27 -14 2 -8 -12 17 -41 17 -21 32 -15 32 13 0 10 3 18 8 17 14 -3 42 14 37 22 -3 5 -1 11 5 15 5 3 10 15 10 26 0 25 49 72 67 64 8 -2 12 -1 8 4 -3 5 1 12 7 14 9 4 8 5 -2 5 -8 0 -29 -8 -46 -17z"/>
 <path d="M407 266 c-4 -10 -1 -13 9 -9 7 3 14 9 14 14 0 14 -17 10 -23 -5z"/>
 <path d="M205 190 c-11 -13 -14 -20 -6 -20 21 0 52 21 46 31 -9 14 -20 11 -40 -11z"/>
 </g>
<g id="layer103" fill="#9b6867" stroke="none">
 <path d="M621 2281 c-9 -6 -10 -11 -2 -15 6 -4 11 -12 11 -18 0 -6 -8 -4 -18 5 -21 20 -38 22 -47 6 -4 -6 11 -26 33 -44 23 -20 49 -56 62 -87 20 -47 22 -64 17 -153 -4 -80 -11 -115 -36 -178 -17 -43 -31 -85 -31 -95 -1 -15 -2 -15 -12 2 -16 27 -16 173 0 281 14 99 8 208 -14 226 -15 12 -76 15 -93 5 -6 -4 -24 0 -40 9 -23 11 -36 12 -57 5 -15 -6 -33 -9 -41 -6 -16 6 -43 -3 -43 -15 0 -4 27 -20 59 -35 73 -32 85 -55 102 -182 9 -70 9 -102 0 -138 -19 -73 -26 -310 -11 -374 22 -102 28 -169 13 -174 -7 -3 -13 -15 -13 -27 0 -12 -3 -19 -7 -16 -3 4 0 25 7 47 11 34 11 53 -5 137 -10 54 -18 119 -18 146 1 49 -9 60 -27 28 -16 -31 -12 -141 10 -280 12 -69 24 -146 28 -171 6 -40 13 -49 62 -82 30 -21 69 -38 85 -39 26 -1 24 -2 -10 -8 -86 -14 -188 -99 -210 -174 -20 -68 -19 -201 2 -266 28 -87 124 -161 214 -166 20 -2 41 -5 45 -8 5 -3 21 -3 35 0 21 4 25 9 21 25 -5 21 -5 21 25 3 27 -16 32 -16 60 -2 51 27 96 75 90 97 -3 11 -1 18 3 15 12 -8 33 33 26 51 -3 8 -1 14 4 14 5 0 8 19 8 43 0 54 -19 137 -30 131 -4 -3 -5 2 -2 10 8 20 -72 97 -94 90 -14 -5 -14 -4 -2 4 8 6 19 8 25 5 5 -3 -12 15 -39 39 -44 40 -48 46 -41 76 4 20 19 40 38 53 18 12 37 27 42 33 6 6 19 16 30 22 23 13 31 41 39 134 3 46 2 70 -5 70 -6 0 -3 7 5 16 17 16 19 51 16 198 -1 46 -7 91 -15 105 -8 14 -14 22 -15 16 0 -5 -9 1 -20 15 l-20 25 0 -23 c0 -13 -4 -20 -10 -17 -6 4 -13 -7 -16 -24 -4 -17 -11 -29 -18 -28 -12 2 -12 -5 4 -78 14 -62 15 -211 2 -245 -8 -23 -10 -21 -27 30 -22 66 -22 109 -1 172 15 42 15 51 2 82 -14 34 -14 36 7 51 20 14 22 23 20 90 -2 41 2 86 7 101 20 52 25 100 25 246 0 140 -6 178 -24 149 -7 -11 -10 -11 -17 0 -4 8 -8 23 -9 34 0 11 -8 21 -19 23 -13 3 -16 0 -10 -10 4 -7 -2 -5 -13 5 -27 24 -47 22 -40 -4 5 -19 4 -19 -11 -6 -27 23 -37 26 -51 18z m129 -71 c0 -6 10 -15 23 -20 12 -5 16 -9 10 -9 -7 -1 -14 -13 -14 -28 -1 -25 -3 -24 -12 10 -6 20 -14 37 -19 37 -4 0 -8 5 -8 10 0 6 5 10 10 10 6 0 10 -5 10 -10z m-216 -25 c3 -8 1 -15 -3 -15 -5 0 -11 7 -15 15 -3 8 -1 15 3 15 5 0 11 -7 15 -15z m263 -65 c-1 -12 -5 -16 -10 -11 -5 5 -6 14 -3 20 11 16 15 13 13 -9z m-66 -817 c13 -15 12 -15 -8 -4 -24 12 -29 21 -14 21 5 0 15 -7 22 -17z m-251 -122 c-1 -13 -29 45 -29 59 0 8 6 0 14 -19 8 -18 15 -36 15 -40z m10 -51 c0 -5 -4 -10 -10 -10 -5 0 -10 5 -10 10 0 6 5 10 10 10 6 0 10 -4 10 -10z m60 -23 c0 -5 -4 -5 -10 -2 -5 3 -10 14 -10 23 0 15 2 15 10 2 5 -8 10 -19 10 -23z m44 -149 c-3 -4 -15 -7 -27 -7 -17 1 -18 2 -4 6 11 3 17 15 18 36 l1 32 8 -29 c5 -16 7 -33 4 -38z m96 -134 c-18 -20 -127 -14 -114 7 3 5 13 5 24 -1 24 -13 60 -13 60 0 0 6 7 10 15 10 8 0 16 10 16 23 l2 22 4 -23 c3 -13 -1 -30 -7 -38z m-229 1 c18 4 29 3 26 -2 -16 -25 -97 -9 -97 20 0 5 9 2 19 -7 15 -13 28 -16 52 -11z m389 -40 c-14 -16 -46 -20 -54 -6 -3 4 6 6 20 3 20 -4 26 0 31 19 4 13 8 18 11 11 2 -7 -2 -19 -8 -27z m-365 -25 c7 -12 -2 -12 -30 0 -19 8 -19 9 2 9 12 1 25 -3 28 -9z m332 -20 c-3 -11 0 -20 6 -20 7 0 12 -10 12 -23 0 -16 -6 -22 -22 -23 -24 -2 -31 10 -12 22 8 5 6 10 -5 16 -16 9 -16 11 0 29 22 24 28 24 21 -1z m73 -51 c0 -9 -9 -19 -20 -22 -21 -5 -24 1 -15 26 8 19 35 17 35 -4z m-5 -39 c3 -5 -1 -10 -10 -10 -9 0 -13 5 -10 10 3 6 8 10 10 10 2 0 7 -4 10 -10z m-30 -36 c18 -18 11 -31 -20 -36 -13 -2 -20 3 -20 12 0 9 8 14 20 13 20 -1 20 -1 1 13 -11 8 -15 14 -9 14 7 0 19 -7 28 -16z m-55 -115 c0 -14 -20 -11 -21 4 0 10 -2 10 -6 0 -2 -7 -10 -13 -15 -13 -6 0 -8 3 -5 7 4 3 2 12 -4 19 -9 11 -6 12 20 3 17 -6 31 -15 31 -20z"/>
 <path d="M421 1672 c-14 -27 -12 -35 8 -23 7 5 11 17 9 27 -4 17 -5 17 -17 -4z"/>
 <path d="M339 225 c0 -5 -3 -19 -5 -30 -12 -46 -9 -60 12 -61 11 -1 21 5 21 12 0 7 -4 11 -9 8 -4 -3 -8 6 -8 20 0 20 5 26 23 27 20 1 20 2 2 6 -11 3 -23 10 -27 17 -5 6 -8 7 -9 1z"/>
 </g>
<g id="layer104" fill="#8e847d" stroke="none">
 <path d="M621 2281 c-9 -6 -10 -11 -2 -15 6 -4 11 -12 11 -18 0 -6 -8 -4 -18 5 -21 20 -38 22 -47 6 -4 -6 11 -26 33 -44 23 -20 49 -56 62 -87 20 -47 22 -64 17 -153 -4 -79 -11 -116 -35 -175 -16 -41 -32 -86 -35 -100 -7 -26 -53 -55 -62 -39 -3 5 -2 17 3 26 5 10 8 24 6 31 -1 7 0 8 2 3 3 -6 11 -8 18 -5 10 4 12 22 9 69 -3 35 0 94 8 132 7 37 13 114 13 170 0 126 -7 137 -79 130 -32 -3 -60 0 -77 9 -20 10 -34 11 -54 4 -15 -6 -33 -9 -41 -6 -16 6 -43 -3 -43 -15 0 -4 26 -20 58 -34 35 -16 65 -37 74 -53 24 -41 43 -212 29 -265 -18 -73 -26 -314 -11 -377 23 -104 27 -165 12 -180 -14 -13 -13 -64 2 -105 5 -13 2 -11 -8 5 -19 30 -20 72 -4 117 10 27 9 49 -6 123 -11 50 -19 115 -19 145 0 57 -9 69 -27 36 -16 -30 -12 -142 9 -270 11 -64 22 -138 26 -164 7 -50 37 -93 57 -81 7 4 8 3 4 -4 -9 -15 40 -40 94 -48 23 -4 54 -18 69 -31 l26 -24 -42 21 c-58 28 -91 25 -149 -11 -115 -72 -144 -128 -144 -275 0 -101 22 -172 67 -219 40 -42 114 -78 164 -80 20 -2 41 -4 45 -7 16 -8 70 7 57 15 -7 5 -13 12 -13 18 0 14 21 11 41 -7 15 -14 21 -14 53 0 20 8 36 20 36 25 0 6 7 11 16 11 21 0 9 16 -16 23 -16 4 -19 2 -11 -7 14 -16 4 -26 -26 -26 -12 0 -23 -4 -23 -10 0 -5 -7 -7 -16 -3 -14 5 -14 7 -1 14 10 6 13 17 9 31 -4 17 -2 20 11 15 10 -4 17 -2 17 3 0 6 8 10 18 11 15 0 15 1 -2 8 -19 7 -19 8 0 22 30 21 39 40 23 49 -10 7 -10 11 0 24 8 9 21 16 30 16 14 0 14 2 1 10 -8 5 -23 7 -32 4 -20 -6 -25 11 -7 22 8 5 6 10 -5 16 -15 8 -15 11 -1 30 10 15 11 26 5 33 -8 9 -4 11 15 7 19 -3 27 1 34 19 9 22 10 20 10 -14 1 -26 5 -36 12 -31 9 5 10 -1 5 -20 -4 -15 -2 -26 4 -26 13 0 8 -70 -5 -71 -5 -1 -14 -1 -20 0 -5 1 -2 -5 8 -12 9 -8 17 -22 17 -31 0 -10 5 -14 11 -10 6 3 9 15 6 25 -3 11 -1 19 4 19 5 0 9 7 9 15 0 8 -6 15 -12 15 -9 0 -10 3 -2 8 6 4 11 16 12 27 1 33 -21 114 -30 109 -4 -3 -5 2 -2 10 3 9 -11 30 -36 55 -24 23 -39 41 -35 41 4 0 2 7 -5 15 -7 9 -15 13 -17 11 -7 -6 -63 59 -63 72 0 6 5 23 12 39 6 15 11 31 10 35 -1 4 4 5 11 2 7 -2 25 6 39 18 14 13 34 28 44 34 24 14 37 67 31 126 -2 26 0 45 5 42 4 -3 8 4 8 15 0 10 -6 22 -12 25 -10 3 -9 8 3 18 23 19 26 260 4 298 -8 14 -15 21 -15 15 0 -5 -9 1 -20 15 l-20 25 0 -23 c0 -13 -4 -20 -10 -17 -6 4 -13 -7 -16 -24 -4 -18 -13 -31 -21 -31 -11 0 -13 -5 -8 -17 26 -62 37 -253 17 -303 -9 -23 -12 -19 -32 48 l-22 72 20 64 c17 56 17 69 6 102 -11 31 -10 41 1 56 9 15 14 16 18 6 6 -15 7 -9 11 102 1 41 10 104 20 140 13 50 16 95 14 197 -3 122 -9 156 -24 140 -4 -4 -1 -13 6 -22 10 -12 10 -15 0 -15 -9 0 -9 -4 1 -17 13 -16 12 -17 -4 -4 -9 8 -21 10 -25 6 -4 -4 -1 -10 6 -12 6 -3 10 -9 6 -14 -3 -5 0 -8 8 -7 8 2 14 -9 16 -32 l2 -35 -25 30 c-13 16 -27 43 -31 60 -4 16 -11 33 -17 37 -6 4 -8 10 -3 15 4 4 12 0 17 -10 10 -17 39 -24 39 -8 0 5 -7 14 -15 21 -8 6 -13 21 -12 33 1 14 -5 23 -17 25 -13 3 -16 0 -10 -10 4 -7 -2 -5 -13 5 -27 24 -47 22 -40 -4 5 -19 4 -19 -11 -6 -27 23 -37 26 -51 18z m-77 -110 c9 -12 8 -13 -6 -8 -10 3 -20 2 -23 -3 -10 -16 -23 -11 -30 10 -4 11 -10 18 -15 15 -5 -3 -11 -1 -14 4 -4 5 7 9 24 9 17 -1 33 2 37 6 4 4 9 1 12 -6 2 -7 9 -19 15 -27z m34 16 c4 -20 -9 -22 -26 -5 -17 17 -15 27 6 24 9 -2 18 -10 20 -19z m2 -38 c0 -23 -35 -69 -48 -64 -9 3 -12 0 -9 -8 3 -7 -4 -19 -14 -26 -18 -11 -19 -9 -15 16 2 15 5 31 5 36 1 4 8 7 16 7 8 0 15 6 15 13 0 17 20 37 37 37 7 0 13 -5 13 -11z m214 -91 c-3 -4 -2 -14 3 -20 12 -21 12 -39 0 -31 -9 5 -9 3 0 -8 14 -18 11 -57 -11 -132 -18 -62 -38 -72 -44 -23 -2 17 0 26 7 22 5 -4 15 3 21 15 8 13 8 19 2 15 -16 -10 -9 98 7 118 11 13 10 20 -2 45 -14 28 -14 29 3 18 10 -6 16 -15 14 -19z m-28 -313 c0 -37 -9 -39 -12 -2 -1 19 3 37 9 37 1 0 2 -16 3 -35z m4 -60 c0 -8 -2 -15 -4 -15 -2 0 -6 7 -10 15 -3 8 -1 15 4 15 6 0 10 -7 10 -15z m-27 -100 c4 -8 2 -17 -3 -20 -6 -4 -10 -4 -10 -1 0 2 -3 11 -6 20 -3 9 -2 16 4 16 5 0 12 -7 15 -15z m7 -44 c0 -5 -6 -20 -13 -34 -12 -22 -14 -23 -24 -9 -9 14 -10 12 -6 -10 3 -15 2 -40 -2 -55 l-7 -28 -12 24 c-18 33 -10 83 17 103 24 19 47 23 47 9z m-9 -252 c6 -11 8 -23 5 -27 -3 -3 -6 0 -6 6 0 6 -12 23 -27 38 -24 22 -25 24 -6 15 13 -6 28 -21 34 -32z m109 -123 c0 -12 -5 -16 -15 -12 -9 3 -21 -4 -32 -20 -12 -19 -18 -22 -24 -12 -7 10 -9 9 -9 -4 0 -30 -17 -20 -18 10 0 23 3 28 21 27 27 -3 49 13 40 29 -17 26 -11 35 13 18 13 -9 24 -25 24 -36z m-293 -40 c17 -37 17 -51 0 -37 -8 6 -17 8 -20 4 -4 -3 -8 0 -8 8 -1 8 -3 24 -4 36 -3 31 17 24 32 -11z m-67 4 c0 -5 -4 -10 -10 -10 -5 0 -10 5 -10 10 0 6 5 10 10 10 6 0 10 -4 10 -10z m104 -172 c-3 -4 -15 -7 -27 -7 -17 1 -18 2 -4 6 11 3 17 15 18 36 l1 32 8 -29 c5 -16 7 -33 4 -38z m201 -48 c-3 -5 -11 -10 -16 -10 -6 0 -7 5 -4 10 3 6 11 10 16 10 6 0 7 -4 4 -10z m-105 -86 c-18 -20 -127 -14 -114 7 3 5 13 5 24 -1 24 -13 60 -13 60 0 0 6 7 10 15 10 8 0 16 10 16 23 l2 22 4 -23 c3 -13 -1 -30 -7 -38z m-229 1 c18 4 29 3 26 -2 -16 -25 -97 -9 -97 20 0 5 9 2 19 -7 15 -13 28 -16 52 -11z m24 -65 c7 -12 -2 -12 -30 0 -19 8 -19 9 2 9 12 1 25 -3 28 -9z m303 -2 c-2 -6 -10 -13 -16 -14 -9 -2 -9 -1 -1 3 8 4 7 8 -2 14 -11 7 -10 9 4 9 10 0 17 -5 15 -12z"/>
 <path d="M495 2180 c4 -6 11 -8 16 -5 14 9 11 15 -7 15 -8 0 -12 -5 -9 -10z"/>
 <path d="M421 1672 c-14 -27 -12 -35 8 -23 7 5 11 17 9 27 -4 17 -5 17 -17 -4z"/>
 <path d="M339 225 c0 -5 -3 -19 -5 -30 -12 -46 -9 -60 12 -61 11 -1 21 5 21 12 0 7 -4 11 -9 8 -4 -3 -8 6 -8 20 0 20 5 26 23 27 20 1 20 2 2 6 -11 3 -23 10 -27 17 -5 6 -8 7 -9 1z"/>
 </g>
<g id="layer105" fill="#baa29c" stroke="none">
 <path d="M683 2270 c3 -11 1 -20 -4 -20 -5 0 -9 4 -9 9 0 11 -39 25 -47 17 -3 -3 0 -12 7 -21 7 -8 8 -15 2 -15 -5 0 -15 7 -22 15 -15 18 -40 20 -40 3 0 -7 16 -29 36 -48 47 -45 64 -80 74 -149 16 -116 -53 -376 -107 -400 -14 -7 -27 -10 -29 -8 -2 2 0 23 5 48 5 24 9 36 10 27 1 -10 7 -15 14 -13 8 4 12 34 13 98 1 50 5 156 9 235 5 101 4 147 -3 154 -8 8 -11 1 -8 -26 1 -20 -1 -39 -6 -42 -5 -3 -6 -10 -3 -15 4 -5 -1 -12 -9 -15 -9 -3 -16 -13 -16 -21 0 -13 -2 -13 -17 -2 -14 12 -16 12 -11 -2 4 -9 -2 -20 -12 -27 -17 -10 -19 -8 -18 20 1 21 7 32 20 36 10 2 18 10 18 18 0 7 8 19 19 26 17 12 17 15 3 28 -14 13 -15 12 -9 -4 5 -13 3 -17 -7 -13 -7 3 -19 0 -25 -6 -9 -9 -14 -8 -21 3 -15 23 -12 34 5 20 9 -7 15 -8 15 -2 0 14 -28 23 -35 11 -4 -5 -11 -6 -17 -3 -7 4 -6 9 2 14 23 14 -23 29 -81 26 -73 -4 -76 -25 -7 -51 35 -14 58 -30 69 -50 28 -47 43 -194 30 -279 -21 -140 -24 -295 -7 -376 9 -41 16 -90 16 -108 0 -20 6 -35 16 -39 12 -4 11 -8 -8 -17 -29 -15 -35 -63 -12 -108 20 -40 2 -26 -21 17 l-17 30 6 -34 c3 -18 6 -41 6 -50 0 -10 7 -26 15 -37 13 -16 14 -16 9 -1 -3 9 -1 17 5 17 6 0 11 -9 11 -19 0 -24 52 -57 105 -66 35 -6 115 -48 115 -60 0 -6 -31 6 -65 27 -49 29 -84 23 -160 -29 -38 -27 -77 -59 -87 -73 -42 -58 -48 -257 -10 -342 20 -46 87 -112 103 -103 5 4 9 2 9 -3 0 -9 30 -24 78 -37 21 -6 23 -4 18 17 -3 12 -3 17 0 11 3 -7 12 -13 20 -13 8 0 14 -4 14 -9 0 -5 16 -9 36 -9 26 0 33 3 25 11 -26 26 0 38 28 13 13 -11 23 -12 50 -2 44 14 52 34 11 28 -16 -2 -30 -8 -30 -13 0 -5 -7 -6 -16 -2 -14 5 -14 7 -1 14 10 6 13 17 9 31 -4 17 -2 20 11 15 10 -4 17 -2 17 3 0 6 8 10 18 11 15 0 15 1 -2 8 -19 7 -19 8 0 22 30 21 39 40 23 49 -10 7 -10 11 0 24 8 9 21 16 30 16 12 0 13 2 3 9 -7 4 -25 6 -40 3 -24 -5 -26 -4 -13 12 12 14 12 18 -3 29 -16 12 -16 14 3 31 20 18 20 20 4 40 -16 18 -16 19 -1 8 27 -22 55 -6 60 33 2 19 2 32 0 30 -3 -2 -13 7 -24 20 -11 14 -29 25 -41 25 -22 1 -22 1 -3 15 19 15 19 15 -3 15 -12 0 -20 4 -16 10 3 5 -6 17 -20 26 -20 13 -25 24 -24 53 1 20 1 41 -1 46 -5 22 1 27 17 14 14 -12 16 -12 8 0 -6 11 -4 13 8 8 9 -3 26 4 42 19 14 13 30 24 36 24 12 0 12 17 -1 25 -5 3 -17 -6 -26 -20 -13 -20 -19 -23 -26 -13 -7 10 -8 8 -4 -4 3 -12 0 -18 -9 -18 -10 0 -15 10 -15 28 0 24 4 28 23 27 27 -3 49 13 40 29 -17 26 -11 35 13 18 13 -9 24 -26 25 -37 0 -11 5 -2 11 20 5 22 7 63 4 90 -4 34 -2 45 4 35 8 -12 10 -11 10 8 0 12 -4 22 -10 22 -16 0 -12 27 5 33 12 5 14 30 12 140 l-2 134 -32 30 -32 30 5 -31 c5 -30 5 -30 -10 -12 -16 20 -16 20 -18 0 0 -10 0 -27 0 -37 2 -14 -3 -17 -20 -12 -18 6 -20 4 -13 -11 5 -11 15 -57 23 -104 16 -90 7 -199 -18 -224 -9 -8 -11 -7 -9 4 1 8 -6 42 -15 74 -17 56 -17 63 -2 117 19 68 20 103 5 130 -7 15 -7 24 0 33 7 8 10 39 7 75 -2 34 -1 63 3 65 4 3 7 -7 8 -22 0 -15 1 -47 2 -71 2 -76 11 -38 15 60 2 52 6 105 10 119 4 14 -1 8 -10 -13 -18 -42 -34 -44 -45 -4 -5 20 -4 27 7 27 9 0 14 11 14 30 0 17 -4 30 -10 30 -5 0 -10 5 -10 11 0 5 5 7 10 4 6 -3 10 0 11 7 0 7 2 21 4 31 2 9 -1 17 -5 17 -5 0 -4 14 2 30 5 17 7 37 4 45 -4 13 -2 13 14 5 14 -7 20 -7 20 0 0 5 -4 10 -10 10 -5 0 -10 7 -10 15 0 8 -4 15 -9 15 -5 0 -11 10 -13 23 -2 12 -9 21 -16 20 -6 -2 -12 1 -12 6 0 15 29 33 45 27 19 -7 19 1 1 20 -19 18 -26 18 -26 -1 0 -18 -17 -19 -34 -2 -11 10 -10 15 2 27 14 13 15 12 9 -3 -7 -20 4 -22 21 -5 15 15 16 48 2 48 -5 0 -10 -5 -10 -11 0 -5 -10 -3 -22 5 -30 21 -41 20 -35 -4z m3 -97 c11 -12 13 -18 5 -21 -13 -4 -41 16 -41 29 0 14 17 10 36 -8z m-115 -160 c-9 -17 -10 -17 -16 0 -4 9 -4 25 0 35 6 16 7 16 16 0 7 -12 7 -24 0 -35z m-13 -147 c-1 -14 -5 -23 -9 -20 -7 4 0 44 7 44 2 0 3 -11 2 -24z m294 -238 c-7 -7 -12 -8 -12 -2 0 14 12 26 19 19 2 -3 -1 -11 -7 -17z m22 -34 c4 -9 4 -19 1 -22 -3 -3 -5 0 -5 7 0 7 -4 10 -9 7 -5 -3 -11 1 -15 9 -3 9 0 15 8 15 8 0 17 -7 20 -16z m-131 -9 c4 -8 2 -17 -3 -20 -6 -4 -10 -4 -10 -1 0 2 -3 11 -6 20 -3 9 -2 16 4 16 5 0 12 -7 15 -15z m7 -44 c0 -5 -6 -20 -13 -34 -12 -22 -14 -23 -24 -9 -9 14 -10 12 -6 -10 3 -15 2 -40 -2 -55 l-7 -28 -12 24 c-18 33 -10 83 17 103 24 19 47 23 47 9z m80 -11 c0 -5 -4 -10 -10 -10 -5 0 -10 5 -10 10 0 6 5 10 10 10 6 0 10 -4 10 -10z m-112 -216 c34 -23 46 -52 30 -71 -11 -14 -14 -12 -18 18 -4 27 -13 38 -40 51 -25 13 -29 18 -15 18 11 0 31 -7 43 -16z m-90 -128 c-2 -1 -12 -8 -23 -16 -18 -14 -19 -14 -6 2 11 15 11 19 -3 24 -9 3 -13 10 -10 16 3 5 14 2 25 -8 11 -9 18 -18 17 -18z m-74 -26 c-5 -21 -2 -31 9 -35 9 -4 13 -14 10 -26 -4 -14 -9 -17 -18 -9 -6 5 -15 7 -18 3 -8 -7 -9 -2 -12 39 -1 15 1 25 6 23 4 -3 10 4 14 15 10 30 15 24 9 -10z m102 -28 c16 4 54 -13 54 -24 0 -7 -4 -7 -12 -1 -7 5 -24 9 -38 9 -24 -1 -40 10 -40 28 0 5 6 3 14 -3 8 -6 18 -11 22 -9z m84 -33 c0 -6 -4 -7 -10 -4 -5 3 -10 11 -10 16 0 6 5 7 10 4 6 -3 10 -11 10 -16z m-137 -120 c34 3 37 -2 7 -15 -35 -15 -115 -11 -105 6 3 5 18 5 34 0 35 -10 41 -5 42 29 1 25 1 25 7 3 4 -13 10 -23 15 -23z m97 -114 c0 -40 -3 -45 -27 -52 -24 -6 -57 -7 -93 -4 -5 1 -10 8 -10 16 0 18 34 27 83 21 36 -4 37 -4 37 30 0 19 2 34 5 34 3 0 5 -20 5 -45z m115 15 c4 -6 -1 -7 -11 -3 -14 5 -16 3 -10 -13 5 -14 4 -16 -5 -7 -12 12 -5 33 11 33 5 0 12 -4 15 -10z m-377 -59 c14 0 13 2 -3 9 -15 7 -11 8 17 7 24 -1 38 -7 38 -15 0 -9 -14 -12 -47 -10 -43 3 -48 6 -51 28 l-3 25 16 -22 c9 -13 24 -23 33 -22z m392 -14 c10 -4 8 -6 -7 -6 -12 -1 -24 3 -27 8 -7 11 6 24 13 13 3 -5 13 -12 21 -15z m-371 -37 c11 0 23 -4 26 -10 9 -15 -58 0 -75 17 -13 14 -13 14 7 4 12 -6 31 -11 42 -11z m187 -8 c-2 -1 -22 0 -45 4 -24 4 -38 10 -31 14 10 6 83 -11 76 -18z m142 -4 c-2 -6 -10 -13 -16 -14 -9 -2 -9 -1 -1 3 8 4 7 8 -2 14 -11 7 -10 9 4 9 10 0 17 -5 15 -12z m-275 -112 c18 -14 24 -56 7 -56 -6 0 -24 7 -40 15 -43 22 -39 45 10 54 3 0 13 -6 23 -13z"/>
 <path d="M605 830 c3 -5 17 -10 31 -10 14 0 22 4 19 10 -3 6 -17 10 -31 10 -14 0 -22 -4 -19 -10z"/>
 <path d="M486 641 c-4 -5 -2 -12 3 -15 5 -4 12 -2 15 3 4 5 2 12 -3 15 -5 4 -12 2 -15 -3z"/>
 <path d="M812 2150 c0 -19 2 -27 5 -17 2 9 2 25 0 35 -3 9 -5 1 -5 -18z"/>
 <path d="M811 2065 c-2 -11 -3 -24 -2 -29 1 -4 -3 -14 -9 -21 -8 -9 -8 -15 0 -20 5 -3 8 -18 5 -32 -3 -18 -1 -23 6 -16 5 5 8 39 6 74 -2 35 -5 55 -6 44z"/>
 <path d="M416 1664 c-9 -22 -8 -24 9 -18 8 4 15 12 15 20 0 19 -16 18 -24 -2z"/>
 <path d="M417 1620 c-11 -16 -17 -43 -17 -78 0 -62 30 -262 39 -262 12 0 32 55 21 58 -6 2 -6 10 -1 20 5 10 3 42 -5 77 -7 33 -13 77 -13 98 -1 23 -5 36 -11 32 -13 -8 -13 1 1 26 5 11 9 28 7 37 -3 14 -6 13 -21 -8z"/>
 <path d="M862 787 c2 -12 10 -27 18 -33 11 -9 11 -15 3 -25 -8 -11 -8 -17 2 -26 19 -17 24 2 13 54 -9 44 -42 72 -36 30z"/>
 <path d="M887 673 c-3 -5 -1 -17 3 -27 6 -17 7 -18 13 -3 4 10 1 17 -6 17 -8 0 -6 4 3 10 9 6 10 10 3 10 -6 0 -14 -3 -16 -7z"/>
 <path d="M880 601 c0 -25 6 -27 13 -6 4 8 2 17 -3 20 -6 4 -10 -3 -10 -14z"/>
 <path d="M804 505 c22 -17 40 -20 32 -6 -3 5 -16 11 -28 14 -22 6 -22 5 -4 -8z"/>
 </g>
<g id="layer106" fill="#e2d7ce" stroke="none">
 <path d="M686 2281 c-3 -5 1 -14 8 -20 12 -10 13 -8 9 8 -6 23 -9 25 -17 12z"/>
 <path d="M630 2262 c6 -13 14 -21 18 -18 3 4 -2 14 -12 24 -18 16 -18 16 -6 -6z"/>
 <path d="M570 2254 c0 -3 16 -20 35 -38 l34 -33 36 17 c30 14 34 19 22 29 -10 8 -22 8 -39 2 -19 -7 -33 -5 -57 10 -17 10 -31 16 -31 13z"/>
 <path d="M320 2212 c0 -5 7 -13 16 -16 10 -4 14 -1 12 6 -5 15 -28 23 -28 10z"/>
 <path d="M381 2191 c-22 -6 -22 -7 12 -23 48 -23 67 -55 74 -122 8 -80 18 -69 17 19 -1 69 -4 79 -29 105 -30 31 -34 32 -74 21z"/>
 <path d="M694 2185 c-3 -8 -2 -19 2 -26 5 -9 0 -10 -19 -5 -21 5 -25 3 -21 -9 4 -8 9 -15 13 -15 8 0 15 -54 15 -120 1 -76 -11 -142 -34 -200 -12 -30 -27 -71 -32 -90 -12 -43 -91 -122 -96 -96 -2 9 1 31 7 49 6 17 9 41 6 52 -2 11 -4 28 -4 38 -1 10 -5 16 -10 12 -13 -7 -26 16 -14 24 6 4 3 21 -7 44 -23 51 -27 38 -41 -129 -9 -115 -9 -150 5 -237 24 -146 27 -158 36 -152 12 7 41 -5 35 -15 -3 -5 -13 -6 -24 -3 -23 6 -51 -22 -51 -50 1 -12 7 -33 15 -47 22 -38 18 -59 -5 -25 l-20 30 0 -33 c0 -20 4 -31 10 -27 6 3 10 2 10 -2 0 -5 9 -9 20 -9 13 0 19 5 15 14 -3 9 1 12 15 7 11 -4 20 -2 20 4 0 6 -8 11 -17 12 -14 0 -13 2 5 9 12 5 28 7 36 4 9 -4 16 2 18 16 3 21 4 21 36 -8 37 -33 40 -42 12 -35 -40 10 -60 -55 -30 -92 7 -8 21 -15 31 -15 10 0 21 -4 24 -10 9 -14 31 -12 33 3 0 6 4 23 8 36 6 20 4 23 -9 18 -10 -4 -17 -2 -17 3 0 14 -27 12 -33 -2 -3 -8 -6 -7 -6 4 -1 9 -6 20 -13 24 -7 5 -8 3 -3 -6 6 -9 4 -11 -4 -5 -9 5 -10 10 -2 18 9 9 17 8 31 -1 16 -10 18 -9 14 3 -4 8 -1 15 6 15 6 0 9 4 6 9 -3 5 1 11 9 15 8 3 17 0 21 -6 4 -7 3 -8 -4 -4 -7 4 -12 3 -12 -2 0 -6 7 -12 15 -16 9 -3 12 -12 9 -23 -4 -13 -3 -15 4 -5 5 8 12 13 16 13 20 -3 25 1 19 15 -3 9 -12 13 -22 9 -12 -5 -13 -4 -4 6 10 10 16 9 29 -2 13 -11 18 -11 21 -1 3 6 10 9 16 5 6 -4 8 0 4 10 -3 10 -2 17 3 17 5 0 13 12 16 28 4 15 13 34 21 43 14 17 8 53 -8 43 -5 -3 -9 0 -9 5 0 6 4 11 10 11 5 0 11 15 14 33 3 17 8 48 12 67 12 68 6 190 -9 190 -4 0 -13 12 -19 28 l-12 27 -5 -40 c-4 -25 -9 -35 -14 -27 -13 19 -29 15 -18 -5 11 -22 31 -148 31 -198 0 -53 -31 -174 -44 -172 -6 1 -12 -8 -14 -20 -2 -13 -9 -23 -16 -23 -10 0 -11 10 -6 39 6 31 3 40 -12 50 -10 6 -16 15 -14 20 7 11 -45 11 -66 0 -20 -11 -26 5 -7 16 6 4 8 14 4 23 -3 9 -3 14 0 10 4 -3 15 2 25 12 9 9 23 19 29 21 7 3 5 20 -8 54 -34 92 -35 97 -14 93 20 -4 43 45 43 93 0 15 6 32 14 38 12 10 12 19 0 64 -9 33 -10 55 -4 61 15 15 12 49 -6 74 -11 15 -12 22 -3 22 7 0 9 3 6 7 -4 3 -2 12 3 19 6 6 10 16 9 20 -3 20 2 35 10 29 10 -6 24 11 27 33 1 6 -2 12 -7 12 -4 0 -6 6 -3 14 3 8 -3 19 -14 25 -14 7 -18 18 -15 36 3 15 10 22 17 18 6 -4 4 2 -4 12 -11 14 -12 19 -2 22 17 6 15 32 -3 39 -12 5 -13 10 -4 20 9 11 8 14 -5 14 -9 0 -19 -7 -22 -15z m-169 -465 c1 -11 -4 -25 -11 -31 -9 -7 -12 -1 -11 30 2 40 19 41 22 1z m305 -190 c0 -5 -4 -10 -10 -10 -5 0 -10 5 -10 10 0 6 5 10 10 10 6 0 10 -4 10 -10z m-260 -139 c0 -21 -13 -4 -17 22 -2 17 -1 19 7 7 5 -8 10 -21 10 -29z"/>
 <path d="M480 1920 c0 -11 10 -31 21 -43 l21 -22 -12 24 c-10 19 -9 25 0 31 9 6 7 11 -9 19 -18 10 -21 9 -21 -9z"/>
 <path d="M726 1914 c-4 -9 -4 -19 -1 -22 2 -3 7 3 11 12 4 9 4 19 1 22 -2 3 -7 -3 -11 -12z"/>
 <path d="M426 1671 c-4 -7 -5 -15 -2 -18 9 -9 19 4 14 18 -4 11 -6 11 -12 0z"/>
 <path d="M410 1604 c-14 -36 -12 -90 6 -210 17 -110 33 -140 28 -51 -2 28 -4 86 -5 127 -1 41 -6 80 -10 86 -5 6 -4 25 1 42 11 39 -6 44 -20 6z"/>
 <path d="M663 1356 c-4 -5 0 -6 7 -1 10 6 12 4 7 -8 -5 -14 0 -17 22 -17 24 0 28 4 24 19 -5 20 -49 25 -60 7z"/>
 <path d="M730 1120 c0 -5 5 -10 10 -10 6 0 10 5 10 10 0 6 -4 10 -10 10 -5 0 -10 -4 -10 -10z"/>
 <path d="M510 1090 c8 -5 20 -10 25 -10 6 0 3 5 -5 10 -8 5 -19 10 -25 10 -5 0 -3 -5 5 -10z"/>
 <path d="M504 1004 c-76 -46 -92 -60 -116 -108 -28 -55 -31 -240 -5 -307 23 -61 107 -138 107 -99 0 6 -6 10 -14 10 -13 0 -30 39 -21 49 3 2 15 -5 28 -17 13 -12 27 -22 31 -22 4 0 22 -10 39 -22 17 -12 38 -24 47 -25 58 -10 80 -11 75 -3 -4 6 -3 10 2 10 14 0 31 47 22 62 -13 20 -11 38 5 38 8 0 17 6 19 13 4 9 7 9 15 -1 7 -11 12 -10 26 3 9 9 14 21 10 26 -3 6 0 16 6 24 7 8 9 22 6 31 -4 9 -1 23 5 30 9 11 8 14 -5 14 -9 0 -16 5 -16 11 0 8 -4 8 -12 1 -10 -8 -13 0 -13 34 -1 51 14 61 51 37 23 -14 27 -15 41 -1 13 14 12 15 -10 11 -24 -5 -46 12 -32 25 3 3 10 1 14 -6 7 -12 41 -7 41 7 0 4 -15 11 -32 16 -34 10 -52 45 -24 45 9 0 15 -3 15 -7 -3 -20 2 -33 12 -33 8 0 9 4 0 13 -6 8 -8 17 -4 20 12 13 -28 19 -42 7 -10 -9 -15 -9 -15 -1 0 6 -8 11 -17 11 -12 0 -14 3 -6 8 7 4 11 17 10 29 0 12 -4 20 -8 17 -4 -2 -9 0 -11 5 -5 16 -121 81 -143 81 -12 0 -48 -16 -81 -36z m112 -20 c24 -6 24 -6 -8 -24 -18 -10 -37 -16 -43 -15 -5 2 -22 6 -37 9 -44 10 -33 25 15 20 31 -3 37 -2 22 5 -17 8 -18 10 -2 10 9 1 18 9 18 19 1 16 2 16 6 0 2 -10 15 -21 29 -24z m88 -43 c3 -5 -3 -11 -14 -14 -20 -5 -26 3 -13 16 9 10 21 9 27 -2z m-10 -120 c-18 -20 -114 -23 -121 -4 -8 20 14 33 57 33 26 0 31 3 20 10 -9 6 -10 10 -3 10 6 0 15 -4 18 -10 12 -20 25 -9 26 23 2 30 2 30 8 -8 5 -26 3 -45 -5 -54z m-191 65 c18 0 23 -21 7 -31 -5 -3 -10 -2 -10 3 0 5 -13 12 -30 16 -16 3 -30 10 -30 16 0 7 8 9 23 4 12 -4 30 -8 40 -8z m-70 -42 c18 0 40 -3 51 -7 29 -11 3 -33 -38 -31 -46 2 -56 10 -55 42 1 15 3 20 6 12 2 -10 15 -16 36 -16z m54 -91 c5 -13 -62 8 -79 25 -7 7 4 6 33 -2 23 -7 45 -18 46 -23z m153 17 c30 -7 31 -8 9 -9 -41 -2 -89 10 -83 21 3 5 13 6 23 2 9 -4 32 -10 51 -14z m-17 -67 c9 -9 -13 -34 -24 -27 -14 8 -11 34 4 34 8 0 17 -3 20 -7z m-68 -71 c17 -10 18 -11 3 -12 -12 0 -18 -8 -18 -25 0 -25 0 -25 -31 -10 -24 13 -34 14 -45 4 -8 -6 -14 -10 -15 -8 -9 60 -5 79 20 87 20 7 31 5 46 -8 11 -9 29 -22 40 -28z"/>
 <path d="M620 830 c0 -6 7 -10 15 -10 8 0 15 2 15 4 0 2 -7 6 -15 10 -8 3 -15 1 -15 -4z"/>
 <path d="M540 450 c8 -5 22 -9 30 -9 10 0 8 3 -5 9 -27 12 -43 12 -25 0z"/>
 </g>

</svg>